<?xml version="1.0" encoding="utf-8"?>
<!-- Generator: Adobe Illustrator 26.0.1, SVG Export Plug-In . SVG Version: 6.00 Build 0)  -->
<svg version="1.1" id="Layer_1" xmlns="http://www.w3.org/2000/svg" xmlns:xlink="http://www.w3.org/1999/xlink" x="0px" y="0px"
	 viewBox="0 0 27 27" style="enable-background:new 0 0 27 27;" xml:space="preserve">
<style type="text/css">
	.st0{fill:#FFFFFF;}
	.st1{fill:#19BED1;}
</style>
<g>
	<circle class="st0" cx="13.5" cy="13.5" r="13.5"/>
	<path class="st1" d="M3.8,13.3C3.9,13,4,12.6,4.3,12.4c0.7-0.6,1.5-0.5,2.2,0.1c1.4,1.4,2.7,2.7,4.1,4.1c0.1,0.1,0.1,0.1,0.2,0.2
		c0.1-0.1,0.1-0.2,0.2-0.2c3.2-3.2,6.3-6.3,9.5-9.5c0.5-0.5,1-0.6,1.7-0.4c1,0.3,1.4,1.6,0.7,2.4c-0.1,0.1-0.2,0.2-0.2,0.3
		c-3.6,3.6-7.1,7.1-10.7,10.7c-0.5,0.5-1,0.7-1.7,0.5c-0.2-0.1-0.5-0.2-0.6-0.4c-1.8-1.8-3.6-3.5-5.3-5.3c-0.3-0.3-0.4-0.6-0.5-1
		C3.8,13.6,3.8,13.4,3.8,13.3z"/>
</g>
</svg>
