<?xml version="1.0" encoding="utf-8"?>
<!-- Generator: Adobe Illustrator 23.0.5, SVG Export Plug-In . SVG Version: 6.00 Build 0)  -->
<svg version="1.1" id="Layer_1" xmlns="http://www.w3.org/2000/svg" xmlns:xlink="http://www.w3.org/1999/xlink" x="0px" y="0px"
	 viewBox="0 0 39 41" style="enable-background:new 0 0 39 41;" xml:space="preserve">
<style type="text/css">
	.st0{fill:#FEA92A;}
	.st1{fill:#24153E;}
</style>
<path class="st0" d="M32.1,35.6c-1.2,0-2.1-0.6-2.7-1.6c-0.1-0.2-0.2-0.3-0.5-0.3c-1.6,0-3.3,0-4.9,0c-0.2,0-0.3,0.1-0.4,0.3
	c-0.7,1.4-1.8,2.2-3.4,2.2c-1.6,0-2.8-0.8-3.5-2.2c-0.1-0.2-0.2-0.3-0.4-0.3c-1.6,0-3.3,0-4.9,0c-0.2,0-0.3,0.1-0.5,0.3
	c-0.8,1.4-2.4,2-3.9,1.4c-1.5-0.6-2.3-2.1-2-3.6c0.3-1.5,1.7-2.6,3.3-2.5c1.1,0.1,2,0.6,2.5,1.6c0.1,0.2,0.2,0.3,0.5,0.3
	c1.6,0,3.3,0,4.9,0c0.3,0,0.4-0.1,0.5-0.3c0.7-1.4,1.8-2.2,3.4-2.2c1.6,0,2.7,0.8,3.4,2.2c0.1,0.2,0.2,0.3,0.5,0.3
	c1.6,0,3.3,0,4.9,0c0.2,0,0.4-0.1,0.5-0.3c0.7-1.3,2.2-1.9,3.7-1.5c1.4,0.4,2.3,1.7,2.3,3.2c-0.1,1.5-1.1,2.7-2.6,3
	C32.4,35.6,32.2,35.6,32.1,35.6z M20,31.2c-0.7,0-1.3,0.6-1.3,1.3c0,0.7,0.6,1.3,1.3,1.3c0.7,0,1.2-0.6,1.3-1.2
	C21.3,31.8,20.8,31.2,20,31.2z"/>
<path class="st1" d="M20,26.8c-0.7-0.7-1.5-1.4-2.2-2c-1.3-1.2-2.6-2.3-3.8-3.5c-2.6-2.6-3.5-5.7-2.4-9.2c1.1-3.5,3.6-5.6,7.3-6.1
	c4.9-0.7,9.4,2.8,10,7.8c0.3,2.8-0.6,5.3-2.6,7.3c-2,1.9-4,3.7-6,5.6C20.2,26.7,20.1,26.7,20,26.8z M20,23.3
	c0.1-0.1,0.2-0.2,0.3-0.3c1.3-1.2,2.7-2.5,4-3.7c2.1-1.9,2.6-5.1,1.3-7.6c-1.4-2.6-4.3-3.9-7.1-3.1c-2.3,0.6-3.9,2.1-4.6,4.5
	c-0.6,2.3-0.1,4.3,1.5,6C16.9,20.6,18.5,21.9,20,23.3z"/>
<path class="st0" d="M20.1,10.9c2.2,0.1,3.8,1.8,3.7,4c-0.1,2-1.8,3.7-3.9,3.6c-2.1-0.1-3.8-1.8-3.7-4
	C16.3,12.6,18.1,10.9,20.1,10.9z M18.8,14.7c0,0.7,0.6,1.3,1.3,1.3c0.7,0,1.3-0.6,1.3-1.3c0-0.7-0.6-1.2-1.3-1.2
	C19.3,13.5,18.8,14,18.8,14.7z"/>
</svg>
