<?xml version="1.0" encoding="utf-8"?>
<!-- Generator: Adobe Illustrator 23.0.5, SVG Export Plug-In . SVG Version: 6.00 Build 0)  -->
<svg version="1.1" id="Layer_1" xmlns="http://www.w3.org/2000/svg" xmlns:xlink="http://www.w3.org/1999/xlink" x="0px" y="0px"
	 viewBox="0 0 49 51" style="enable-background:new 0 0 49 51;" xml:space="preserve">
<style type="text/css">
	.st0{fill:#FFFAE6;}
	.st1{fill:#231539;}
	.st2{fill:#FBB442;}
</style>
<circle class="st0" cx="32.5" cy="31.5" r="15.5"/>
<path class="st1" d="M1,37.9c0-0.1,0.1-0.2,0.1-0.3c0.3-1.1,1.1-1.8,2.2-2.1c0.2-0.1,0.3-0.1,0.4-0.4c0.8-2.8,1.6-5.5,2.4-8.3
	c0.5-1.7,0.7-1.9,2.2-2.7c0-0.6-0.1-1.3,0-1.9c0.2-1.1,0.9-2,2-2.5c0.2-0.1,0.3-0.2,0.3-0.4c0.1-1.7,1.2-3.1,2.8-3.5
	c1.6-0.4,3.2,0.3,4.1,1.8c0,0.1,0.1,0.1,0.1,0.2c1-0.5,2.1-0.6,3.1-0.1c1.1-1.6,2.5-2.3,4.4-1.7c1.7,0.5,2.5,1.9,2.6,3.7
	c1.2-0.1,2.3,0.3,3.1,1.2c0.8,0.9,1.1,2.1,0.8,3.3c0.1,0,0.1,0.1,0.2,0.1c0.9,0.4,1.5,1,1.8,1.9c0.9,3,1.8,5.9,2.7,8.9
	c0.1,0.2,0.2,0.4,0.4,0.4c1.3,0.3,2.3,1.4,2.2,2.8c0,0.6-0.1,1.2-0.3,1.7c-0.4,1-1.3,1.6-2.4,1.7c-0.2,0-0.3,0-0.5,0
	c-10.4,0-20.8,0-31.2,0c-2.1,0-2.8-0.5-3.5-2.5C1,38.8,1,38.4,1,37.9z M34.9,35.5c0-0.1-0.1-0.3-0.1-0.4c-0.8-2.7-1.6-5.4-2.4-8.2
	c-0.3-1-0.7-1.3-1.7-1.3c-7,0-14.1,0-21.1,0c-1,0-1.5,0.3-1.7,1.3c-0.6,2.2-1.3,4.4-1.9,6.6c-0.2,0.6-0.4,1.3-0.6,1.9
	C15.2,35.5,25,35.5,34.9,35.5z M20,40.2c5.3,0,10.7,0,16,0c0.7,0,1.3-0.3,1.5-0.9c0.2-0.7,0.2-1.6-0.4-2C36.7,37,36.3,37,35.9,37
	c-10.5,0-21.1,0-31.6,0c-0.1,0-0.3,0-0.4,0c-0.6,0.1-1,0.4-1.2,0.9c-0.3,1.2,0.1,2.3,1.6,2.3C9.5,40.2,14.8,40.2,20,40.2z
	 M20.2,24.2c3.2,0,6.4,0,9.5,0c0.6,0,0.6,0,0.7-0.7c0.1-1.7-1.6-2.8-3.2-2c-0.2,0.1-0.5,0.2-0.7,0.1c-0.5-0.1-0.7-0.6-0.4-1.2
	c0.5-1.2-0.1-2.5-1.3-2.9c-1.2-0.4-2.5,0.2-2.8,1.4c-0.2,0.8-0.7,0.9-1.4,0.5c-0.9-0.6-1.9-0.5-2.7,0.2c-0.3,0.2-0.5,0.4-0.9,0.3
	c-0.4-0.1-0.5-0.4-0.5-0.8c-0.2-1.2-1.4-1.9-2.5-1.7c-1.2,0.2-2,1.3-1.8,2.5c0.1,0.8,0,1-0.7,1.2c-1.2,0.3-1.9,1.5-1.5,2.7
	c0.1,0.3,0.2,0.4,0.5,0.4C13.7,24.2,16.9,24.2,20.2,24.2z"/>
<path class="st2" d="M8.6,13.9c-0.1-0.2-0.2-0.3-0.3-0.4C8.2,13,8,12.5,7.8,12c-0.1-0.2-0.2-0.3-0.4-0.4C7,11.4,6.6,11.3,6.2,11
	C6.1,11,6,10.8,6,10.7c0-0.1,0.1-0.3,0.3-0.3C6.6,10.2,7,10,7.4,9.9c0.3-0.1,0.4-0.3,0.5-0.5C8,8.9,8.1,8.5,8.3,8.1
	C8.4,8,8.5,7.9,8.6,7.7C8.7,7.9,8.9,8,8.9,8.1C9.1,8.6,9.2,9,9.4,9.4c0.1,0.2,0.2,0.3,0.4,0.4c0.4,0.2,0.8,0.4,1.2,0.6
	c0.1,0.1,0.3,0.2,0.3,0.3c0,0.1-0.1,0.2-0.3,0.3c-0.4,0.2-0.8,0.4-1.2,0.6c-0.1,0.1-0.3,0.2-0.4,0.4c-0.2,0.5-0.3,1-0.5,1.5
	C8.9,13.6,8.8,13.7,8.6,13.9z"/>
<path class="st2" d="M27.7,10.9c-0.1-0.2-0.2-0.2-0.2-0.3c-0.1-0.3-0.2-0.6-0.3-0.9c-0.1-0.2-0.2-0.4-0.4-0.5
	c-0.2-0.2-0.5-0.2-0.8-0.4c-0.1,0-0.2-0.1-0.2-0.2c0-0.1,0.1-0.2,0.2-0.2c0,0,0,0,0.1,0c0.9-0.2,1.3-0.8,1.5-1.6
	c0-0.1,0.2-0.2,0.2-0.3c0.1,0.1,0.2,0.2,0.3,0.3c0,0,0,0,0,0.1c0.1,0.8,0.6,1.3,1.4,1.6c0.1,0,0.2,0.2,0.3,0.3
	c-0.1,0.1-0.2,0.3-0.3,0.3c-0.8,0.2-1.3,0.8-1.4,1.6C27.9,10.6,27.8,10.7,27.7,10.9z"/>
<path class="st2" d="M19.6,12.1c0,0.7-0.6,1.3-1.4,1.3c-0.7,0-1.3-0.6-1.3-1.3c0-0.7,0.6-1.3,1.3-1.3C19,10.8,19.6,11.4,19.6,12.1z"
	/>
<path class="st2" d="M31,12.8c0.3,0,0.6,0.2,0.6,0.5c0,0.3-0.2,0.6-0.6,0.6c-0.3,0-0.6-0.3-0.6-0.6C30.4,13.1,30.6,12.8,31,12.8z"/>
<path class="st2" d="M14.5,30.6c-0.9-1.4-0.1-2.8,0.8-3.2c1.2-0.6,2.4,0,3,1.6c1.1,0,2.2,0,3.3,0c0-0.1,0.1-0.2,0.1-0.3
	c0.4-1.2,1.7-1.7,2.8-1.3c1.1,0.5,1.6,1.9,1,3c-0.1,0.2-0.1,0.3,0,0.6c0.6,1.1,0.1,2.5-1,3c-1.1,0.5-2.4-0.1-2.8-1.2
	c-0.1-0.3-0.2-0.4-0.5-0.4c-0.9,0-1.8,0-2.7,0c-0.2,0-0.3,0-0.3,0.2c-0.3,0.9-0.8,1.4-1.7,1.5c-0.9,0.1-1.6-0.2-2.1-0.9
	C14,32.3,14,31.5,14.5,30.6C14.5,30.7,14.5,30.7,14.5,30.6z M25.1,29.4c-0.1-0.7-0.6-1.2-1.2-1.3c-0.7,0-1.2,0.4-1.3,1.1
	c-0.1,0.5-0.1,0.6-0.7,0.6c-1.2,0-2.4,0-3.6,0c-0.7,0-0.7,0-0.8-0.7c-0.1-0.5-0.5-1-1-1c-0.5-0.1-1,0.1-1.3,0.6
	c-0.3,0.5-0.2,1,0.2,1.4c0.4,0.4,0.4,0.5,0,0.9c-0.3,0.4-0.4,0.8-0.2,1.3c0.2,0.5,0.6,0.7,1.1,0.7c0.7,0,1.2-0.5,1.2-1.2
	c0-0.3,0.2-0.5,0.5-0.6c1.4,0,2.7,0,4.1,0c0.3,0,0.5,0.2,0.5,0.5c0,0.2,0,0.4,0.1,0.5c0.2,0.5,0.6,0.7,1.1,0.8c0.5,0,1-0.2,1.2-0.7
	c0.2-0.5,0.1-0.9-0.2-1.3c-0.4-0.4-0.4-0.5,0-0.9C24.9,29.9,25,29.6,25.1,29.4z"/>
<path class="st1" d="M9.9,30.4c-0.1,0.5-0.2,1.1-0.3,1.6c-0.1,0.4-0.5,0.6-0.8,0.5c-0.4-0.1-0.6-0.4-0.6-0.8
	c0.1-0.6,0.2-1.1,0.3-1.7c0.1-0.4,0.5-0.6,0.8-0.5C9.7,29.7,9.9,30,9.9,30.4z"/>
<path class="st1" d="M10.6,27.6c-0.1,0.2-0.1,0.4-0.2,0.7c-0.1,0.3-0.5,0.4-0.9,0.3c-0.3-0.1-0.6-0.4-0.5-0.8c0-0.2,0.1-0.5,0.2-0.7
	c0.1-0.3,0.5-0.5,0.8-0.4C10.4,26.9,10.6,27.2,10.6,27.6z"/>
<path class="st1" d="M14.8,19.3c0,0.4-0.4,0.8-0.8,0.7c-0.4,0-0.7-0.4-0.7-0.8c0-0.4,0.3-0.7,0.8-0.7C14.5,18.5,14.8,18.9,14.8,19.3
	z"/>
<path class="st1" d="M24.3,22.4c0,0.2,0.1,0.3,0,0.5c-0.1,0.2-0.2,0.3-0.4,0.4c-0.2,0.1-0.4-0.1-0.5-0.4c0-0.3,0-0.7,0-1
	c0-0.3,0.2-0.4,0.5-0.4c0.3,0,0.4,0.2,0.4,0.4C24.4,22.1,24.3,22.3,24.3,22.4C24.3,22.4,24.3,22.4,24.3,22.4z"/>
<path class="st1" d="M21,21.7c0,0.2,0,0.3,0,0.5c0,0.3-0.2,0.4-0.4,0.4c-0.3,0-0.4-0.1-0.4-0.4c0-0.3,0-0.7,0-1
	c0-0.3,0.2-0.4,0.5-0.4c0.3,0,0.4,0.2,0.4,0.4C21,21.4,21,21.6,21,21.7z"/>
</svg>
