<?xml version="1.0" encoding="utf-8"?>
<!-- Generator: Adobe Illustrator 23.0.5, SVG Export Plug-In . SVG Version: 6.00 Build 0)  -->
<svg version="1.1" id="Layer_1" xmlns="http://www.w3.org/2000/svg" xmlns:xlink="http://www.w3.org/1999/xlink" x="0px" y="0px"
	 viewBox="0 0 49 51" style="enable-background:new 0 0 49 51;" xml:space="preserve">
<style type="text/css">
	.st0{fill:#FFFAE6;}
	.st1{fill:#23143D;}
	.st2{fill:#FBB344;}
	.st3{fill:#FFFFFF;}
</style>
<circle class="st0" cx="33.5" cy="31.5" r="15.5"/>
<path class="st1" d="M1.1,29.9c0.1-0.3,0.1-0.7,0.2-1c0.2-0.8,0.6-1.4,1.2-2c0.4-0.3,0.7-0.3,1,0c0.3,0.3,0.2,0.7-0.2,1
	c-0.7,0.7-0.9,1.5-0.9,2.5c0,0.3,0.1,0.6,0.1,0.9c0.2-0.3,0.4-0.5,0.6-0.7c0.4-0.3,0.8-0.6,1.2-0.9c0.3-0.2,0.7-0.1,0.9,0.2
	c0.2,0.3,0.1,0.6-0.3,0.9c-0.3,0.2-0.7,0.5-1,0.8c-1.2,1.3-1,3.2,0.4,4.3c0.5,0.4,0.9,0.9,0.9,1.6c0,0.3,0,0.7-0.1,1
	c-0.2,0.6-0.5,1.3-0.7,1.9c-0.2,0.5,0,1,0.4,1.3c0.5,0.3,1,0.1,1.3-0.4c0.6-0.9,1.2-1.7,1.7-2.6c0.7-1.3,0.8-2.7,0.5-4.1
	c0-0.1,0-0.2-0.1-0.3c0-0.3,0.2-0.6,0.5-0.7C9,33.5,9.3,33.7,9.4,34c0.1,0.2,0.1,0.3,0.1,0.5c1.5-0.6,2.9-1.1,4.4-1.7
	c-0.2-0.1-0.3-0.1-0.4-0.2c-0.3-0.2-0.4-0.5-0.3-0.8c0.1-0.3,0.4-0.5,0.8-0.4c2.6,0.8,5.2,0.5,7.7-0.3c0.4-0.1,0.7-0.3,1.1-0.4
	c0.6-0.2,0.8-0.8,0.6-1.3c-0.2-0.5-0.7-0.8-1.3-0.7c-0.9,0.2-1.9,0.5-2.8,0.7c-1.5,0.3-2.8-0.5-3.2-2c0-0.1-0.2-0.2-0.2-0.3
	c0,0-0.1,0-0.1,0c-0.4-0.2-0.8-0.3-1.2,0.1c-0.7,0.6-2,0.6-3-0.3c-0.4,0.3-0.9,0.5-1.4,0.8c-0.1,0.1-0.2,0.1-0.3,0.2
	C9.5,28.1,9.2,28,9,27.7c-0.2-0.3-0.1-0.7,0.3-0.9c0.4-0.3,0.9-0.5,1.3-0.8c0.1-0.1,0.2-0.1,0.2-0.1c-0.2-0.6-0.4-1.1-0.5-1.6
	c-0.2-1.2,0.2-2.3,1.2-3c0.8-0.6,1.6-1.1,2.5-1.3c0.9-0.2,1.7-0.1,2.5,0.3c0.5,0.2,0.9,0.2,1.4,0c0.5-0.3,1.2-0.2,1.6,0.3
	c0.6,0.7,1.1,1.5,1,2.4c0,1-0.4,1.7-1.2,2.2c-0.4,0.3-0.9,0.5-1.3,0.8c-0.6,0.4-0.8,0.7-0.6,1.3c0.2,0.6,0.7,1,1.4,1
	c0.4,0,0.9-0.1,1.3-0.2c0.5-0.1,1.1-0.3,1.6-0.4c1.3-0.3,2.5,0.3,2.9,1.5c0.4,1.2-0.2,2.4-1.5,2.9c-2.1,0.9-4.3,1.2-6.6,1.2
	c-0.2,0-0.3,0-0.5,0.1c-2.1,0.8-4.2,1.7-6.3,2.5c0,0-0.1,0-0.1,0.1c0,1.2-0.2,2.4-0.8,3.5c-0.6,1.1-1.3,2-2,3
	c-0.3,0.4-0.8,0.6-1.3,0.7c-0.3,0-0.5,0-0.8,0c0,0-0.1,0-0.1-0.1c-1.4-0.4-2.1-1.7-1.6-3.1c0.2-0.6,0.4-1.1,0.7-1.7
	c0.3-0.7,0.2-1-0.4-1.4C2.5,36,2,35.1,1.9,33.9c0-0.6-0.1-1.2-0.4-1.7c-0.1-0.2-0.2-0.4-0.2-0.7c-0.1-0.4-0.1-0.7-0.2-1.1
	C1.1,30.3,1.1,30.1,1.1,29.9z M14,21.3c0.1,0.1,0.1,0.2,0.2,0.3c0.4,0.7,0.9,1.5,1.3,2.2c0.3,0.4,0.4,0.9,0.4,1.4
	c0,0.5,0,0.5,0.4,0.7c0,0,0.1,0,0.1,0c0.2-0.5,0.6-0.8,1-1c0.4-0.2,0.9-0.5,1.3-0.8c0.5-0.3,0.7-0.7,0.7-1.3c0-0.6-0.4-1-0.6-1.4
	c0,0-0.2-0.1-0.3,0c-0.8,0.4-1.6,0.4-2.5,0C15.4,21.1,14.7,21.1,14,21.3z M12.9,21.9c-1,0.5-1.6,1.4-1.3,2.4
	c0.2,0.6,0.5,1.1,0.9,1.6c0.3,0.5,1.1,0.5,1.6,0.2c0.5-0.3,0.7-1,0.4-1.5C13.9,23.7,13.4,22.8,12.9,21.9z"/>
<path class="st2" d="M33.1,18.4c-0.5,1.6-1,1.9-2.7,1.8c-0.9-0.1-1.7-0.2-2.6-0.2c-0.1,0-0.3,0.1-0.4,0.2c-0.5,0.6-0.9,1.1-1.4,1.7
	c-0.8,0.9-2,1-2.8,0.3c-0.8-0.7-0.9-1.9-0.2-2.8c2-2.5,4.1-5,6.1-7.5c0.3-0.4,0.8-0.7,1.3-0.8c0.2,0,0.5,0,0.7,0
	c0,0,0.1,0.1,0.1,0.1c1.4,0.4,1.9,2,1,3.2c-0.3,0.3-0.5,0.7-0.8,1c-0.3,0.3-0.5,0.6-0.8,1c0.2,0,0.4,0,0.6,0.1
	c0.9,0.1,1.6,0.7,1.8,1.5c0,0.1,0,0.2,0.1,0.3C33.1,18.2,33.1,18.3,33.1,18.4z M31,19c0.5,0,0.8-0.3,0.8-0.7c0-0.4-0.3-0.7-0.7-0.8
	c-0.6-0.1-1.1-0.1-1.7-0.1c-0.3,0-0.5-0.1-0.6-0.4c-0.1-0.3,0-0.5,0.2-0.7c0.7-0.9,1.5-1.8,2.2-2.7c0.3-0.4,0.3-0.8,0-1.1
	c-0.3-0.3-0.8-0.2-1.1,0.2c-2,2.5-4.1,5-6.1,7.4c-0.3,0.4-0.3,0.8,0,1.1c0.3,0.3,0.7,0.2,1.1-0.2c0.5-0.6,1-1.2,1.5-1.8
	c0.3-0.5,0.7-0.6,1.3-0.5C28.9,18.8,29.9,18.9,31,19z"/>
<path class="st3" d="M1.1,30.4c0.1,0.4,0.1,0.7,0.2,1.1c0.1,0.2,0.1,0.5,0.2,0.7c0.3,0.5,0.4,1.1,0.4,1.7C2,35.1,2.5,36,3.5,36.8
	c0.5,0.5,0.6,0.7,0.4,1.4c-0.2,0.6-0.4,1.1-0.7,1.7c-0.5,1.4,0.2,2.7,1.6,3.1c0,0,0.1,0,0.1,0.1c-1.3,0-2.5,0-3.8,0
	C1.1,38.9,1.1,34.6,1.1,30.4z"/>
<path class="st3" d="M33.1,18.1c0-0.1,0-0.2-0.1-0.3c-0.2-0.9-0.9-1.5-1.8-1.5c-0.2,0-0.4,0-0.6-0.1c0.3-0.3,0.5-0.7,0.8-1
	c0.3-0.3,0.5-0.7,0.8-1c0.9-1.2,0.4-2.7-1-3.2c0,0-0.1,0-0.1-0.1c0.7,0,1.3,0,2,0C33.1,13.4,33.1,15.8,33.1,18.1z"/>
<path class="st2" d="M21.7,13.3c1,0,1.9,0,2.9,0c0.4,0,0.7,0.2,0.7,0.6c0,0.3-0.2,0.6-0.5,0.6c-0.1,0-0.2,0-0.3,0
	c-1.8,0-3.7,0-5.5,0c-0.6,0-0.9-0.2-0.9-0.6c0-0.4,0.3-0.6,0.9-0.6C19.9,13.3,20.8,13.3,21.7,13.3z"/>
<path class="st2" d="M20.4,17.8c-0.4,0-0.8,0-1.2,0c-0.4,0-0.7-0.2-0.7-0.6c0-0.4,0.2-0.6,0.6-0.6c0.8,0,1.7,0,2.5,0
	c0.4,0,0.7,0.3,0.7,0.6c0,0.4-0.3,0.6-0.7,0.6C21.2,17.8,20.8,17.8,20.4,17.8z"/>
<path class="st2" d="M16.1,17.8c-0.1,0-0.3,0-0.4,0c-0.3,0-0.5-0.3-0.6-0.6c0-0.3,0.2-0.6,0.4-0.6c0.4,0,0.7,0,1.1,0
	c0.3,0,0.5,0.3,0.4,0.7c0,0.3-0.3,0.5-0.6,0.5C16.4,17.8,16.2,17.8,16.1,17.8z"/>
<path class="st1" d="M7.1,29.4c-0.3,0-0.6-0.3-0.6-0.6c0-0.4,0.3-0.6,0.6-0.6c0.3,0,0.6,0.3,0.6,0.6C7.7,29.1,7.5,29.4,7.1,29.4z"/>
</svg>
