<?xml version="1.0" encoding="utf-8"?>
<!-- Generator: Adobe Illustrator 23.0.5, SVG Export Plug-In . SVG Version: 6.00 Build 0)  -->
<svg version="1.1" id="Layer_1" xmlns="http://www.w3.org/2000/svg" xmlns:xlink="http://www.w3.org/1999/xlink" x="0px" y="0px"
	 viewBox="0 0 49 51" style="enable-background:new 0 0 49 51;" xml:space="preserve">
<style type="text/css">
	.st0{fill:#FFFFFF;}
</style>
<g>
	<path class="st0" d="M24.7,38.1c-0.9-0.4-1.8-0.7-2.6-1.1c-4.2-2.1-6.7-5.4-7.6-10c-0.4-1.9-0.5-3.7-0.5-5.6c0-1.3,0-2.6,0-3.9
		c0-1.1,0.7-1.8,1.8-1.8c1.8,0,3.6-0.3,5.3-1.1c1-0.5,1.8-1.1,2.6-1.8c0.2-0.2,0.5-0.4,0.8-0.5c0.6-0.2,1.2-0.1,1.7,0.4
		c0.7,0.7,1.5,1.3,2.4,1.7c1.4,0.8,3,1.2,4.6,1.3c0.4,0,0.8,0,1.2,0.1c0.9,0,1.6,0.7,1.6,1.6c0,2.6,0.2,5.2-0.1,7.7
		c-0.3,2.6-0.9,5-2.4,7.2c-1.5,2.3-3.7,4-6.2,5.1c-0.7,0.3-1.4,0.5-2,0.8C25.1,38.1,24.9,38.1,24.7,38.1z M15.6,20.7
		C15.6,20.7,15.5,20.7,15.6,20.7c0,0.1,0,0.2,0,0.3c0,2.2,0.1,4.3,0.6,6.5c0.6,2.3,1.7,4.3,3.5,6c1.5,1.4,3.3,2.4,5.3,3
		c0.1,0,0.2,0,0.3,0c0.6-0.3,1.3-0.5,1.9-0.8c2.9-1.4,5.1-3.5,6.3-6.6c0.8-2,1.1-4.2,1.1-6.4c0-1.8,0-3.5,0-5.3
		c0-0.3-0.1-0.3-0.3-0.3c-0.9-0.1-1.8-0.1-2.6-0.2c-2.4-0.4-4.5-1.5-6.3-3.2c-0.2-0.2-0.3-0.2-0.4,0c-0.9,0.9-1.9,1.6-3,2.1
		c-1.9,0.9-3.9,1.2-5.9,1.3c-0.2,0-0.3,0.1-0.3,0.3C15.6,18.5,15.6,19.6,15.6,20.7z"/>
	<path class="st0" d="M27.3,27.1c0,0.8,0,1.6,0,2.3c0,0.6-0.3,0.9-0.9,0.9c-0.9,0-1.9,0-2.8,0c-0.6,0-0.9-0.3-0.9-0.9
		c0-0.8,0-1.5,0-2.3c-0.1,0-0.2,0-0.3,0c-0.7,0-1.4,0-2.1,0c-0.5,0-0.8-0.3-0.8-0.9c0-1,0-1.9,0-2.9c0-0.5,0.3-0.8,0.9-0.8
		c0.8,0,1.5,0,2.4,0c0-0.1,0-0.2,0-0.3c0-0.7,0-1.4,0-2.1c0-0.5,0.3-0.8,0.8-0.9c1,0,1.9,0,2.9,0c0.5,0,0.8,0.3,0.8,0.8
		c0,0.7,0,1.4,0,2.1c0,0.1,0,0.2,0,0.3c0.2,0,0.5,0,0.7,0c0.6,0,1.1,0,1.7,0c0.5,0,0.9,0.3,0.9,0.8c0,1,0,1.9,0,2.9
		c0,0.5-0.3,0.8-0.8,0.8c-0.7,0-1.4,0-2.1,0C27.5,27.1,27.4,27.1,27.3,27.1z M29,24.1c-0.8,0-1.6,0-2.4,0c-0.5,0-0.8-0.3-0.8-0.8
		c0-0.6,0-1.3,0-1.9c0-0.2,0-0.3,0-0.5c-0.5,0-1,0-1.5,0c0,0.8,0,1.6,0,2.3c0,0.6-0.3,0.9-0.9,0.9c-0.7,0-1.4,0-2.1,0
		c-0.1,0-0.2,0-0.3,0c0,0.5,0,1,0,1.5c0.1,0,0.2,0,0.3,0c0.7,0,1.4,0,2.1,0c0.5,0,0.8,0.3,0.8,0.8c0,0.7,0,1.4,0,2.1
		c0,0.1,0,0.2,0,0.3c0.5,0,1,0,1.5,0c0-0.1,0-0.2,0-0.3c0-0.7,0-1.3,0-2c0-0.6,0.3-0.9,0.9-0.9c0.4,0,0.8,0,1.2,0c0.4,0,0.7,0,1.1,0
		C29,25.1,29,24.6,29,24.1z"/>
</g>
</svg>
