<?xml version="1.0" encoding="utf-8"?>
<!-- Generator: Adobe Illustrator 23.0.5, SVG Export Plug-In . SVG Version: 6.00 Build 0)  -->
<svg version="1.1" id="Layer_1" xmlns="http://www.w3.org/2000/svg" xmlns:xlink="http://www.w3.org/1999/xlink" x="0px" y="0px"
	 viewBox="0 0 42 40" style="enable-background:new 0 0 42 40;" xml:space="preserve">
<style type="text/css">
	.st0{fill:#24153E;}
	.st1{clip-path:url(#SVGID_2_);fill:#FBB344;}
</style>
<g>
	<path class="st0" d="M35,38c-9.3,0-18.5,0-27.8,0c0,0-0.1,0-0.1-0.1c-2-0.2-3.9-2.1-3.8-4.7c0.1-4.3,0-8.5,0-12.8c0-2.3,0-4.7,0-7
		c0-2.7,2.1-5,4.7-5.3c1.1-0.1,2.2-0.1,3.3-0.1c0.5,0,1,0,1.5,0c0.1-0.6,0.5-0.9,1.1-1c0-0.8,0-1.5,0-2.3c0-1.2,0.8-2.2,2-2.5
		c0.1,0,0.2-0.1,0.2-0.1c3.3,0,6.5,0,9.8,0c0.1,0,0.2,0.1,0.3,0.1c1,0.3,1.7,0.9,1.9,1.9c0.1,0.3,0.1,0.6,0.1,0.9c0,0.7,0,1.3,0,2
		c0.6,0.1,1,0.4,1.1,1c0.1,0,0.2,0,0.3,0c1.2,0,2.5,0,3.7,0c0.9,0,1.8,0.2,2.6,0.7c1.9,1.1,2.9,2.8,2.9,5c0,6.5,0,13,0,19.5
		c0,0.1,0,0.3,0,0.4c-0.1,1.9-1.4,3.6-3.3,4.1C35.5,37.9,35.2,37.9,35,38z M25.6,10.2c0,0.1,0,0.1,0.1,0.1c1.4,2,1.5,4.1,0.5,6.2
		c0,0.1-0.1,0.2,0,0.4c0.2,0.9,0.4,1.7,0.7,2.6c0.1,0.4,0,0.7-0.2,1c-1.4,2.1-2.8,4.1-4.2,6.1c-0.4,0.6-1,0.7-1.5,0.3
		c-1.4-1-2.8-1.9-4.2-2.9c-0.5-0.4-0.7-1-0.3-1.5c1.4-2.1,2.8-4.1,4.2-6.2c0.2-0.3,0.5-0.5,0.9-0.5c0.9-0.1,1.7-0.2,2.6-0.3
		c0.2,0,0.3-0.1,0.4-0.3c0.4-1.1,0.4-2.1-0.1-3.1c-0.7-1.2-1.7-1.9-3.1-1.9c-2.6,0-5.2,0-7.9,0c-0.1,0-0.3,0-0.4,0
		c0,8.6,0,17.1,0,25.7c5.5,0,10.9,0,16.4,0c0-8.6,0-17.1,0-25.7C28.1,10.2,26.9,10.2,25.6,10.2z M31.5,10.2c0,8.6,0,17.2,0,25.7
		c1.1,0,2.1,0,3.2,0c0.4,0,0.8-0.2,1.2-0.4c0.8-0.5,1-1.3,1-2.2c0-6.5,0-13,0-19.5c0-0.1,0-0.3,0-0.4c-0.1-1.5-1.1-2.7-2.5-3
		C33.4,10.2,32.5,10.2,31.5,10.2z M10.8,10.2c-0.6,0-1.2,0-1.8,0c-2.1,0-3.6,1.5-3.6,3.6c0,2.7,0,5.4,0,8c0,3.9,0,7.7,0,11.6
		c0,1.5,1,2.5,2.5,2.5c0.5,0,1,0,1.4,0c0.5,0,1,0,1.5,0C10.8,27.3,10.8,18.8,10.8,10.2z M17.2,8.1c2.7,0,5.3,0,7.9,0
		c0.1-0.6,0.5-0.9,1.1-1c0-0.7,0-1.3,0-2c0-0.6-0.2-0.8-0.8-0.8c-2.9,0-5.7,0-8.6,0c-0.1,0-0.2,0-0.3,0c-0.3,0.1-0.5,0.2-0.5,0.5
		c0,0.8,0,1.5,0,2.3C16.7,7.2,17.1,7.5,17.2,8.1z M21.2,24.7C21.2,24.6,21.3,24.6,21.2,24.7c1.2-1.7,2.3-3.2,3.4-4.8
		c0.1-0.1,0.1-0.2,0.1-0.3c-0.1-0.6-0.3-1.2-0.5-1.9c-0.6,0.1-1.2,0.2-1.7,0.2c-0.2,0-0.4,0.1-0.5,0.3c-1,1.5-2.1,3-3.1,4.5
		c-0.1,0.1-0.1,0.2-0.2,0.3C19.5,23.5,20.4,24.1,21.2,24.7z"/>
	<g>
		<defs>
			<path id="SVGID_1_" d="M35,38c-9.3,0-18.5,0-27.8,0c0,0-0.1,0-0.1-0.1c-2-0.2-3.9-2.1-3.8-4.7c0.1-4.3,0-8.5,0-12.8
				c0-2.3,0-4.7,0-7c0-2.7,2.1-5,4.7-5.3c1.1-0.1,2.2-0.1,3.3-0.1c0.5,0,1,0,1.5,0c0.1-0.6,0.5-0.9,1.1-1c0-0.8,0-1.5,0-2.3
				c0-1.2,0.8-2.2,2-2.5c0.1,0,0.2-0.1,0.2-0.1c3.3,0,6.5,0,9.8,0c0.1,0,0.2,0.1,0.3,0.1c1,0.3,1.7,0.9,1.9,1.9
				c0.1,0.3,0.1,0.6,0.1,0.9c0,0.7,0,1.3,0,2c0.6,0.1,1,0.4,1.1,1c0.1,0,0.2,0,0.3,0c1.2,0,2.5,0,3.7,0c0.9,0,1.8,0.2,2.6,0.7
				c1.9,1.1,2.9,2.8,2.9,5c0,6.5,0,13,0,19.5c0,0.1,0,0.3,0,0.4c-0.1,1.9-1.4,3.6-3.3,4.1C35.5,37.9,35.2,37.9,35,38z M25.6,10.2
				c0,0.1,0,0.1,0.1,0.1c1.4,2,1.5,4.1,0.5,6.2c0,0.1-0.1,0.2,0,0.4c0.2,0.9,0.4,1.7,0.7,2.6c0.1,0.4,0,0.7-0.2,1
				c-1.4,2.1-2.8,4.1-4.2,6.1c-0.4,0.6-1,0.7-1.5,0.3c-1.4-1-2.8-1.9-4.2-2.9c-0.5-0.4-0.7-1-0.3-1.5c1.4-2.1,2.8-4.1,4.2-6.2
				c0.2-0.3,0.5-0.5,0.9-0.5c0.9-0.1,1.7-0.2,2.6-0.3c0.2,0,0.3-0.1,0.4-0.3c0.4-1.1,0.4-2.1-0.1-3.1c-0.7-1.2-1.7-1.9-3.1-1.9
				c-2.6,0-5.2,0-7.9,0c-0.1,0-0.3,0-0.4,0c0,8.6,0,17.1,0,25.7c5.5,0,10.9,0,16.4,0c0-8.6,0-17.1,0-25.7
				C28.1,10.2,26.9,10.2,25.6,10.2z M31.5,10.2c0,8.6,0,17.2,0,25.7c1.1,0,2.1,0,3.2,0c0.4,0,0.8-0.2,1.2-0.4c0.8-0.5,1-1.3,1-2.2
				c0-6.5,0-13,0-19.5c0-0.1,0-0.3,0-0.4c-0.1-1.5-1.1-2.7-2.5-3C33.4,10.2,32.5,10.2,31.5,10.2z M10.8,10.2c-0.6,0-1.2,0-1.8,0
				c-2.1,0-3.6,1.5-3.6,3.6c0,2.7,0,5.4,0,8c0,3.9,0,7.7,0,11.6c0,1.5,1,2.5,2.5,2.5c0.5,0,1,0,1.4,0c0.5,0,1,0,1.5,0
				C10.8,27.3,10.8,18.8,10.8,10.2z M17.2,8.1c2.7,0,5.3,0,7.9,0c0.1-0.6,0.5-0.9,1.1-1c0-0.7,0-1.3,0-2c0-0.6-0.2-0.8-0.8-0.8
				c-2.9,0-5.7,0-8.6,0c-0.1,0-0.2,0-0.3,0c-0.3,0.1-0.5,0.2-0.5,0.5c0,0.8,0,1.5,0,2.3C16.7,7.2,17.1,7.5,17.2,8.1z M21.2,24.7
				C21.2,24.6,21.3,24.6,21.2,24.7c1.2-1.7,2.3-3.2,3.4-4.8c0.1-0.1,0.1-0.2,0.1-0.3c-0.1-0.6-0.3-1.2-0.5-1.9
				c-0.6,0.1-1.2,0.2-1.7,0.2c-0.2,0-0.4,0.1-0.5,0.3c-1,1.5-2.1,3-3.1,4.5c-0.1,0.1-0.1,0.2-0.2,0.3C19.5,23.5,20.4,24.1,21.2,24.7
				z"/>
		</defs>
		<clipPath id="SVGID_2_">
			<use xlink:href="#SVGID_1_"  style="overflow:visible;"/>
		</clipPath>
		<path class="st1" d="M26.9,28.4h-11c0,0,0,0,0,0L16,10.6c0,0,0,0,0,0l6.5-0.5c0.5,0,1-0.1,1.5-0.1h0.5c1.5,0,2.7,1.2,2.7,2.7
			l0.1,5L26.9,28.4C26.9,28.4,26.9,28.4,26.9,28.4z"/>
	</g>
</g>
</svg>
