<?xml version="1.0" encoding="utf-8"?>
<!-- Generator: Adobe Illustrator 23.0.5, SVG Export Plug-In . SVG Version: 6.00 Build 0)  -->
<svg version="1.1" id="Layer_1" xmlns="http://www.w3.org/2000/svg" xmlns:xlink="http://www.w3.org/1999/xlink" x="0px" y="0px"
	 viewBox="0 0 49 51" style="enable-background:new 0 0 49 51;" xml:space="preserve">
<style type="text/css">
	.st0{fill:#FFFFFF;}
</style>
<g>
	<path class="st0" d="M25.5,19c-0.2,0.2-0.4,0.3-0.6,0.4c-0.3,0.2-0.5,0.2-0.8-0.1c-0.3-0.4-0.6-0.9-0.9-1.3
		c-0.3-0.4-0.2-0.6,0.1-0.9c1.7-1.2,3.5-2.5,5.3-3.7c0.6-0.4,1.1-0.8,1.7-1.2c0.3-0.2,0.5-0.2,0.7,0c2.3,1.6,4.7,3.3,7,4.9
		c0.3,0.2,0.4,0.5,0.1,0.8c-0.3,0.5-0.6,0.9-1,1.4c-0.2,0.3-0.5,0.4-0.8,0.1c-0.2-0.1-0.4-0.2-0.6-0.4c0,0.1,0,0.2,0,0.3
		c0,1.7,0,3.5,0,5.2c0,0.5-0.1,0.6-0.6,0.6c-3,0-6,0-9,0c-0.5,0-0.6-0.1-0.6-0.6c0-1.7,0-3.4,0-5.2C25.5,19.2,25.5,19.1,25.5,19z
		 M30.6,15.4c-1.4,1-2.7,1.9-4.1,2.9c-0.1,0.1-0.1,0.2-0.1,0.3c0,1.8,0,3.6,0,5.4c0,0.1,0,0.2,0,0.3c0.6,0,1.3,0,1.9,0
		c0-0.1,0-0.2,0-0.3c0-1.6,0-3.1,0-4.7c0-0.5,0.2-0.6,0.6-0.6c1.1,0,2.3,0,3.4,0c0.5,0,0.6,0.1,0.6,0.6c0,1.6,0,3.1,0,4.7
		c0,0.1,0,0.2,0,0.3c0.6,0,1.3,0,1.9,0c0-1.8,0-3.5,0-5.3c0-0.4-0.1-0.7-0.5-0.9C33.1,17.1,31.9,16.2,30.6,15.4z M24.7,18.4
		c0.1-0.1,0.2-0.1,0.3-0.2c1.8-1.2,3.5-2.4,5.3-3.7c0.4-0.3,0.5-0.3,0.9,0c1.5,1,2.9,2.1,4.4,3.1c0.4,0.3,0.7,0.5,1.1,0.8
		c0.2-0.3,0.4-0.5,0.5-0.8c-0.1,0-0.1-0.1-0.1-0.1c-2.1-1.4-4.1-2.9-6.2-4.3c-0.2-0.1-0.3-0.1-0.4,0c-2,1.4-4,2.8-6,4.2
		c-0.1,0.1-0.2,0.1-0.2,0.2C24.3,17.9,24.5,18.1,24.7,18.4z M29.2,24.2c0.9,0,1.9,0,2.8,0c0-1.6,0-3.1,0-4.7c-0.9,0-1.9,0-2.8,0
		C29.2,21.1,29.2,22.6,29.2,24.2z"/>
	<path class="st0" d="M24,28c-3.3,0-6.7,0-10,0c-2.3,0-4.1-1.9-4-4.2c0.1-2,1.8-3.8,3.8-3.8c2.8,0,5.5,0,8.3,0
		c0.3,0,0.5,0.2,0.5,0.5c0,0.3-0.2,0.5-0.6,0.5c-2.7,0-5.4,0-8.1,0c-1.4,0-2.5,0.8-2.9,2c-0.7,2,0.7,4,2.8,4.1c1.1,0,2.1,0,3.2,0
		c5.7,0,11.3,0,17,0c1.9,0,3.4,1.1,3.9,2.9c0.7,2.5-1.1,5.1-3.8,5.1c-1.6,0-3.3,0-4.9,0c-0.4,0-0.6-0.2-0.6-0.5
		c0-0.3,0.2-0.5,0.6-0.5c1.6,0,3.2,0,4.8,0c1.8,0,3.1-1.4,3-3.2c0-1.6-1.4-2.9-3-2.9c0,0-0.1,0-0.1,0C30.7,28,27.4,28,24,28z"/>
	<path class="st0" d="M15.7,37.3c1.1-3.6,1.9-4.4,5.2-5.5c-0.2-0.8,0-1.4,0.6-1.7c0.5-0.3,1.1-0.3,1.6,0c0.5,0.4,0.7,1,0.5,1.7
		c3,0.6,4.6,2.6,5.2,5.5c0.2,0,0.3,0,0.5,0c0.2,0,0.4,0.1,0.5,0.4c0.1,0.6,0,1.2-0.3,1.7c-0.4,0.5-0.9,0.8-1.5,0.8
		c-3.8,0-7.5,0-11.3,0c-1,0-1.8-0.8-1.8-1.9C14.7,37.4,14.7,37.4,15.7,37.3z M28.8,38.3c-0.6,0-1.2,0-1.8,0c-0.3,0-0.5-0.2-0.5-0.5
		c0-0.3,0.2-0.4,0.5-0.5c0.2,0,0.5,0,0.7,0c-0.4-2.2-1.9-4.9-5.9-4.7c-2.6,0.1-5.1,2.3-5.1,4.7c0.1,0,0.2,0,0.3,0c1.8,0,3.6,0,5.4,0
		c0.1,0,0.2,0,0.3,0c0.2,0,0.4,0.2,0.4,0.4c0,0.2-0.1,0.4-0.4,0.5c-0.1,0-0.2,0-0.3,0c-2.2,0-4.3,0-6.5,0c-0.1,0-0.2,0-0.3,0
		c0,0.6,0.5,1,0.9,0.9c0.6,0,1.3,0,1.9,0c3.1,0,6.2,0,9.3,0C28.4,39.2,28.7,38.9,28.8,38.3z M22.2,30.8c-0.3,0-0.5,0.2-0.5,0.5
		c0,0.3,0.2,0.5,0.5,0.5c0.3,0,0.5-0.2,0.5-0.5C22.7,31,22.5,30.8,22.2,30.8z"/>
	<path class="st0" d="M13.5,31.7c1,0,1.9,0,2.9,0c0.4,0,0.6,0.2,0.6,0.5c0,0.3-0.2,0.5-0.6,0.5c-2,0-3.9,0-5.9,0
		c-0.4,0-0.7-0.3-0.5-0.7c0.1-0.2,0.3-0.3,0.5-0.3C11.6,31.7,12.5,31.7,13.5,31.7z"/>
	<path class="st0" d="M13.3,34.5c-0.6,0-1.2,0-1.8,0c-0.4,0-0.6-0.2-0.6-0.5c0-0.3,0.2-0.5,0.6-0.5c1.2,0,2.4,0,3.5,0
		c0.4,0,0.6,0.2,0.6,0.5c0,0.3-0.2,0.5-0.6,0.5C14.5,34.5,13.9,34.5,13.3,34.5z"/>
	<path class="st0" d="M13.3,36.4c-0.3,0-0.6,0-0.9,0c-0.3,0-0.5-0.2-0.5-0.4c0-0.3,0.2-0.5,0.5-0.5c0.6,0,1.2,0,1.8,0
		c0.3,0,0.5,0.2,0.5,0.5c0,0.3-0.2,0.5-0.5,0.5C13.9,36.4,13.6,36.4,13.3,36.4z"/>
	<path class="st0" d="M24.8,38.3c-0.5,0-0.7-0.1-0.7-0.5c0-0.3,0.2-0.5,0.7-0.5c0,0,0,0,0.1,0c0.4,0,0.6,0.2,0.6,0.5
		C25.5,38.1,25.3,38.3,24.8,38.3C24.8,38.3,24.8,38.3,24.8,38.3z"/>
</g>
</svg>
