<?xml version="1.0" encoding="utf-8"?>
<!-- Generator: Adobe Illustrator 23.0.5, SVG Export Plug-In . SVG Version: 6.00 Build 0)  -->
<svg version="1.1" id="Layer_1" xmlns="http://www.w3.org/2000/svg" xmlns:xlink="http://www.w3.org/1999/xlink" x="0px" y="0px"
	 viewBox="0 0 49 51" style="enable-background:new 0 0 49 51;" xml:space="preserve">
<style type="text/css">
	.st0{fill:#FFFFFF;}
</style>
<path class="st0" d="M34.2,19.9c1-0.7,2-1.4,3-2.1c0.9-0.6,1.8-1.2,2.6-1.9c0.4-0.3,0.8-0.4,1.3-0.1c0.4,0.2,0.6,0.6,0.6,1.1
	c0,6.1,0,12.1,0,18.2c0,0.5-0.2,0.9-0.6,1.1c-0.5,0.2-0.9,0.1-1.3-0.2c-1.8-1.3-3.7-2.6-5.6-3.9c0,0.2,0,0.4,0,0.6
	c0,0.8,0,1.5-0.1,2.3c-0.3,2-2,3.4-4.1,3.4c-6.5,0-13,0-19.5,0c-2.3,0-4.2-1.8-4.2-4.2c0-5.5,0-10.9,0-16.4c0-2.3,1.8-4.2,4.2-4.2
	c6.5,0,12.9,0,19.4,0c2.4,0,4.2,1.8,4.2,4.2C34.2,18.5,34.2,19.2,34.2,19.9z M20.3,36.2c3.2,0,6.3,0,9.5,0c1.4,0,2.1-0.7,2.1-2.1
	c0-5.3,0-10.7,0-16c0-1.4-0.7-2.1-2.1-2.1c-6.3,0-12.7,0-19,0c-1.4,0-2.1,0.7-2.1,2.1c0,5.3,0,10.7,0,16c0,1.4,0.7,2.1,2.1,2.1
	C14,36.2,17.2,36.2,20.3,36.2z M39.4,33.1c0-4.7,0-9.3,0-14c-0.1,0-0.1,0-0.2,0.1c-1.6,1.1-3.2,2.2-4.8,3.4
	c-0.1,0.1-0.2,0.3-0.2,0.5c0,2,0,4.1,0,6.1c0,0.2,0.1,0.4,0.3,0.6c1.2,0.9,2.5,1.8,3.8,2.6C38.7,32.5,39,32.8,39.4,33.1z"/>
<path class="st0" d="M26.3,18.2c0.7,0,1.4,0,2.2,0c0.7,0,1.2,0.5,1.2,1.1c0,0.7-0.5,1.1-1.2,1.1c-1.4,0-2.8,0-4.3,0
	c-0.7,0-1.2-0.5-1.2-1.1c0-0.7,0.5-1.1,1.3-1.1C24.9,18.2,25.6,18.2,26.3,18.2z"/>
</svg>
