<?xml version="1.0" encoding="utf-8"?>
<!-- Generator: Adobe Illustrator 23.0.5, SVG Export Plug-In . SVG Version: 6.00 Build 0)  -->
<svg version="1.1" id="Layer_1" xmlns="http://www.w3.org/2000/svg" xmlns:xlink="http://www.w3.org/1999/xlink" x="0px" y="0px"
	 viewBox="0 0 49 51" style="enable-background:new 0 0 49 51;" xml:space="preserve">
<style type="text/css">
	.st0{fill:#FFF8E6;}
	.st1{fill:#23143B;}
	.st2{fill:#FCB344;}
</style>
<circle class="st0" cx="29.7" cy="31.9" r="17.1"/>
<path class="st1" d="M2.3,24.3c0.2-0.5,0.6-0.7,1.2-0.7c2.9,0.1,5.7,0.5,8.3,1.7c0.1,0,0.2,0.1,0.2,0.1c1,0.5,1.1,0.6,1,1.7
	c1.2,0.3,2.4,0.6,3.6,0.9c4.3,1,8.6,2.1,12.9,3.1c1.8,0.4,3.1,1.9,3.3,3.7c0,0.1,0,0.2,0.1,0.3c1-0.3,1.9-0.6,2.9-0.9
	c1.3-0.3,2.6-0.6,3.9-0.7c2.1-0.2,3.9,0.4,5.2,2.2c0.2,0.3,0.4,0.5,0.5,0.8c0.3,0.7,0.2,1.1-0.5,1.4c-1.7,0.9-3.4,1.7-5.1,2.5
	c-3.2,1.5-6.5,2.9-9.9,3.9c-1.1,0.3-2.2,0.5-3.3,0.7c-0.5,0-1.1,0-1.6,0c-0.1,0-0.2-0.1-0.2-0.1c-1-0.2-1.9-0.3-2.9-0.6
	c-3.4-0.9-6.7-2.2-9.9-3.7c-0.7-0.3-1.3-0.6-2-0.9c-0.1,0.2-0.1,0.4-0.2,0.6c-0.2,0.8-0.4,1-1.3,1c-1.6,0-3.2,0-4.7,0
	c-0.5,0-0.9-0.1-1.2-0.6C2.3,35.4,2.3,29.8,2.3,24.3z M10.1,38.1c0.4,0.2,0.7,0.3,1,0.5c3.5,1.6,7.1,3.1,10.8,4.1
	c1.5,0.4,3,0.8,4.5,0.5c1.3-0.2,2.7-0.6,3.9-1c4.1-1.3,8-3.2,11.9-5.2c0.3-0.1,0.5-0.3,0.8-0.4c-0.6-0.7-1.3-1.1-2.1-1.3
	c-1.3-0.3-2.6,0-3.9,0.3c-1.9,0.5-3.7,1.1-5.6,1.7c-1.5,0.4-3,0.7-4.5,0.6c-2.7-0.2-5.4-0.9-7.9-1.8c-0.2-0.1-0.4-0.2-0.5-0.4
	c-0.2-0.3-0.2-0.7,0-1c0.2-0.3,0.6-0.4,1-0.3c1.5,0.4,2.9,0.9,4.4,1.2c2.2,0.5,4.4,0.7,6.6,0.1c0.2-0.1,0.3-0.2,0.3-0.4
	c0-1.2-0.9-2.2-2.2-2.5c-4.9-1.2-9.8-2.4-14.7-3.5c-0.5-0.1-1.1-0.3-1.6-0.4C11.7,32,10.9,35,10.1,38.1z M4.1,39.7
	c1.1,0,2.2,0,3.3,0c0.4,0,0.5-0.1,0.6-0.5c0.8-3.1,1.6-6.2,2.3-9.3c0.3-1,0.5-2,0.8-3c-1.5-0.9-5.6-1.7-7-1.5
	C4.1,30.2,4.1,35,4.1,39.7z"/>
<path class="st2" d="M31,23.6c-2.1,0-4-0.5-5.9-1.5c-0.8-0.4-1.3-1.1-1.3-2.1c-0.1-3.4,2.6-6.7,6.1-7.1c4-0.5,7.4,2,8.2,5.9
	c0.1,0.5,0.1,1,0.1,1.5c-0.1,0.8-0.5,1.4-1.2,1.8C35.2,23.1,32.9,23.6,31,23.6z M31,21.8c1.7,0,3.3-0.4,4.8-1.2
	c0.4-0.2,0.6-0.4,0.5-0.9c-0.1-2.8-2.4-5.1-5.3-5.1c-2.9-0.1-5.4,2.3-5.5,5.2c0,0.3,0.1,0.6,0.4,0.7C27.6,21.4,29.2,21.8,31,21.8z"
	/>
<path class="st2" d="M37.4,6c0,1.1-0.3,2.3-0.9,3.4c-0.2,0.4-0.5,0.8-0.9,1.1c-1,0.9-2.3,0.7-3.1-0.4c-0.4-0.7-0.6-1.4-0.7-2.2
	C31.8,6.4,32,5,32.7,3.8c0.2-0.4,0.5-0.7,0.8-1c1-1,2.6-0.9,3.3,0.5C37.2,3.9,37.4,4.9,37.4,6z M35,3.8c-0.3,0.3-0.6,0.6-0.7,0.9
	c-0.6,1.2-0.8,2.5-0.5,3.8c0.1,0.3,0.3,0.5,0.4,0.8c0.2-0.2,0.5-0.4,0.7-0.7c0.7-1.3,0.9-2.6,0.5-4C35.3,4.3,35.2,4.1,35,3.8z"/>
<path class="st2" d="M30.3,7.3c-0.1,0.9-0.2,1.7-0.6,2.5c-0.8,1.5-2.4,1.8-3.5,0.5c-0.7-0.8-1.1-1.7-1.3-2.8
	c-0.2-1.2-0.3-2.4,0.1-3.5c0.1-0.3,0.3-0.6,0.4-0.9c0.7-1.1,2.2-1.2,3.1-0.4c0.8,0.7,1.2,1.6,1.5,2.5C30.1,5.9,30.2,6.6,30.3,7.3z
	 M28.5,7.2c-0.1-1.1-0.4-2.2-0.9-2.9c-0.1-0.2-0.3-0.3-0.4-0.4c-0.1,0.2-0.4,0.3-0.4,0.5c-0.5,1.6-0.3,3.1,0.7,4.5
	c0.3,0.4,0.5,0.4,0.6-0.1C28.3,8.4,28.4,7.8,28.5,7.2z"/>
<path class="st2" d="M23.8,12.3c0,0.8-0.3,1.6-1.2,2.1c-0.9,0.5-1.7,0.3-2.5-0.2c-1.4-0.9-2.2-2.3-2.1-4c0.1-1.8,1.6-2.8,3.3-2.1
	C22.7,8.7,23.8,10.5,23.8,12.3z M22,12c-0.1-0.9-0.5-1.7-1.3-2.2c-0.6-0.4-1-0.2-1,0.6c0,1,0.5,1.8,1.3,2.3C21.6,13.1,22,12.8,22,12
	z"/>
<path class="st2" d="M38.1,11.9c0.1-1.4,0.8-2.7,2.2-3.5c0.8-0.5,1.7-0.6,2.5-0.1c0.9,0.5,1.2,1.3,1.2,2.3c0,1.6-0.8,2.9-2.1,3.8
	c-0.8,0.5-1.7,0.7-2.6,0.2C38.4,13.9,38.1,13,38.1,11.9z M39.9,12.2c0.1,0.1,0.1,0.5,0.3,0.6c0.2,0.1,0.5,0,0.7-0.1
	c0.8-0.5,1.2-1.3,1.3-2.2c0-0.7-0.4-1-1-0.6C40.4,10.4,40,11.1,39.9,12.2z"/>
</svg>
