<?xml version="1.0" encoding="utf-8"?>
<!-- Generator: Adobe Illustrator 23.0.5, SVG Export Plug-In . SVG Version: 6.00 Build 0)  -->
<svg version="1.1" id="Layer_1" xmlns="http://www.w3.org/2000/svg" xmlns:xlink="http://www.w3.org/1999/xlink" x="0px" y="0px"
	 viewBox="0 0 49 51" style="enable-background:new 0 0 49 51;" xml:space="preserve">
<style type="text/css">
	.st0{fill:#FFFAE6;}
	.st1{fill:#291B3F;}
	.st2{fill:#FCB647;}
</style>
<circle class="st0" cx="32.5" cy="29.5" r="15.5"/>
<g>
	<path class="st1" d="M26.7,36c-8.3,0-16.7,0-25,0c0-6.1,0-12.2,0-18.4c-0.2,0.1-0.3,0.2-0.5,0.2c-0.3-0.5-0.5-0.9-0.8-1.4
		c0.1-0.1,0.1-0.1,0.2-0.1c4.4-2.6,8.9-5.2,13.3-7.8c0.2-0.1,0.3-0.1,0.4,0c4.4,2.6,8.9,5.2,13.3,7.8c0.1,0,0.1,0.1,0.2,0.1
		c-0.3,0.5-0.5,0.9-0.8,1.4c-0.2-0.1-0.3-0.2-0.5-0.2C26.7,23.8,26.7,29.9,26.7,36z M21.1,31.1c1.3,0,2.6,0,3.9,0c0-0.1,0-0.2,0-0.3
		c0-4.7,0-9.3,0-14c0-0.2,0-0.3-0.2-0.3c-3.5-2-7-4.1-10.5-6.1c-0.1-0.1-0.2-0.1-0.4,0c-3.5,2-7,4.1-10.5,6.1
		c-0.2,0.1-0.2,0.2-0.2,0.4c0,4.7,0,9.3,0,14c0,0.1,0,0.2,0,0.3c1.3,0,2.6,0,3.9,0c0-1.3,0.2-2.5,0.8-3.6c0.6-1.1,1.5-2,2.6-2.7
		c1.1-0.6,2.3-1,3.6-1c1.6,0,3.1,0.5,4.3,1.6C20.4,26.9,21.2,28.8,21.1,31.1z M8.9,34.4c3.5,0,7,0,10.6,0c0-0.1,0-0.2,0-0.3
		c0-1,0-2.1,0-3.1c0-0.3,0-0.7-0.1-1c-0.4-2.8-3.3-4.9-6.1-4.4c-2.6,0.5-4.4,2.6-4.4,5.3c0,1.1,0,2.2,0,3.3
		C8.9,34.2,8.9,34.3,8.9,34.4z M7.3,32.8c-1.3,0-2.6,0-3.9,0c0,0.5,0,1.1,0,1.6c1.3,0,2.6,0,3.9,0C7.3,33.8,7.3,33.3,7.3,32.8z
		 M21.1,34.4c1.3,0,2.6,0,3.9,0c0-0.5,0-1.1,0-1.6c-1.3,0-2.6,0-3.9,0C21.1,33.3,21.1,33.8,21.1,34.4z"/>
	<path class="st2" d="M7.5,18.9c-0.9-1.1-0.7-2.3-0.1-3.1c1-1.3,3-1.3,4,0.1c0.3,0.4,0.6,0.6,1.1,0.6c0.3,0,0.6,0,1,0
		c0.4,0,0.6-0.1,0.8-0.4c0.8-1.2,2.3-1.5,3.5-0.7c1.2,0.8,1.4,2.4,0.5,3.5c0,0,0,0-0.1,0.1c0.3,0.4,0.6,0.9,0.6,1.5
		c0.1,1.1-0.6,2.1-1.7,2.4c-1.1,0.4-2.2,0-2.8-1c-0.2-0.4-0.5-0.5-1-0.5c-0.3,0-0.6,0-0.9,0c-0.4,0-0.7,0.1-1,0.5
		c-0.9,1.4-2.8,1.5-3.9,0.3c-0.7-0.8-0.8-2.1-0.1-3C7.4,19.1,7.5,19,7.5,18.9z M16.3,18.1c0.1,0,0.2,0,0.2-0.1
		c0.6-0.2,0.8-0.9,0.3-1.3c-0.4-0.4-1-0.3-1.3,0.2c-0.4,0.6-0.9,1-1.7,1.1c-0.4,0.1-0.8,0-1.2,0.1c-1.2,0.1-2.1-0.3-2.7-1.3
		c0,0,0,0,0,0c-0.2-0.3-0.6-0.4-0.9-0.2c-0.3,0.1-0.5,0.4-0.5,0.8c0,0.3,0.2,0.6,0.5,0.8c0.1,0,0.2,0,0.3,0.1c0,0.5,0,1,0,1.5
		c0,0,0,0.1,0,0.1c-0.1,0-0.2,0-0.3,0.1c-0.3,0.1-0.5,0.4-0.5,0.8c0,0.3,0.2,0.6,0.5,0.8c0.4,0.1,0.7,0,1-0.4c0.4-0.6,1-1,1.7-1.1
		c0.4-0.1,0.7,0,1.1,0c1.2-0.1,2.1,0.3,2.7,1.3c0,0,0,0,0,0c0.2,0.3,0.6,0.4,0.9,0.2c0.3-0.1,0.5-0.4,0.5-0.8c0-0.3-0.2-0.6-0.5-0.8
		c-0.1,0-0.2,0-0.3-0.1C16.3,19.2,16.3,18.7,16.3,18.1z"/>
</g>
<path class="st2" d="M30.5,23c0.6,0.4,1.2,0.9,1.8,1.3c1.8,1.4,3.7,2.8,5.5,4.2c0,0,0.1,0.1,0.1,0.1c0.1-0.2,0.3-0.4,0.4-0.6
	c0,0,0-0.1,0-0.1c-0.1-0.5-0.1-1-0.1-1.4c0-0.3,0-0.5,0-0.8c0.1-0.8,0.9-1.4,1.8-1.3c0.5,0.1,1.1,0.1,1.6,0.2c0.9,0.1,1.6,0.6,2,1.5
	c0.1,0.1,0.1,0.2,0.2,0.2c0.5,0.1,1,0.2,1.6,0.3c0.3,0.1,0.5,0.2,0.5,0.6c0,0.4,0,0.8-0.1,1.1c-0.2,0.8-0.9,1.4-1.8,1.5
	c-0.2,0-0.4,0-0.6,0c0,0.1,0,0.1,0,0.2c0,0.9,0,1.7,0,2.6c0,1.3-0.6,2.3-1.7,2.9c-0.1,0.1-0.1,0.1-0.1,0.2c0,1.5,0,3.1,0,4.6
	c0,0.5-0.2,0.7-0.7,0.7c-1.3,0-2.7,0-4,0c-0.4,0-0.6-0.2-0.6-0.6c0-1.2,0-2.5,0-3.7c0-0.1,0-0.2-0.1-0.2c-1-0.2-1.9-0.6-2.9-1.1
	c-0.1,0-0.1,0-0.2-0.1c0,0.2,0,0.4,0,0.6c-0.2,1.2-0.8,2-1.9,2.5c-0.1,0.1-0.2,0.1-0.2,0.2c0,0.6,0,1.2,0,1.8c0,0.4-0.2,0.6-0.6,0.6
	c-0.6,0-1.3,0-1.9,0c-0.4,0-0.6-0.2-0.6-0.6c0-1,0-2,0-3c0-0.2,0.1-0.3,0.2-0.5c0.4-0.5,0.8-0.9,1.1-1.4c0.1-0.1,0.1-0.2,0.1-0.3
	c0-0.7,0-1.4,0-2c0-0.2,0-0.4,0-0.6c0-0.1,0-0.2-0.1-0.2c-0.9-0.8-1.4-1.9-1.3-3.1c0-0.7,0.2-1.3,0.5-1.9c0.2-0.3,0.5-0.5,0.9-0.4
	c0.4,0.1,0.6,0.4,0.7,0.8c0.1,0.8,0.5,1.4,1.1,1.8c0.4,0.3,0.8,0.3,1.3,0.3c1.4-0.2,2.7-0.4,4.1-0.5c0,0,0.1,0,0.1,0
	c-0.1-0.1-0.1-0.1-0.1-0.1c-2.1-1.7-4.3-3.3-6.4-4.9c-0.1-0.1-0.2-0.1-0.3-0.1c-0.4,0-0.9,0-1.3,0c-0.3,0-0.5-0.1-0.6-0.4
	c-0.1-0.2,0.1-0.5,0.4-0.6c0,0,0,0,0,0C29.2,23,29.9,23,30.5,23z M42.5,31.6c-0.1,0-0.1,0-0.2,0c-0.3,0-0.7,0-1-0.1
	c-1.2-0.2-2.3-0.6-3.3-1.4c0,0-0.1,0-0.2,0c-0.2,0.1-0.5,0.2-0.7,0.2c-1.5,0.2-2.9,0.4-4.4,0.6c-1.3,0.2-2.1,1.1-2.1,2.4
	c0,0.8,0,1.5,0,2.3c0,0.2-0.1,0.4-0.2,0.5c-0.4,0.5-0.8,0.9-1.1,1.4c-0.1,0.1-0.1,0.2-0.1,0.3c0,0.7,0,1.4,0,2.1c0,0.1,0,0.1,0,0.2
	c0.4,0,0.7,0,1,0c0-0.6,0-1.2,0-1.9c0-0.3,0.2-0.5,0.5-0.6c0.1,0,0.1,0,0.2,0c0.8-0.2,1.4-0.8,1.5-1.6c0.1-0.4,0-0.9,0-1.3
	c0-0.5,0.4-0.7,0.8-0.5c0.1,0.1,0.3,0.1,0.4,0.2c1.2,0.5,2.3,1.1,3.6,1.3c0.3,0.1,0.6,0.1,1,0.1c0,0,0-0.1,0-0.1c0,0,0-0.1-0.1-0.1
	c-0.3-0.6-0.5-1.3-0.5-2c0-0.3,0.2-0.5,0.5-0.5c0.3,0,0.5,0.2,0.5,0.5c0,0.9,0.3,1.7,0.9,2.5c0.1,0.1,0.2,0.3,0.2,0.5
	c0,1.1,0,2.3,0,3.4c0,0.1,0,0.1,0,0.2c0.4,0,0.7,0,1.1,0c0-0.1,0-0.1,0-0.2c0-1.5,0-2.9,0-4.4c0-0.3,0.1-0.5,0.4-0.7
	c0.6-0.3,1.1-0.8,1.2-1.5C42.6,32.7,42.5,32.1,42.5,31.6z M41.4,25.8c0,0.1,0,0.1,0,0.2c0,0.5,0,1.1,0,1.6c0,0.7-0.5,1.3-1.1,1.5
	c-0.4,0.1-0.8,0.1-1.2-0.1c-0.1,0.2-0.2,0.3-0.4,0.5c0.8,0.7,2.7,1.3,3.7,1.1c0-0.4,0-0.8,0-1.2c0-0.4,0.2-0.6,0.6-0.6
	c0.3,0,0.6,0,0.9,0c0.7,0,1.1-0.4,1-1.1c0,0-0.1,0-0.1,0c-0.5-0.1-1-0.2-1.5-0.2c-0.3,0-0.5-0.2-0.5-0.5
	C42.7,26.2,42.1,25.8,41.4,25.8z M37.6,36.7c0,1.1,0,2.2,0,3.2c0.3,0,0.7,0,1,0c0-1.1,0-2.1,0-3.2C38.3,36.8,37.9,36.7,37.6,36.7z
	 M40.4,25.6c-0.2,0-0.3,0-0.4-0.1c-0.3,0-0.6,0.2-0.6,0.5c0,0.5,0,0.9,0,1.4c0,0.3,0.2,0.5,0.5,0.5c0.3,0,0.5-0.2,0.5-0.5
	c0-0.4,0-0.7,0-1.1C40.4,26.2,40.4,25.9,40.4,25.6z M30,31.4c0.3-0.3,0.6-0.6,0.8-0.9c-0.7-0.4-1.2-1.1-1.5-1.9
	C29,29.6,29.4,30.8,30,31.4z"/>
</svg>
