<?xml version="1.0" encoding="utf-8"?>
<!-- Generator: Adobe Illustrator 23.0.5, SVG Export Plug-In . SVG Version: 6.00 Build 0)  -->
<svg version="1.1" id="Layer_1" xmlns="http://www.w3.org/2000/svg" xmlns:xlink="http://www.w3.org/1999/xlink" x="0px" y="0px"
	 viewBox="0 0 49 51" style="enable-background:new 0 0 49 51;" xml:space="preserve">
<style type="text/css">
	.st0{fill:#FFFAE6;}
	.st1{fill:#291B3F;}
	.st2{fill:#FCB647;}
</style>
<circle class="st0" cx="32.5" cy="29.5" r="15.5"/>
<path class="st1" d="M26.7,36c-8.3,0-16.7,0-25,0c0-6.1,0-12.2,0-18.4c-0.2,0.1-0.3,0.2-0.5,0.2c-0.3-0.5-0.5-0.9-0.8-1.4
	c0.1-0.1,0.1-0.1,0.2-0.1c4.4-2.6,8.9-5.2,13.3-7.8c0.2-0.1,0.3-0.1,0.4,0c4.4,2.6,8.9,5.2,13.3,7.8c0.1,0,0.1,0.1,0.2,0.1
	c-0.3,0.5-0.5,0.9-0.8,1.4c-0.2-0.1-0.3-0.2-0.5-0.2C26.7,23.8,26.7,29.9,26.7,36z M21.1,31.1c1.3,0,2.6,0,3.9,0c0-0.1,0-0.2,0-0.3
	c0-4.7,0-9.3,0-14c0-0.2,0-0.3-0.2-0.3c-3.5-2-7-4.1-10.5-6.1c-0.1-0.1-0.2-0.1-0.4,0c-3.5,2-7,4.1-10.5,6.1
	c-0.2,0.1-0.2,0.2-0.2,0.4c0,4.7,0,9.3,0,14c0,0.1,0,0.2,0,0.3c1.3,0,2.6,0,3.9,0c0-1.3,0.2-2.5,0.8-3.6c0.6-1.1,1.5-2,2.6-2.7
	c1.1-0.6,2.3-1,3.6-1c1.6,0,3.1,0.5,4.3,1.6C20.4,26.9,21.2,28.8,21.1,31.1z M8.9,34.4c3.5,0,7,0,10.6,0c0-0.1,0-0.2,0-0.3
	c0-1,0-2.1,0-3.1c0-0.3,0-0.7-0.1-1c-0.4-2.8-3.3-4.9-6.1-4.4c-2.6,0.5-4.4,2.6-4.4,5.3c0,1.1,0,2.2,0,3.3
	C8.9,34.2,8.9,34.3,8.9,34.4z M7.3,32.8c-1.3,0-2.6,0-3.9,0c0,0.5,0,1.1,0,1.6c1.3,0,2.6,0,3.9,0C7.3,33.8,7.3,33.3,7.3,32.8z
	 M21.1,34.4c1.3,0,2.6,0,3.9,0c0-0.5,0-1.1,0-1.6c-1.3,0-2.6,0-3.9,0C21.1,33.3,21.1,33.8,21.1,34.4z"/>
<path class="st2" d="M8.5,18.9c-0.9-1.1-0.7-2.3-0.1-3.1c1-1.3,3-1.3,4,0.1c0.3,0.4,0.6,0.6,1.1,0.6c0.3,0,0.6,0,1,0
	c0.4,0,0.6-0.1,0.8-0.4c0.8-1.2,2.3-1.5,3.5-0.7c1.2,0.8,1.4,2.4,0.5,3.5c0,0,0,0-0.1,0.1c0.3,0.4,0.6,0.9,0.6,1.5
	c0.1,1.1-0.6,2.1-1.7,2.4c-1.1,0.4-2.2,0-2.8-1c-0.2-0.4-0.5-0.5-1-0.5c-0.3,0-0.6,0-0.9,0c-0.4,0-0.7,0.1-1,0.5
	c-0.9,1.4-2.8,1.5-3.9,0.3c-0.7-0.8-0.8-2.1-0.1-3C8.4,19.1,8.5,19,8.5,18.9z M17.3,18.1c0.1,0,0.2,0,0.2-0.1
	c0.6-0.2,0.8-0.9,0.3-1.3c-0.4-0.4-1-0.3-1.3,0.2c-0.4,0.6-0.9,1-1.7,1.1c-0.4,0.1-0.8,0-1.2,0.1c-1.2,0.1-2.1-0.3-2.7-1.3
	c0,0,0,0,0,0c-0.2-0.3-0.6-0.4-0.9-0.2c-0.3,0.1-0.5,0.4-0.5,0.8c0,0.3,0.2,0.6,0.5,0.8c0.1,0,0.2,0,0.3,0.1c0,0.5,0,1,0,1.5
	c0,0,0,0.1,0,0.1c-0.1,0-0.2,0-0.3,0.1c-0.3,0.1-0.5,0.4-0.5,0.8c0,0.3,0.2,0.6,0.5,0.8c0.4,0.1,0.7,0,1-0.4c0.4-0.6,1-1,1.7-1.1
	c0.4-0.1,0.7,0,1.1,0c1.2-0.1,2.1,0.3,2.7,1.3c0,0,0,0,0,0c0.2,0.3,0.6,0.4,0.9,0.2c0.3-0.1,0.5-0.4,0.5-0.8c0-0.3-0.2-0.6-0.5-0.8
	c-0.1,0-0.2,0-0.3-0.1C17.3,19.2,17.3,18.7,17.3,18.1z"/>
<path class="st2" d="M41.5,26c0.3,0.1,0.6,0.2,0.9,0.4c0.5,0.3,0.8,0.9,0.8,1.5c0,0.7,0,1.5,0,2.2c0,0.4-0.3,0.7-0.6,0.7
	c-0.4,0-0.6-0.3-0.6-0.7c0-0.7,0-1.3,0-2c0-0.5-0.2-0.8-0.8-0.8c-0.2,0-0.3,0-0.5,0c0,0.1,0,0.2,0,0.2c0,0.8,0,1.6,0,2.5
	c0,0.4-0.3,0.7-0.6,0.7c-0.4,0-0.7-0.3-0.7-0.7c0-0.9,0-1.8,0-2.7c-0.4,0-0.8,0-1.3,0c0,0.1,0,0.1,0,0.2c0,0.8,0,1.6,0,2.5
	c0,0.4-0.3,0.7-0.6,0.7c-0.4,0-0.6-0.3-0.6-0.7c0-0.8,0-1.6,0-2.4c0-0.1,0-0.2,0-0.2c-0.4,0-0.8,0-1.3,0c0,0.1,0,0.1,0,0.2
	c0,0.8,0,1.6,0,2.5c0,0.4-0.3,0.7-0.6,0.7c-0.4,0-0.6-0.3-0.6-0.7c0-0.9,0-1.8,0-2.7c-0.4,0-0.8,0-1.3,0c0,0.1,0,0.2,0,0.2
	c0,0.8,0,1.6,0,2.5c0,0.4-0.3,0.7-0.7,0.7c-0.4,0-0.6-0.3-0.6-0.7c0-0.9,0-1.8,0-2.7c-0.3,0-0.5,0-0.8,0c-0.3,0-0.5,0.3-0.5,0.6
	c0,0.7,0,1.3,0,2c0,0.4-0.3,0.7-0.6,0.7c-0.4,0-0.7-0.3-0.7-0.7c0-0.7,0-1.3,0-2c0-1,0.6-1.8,1.6-2c0,0,0.1,0,0.1,0
	C34.2,26,37.9,26,41.5,26z"/>
<path class="st2" d="M30.2,40.2c-0.7-0.2-1.2-0.6-1.6-1.2c-0.5-0.8-0.7-1.7-0.4-2.7c0.2-0.6,0.4-1.3,0.7-1.9c0.8-2,3.3-2.6,4.9-1.2
	c0.1,0.1,0.2,0.1,0.3,0.1c1.3-0.5,2.5-0.5,3.8,0c0,0,0.1,0,0.1,0.1c0,0,0,0,0,0c0.4-0.4,0.9-0.7,1.5-0.8c1.4-0.3,2.9,0.4,3.4,1.7
	c0.3,0.7,0.6,1.5,0.8,2.2c0.4,1.5-0.4,3.1-1.9,3.6c0,0-0.1,0-0.1,0.1c0.1,0.3,0.2,0.7,0.3,1c0.6,1.9,0.3,3.5-1,5
	c-1,1.1-2.2,1.7-3.7,1.7c-1,0-2,0-2.9,0c-2.9,0-5.3-2.7-4.9-5.6c0.1-0.6,0.3-1.3,0.5-1.9C30.2,40.4,30.2,40.3,30.2,40.2z M36.1,46.7
	C36.1,46.7,36.1,46.7,36.1,46.7c0.5,0,0.9,0,1.4,0c2.5,0,4.3-2.4,3.6-4.8c-0.5-1.8-1.1-3.6-1.8-5.4c-0.4-1.3-1.7-2.2-3.1-2.2
	c-1.6,0-3,0.9-3.5,2.5c-0.4,1.2-0.8,2.4-1.2,3.6c-0.2,0.7-0.5,1.4-0.6,2.1c-0.3,2,1.2,4,3.2,4.2C34.8,46.8,35.4,46.7,36.1,46.7z
	 M41.5,39c0.1,0,0.2-0.1,0.3-0.1c0.1,0,0.1-0.1,0.2-0.1c0.6-0.5,0.9-1.3,0.6-2c-0.2-0.6-0.4-1.2-0.7-1.8c-0.1-0.2-0.2-0.4-0.3-0.5
	c-0.6-0.7-1.7-0.8-2.4-0.2c0,0,0,0.1,0.1,0.1c0.7,0.6,1.1,1.4,1.3,2.2C40.9,37.3,41.2,38.2,41.5,39z M32.9,34.2
	c-0.1-0.1-0.2-0.1-0.2-0.1c-0.9-0.5-2-0.1-2.4,0.8c-0.3,0.6-0.5,1.3-0.7,2c-0.3,0.9,0.3,1.9,1.2,2.1c0-0.1,0-0.1,0.1-0.2
	c0.3-0.8,0.5-1.6,0.8-2.4C31.7,35.6,32.2,34.8,32.9,34.2z"/>
<path class="st2" d="M35.4,44.7c0.1-0.5-0.1-0.7-0.5-0.9c-0.7-0.4-1.1-1-1.2-1.7c-0.1-0.7,0.2-1.3,0.9-1.6c0.7-0.3,1.3-0.2,2-0.2
	c0.2,0,0.5,0.1,0.7,0.1c0.9,0.3,1.2,1,1,1.8c-0.2,0.8-0.7,1.4-1.5,1.7c-0.2,0.1-0.2,0.1-0.2,0.3c0,0.3,0,0.6,0,0.9
	c0,0.4-0.3,0.7-0.6,0.7c-0.4,0-0.6-0.3-0.6-0.7C35.4,45,35.4,44.9,35.4,44.7z M36.1,41.6c-0.3,0-0.6,0.1-0.9,0.1
	c-0.2,0-0.2,0.1-0.2,0.3c0.1,0.4,0.3,0.6,0.7,0.8c0.2,0.1,0.5,0.1,0.8,0c0.3-0.2,0.6-0.5,0.7-0.8c0.1-0.2,0-0.3-0.2-0.3
	C36.7,41.6,36.4,41.6,36.1,41.6z"/>
<path class="st2" d="M34.8,38.2c0,0.3-0.3,0.6-0.6,0.6c-0.4,0-0.7-0.3-0.6-0.7c0-0.3,0.3-0.6,0.7-0.6C34.5,37.5,34.8,37.8,34.8,38.2
	z"/>
<path class="st2" d="M38,38.8c-0.3,0-0.6-0.3-0.7-0.6c0-0.4,0.3-0.7,0.6-0.7c0.3,0,0.6,0.3,0.6,0.6C38.6,38.5,38.3,38.8,38,38.8z"/>
</svg>
