<?xml version="1.0" encoding="utf-8"?>
<!-- Generator: Adobe Illustrator 23.0.5, SVG Export Plug-In . SVG Version: 6.00 Build 0)  -->
<svg version="1.1" id="Layer_1" xmlns="http://www.w3.org/2000/svg" xmlns:xlink="http://www.w3.org/1999/xlink" x="0px" y="0px"
	 viewBox="0 0 49 51" style="enable-background:new 0 0 49 51;" xml:space="preserve">
<style type="text/css">
	.st0{fill:#FFFAE6;}
	.st1{fill:#291B3F;}
	.st2{fill:#FCB647;}
</style>
<circle class="st0" cx="31.5" cy="31.5" r="15.5"/>
<path class="st1" d="M39.1,45c-12,0-23.9,0-35.9,0c0-8.8,0-17.6,0-26.4c-0.2,0.1-0.4,0.2-0.7,0.3c-0.4-0.7-0.8-1.3-1.2-2
	c0.1-0.1,0.2-0.1,0.3-0.2C8.1,13,14.5,9.3,20.9,5.6c0.2-0.1,0.4-0.1,0.6,0c6.4,3.7,12.7,7.4,19.1,11.2c0.1,0.1,0.2,0.1,0.3,0.2
	c-0.4,0.7-0.8,1.3-1.2,2c-0.2-0.1-0.4-0.2-0.7-0.3C39.1,27.4,39.1,36.2,39.1,45z M31.2,38c1.9,0,3.8,0,5.6,0c0-0.1,0-0.2,0-0.4
	c0-6.7,0-13.4,0-20.1c0-0.2-0.1-0.4-0.3-0.5c-5-2.9-10.1-5.9-15.1-8.8c-0.2-0.1-0.3-0.1-0.5,0c-5,2.9-10,5.9-15,8.8
	c-0.2,0.1-0.3,0.3-0.3,0.5c0,6.7,0,13.4,0,20.1c0,0.1,0,0.2,0,0.4c1.9,0,3.8,0,5.7,0c0-1.8,0.3-3.6,1.2-5.2c0.9-1.6,2.1-2.9,3.7-3.8
	c1.6-0.9,3.3-1.4,5.1-1.4c2.3,0,4.4,0.8,6.2,2.3C30,32,31.2,34.7,31.2,38z M13.6,42.7c5.1,0,10.1,0,15.2,0c0-0.2,0-0.3,0-0.4
	c0-1.5,0-3,0-4.4c0-0.5,0-1-0.1-1.5c-0.6-4.1-4.7-7-8.7-6.3c-3.8,0.7-6.3,3.7-6.4,7.6c0,1.6,0,3.1,0,4.7
	C13.6,42.4,13.6,42.5,13.6,42.7z M11.2,40.4c-1.9,0-3.8,0-5.6,0c0,0.8,0,1.5,0,2.3c1.9,0,3.7,0,5.6,0C11.2,41.9,11.2,41.2,11.2,40.4
	z M31.2,42.6c1.9,0,3.8,0,5.6,0c0-0.8,0-1.5,0-2.3c-1.9,0-3.8,0-5.6,0C31.2,41.1,31.2,41.9,31.2,42.6z"/>
<path class="st2" d="M13.6,20.5c-1.2-1.5-1-3.3-0.2-4.4c1.4-1.9,4.4-1.9,5.7,0.1c0.4,0.6,0.9,0.8,1.5,0.8c0.5,0,0.9,0,1.4,0
	c0.5,0,0.9-0.2,1.2-0.6c1.1-1.8,3.3-2.2,5-1.1c1.7,1.2,2,3.4,0.7,5.1c0,0,0,0.1-0.1,0.1c0.5,0.6,0.8,1.3,0.9,2.1
	c0.1,1.6-0.9,3-2.4,3.5c-1.5,0.5-3.2-0.1-4-1.4c-0.3-0.5-0.8-0.8-1.4-0.7c-0.4,0-0.9,0-1.4,0c-0.6,0-1,0.2-1.4,0.7
	c-1.3,2-4,2.1-5.6,0.4c-1-1.2-1.1-3-0.2-4.3C13.5,20.7,13.5,20.6,13.6,20.5z M26.2,19.3c0.1,0,0.2-0.1,0.3-0.1
	c0.8-0.3,1.1-1.3,0.5-1.9c-0.5-0.6-1.4-0.4-1.8,0.3c-0.6,0.9-1.4,1.5-2.4,1.7c-0.6,0.1-1.1,0-1.7,0.1c-1.7,0.1-3-0.4-3.9-1.9
	c0,0,0,0,0,0c-0.3-0.4-0.8-0.5-1.3-0.3c-0.5,0.2-0.8,0.6-0.7,1.1c0,0.5,0.3,0.9,0.8,1.1c0.1,0,0.2,0.1,0.4,0.1c0,0.7,0,1.4,0,2.1
	c0,0,0,0.1,0,0.1c-0.1,0-0.3,0.1-0.4,0.1c-0.5,0.2-0.8,0.6-0.8,1.1c0,0.5,0.3,0.9,0.8,1.1c0.5,0.2,1.1,0,1.4-0.6
	c0.6-0.9,1.4-1.5,2.5-1.6c0.5-0.1,1.1,0,1.6,0c1.7-0.1,3,0.4,3.9,1.9c0,0,0,0,0,0c0.3,0.4,0.8,0.5,1.3,0.3c0.5-0.2,0.8-0.6,0.8-1.1
	c0-0.5-0.3-0.9-0.8-1.1c-0.1,0-0.2-0.1-0.4-0.1C26.2,20.8,26.2,20.1,26.2,19.3z"/>
</svg>
