<?xml version="1.0" encoding="utf-8"?>
<!-- Generator: Adobe Illustrator 23.0.5, SVG Export Plug-In . SVG Version: 6.00 Build 0)  -->
<svg version="1.1" id="Layer_1" xmlns="http://www.w3.org/2000/svg" xmlns:xlink="http://www.w3.org/1999/xlink" x="0px" y="0px"
	 viewBox="0 0 382.88 369.37" style="enable-background:new 0 0 382.88 369.37;" xml:space="preserve">
<style type="text/css">
	.st0{fill:#E6353F;}
	.st1{fill:#FE4A4A;}
	.st2{fill:#696969;}
	.st3{fill:#190835;}
	.st4{fill:#FAE1D9;}
	.st5{fill:#E39542;}
	.st6{fill:#E18424;}
	.st7{fill:#DCD9EA;}
	.st8{fill:#464146;}
</style>
<g>
	<path class="st4" d="M371.33,32.33c-14.33,3.27-27.22,9.74-38.98,18.33c-21.97,16.04-37.02,37.12-44.95,63.22
		c-0.65,2.13-0.68,3.65,1.25,5.22c19.96,16.21,33.5,36.67,40.49,61.45c0.17,0.6,0.43,1.17,0.65,1.75c4.57-2.34,8.45-5.69,12.2-9.07
		c12.62-11.39,22.95-24.56,29.94-40.19c5.58-12.47,8.96-25.43,10.37-39.08c2.07-19.93-1.59-38.85-8.35-57.4
		C373.39,35,373.23,33.1,371.33,32.33z"/>
	<path class="st5" d="M229.59,93.83c5.77,0.21,11.43,1.27,16.97,2.7c2.88,0.74,4.56,0.07,6.54-1.92
		c30.79-30.9,61.68-61.69,92.43-92.63c2.53-2.55,3.84-2.74,6.32,0.02c7.48,8.32,13.8,17.38,19.06,27.25
		c1.65,3.09,1.01,3.95-2.2,4.99c-38.83,12.57-65.06,38.2-79.04,76.52c-1.17,3.21-0.7,4.93,2.12,7.08
		c25.46,19.44,40.51,45.19,46.42,76.62c6.43,34.2,13.11,68.36,19.97,102.47c6.73,33.5-13.11,64.23-46.37,71.19
		c-3.79,0.79-7.64,1.13-11.54,1.13c-48.49,0-96.99,0.03-145.48,0.05c-0.62,0-1.24-0.08-1.86-0.13c-0.1-0.65-0.34-1.19-1.09-1.33
		c-12.71-2.42-23.14-8.83-31.75-18.32c-9.39-10.35-14.37-22.64-15.08-36.5c-0.66-12.82,3.57-25.01,5.63-37.47
		c1.83-11.13,4.16-22.19,6.37-33.26c2.13-10.68,4.37-21.34,6.57-32.01c0.04,6.62,0.03,13.23,0.14,19.85
		c0.12,6.75,5.57,12.17,12.16,12.24c6.35,0.06,11.84-5.29,11.94-11.94c0.13-8.24,0.02-16.48,0.04-24.72
		c0.01-3.31-1.22-6.06-3.58-8.35c-5.27-5.11-11.77-4.69-18.24,1.17c0.61-7.97,2.74-15.63,5.21-23.15c7-21.3,19.51-38.97,36.4-53.54
		c2.95-2.55,5.76-5.52,9.65-6.84c0.08,0.74,0.23,1.48,0.24,2.22c0.01,33.11-0.01,66.23,0.06,99.34c0,2.12-0.88,3.47-2.26,4.85
		c-7.46,7.39-14.91,14.77-22.27,22.26c-8.75,8.91-18.14,17.22-26.22,26.77c-14.26,16.87-11.83,43.77,4.81,58.02
		c9.44,8.08,20.29,11.31,32.49,10.76c10.04,12.48,23.04,17.31,38.65,14.14c9.11-1.85,16.86-6.42,22.09-14.51
		c24.19,1.31,42.38-12.81,46.08-36.56c2.13-13.69-2.43-25.63-12.21-35.46c-14.81-14.89-29.64-29.74-44.57-44.51
		c-2.04-2.02-2.82-4.03-2.81-6.86c0.08-37.99,0.06-75.98,0.06-113.97c0-1.25,0.08-2.49,0.12-3.74
		C217.58,96.45,223.59,95.14,229.59,93.83z M265.41,217.95c0-3.75,0.03-7.49-0.01-11.24c-0.08-7.31-5.09-12.73-11.85-12.89
		c-6.71-0.15-12.34,5.04-12.58,12.19c-0.27,8.11-0.29,16.24,0.01,24.34c0.26,6.91,5.93,12.1,12.42,12.03
		c6.63-0.07,11.88-5.65,12-12.82C265.46,225.69,265.41,221.82,265.41,217.95z"/>
	<path class="st6" d="M177.33,115.01c-3.89,1.32-6.7,4.29-9.65,6.84c-16.89,14.57-29.4,32.24-36.4,53.54
		c-2.47,7.52-4.61,15.18-5.21,23.15c-2.47,3.57-2.41,7.68-2.47,11.76c-2.19,10.67-4.44,21.33-6.57,32.01
		c-2.2,11.07-4.53,22.12-6.37,33.26c-2.05,12.46-6.28,24.65-5.63,37.47c0.71,13.87,5.69,26.15,15.08,36.5
		c8.61,9.49,19.04,15.91,31.75,18.32c0.74,0.14,0.98,0.67,1.09,1.33c-22.97,0.01-45.96,0.48-68.92-0.08
		c-24.87-0.6-47.82-21.11-53.37-46.02c-2.64-11.87-0.44-23.26,1.81-34.76c6.2-31.73,12.37-63.46,18.56-95.18
		c0.64-3.29,1.38-6.56,2.07-9.83c0.22-0.58,0.48-1.15,0.65-1.75c6.99-24.77,20.53-45.24,40.49-61.45c1.94-1.57,1.9-3.09,1.25-5.22
		c-7.93-26.1-22.98-47.18-44.95-63.22C38.77,43.07,25.88,36.6,11.55,33.33c-0.1-1.47,0.78-2.62,1.39-3.81
		c5.05-9.97,11.45-19,18.94-27.32c2.38-2.65,3.72-3.1,6.57-0.23c31.15,31.4,62.5,62.62,93.71,93.96c1.93,1.93,3.46,2.35,6.11,1.58
		c12.81-3.73,25.94-4.82,39.24-4.12C177.44,100.6,177.38,107.8,177.33,115.01z"/>
	<path class="st4" d="M11.55,33.33c14.33,3.27,27.22,9.74,38.98,18.33c21.97,16.04,37.02,37.12,44.95,63.22
		c0.65,2.13,0.68,3.65-1.25,5.22c-19.96,16.21-33.5,36.67-40.49,61.45c-0.17,0.6-0.43,1.17-0.65,1.75
		c-4.57-2.34-8.45-5.69-12.2-9.07c-12.62-11.39-22.95-24.56-29.94-40.19C5.37,121.57,2,108.61,0.58,94.96
		c-2.07-19.93,1.59-38.85,8.35-57.4C9.5,36,9.65,34.1,11.55,33.33z"/>
	<path class="st7" d="M177.33,115.01c0.06-7.2,0.11-14.41,0.17-21.61c10.71-0.52,10.71-0.52,10.71,10.1
		c0,34.44-0.25,68.88,0.16,103.31c0.11,9.26-1.94,17.6-5.33,25.99c-4.05,10.01-8.08,20.05-11.31,30.37
		c-2.85,0.06-5.72,0.31-8.56,0.13c-2.52-0.16-2.9,0.95-2.69,3.07c0.6,6.07,2.87,11.5,5.97,16.66c-1.49,5.78-1.84,11.71-1.4,17.6
		c0.68,9.25,1.68,18.5,5.23,27.22c1.22,2.98,2.5,5.97,5.39,7.83c-3.43,2.49-7.73,2.18-11.5,3.56c-12.2,0.55-23.05-2.67-32.49-10.76
		c-16.64-14.25-19.07-41.16-4.81-58.02c8.08-9.55,17.47-17.85,26.22-26.77c7.35-7.49,14.81-14.88,22.27-22.26
		c1.39-1.38,2.27-2.73,2.26-4.85c-0.07-33.11-0.05-66.23-0.06-99.34C177.56,116.49,177.41,115.75,177.33,115.01z"/>
	<path class="st8" d="M166.45,283.02c-3.1-5.15-5.38-10.59-5.97-16.66c-0.21-2.12,0.16-3.23,2.69-3.07c2.84,0.18,5.7-0.07,8.56-0.13
		c17.71,0.05,35.42,0.22,53.13,0.06c3.61-0.03,4.18,1.12,3.64,4.23c-2.56,14.81-10.78,24.97-25.34,28.76
		c-14.37,3.74-26.53-0.82-35.92-12.42C167,283.51,166.71,283.28,166.45,283.02z"/>
	<path class="st6" d="M164.17,339.23c3.77-1.38,8.07-1.07,11.5-3.56c6.71-2.27,11.86-6.77,16.54-11.82
		c1.81-1.95,2.92-1.91,4.66,0.04c7.49,8.4,16.79,13.53,28.03,14.98c-5.23,8.08-12.98,12.65-22.09,14.51
		C187.21,356.54,174.21,351.71,164.17,339.23z"/>
	<path class="st6" d="M229.59,93.83c-6,1.31-12.01,2.61-18.01,3.92c-0.79-3.41,0.26-4.91,4.03-4.53
		C220.25,93.69,224.96,92.78,229.59,93.83z"/>
	<path class="st8" d="M265.41,217.95c0,3.87,0.05,7.74-0.01,11.61c-0.12,7.17-5.37,12.75-12,12.82
		c-6.49,0.07-12.16-5.11-12.42-12.03c-0.3-8.1-0.28-16.23-0.01-24.34c0.24-7.15,5.87-12.34,12.58-12.19
		c6.76,0.15,11.77,5.57,11.85,12.89C265.44,210.46,265.41,214.2,265.41,217.95z"/>
	<path class="st8" d="M123.58,210.29c0.06-4.08,0-8.19,2.47-11.76c6.47-5.86,12.97-6.28,18.24-1.17c2.35,2.29,3.59,5.04,3.58,8.35
		c-0.02,8.24,0.09,16.48-0.04,24.72c-0.1,6.65-5.59,12.01-11.94,11.94c-6.59-0.07-12.04-5.49-12.16-12.24
		C123.61,223.52,123.62,216.9,123.58,210.29z"/>
</g>
</svg>
