<?xml version="1.0" encoding="utf-8"?>
<!-- Generator: Adobe Illustrator 23.0.5, SVG Export Plug-In . SVG Version: 6.00 Build 0)  -->
<svg version="1.1" id="Layer_1" xmlns="http://www.w3.org/2000/svg" xmlns:xlink="http://www.w3.org/1999/xlink" x="0px" y="0px"
	 viewBox="0 0 14 10" style="enable-background:new 0 0 14 10;" xml:space="preserve">
<style type="text/css">
	.st0{fill:#0E1C1E;}
</style>
<path class="st0" d="M0.3,5C0.4,5,0.5,4.9,0.5,4.9c0.6-0.5,1.1-1.1,1.7-1.6c1,1,1.9,2,2.9,3.1C7.4,4.2,9.6,2.1,11.9,0
	c0.2,0.2,0.4,0.4,0.6,0.6c0.4,0.4,0.7,0.8,1.1,1.2c0,0,0.1,0.1,0.1,0.1c0,0,0,0,0,0c-0.4,0.3-0.7,0.7-1.1,1c-2.5,2.3-5,4.7-7.5,7
	C5,10,5,10,5,10C4.9,9.9,4.9,9.9,4.8,9.8C3.4,8.3,1.9,6.7,0.3,5C0.4,5.1,0.4,5.1,0.3,5C0.3,5.1,0.3,5,0.3,5z"/>
</svg>
