<?xml version="1.0" encoding="utf-8"?>
<!-- Generator: Adobe Illustrator 23.0.5, SVG Export Plug-In . SVG Version: 6.00 Build 0)  -->
<svg version="1.1" id="Layer_1" xmlns="http://www.w3.org/2000/svg" xmlns:xlink="http://www.w3.org/1999/xlink" x="0px" y="0px"
	 viewBox="0 0 20 20" style="enable-background:new 0 0 20 20;" xml:space="preserve">
<style type="text/css">
	.st0{fill:#727488;}
</style>
<path class="st0" d="M0,18.4c0-0.2,0-0.4,0-0.5c0.1-0.6,0.5-1,0.9-1.4c2.1-2.1,4.1-4.1,6.2-6.2c0.1-0.1,0.1-0.1,0.2-0.1
	C7.3,10,7.2,9.9,7.2,9.9C5,7.7,2.9,5.5,0.7,3.4C0.2,2.9,0,2.3,0.2,1.7c0.2-0.7,0.6-1.2,1.3-1.4c0.7-0.2,1.4,0,1.9,0.5
	C5.5,2.9,7.7,5,9.8,7.1C9.9,7.2,9.9,7.3,10,7.4c0.1-0.1,0.1-0.1,0.2-0.2c1.5-1.5,3-3,4.5-4.5C15.4,2,16,1.3,16.8,0.6
	c0.7-0.7,1.9-0.6,2.6,0.2C20,1.6,20,2.7,19.3,3.4c-2.1,2.1-4.3,4.3-6.4,6.4c-0.1,0.1-0.1,0.1-0.2,0.1c0.1,0.1,0.2,0.1,0.2,0.2
	c2.1,2.1,4.2,4.1,6.2,6.2c0.4,0.4,0.8,0.8,0.9,1.4c0,0.2,0,0.3,0,0.5c0,0.1,0,0.1,0,0.2c-0.2,0.7-0.6,1.2-1.4,1.4
	c-0.8,0.2-1.4,0-2-0.6c-2.1-2.1-4.3-4.3-6.4-6.4c-0.1-0.1-0.1-0.1-0.1-0.2c0,0-0.1,0-0.1,0c0,0.1-0.1,0.1-0.1,0.2
	c-2.1,2.1-4.2,4.2-6.4,6.4C3,19.7,2.4,20,1.7,19.9c-0.8,0-1.5-0.6-1.7-1.4C0.1,18.5,0.1,18.5,0,18.4z"/>
</svg>
