<?xml version="1.0" encoding="utf-8"?>
<!-- Generator: Adobe Illustrator 23.0.5, SVG Export Plug-In . SVG Version: 6.00 Build 0)  -->
<svg version="1.1" id="Layer_1" xmlns="http://www.w3.org/2000/svg" xmlns:xlink="http://www.w3.org/1999/xlink" x="0px" y="0px"
	 viewBox="0 0 452 467" style="enable-background:new 0 0 452 467;" xml:space="preserve">
<style type="text/css">
	.st0{clip-path:url(#SVGID_2_);fill:#FCAA2A;}
	.st1{clip-path:url(#SVGID_2_);fill:#30363C;}
	.st2{fill:#30363C;}
</style>
<g>
	<g>
		<defs>
			<path id="SVGID_1_" d="M40,154.76c0.57-2.03,1.05-4.09,1.71-6.09c4.63-14.04,17.48-23.13,32.92-23.15
				c42.37-0.04,84.75-0.01,127.12-0.01c1.47,0,2.93,0,4.76,0c0-4.95,0-9.54,0-14.13c0-11.62-0.02-23.25,0.01-34.87
				c0.02-7.99,4.56-12.47,12.61-12.49c13.5-0.02,27-0.01,40.5-0.01c9.22,0,12.21,2.23,14.83,11.25c4.15-1.24,8.37-2.28,12.44-3.76
				c10.18-3.7,16.84-13.28,17.12-24.16c0.14-5.24-0.12-10.55,0.73-15.68c2.79-16.94,18.44-28.84,35.66-27.56
				c16.91,1.26,30.59,15.42,31.03,32.4c0.24,8.98,0.04,17.98,0.04,27.51c3.15,0,6.09,0,9.04,0c25.9,0.02,43.48,17.62,43.5,43.56
				c0.01,18.62,0.02,37.25,0,55.87c-0.04,25.37-17.79,43.04-43.24,43.07c-9.75,0.01-19.5,0-29.25,0c-1.22,0-2.43,0-4.01,0
				c0,1.82,0,3.29,0,4.76c0,36.87,0.01,73.75,0,110.62C347.49,343.81,333.3,358,311.4,358c-69.25,0.01-138.5-0.02-207.74,0.09
				c-2.42,0-5.16,0.87-7.2,2.19c-12.27,7.93-24.38,16.12-36.56,24.2c-1.85,1.23-3.76,2.35-5.65,3.52c-2,0-4,0-6,0
				c-3.73-1.77-6.47-4.53-8.25-8.25C40,304.76,40,229.76,40,154.76z M206.5,148.14c-1.13-0.06-1.86-0.12-2.59-0.12
				c-43.12-0.01-86.25-0.02-129.37,0.01c-7.55,0.01-12.03,4.78-12.03,12.68c-0.01,63.75-0.01,127.49,0,191.24
				c0,1.04,0.13,2.09,0.24,3.6c8.54-5.67,16.72-10.93,24.69-16.48c3.66-2.55,7.43-3.63,11.89-3.62
				c70.75,0.08,141.49,0.06,212.24,0.05c9.23,0,13.44-4.25,13.44-13.56c0-37.12,0-74.25,0-111.37c0-1.31,0-2.62,0-4.29
				c-18.04,0.89-35.35,0.68-50.86-9.73c-2.17,7.86-7.37,10.16-14.61,10.02c-13.24-0.25-26.5-0.06-39.75-0.07
				c-9.01-0.01-13.28-4.29-13.28-13.33C206.49,178.31,206.5,163.44,206.5,148.14z M274.22,98.76c-0.1,0.65-0.2,1.02-0.2,1.38
				c-0.01,21.25-0.04,42.49,0.05,63.74c0.01,1.35,0.67,2.93,1.52,4.02c8.01,10.27,18.6,15.9,31.61,16.03
				c25.12,0.25,50.24,0.13,75.36,0.05c10.85-0.04,18.88-8.16,18.93-19.07c0.08-19.75,0.08-39.49,0-59.24
				c-0.04-11.1-8.12-19.05-19.23-19.15c-6.75-0.06-13.5,0-20.25-0.01c-8.55-0.02-12.98-4.39-12.99-12.86
				c-0.02-11.62,0.02-23.25-0.02-34.87c-0.03-7.23-4.78-12.31-11.34-12.25c-6.41,0.06-11.06,5.09-11.14,12.08
				c-0.03,2.87,0.02,5.75-0.02,8.62c-0.29,21.2-13.65,39.48-33.8,46.07C286.64,95.26,280.49,96.91,274.22,98.76z M229.16,183.74
				c7.58,0,14.87,0,22.04,0c0-32.54,0-64.82,0-97.03c-7.49,0-14.69,0-22.04,0C229.16,119.1,229.16,151.28,229.16,183.74z"/>
		</defs>
		<clipPath id="SVGID_2_">
			<use xlink:href="#SVGID_1_"  style="overflow:visible;"/>
		</clipPath>
		<rect x="206.5" class="st0" width="243" height="212.01"/>
		<polygon class="st1" points="452,388 0,467 0,105 206,105 206,207 381,207 		"/>
	</g>
	<path class="st2" d="M193.73,260.51c-31.73,0-63.45,0.01-95.18-0.02c-1.85,0-3.77-0.09-5.53-0.6c-5.23-1.52-8.49-6.44-7.98-11.67
		c0.52-5.35,4.91-9.68,10.36-10.16c1.12-0.1,2.25-0.04,3.37-0.04c63.33,0,126.66,0,189.99,0.01c1.62,0,3.28-0.05,4.84,0.29
		c5.69,1.26,9.5,6.62,8.84,12.18c-0.7,5.83-5.4,9.98-11.65,10c-21.86,0.05-43.72,0.02-65.58,0.02
		C214.72,260.51,204.22,260.51,193.73,260.51z"/>
	<path class="st2" d="M193.34,305.51c-31.98,0-63.95,0.02-95.93-0.01c-8.92-0.01-14.64-7.5-11.61-15.19
		c1.83-4.64,5.41-7.11,10.37-7.26c4.99-0.15,9.99-0.04,14.99-0.04c59.21,0,118.41,0,177.62,0.01c1.62,0,3.28-0.05,4.84,0.3
		c5.69,1.27,9.5,6.63,8.82,12.19c-0.71,5.83-5.41,9.97-11.67,9.98c-22.61,0.05-45.22,0.02-67.83,0.02
		C213.07,305.51,203.21,305.51,193.34,305.51z"/>
	<path class="st2" d="M133.49,215.51c-11.98,0-23.96,0.02-35.95-0.01c-7.5-0.02-12.63-4.72-12.54-11.41
		c0.09-6.52,5.17-11.07,12.48-11.08c24.21-0.02,48.43-0.02,72.64,0c7.27,0.01,12.34,4.66,12.35,11.21
		c0.01,6.56-5.05,11.25-12.3,11.27C157.96,215.53,145.72,215.51,133.49,215.51z"/>
</g>
</svg>
