<?xml version="1.0" encoding="utf-8"?>
<!-- Generator: Adobe Illustrator 23.0.5, SVG Export Plug-In . SVG Version: 6.00 Build 0)  -->
<svg version="1.1" id="Layer_1" xmlns="http://www.w3.org/2000/svg" xmlns:xlink="http://www.w3.org/1999/xlink" x="0px" y="0px"
	 viewBox="0 0 361.46 205.94" style="enable-background:new 0 0 361.46 205.94;" xml:space="preserve">
<style type="text/css">
	.st0{clip-path:url(#SVGID_2_);fill:#FCAA2A;}
	.st1{clip-path:url(#SVGID_2_);fill:#30363C;}
	.st2{fill:#30363C;}
	.st3{fill:#222222;}
	.st4{fill:#FFFFFF;}
	.st5{fill:#33363B;}
	.st6{fill:#2E2345;}
	.st7{fill:#FDA39A;}
	.st8{fill:#FFF2F1;}
	.st9{fill:#2F363C;}
</style>
<g>
	<g>
		<path class="st9" d="M361.46,28.83c-1.6,7.87-6.54,13.52-12.04,19c-49.81,49.68-99.54,99.43-149.25,149.2
			c-7.83,7.83-16.93,11.12-27.57,7.34c-3.84-1.37-7.61-3.89-10.52-6.79C110.73,146.45,59.51,95.19,8.29,43.93
			c-7.76-7.77-10.4-17.09-6.52-27.48C5.41,6.69,12.88,1.16,23.29,0.13C31.7-0.7,38.62,2.66,44.48,8.56
			C56.26,20.4,68.1,32.19,79.91,44c32.61,32.61,65.21,65.22,97.8,97.84c0.91,0.91,1.61,2.02,3.97,3.7c0.7-1.23,1.17-2.7,2.13-3.67
			c44.3-44.37,88.65-88.7,132.97-133.05c7.59-7.6,16.4-10.85,26.94-7.56c8.31,2.59,13.81,8.18,16.47,16.51
			c0.42,1.33,0.85,2.65,1.28,3.98C361.46,24.12,361.46,26.48,361.46,28.83z"/>
	</g>
</g>
</svg>
