<?xml version="1.0" encoding="utf-8"?>
<!-- Generator: Adobe Illustrator 23.0.5, SVG Export Plug-In . SVG Version: 6.00 Build 0)  -->
<svg version="1.1" id="Layer_1" xmlns="http://www.w3.org/2000/svg" xmlns:xlink="http://www.w3.org/1999/xlink" x="0px" y="0px"
	 viewBox="0 0 99.15 54.34" style="enable-background:new 0 0 99.15 54.34;" xml:space="preserve">
<style type="text/css">
	.st0{fill:#E6353F;}
	.st1{fill:#FE4A4A;}
	.st2{fill:#696969;}
</style>
<g>
	<path class="st2" d="M0,3.91C0.17,3.51,0.32,3.09,0.52,2.7C1.39,0.95,2.8,0.04,4.76,0.01C5.05,0,5.34,0,5.63,0
		c29.3,0,58.6,0,87.9,0c0.64,0,1.3-0.02,1.93,0.12c3.3,0.72,4.78,4.68,2.78,7.41c-0.28,0.39-0.63,0.74-0.97,1.08
		c-14.6,14.61-29.2,29.21-43.81,43.81c-2.56,2.55-5.21,2.56-7.76,0.01C31.26,37.99,16.83,23.54,2.37,9.11
		C1.36,8.09,0.42,7.06,0,5.66C0,5.07,0,4.49,0,3.91z"/>
</g>
</svg>
