<?xml version="1.0" encoding="utf-8"?>
<!-- Generator: Adobe Illustrator 23.0.5, SVG Export Plug-In . SVG Version: 6.00 Build 0)  -->
<svg version="1.1" id="Layer_1" xmlns="http://www.w3.org/2000/svg" xmlns:xlink="http://www.w3.org/1999/xlink" x="0px" y="0px"
	 viewBox="0 0 404 404" style="enable-background:new 0 0 404 404;" xml:space="preserve">
<style type="text/css">
	.st0{fill:#FEFEFE;}
</style>
<g>
	<path class="st0" d="M404,190.1c0,7.9,0,15.8,0,23.7c-0.2,1.1-0.6,2.2-0.7,3.4c-1.4,20.9-5.7,41.2-14.1,60.3
		c-34.3,77.7-94,120.2-178.7,126c-39.8,2.7-77.4-7-111.4-28C37.9,337.8,4.7,282.6,0.4,210.9c-2.2-36.6,5.7-71.5,23.4-103.6
		c32.6-59,82.3-94.1,148.9-105c5.8-1,11.7-1.5,17.5-2.2c7.9,0,15.8,0,23.7,0c1,0.2,2,0.6,3,0.7c28.6,1.9,55.7,9.5,80.6,23.4
		c56.6,31.6,91.3,79.3,103.3,143.1C402.3,174.8,403,182.5,404,190.1z M202.1,370.1c92.9-0.1,168-75.1,168.1-168
		c0.1-92.9-75.3-168.4-168.2-168.3C109.1,33.9,34,109,33.9,201.9C33.7,294.7,109.2,370.2,202.1,370.1z"/>
	<path class="st0" d="M168.8,202.4c0-19.6,0.1-39.2,0-58.8c0-4.8,1-8.9,5.6-11.2c4.6-2.4,8.6-0.6,12.4,2.2
		c26.8,19.5,53.6,39,80.3,58.5c7.8,5.6,7.8,12.9,0,18.6c-26.9,19.6-53.8,39.1-80.7,58.6c-3.8,2.7-7.7,4.1-12.1,1.9
		c-4.4-2.3-5.5-6.2-5.5-10.9C168.8,241.5,168.8,222,168.8,202.4z"/>
</g>
</svg>
