<?xml version="1.0" encoding="utf-8"?>
<!-- Generator: Adobe Illustrator 23.0.5, SVG Export Plug-In . SVG Version: 6.00 Build 0)  -->
<svg version="1.1" id="Layer_1" xmlns="http://www.w3.org/2000/svg" xmlns:xlink="http://www.w3.org/1999/xlink" x="0px" y="0px"
	 viewBox="0 0 409.5 324" style="enable-background:new 0 0 409.5 324;" xml:space="preserve">
<style type="text/css">
	.st0{fill:#FEFEFE;}
</style>
<g>
	<path class="st0" d="M0,57.8C2.1,50.8,3.6,43.6,6.5,37C18.6,10.4,47.7-4.2,77.3,1c27.6,4.9,49.7,28.8,52.4,57
		c2,20-3.8,37.5-17.7,51.9c-15.1,15.6-30.6,30.8-46,46.2c-0.3,0.3-0.6,0.4-1.1,0.8c-7.1-7.1-14.1-14.1-21.2-21.2
		c-8.7-8.7-17.4-17.3-25.9-26.1c-9.6-10-15.3-22-17.1-35.7c-0.1-0.6-0.5-1.2-0.7-1.8C0,67.4,0,62.6,0,57.8z M64,122.1
		c11.3-10.8,23.5-20.4,33.3-32c18.6-22.2,7.2-56.1-20.6-64.3C59,20.5,40,27.6,30.4,43.1c-9.7,15.6-8,36.1,4.4,49.7
		c3.2,3.5,6.7,6.9,10.1,10.3C51.6,109.7,58.2,116.3,64,122.1z"/>
	<path class="st0" d="M124.3,152.2c0-8.1,0-15.8,0-23.7c1.1-0.1,2.1-0.3,3.2-0.3c25.7,0,51.5-0.1,77.2,0c26.5,0.1,48.3,18,53.5,43.5
		C264.7,204,240,235.6,207,236c-38,0.5-76,0.1-114,0.2c-3.9,0-8,0.5-11.8,1.6c-12.5,3.6-21.5,16.4-20.9,29
		c0.7,14.6,10.6,26.3,24.4,28.7c2.9,0.5,5.8,0.6,8.8,0.6c62.3,0,124.5,0,186.8,0c1.6,0,3.2,0,5,0c0,8,0,15.6,0,23.8
		c-1.3,0.1-2.7,0.2-4.1,0.2c-63.1,0-126.1,0-189.2,0c-30.8,0-53.4-21.1-55.6-51.8c-1.9-26,19.1-51.9,44.9-55.4
		c4.1-0.6,8.2-0.8,12.3-0.8c36.7-0.1,73.3,0,110-0.1c14.1,0,25.4-7.6,29.6-19.7c7.1-20.4-7.2-40.2-29.3-40.3
		c-24.8-0.1-49.6,0-74.4,0C128,152.2,126.4,152.2,124.3,152.2z"/>
	<path class="st0" d="M344.4,324c-16.1-15.8-33.2-31.2-48.6-48.1c-17.3-19-21.1-41.9-12-65.9c8.8-23.3,26.2-37.3,50.8-41.1
		c41.3-6.3,76.8,26.1,74.8,67.8c-0.7,15-5.8,28.6-16.3,39.4C377.1,292.5,360.5,308.2,344.4,324z M344.3,289.9
		c10.5-10.1,22.2-19.9,32-31.2c10.9-12.5,12.2-27.7,5.4-42.7c-7.1-15.7-20-23.7-37.1-23.8c-16.9-0.1-29.9,7.9-37.1,23.3
		c-7.2,15.5-5.7,31.1,5.8,44C323,270.4,334.2,280.1,344.3,289.9z"/>
	<path class="st0" d="M65,93c-15.6,0.1-28.6-12.6-28.7-28.3c-0.1-15.5,12.9-28.5,28.5-28.6c15.6,0,28.6,13,28.5,28.5
		C93.2,80.2,80.5,92.9,65,93z M63.7,69.6c0.6,0,1.2,0,1.8,0.1c1.2-1.6,3.1-3,3.5-4.8c0.6-2.7-1.2-4.6-4.1-4.7
		c-2.9-0.1-4.7,1.8-4.4,4.4C60.7,66.4,62.6,67.9,63.7,69.6z"/>
	<path class="st0" d="M315.8,232.8c-0.1-15.7,12.6-28.6,28.3-28.6c15.5-0.1,28.6,13,28.6,28.5c0,15.4-12.8,28.2-28.2,28.4
		C328.7,261.2,315.9,248.6,315.8,232.8z M339.2,231.7c0,0.6,0,1.2,0,1.8c1.6,1.2,3.1,3,4.8,3.4c2.8,0.6,4.6-1.5,4.6-4.2
		c0-2.7-1.7-4.8-4.5-4.3C342.3,228.7,340.8,230.5,339.2,231.7z"/>
</g>
</svg>
