<?xml version="1.0" encoding="utf-8"?>
<!-- Generator: Adobe Illustrator 23.0.5, SVG Export Plug-In . SVG Version: 6.00 Build 0)  -->
<svg version="1.1" id="Layer_1" xmlns="http://www.w3.org/2000/svg" xmlns:xlink="http://www.w3.org/1999/xlink" x="0px" y="0px"
	 viewBox="0 0 512 512" style="enable-background:new 0 0 512 512;" xml:space="preserve">
<style type="text/css">
	.st0{fill:#FEFEFE;}
</style>
<g>
	<path class="st0" d="M512,266c-2,3.4-3.4,7.4-6.1,10.1c-5.7,5.9-13,7.4-20.7,4.6c-7.7-2.8-12-8.7-13-16.8c-0.2-2-0.2-4-0.2-6
		c0-45.3,0-90.6,0-136c0-20.4-12.2-36.4-30.9-40.8c-2.4-0.6-4.9-1-7.4-1c-9-0.1-18,0-27.7,0c0,6.9,0.2,13.7,0,20.4
		c-0.7,15.7-17.4,24.6-30.5,16.4c-6.3-3.9-9.3-9.8-9.4-17.2c-0.1-6.3,0-12.6,0-19.3c-30.3,0-60.3,0-91,0c0,5.9,0,11.8,0,17.8
		c-0.1,12.8-8.2,21.7-19.8,21.8c-11.8,0.1-20.1-8.9-20.2-21.9c0-5.8,0-11.6,0-17.7c-30,0-59.7,0-90,0c0,6,0,12,0,17.9
		c-0.1,12.7-8.3,21.6-19.9,21.7c-11.6,0.1-20-8.9-20.1-21.5c-0.1-6,0-11.9,0-19c-11.8,0.6-23.5-0.1-34.6,2.1
		c-18.4,3.7-30,19.7-30.4,38.9c-0.2,7,0,14,0,21c0,95.8,0,191.6,0,287.4c0,17.3,6.6,31.1,22.5,38.6c6.2,2.9,13.8,4.3,20.7,4.3
		c54,0.3,108,0.2,162,0.1c6.6,0,12.7,1.3,17.3,6.3c5.5,6,7.1,13.2,4.2,20.9c-2.9,7.5-8.6,11.6-16.5,12.7c-1.3,0.2-2.7,0.2-4,0.2
		c-55.2,0-110.3,0.1-165.5,0c-35.1-0.1-64.7-21.3-76.2-54.2C2.5,452.3,1.4,446.6,0,441c0-110,0-220,0-330c0.3-0.9,0.8-1.8,0.9-2.7
		c3.9-24.4,16.5-43.2,37.3-56.4C53.1,42.5,69.6,39.4,86.9,40c5.9,0.2,11.8,0,18.1,0c0-5.5,0.3-10.3-0.1-15.1
		C104.1,12.5,109.1,4.1,121,0c2.7,0,5.3,0,8,0c11.9,4.1,16.9,12.5,16.1,24.9c-0.3,4.9-0.1,9.8-0.1,14.7c30.3,0,60,0,90,0
		c0-5.1,0.3-10-0.1-14.7C234.1,12.5,239.1,4.1,251,0c2.7,0,5.3,0,8,0c11.9,4.1,16.9,12.5,16.1,24.9c-0.3,4.9-0.1,9.8-0.1,14.7
		c30.7,0,60.7,0,91,0c0-5.1,0.3-10-0.1-14.7C365.1,12.5,370.1,4.1,382,0c2.7,0,5.3,0,8,0c11.9,4.1,16.9,12.5,16.1,24.9
		c-0.3,4.9-0.1,9.8-0.1,15.2c10.1,0,19.6-0.5,29,0.1c31.3,1.9,54.5,17,68.6,45c4,8,5.6,17.2,8.3,25.9C512,162.7,512,214.3,512,266z"
		/>
	<path class="st0" d="M512,346c-2.9,4.8-5.5,9.9-8.7,14.4c-30.5,42.8-61.2,85.6-91.8,128.4c-16.7,23.3-43.7,29.7-68.7,15.9
		c-4-2.2-7.8-5.2-11.1-8.4c-20.5-19.8-40.9-39.7-61.2-59.6c-10.5-10.3-9.7-24.8,1.6-32.2c7.2-4.8,16.4-4.6,23.3,1
		c4.2,3.5,8.1,7.5,12,11.3c16.9,16.5,33.9,33,50.8,49.6c8.4,8.2,14.9,7.6,21.7-2c31.5-44,63-88,94.5-132c8-11.1,20.4-13.9,29.7-6
		c3.5,2.9,5.4,7.7,8,11.6C512,340.7,512,343.3,512,346z"/>
	<path class="st0" d="M145,210.2c-0.1,11-9.3,19.9-20.3,19.8c-11-0.2-19.9-9.4-19.6-20.4c0.2-10.8,9.2-19.6,20-19.5
		C136.1,190.1,145.1,199.2,145,210.2z"/>
	<path class="st0" d="M232,209.9c0.1,11-9,20.1-20,20.1c-11,0-20-9.1-20-20.1c0.1-10.8,8.9-19.7,19.7-19.8
		C222.7,189.9,231.9,198.9,232,209.9z"/>
	<path class="st0" d="M299,230c-11,0-20-9.1-19.9-20.1c0.1-11,9.3-20,20.2-19.8c10.8,0.2,19.6,9.1,19.7,19.9
		C319,220.9,310,230,299,230z"/>
	<path class="st0" d="M406,209.9c0.1,11-9,20.1-20,20.1c-11,0-20-9.1-19.9-20.1c0.1-10.8,8.9-19.7,19.7-19.8
		C396.8,189.9,405.9,198.9,406,209.9z"/>
	<path class="st0" d="M124.9,277c11-0.1,20.1,9,20.1,20c0,11-9.1,20-20.1,20c-10.8-0.1-19.7-8.9-19.8-19.7
		C104.9,286.3,113.9,277.1,124.9,277z"/>
	<path class="st0" d="M232,296.9c0.1,11-9,20.1-20,20.1c-11,0-20-9.1-20-20.1c0.1-10.8,8.9-19.7,19.7-19.8
		C222.8,276.9,231.9,285.9,232,296.9z"/>
	<path class="st0" d="M298.8,277c11-0.1,20.1,8.9,20.2,19.9c0.1,11-9,20.1-20,20.1c-10.8,0-19.8-8.8-19.9-19.6
		C278.8,286.4,287.8,277.2,298.8,277z"/>
	<path class="st0" d="M386.1,277c11,0,20,9.1,19.9,20.1c-0.1,11-9.3,20-20.3,19.8c-10.8-0.2-19.6-9.1-19.7-19.9
		C366,286.1,375.1,277,386.1,277z"/>
	<path class="st0" d="M145,383.9c0.1,11-9,20.1-20,20.1c-11,0-20-9.1-19.9-20.1c0.1-10.8,8.9-19.7,19.7-19.8
		C135.8,363.9,144.9,372.9,145,383.9z"/>
	<path class="st0" d="M232,384.3c-0.1,11-9.4,19.9-20.4,19.7c-11-0.2-19.9-9.5-19.6-20.5c0.3-10.8,9.3-19.5,20.1-19.4
		C223.1,364.1,232.1,373.3,232,384.3z"/>
</g>
</svg>
