<?xml version="1.0" encoding="utf-8"?>
<!-- Generator: Adobe Illustrator 23.0.5, SVG Export Plug-In . SVG Version: 6.00 Build 0)  -->
<svg version="1.1" id="Layer_1" xmlns="http://www.w3.org/2000/svg" xmlns:xlink="http://www.w3.org/1999/xlink" x="0px" y="0px"
	 viewBox="0 0 346.7 384" style="enable-background:new 0 0 346.7 384;" xml:space="preserve">
<style type="text/css">
	.st0{fill:#FEFEFE;}
</style>
<path class="st0" d="M178.6,0c6.8,1.7,13.5,3.5,19.2,7.8c14.2,10.7,19.6,25,17.2,42.8c0.9,0.4,1.9,0.9,2.9,1.3
	c44.6,19.6,70.6,53.7,78.3,101.7c1,6,1,12.2,1,18.3c0.1,22.6,0,45.2,0,67.9c0,6.6,0.9,7.5,7.3,8.1c21.3,1.8,37.9,15.9,41.5,35.5
	c4.9,26.3-15.2,50.9-42,51.1c-23.6,0.2-47.2,0-70.9,0c-1.4,0-2.7,0-4.3,0c-2.4,16.4-10,29.6-23.3,39.2
	c-10.1,7.2-21.4,10.5-33.8,10.3c-22.8-0.3-49.8-17.9-54.1-49.5c-1.3,0-2.7,0-4,0c-23.2,0-46.5,0-69.7,0C18.3,334.4-1,314.2,0,288.7
	c0.8-19.9,17.7-37.9,37.9-40.4c1.5-0.2,3-0.3,4.5-0.4c6.2-0.5,7.1-1.5,7.1-7.9c0-24.1-0.5-48.2,0.1-72.4
	c1.3-53.4,26.7-91.2,74.8-114.1c2.3-1.1,5.6-1.5,6.8-3.4c1.1-1.7,0-4.8-0.1-7.3C130.8,22.1,145.6,4.2,166,0.7
	c0.7-0.1,1.4-0.5,2.1-0.7C171.6,0,175.1,0,178.6,0z M173.4,309.7c42.9,0,85.7,0,128.6,0c11.2,0,19.4-7.2,19.9-17.2
	c0.6-10.4-6.6-18.5-17.7-19.9c-2.6-0.3-5.3-0.2-7.8-0.8c-14.2-2.9-23.8-14.8-23.9-29.5c-0.1-23.7-0.1-47.5,0-71.2
	c0-13.1-2.2-25.8-6.9-38.1C246.2,82.2,192.1,56.3,141,73.5c-38.6,13-66.2,50.6-66.6,91.2c-0.2,25.7,0,51.5-0.1,77.2
	c0,15-9.6,27-23.9,29.9c-3.3,0.7-6.7,0.5-10,1.1c-12.9,2.3-19.6,16.3-13.1,27.3c4,6.8,10.2,9.4,17.9,9.4
	C87.9,309.7,130.6,309.7,173.4,309.7z M143.4,334.6c2.2,14.5,16.8,25.5,32.1,24.6c13.8-0.9,27.5-13,27.7-24.6
	C183.3,334.6,163.4,334.6,143.4,334.6z M190.3,44c2-6.1-2.9-13.4-7.1-16.2c-5.9-3.9-13.4-4-19.4-0.1c-5.8,3.8-8.7,10.3-7.4,16.3
	C167.7,44,179,44,190.3,44z"/>
</svg>
