<?xml version="1.0" encoding="utf-8"?>
<!-- Generator: Adobe Illustrator 23.0.5, SVG Export Plug-In . SVG Version: 6.00 Build 0)  -->
<svg version="1.1" id="Layer_1" xmlns="http://www.w3.org/2000/svg" xmlns:xlink="http://www.w3.org/1999/xlink" x="0px" y="0px"
	 viewBox="0 0 2679.13 489.74" style="enable-background:new 0 0 2679.13 489.74;" xml:space="preserve">
<style type="text/css">
	.st0{fill:#E6353F;}
	.st1{fill:#FE4A4A;}
	.st2{fill:#696969;}
	.st3{fill:#190835;}
	.st4{fill:#FAE1D9;}
	.st5{fill:#E39542;}
	.st6{fill:#E18424;}
	.st7{fill:#DCD9EA;}
	.st8{fill:#464146;}
	.st9{fill:#190A35;}
	.st10{fill:#FDA92C;}
	.st11{fill:#190835;stroke:#190835;stroke-width:5;stroke-miterlimit:10;}
	.st12{fill:#FDA92C;stroke:#FDA92C;stroke-width:4;stroke-miterlimit:10;}
	.st13{fill:#FDA92C;stroke:#FDA92C;stroke-miterlimit:10;}
	.st14{fill:#190835;stroke:#190835;stroke-width:2;stroke-miterlimit:10;}
	.st15{fill:#190835;stroke:#190835;stroke-width:3;stroke-miterlimit:10;}
	.st16{fill:#FFFFFF;}
	.st17{fill:#1DBD29;}
	.st18{fill:#FEC007;}
</style>
<g>
	<g>
		<path class="st18" d="M0,186.7c0.36-0.3,0.91-0.54,1.04-0.92c4.58-13.09,14.32-18.73,27.65-19.86
			c34.93-2.96,69.85-6.16,104.77-9.27c11.42-1.02,22.83-2.16,34.26-3.05c3.42-0.27,5.09-1.77,6.43-4.92
			c18.63-43.85,37.34-87.67,56.18-131.43C238.04-0.67,259.56-5.6,273.7,7.07c3.68,3.29,5.96,7.49,7.87,11.97
			c18.3,42.91,36.71,85.77,54.85,128.75c1.77,4.19,4.13,5.57,8.39,5.95c36.25,3.15,72.48,6.49,108.72,9.78
			c10.92,0.99,21.85,1.94,32.75,3.05c11.8,1.2,19.8,7.68,23.38,18.79c3.61,11.2,0.48,21.12-8.3,28.87
			c-27.04,23.89-54.22,47.63-81.34,71.42c-8.62,7.57-17.15,15.25-25.95,22.61c-2.91,2.44-3.72,4.62-2.84,8.41
			c10.59,45.93,20.98,91.92,31.45,137.88c4.1,17.98-5.84,32.8-23.66,35.02c-6.73,0.84-12.7-1.46-18.4-4.88
			c-39.75-23.83-79.59-47.53-119.25-71.51c-4.26-2.57-7.19-2.66-11.5-0.06c-39.81,24.05-79.77,47.86-119.73,71.68
			c-14.56,8.68-30.56,5.36-38.81-7.95c-4.16-6.72-4.95-13.97-3.21-21.59c10.38-45.64,20.68-91.3,31.27-136.9
			c1.16-5.01,0.21-7.91-3.7-11.31c-34.41-29.86-68.53-60.05-102.93-89.93C6.81,211.96,2.44,206.09,0,198.68
			C0,194.69,0,190.69,0,186.7z"/>
	</g>
	<g>
		<path class="st18" d="M542,186.7c0.36-0.3,0.91-0.54,1.04-0.92c4.58-13.09,14.32-18.73,27.65-19.86
			c34.93-2.96,69.85-6.16,104.77-9.27c11.42-1.02,22.83-2.16,34.26-3.05c3.42-0.27,5.09-1.77,6.43-4.92
			c18.63-43.85,37.34-87.67,56.18-131.43C780.04-0.67,801.56-5.6,815.7,7.07c3.68,3.29,5.96,7.49,7.87,11.97
			c18.3,42.91,36.71,85.77,54.85,128.75c1.77,4.19,4.13,5.57,8.39,5.95c36.25,3.15,72.48,6.49,108.72,9.78
			c10.92,0.99,21.85,1.94,32.75,3.05c11.8,1.2,19.8,7.68,23.38,18.79c3.61,11.2,0.48,21.12-8.3,28.87
			c-27.04,23.89-54.22,47.63-81.34,71.42c-8.62,7.57-17.15,15.25-25.95,22.61c-2.91,2.44-3.72,4.62-2.84,8.41
			c10.59,45.93,20.98,91.92,31.45,137.88c4.1,17.98-5.84,32.8-23.66,35.02c-6.73,0.84-12.7-1.46-18.4-4.88
			c-39.75-23.83-79.59-47.53-119.25-71.51c-4.26-2.57-7.19-2.66-11.5-0.06c-39.81,24.05-79.77,47.86-119.73,71.68
			c-14.56,8.68-30.56,5.36-38.81-7.95c-4.16-6.72-4.95-13.97-3.21-21.59c10.38-45.64,20.68-91.3,31.27-136.9
			c1.16-5.01,0.21-7.91-3.7-11.31c-34.41-29.86-68.53-60.05-102.93-89.93c-5.95-5.17-10.32-11.04-12.76-18.45
			C542,194.69,542,190.69,542,186.7z"/>
	</g>
	<g>
		<path class="st18" d="M1084,186.7c0.36-0.3,0.91-0.54,1.04-0.92c4.58-13.09,14.32-18.73,27.65-19.86
			c34.93-2.96,69.85-6.16,104.77-9.27c11.42-1.02,22.83-2.16,34.26-3.05c3.42-0.27,5.09-1.77,6.43-4.92
			c18.63-43.85,37.34-87.67,56.18-131.43c7.71-17.92,29.23-22.85,43.38-10.18c3.68,3.29,5.96,7.49,7.87,11.97
			c18.3,42.91,36.71,85.77,54.85,128.75c1.77,4.19,4.13,5.57,8.39,5.95c36.25,3.15,72.48,6.49,108.72,9.78
			c10.92,0.99,21.85,1.94,32.75,3.05c11.8,1.2,19.8,7.68,23.38,18.79c3.61,11.2,0.48,21.12-8.3,28.87
			c-27.04,23.89-54.22,47.63-81.34,71.42c-8.63,7.57-17.15,15.25-25.95,22.61c-2.91,2.44-3.72,4.62-2.84,8.41
			c10.59,45.93,20.98,91.92,31.45,137.88c4.1,17.98-5.84,32.8-23.66,35.02c-6.73,0.84-12.7-1.46-18.4-4.88
			c-39.75-23.83-79.59-47.53-119.25-71.51c-4.26-2.57-7.19-2.66-11.5-0.06c-39.81,24.05-79.77,47.86-119.73,71.68
			c-14.56,8.68-30.56,5.36-38.81-7.95c-4.16-6.72-4.95-13.97-3.21-21.59c10.38-45.64,20.68-91.3,31.27-136.9
			c1.16-5.01,0.21-7.91-3.7-11.31c-34.41-29.86-68.53-60.05-102.93-89.93c-5.95-5.17-10.32-11.04-12.76-18.45
			C1084,194.69,1084,190.69,1084,186.7z"/>
	</g>
	<g>
		<path class="st18" d="M1626,186.7c0.36-0.3,0.91-0.54,1.04-0.92c4.58-13.09,14.32-18.73,27.65-19.86
			c34.93-2.96,69.85-6.16,104.77-9.27c11.42-1.02,22.83-2.16,34.26-3.05c3.42-0.27,5.09-1.77,6.43-4.92
			c18.63-43.85,37.34-87.67,56.18-131.43c7.71-17.92,29.23-22.85,43.38-10.18c3.68,3.29,5.96,7.49,7.87,11.97
			c18.3,42.91,36.71,85.77,54.85,128.75c1.77,4.19,4.13,5.57,8.39,5.95c36.25,3.15,72.48,6.49,108.72,9.78
			c10.92,0.99,21.85,1.94,32.75,3.05c11.8,1.2,19.8,7.68,23.38,18.79c3.61,11.2,0.48,21.12-8.3,28.87
			c-27.04,23.89-54.22,47.63-81.34,71.42c-8.63,7.57-17.15,15.25-25.95,22.61c-2.91,2.44-3.72,4.62-2.84,8.41
			c10.59,45.93,20.98,91.92,31.45,137.88c4.09,17.98-5.84,32.8-23.66,35.02c-6.73,0.84-12.7-1.46-18.4-4.88
			c-39.75-23.83-79.59-47.53-119.25-71.51c-4.26-2.57-7.19-2.66-11.5-0.06c-39.81,24.05-79.77,47.86-119.73,71.68
			c-14.56,8.68-30.56,5.36-38.81-7.95c-4.16-6.72-4.95-13.97-3.21-21.59c10.38-45.64,20.68-91.3,31.27-136.9
			c1.16-5.01,0.21-7.91-3.7-11.31c-34.41-29.86-68.53-60.05-102.93-89.93c-5.95-5.17-10.32-11.04-12.76-18.45
			C1626,194.69,1626,190.69,1626,186.7z"/>
	</g>
	<g>
		<path class="st18" d="M2168,186.7c0.36-0.3,0.91-0.54,1.04-0.92c4.58-13.09,14.32-18.73,27.65-19.86
			c34.93-2.96,69.85-6.16,104.77-9.27c11.42-1.02,22.83-2.16,34.26-3.05c3.42-0.27,5.09-1.77,6.43-4.92
			c18.63-43.85,37.34-87.67,56.18-131.43c7.71-17.92,29.23-22.85,43.38-10.18c3.68,3.29,5.96,7.49,7.87,11.97
			c18.3,42.91,36.71,85.77,54.85,128.75c1.77,4.19,4.13,5.57,8.39,5.95c36.25,3.15,72.48,6.49,108.72,9.78
			c10.92,0.99,21.85,1.94,32.75,3.05c11.8,1.2,19.8,7.68,23.38,18.79c3.61,11.2,0.48,21.12-8.3,28.87
			c-27.04,23.89-54.22,47.63-81.34,71.42c-8.63,7.57-17.15,15.25-25.95,22.61c-2.91,2.44-3.72,4.62-2.84,8.41
			c10.59,45.93,20.98,91.92,31.45,137.88c4.09,17.98-5.84,32.8-23.66,35.02c-6.73,0.84-12.7-1.46-18.4-4.88
			c-39.75-23.83-79.59-47.53-119.25-71.51c-4.26-2.57-7.19-2.66-11.5-0.06c-39.81,24.05-79.77,47.86-119.73,71.68
			c-14.56,8.68-30.56,5.36-38.81-7.95c-4.16-6.72-4.95-13.97-3.21-21.59c10.38-45.64,20.68-91.3,31.27-136.9
			c1.16-5.01,0.21-7.91-3.7-11.31c-34.41-29.86-68.53-60.05-102.93-89.93c-5.95-5.17-10.32-11.04-12.76-18.45
			C2168,194.69,2168,190.69,2168,186.7z"/>
	</g>
</g>
</svg>
