<?xml version="1.0" encoding="utf-8"?>
<!-- Generator: Adobe Illustrator 23.0.5, SVG Export Plug-In . SVG Version: 6.00 Build 0)  -->
<svg version="1.1" id="Layer_1" xmlns="http://www.w3.org/2000/svg" xmlns:xlink="http://www.w3.org/1999/xlink" x="0px" y="0px"
	 viewBox="0 0 2765.06 754" style="enable-background:new 0 0 2765.06 754;" xml:space="preserve">
<style type="text/css">
	.st0{fill:#E6353F;}
	.st1{fill:#FE4A4A;}
	.st2{fill:#696969;}
	.st3{fill:#190835;}
	.st4{fill:#FAE1D9;}
	.st5{fill:#E39542;}
	.st6{fill:#E18424;}
	.st7{fill:#DCD9EA;}
	.st8{fill:#464146;}
	.st9{fill:#190A35;}
	.st10{fill:#FDA92C;}
	.st11{fill:#190835;stroke:#190835;stroke-width:5;stroke-miterlimit:10;}
	.st12{fill:#FDA92C;stroke:#FDA92C;stroke-width:4;stroke-miterlimit:10;}
	.st13{fill:#FDA92C;stroke:#FDA92C;stroke-miterlimit:10;}
	.st14{fill:#190835;stroke:#190835;stroke-width:2;stroke-miterlimit:10;}
	.st15{fill:#190835;stroke:#190835;stroke-width:3;stroke-miterlimit:10;}
	.st16{fill:#FFFFFF;}
	.st17{fill:#1DBD29;}
	.st18{fill:#FEC007;}
	.st19{clip-path:url(#SVGID_2_);fill:#FFFFFF;}
</style>
<g>
	<g>
		<path class="st18" d="M0,239.83c0.36-0.3,0.91-0.54,1.04-0.92c4.58-13.09,14.32-18.73,27.65-19.86
			c34.93-2.96,69.85-6.16,104.77-9.27c11.42-1.02,22.83-2.16,34.26-3.05c3.42-0.27,5.09-1.77,6.43-4.92
			c18.63-43.85,37.34-87.67,56.18-131.43c7.71-17.92,29.23-22.85,43.38-10.18c3.68,3.29,5.96,7.49,7.87,11.97
			c18.3,42.91,36.71,85.77,54.85,128.75c1.77,4.19,4.13,5.57,8.39,5.95c36.25,3.15,72.48,6.49,108.72,9.78
			c10.92,0.99,21.85,1.94,32.75,3.05c11.8,1.2,19.8,7.68,23.38,18.79c3.61,11.2,0.48,21.12-8.3,28.87
			c-27.04,23.89-54.22,47.63-81.34,71.42c-8.62,7.57-17.15,15.25-25.95,22.61c-2.91,2.44-3.72,4.62-2.84,8.41
			c10.59,45.93,20.98,91.92,31.45,137.88c4.1,17.98-5.84,32.8-23.66,35.02c-6.73,0.84-12.7-1.46-18.4-4.88
			c-39.75-23.83-79.59-47.53-119.25-71.51c-4.26-2.57-7.19-2.66-11.5-0.06c-39.81,24.05-79.77,47.86-119.73,71.68
			c-14.56,8.68-30.56,5.36-38.81-7.95c-4.16-6.72-4.95-13.97-3.21-21.59c10.38-45.64,20.68-91.3,31.27-136.9
			c1.16-5.01,0.21-7.91-3.7-11.31c-34.41-29.86-68.53-60.05-102.93-89.93C6.81,265.09,2.44,259.22,0,251.81
			C0,247.82,0,243.83,0,239.83z"/>
	</g>
	<g>
		<path class="st18" d="M542,239.83c0.36-0.3,0.91-0.54,1.04-0.92c4.58-13.09,14.32-18.73,27.65-19.86
			c34.93-2.96,69.85-6.16,104.77-9.27c11.42-1.02,22.83-2.16,34.26-3.05c3.42-0.27,5.09-1.77,6.43-4.92
			c18.63-43.85,37.34-87.67,56.18-131.43c7.71-17.92,29.23-22.85,43.38-10.18c3.68,3.29,5.96,7.49,7.87,11.97
			c18.3,42.91,36.71,85.77,54.85,128.75c1.77,4.19,4.13,5.57,8.39,5.95c36.25,3.15,72.48,6.49,108.72,9.78
			c10.92,0.99,21.85,1.94,32.75,3.05c11.8,1.2,19.8,7.68,23.38,18.79c3.61,11.2,0.48,21.12-8.3,28.87
			c-27.04,23.89-54.22,47.63-81.34,71.42c-8.62,7.57-17.15,15.25-25.95,22.61c-2.91,2.44-3.72,4.62-2.84,8.41
			c10.59,45.93,20.98,91.92,31.45,137.88c4.1,17.98-5.84,32.8-23.66,35.02c-6.73,0.84-12.7-1.46-18.4-4.88
			c-39.75-23.83-79.59-47.53-119.25-71.51c-4.26-2.57-7.19-2.66-11.5-0.06c-39.81,24.05-79.77,47.86-119.73,71.68
			c-14.56,8.68-30.56,5.36-38.81-7.95c-4.16-6.72-4.95-13.97-3.21-21.59c10.38-45.64,20.68-91.3,31.27-136.9
			c1.16-5.01,0.21-7.91-3.7-11.31c-34.41-29.86-68.53-60.05-102.93-89.93c-5.95-5.17-10.32-11.04-12.76-18.45
			C542,247.82,542,243.83,542,239.83z"/>
	</g>
	<g>
		<path class="st18" d="M1084,239.83c0.36-0.3,0.91-0.54,1.04-0.92c4.58-13.09,14.32-18.73,27.65-19.86
			c34.93-2.96,69.85-6.16,104.77-9.27c11.42-1.02,22.83-2.16,34.26-3.05c3.42-0.27,5.09-1.77,6.43-4.92
			c18.63-43.85,37.34-87.67,56.18-131.43c7.71-17.92,29.23-22.85,43.38-10.18c3.68,3.29,5.96,7.49,7.87,11.97
			c18.3,42.91,36.71,85.77,54.85,128.75c1.77,4.19,4.13,5.57,8.39,5.95c36.25,3.15,72.48,6.49,108.72,9.78
			c10.92,0.99,21.85,1.94,32.75,3.05c11.8,1.2,19.8,7.68,23.38,18.79c3.61,11.2,0.48,21.12-8.3,28.87
			c-27.04,23.89-54.22,47.63-81.34,71.42c-8.63,7.57-17.15,15.25-25.95,22.61c-2.91,2.44-3.72,4.62-2.84,8.41
			c10.59,45.93,20.98,91.92,31.45,137.88c4.1,17.98-5.84,32.8-23.66,35.02c-6.73,0.84-12.7-1.46-18.4-4.88
			c-39.75-23.83-79.59-47.53-119.25-71.51c-4.26-2.57-7.19-2.66-11.5-0.06c-39.81,24.05-79.77,47.86-119.73,71.68
			c-14.56,8.68-30.56,5.36-38.81-7.95c-4.16-6.72-4.95-13.97-3.21-21.59c10.38-45.64,20.68-91.3,31.27-136.9
			c1.16-5.01,0.21-7.91-3.7-11.31c-34.41-29.86-68.53-60.05-102.93-89.93c-5.95-5.17-10.32-11.04-12.76-18.45
			C1084,247.82,1084,243.83,1084,239.83z"/>
	</g>
	<g>
		<path class="st18" d="M1626,239.83c0.36-0.3,0.91-0.54,1.04-0.92c4.58-13.09,14.32-18.73,27.65-19.86
			c34.93-2.96,69.85-6.16,104.77-9.27c11.42-1.02,22.83-2.16,34.26-3.05c3.42-0.27,5.09-1.77,6.43-4.92
			c18.63-43.85,37.34-87.67,56.18-131.43c7.71-17.92,29.23-22.85,43.38-10.18c3.68,3.29,5.96,7.49,7.87,11.97
			c18.3,42.91,36.71,85.77,54.85,128.75c1.77,4.19,4.13,5.57,8.39,5.95c36.25,3.15,72.48,6.49,108.72,9.78
			c10.92,0.99,21.85,1.94,32.75,3.05c11.8,1.2,19.8,7.68,23.38,18.79c3.61,11.2,0.48,21.12-8.3,28.87
			c-27.04,23.89-54.22,47.63-81.34,71.42c-8.63,7.57-17.15,15.25-25.95,22.61c-2.91,2.44-3.72,4.62-2.84,8.41
			c10.59,45.93,20.98,91.92,31.45,137.88c4.09,17.98-5.84,32.8-23.66,35.02c-6.73,0.84-12.7-1.46-18.4-4.88
			c-39.75-23.83-79.59-47.53-119.25-71.51c-4.26-2.57-7.19-2.66-11.5-0.06c-39.81,24.05-79.77,47.86-119.73,71.68
			c-14.56,8.68-30.56,5.36-38.81-7.95c-4.16-6.72-4.95-13.97-3.21-21.59c10.38-45.64,20.68-91.3,31.27-136.9
			c1.16-5.01,0.21-7.91-3.7-11.31c-34.41-29.86-68.53-60.05-102.93-89.93c-5.95-5.17-10.32-11.04-12.76-18.45
			C1626,247.82,1626,243.83,1626,239.83z"/>
	</g>
	<g>
		<path class="st18" d="M2175.06,241.44c0.35-0.3,0.88-0.52,1.01-0.89c4.46-12.72,13.92-18.21,26.88-19.31
			c33.97-2.88,67.92-5.99,101.87-9.02c11.11-0.99,22.2-2.1,33.32-2.97c3.33-0.26,4.95-1.72,6.26-4.79
			c18.11-42.64,36.3-85.24,54.62-127.79c7.5-17.42,28.42-22.22,42.18-9.9c3.58,3.2,5.79,7.28,7.65,11.64
			c17.79,41.72,35.69,83.4,53.33,125.19c1.72,4.08,4.01,5.42,8.16,5.78c35.25,3.06,70.48,6.31,105.72,9.51
			c10.62,0.96,21.24,1.88,31.85,2.96c11.48,1.17,19.25,7.46,22.73,18.27c3.51,10.89,0.46,20.53-8.07,28.07
			c-26.29,23.23-52.72,46.31-79.09,69.44c-8.39,7.36-16.68,14.83-25.23,21.99c-2.83,2.37-3.61,4.5-2.76,8.18
			c10.3,44.67,20.4,89.38,30.58,134.07c3.98,17.48-5.67,31.9-23.01,34.05c-6.54,0.81-12.35-1.42-17.89-4.74
			c-38.65-23.17-77.39-46.22-115.96-69.53c-4.14-2.5-6.99-2.59-11.18-0.06c-38.71,23.39-77.57,46.54-116.42,69.7
			c-14.16,8.44-29.72,5.21-37.73-7.73c-4.05-6.53-4.81-13.59-3.13-20.99c10.09-44.38,20.11-88.78,30.4-133.11
			c1.13-4.87,0.2-7.69-3.6-11c-33.46-29.03-66.64-58.39-100.08-87.44c-5.79-5.03-10.04-10.73-12.41-17.94
			C2175.06,249.21,2175.06,245.32,2175.06,241.44z"/>
	</g>
	<g>
		<defs>
			<path id="SVGID_1_" d="M2170,240.83c0.36-0.3,0.91-0.54,1.04-0.92c4.58-13.09,14.32-18.73,27.65-19.86
				c34.93-2.96,69.85-6.16,104.77-9.27c11.42-1.02,22.83-2.16,34.26-3.05c3.42-0.27,5.09-1.77,6.43-4.92
				c18.63-43.85,37.34-87.67,56.18-131.43c7.71-17.92,29.23-22.85,43.38-10.18c3.68,3.29,5.96,7.49,7.87,11.97
				c18.3,42.91,36.71,85.77,54.85,128.75c1.77,4.19,4.13,5.57,8.39,5.95c36.25,3.15,72.48,6.49,108.72,9.78
				c10.92,0.99,21.85,1.94,32.75,3.05c11.8,1.2,19.8,7.68,23.38,18.79c3.61,11.2,0.48,21.12-8.3,28.87
				c-27.04,23.89-54.22,47.63-81.34,71.42c-8.63,7.57-17.15,15.25-25.95,22.61c-2.91,2.44-3.72,4.62-2.84,8.41
				c10.59,45.93,20.98,91.92,31.45,137.88c4.09,17.98-5.84,32.8-23.66,35.02c-6.73,0.84-12.7-1.46-18.4-4.88
				c-39.75-23.83-79.59-47.53-119.25-71.51c-4.26-2.57-7.19-2.66-11.5-0.06c-39.81,24.05-79.77,47.86-119.73,71.68
				c-14.56,8.68-30.56,5.36-38.81-7.95c-4.16-6.72-4.95-13.97-3.21-21.59c10.38-45.64,20.68-91.3,31.27-136.9
				c1.16-5.01,0.21-7.91-3.7-11.31c-34.41-29.86-68.53-60.05-102.93-89.93c-5.95-5.17-10.32-11.04-12.76-18.45
				C2170,248.82,2170,244.83,2170,240.83z"/>
		</defs>
		<clipPath id="SVGID_2_">
			<use xlink:href="#SVGID_1_"  style="overflow:visible;"/>
		</clipPath>
		<rect x="2426.06" class="st19" width="339" height="754"/>
	</g>
</g>
</svg>
