<?xml version="1.0" encoding="utf-8"?>
<!-- Generator: Adobe Illustrator 23.0.5, SVG Export Plug-In . SVG Version: 6.00 Build 0)  -->
<svg version="1.1" id="Layer_1" xmlns="http://www.w3.org/2000/svg" xmlns:xlink="http://www.w3.org/1999/xlink" x="0px" y="0px"
	 viewBox="0 0 37 38" style="enable-background:new 0 0 37 38;" xml:space="preserve">
<style type="text/css">
	.st0{fill:#23153C;}
	.st1{fill:#FCAA2A;}
</style>
<path class="st0" d="M10,2.1c0.2,0,0.4,0,0.6,0c0.7,0.3,1,0.9,0.9,1.7c0,0.3,0,0.5,0,0.8c5,0,10,0,15.1,0c0-0.3,0-0.7,0-1
	c0-0.2,0-0.5,0.1-0.7c0.1-0.4,0.5-0.7,0.9-0.8c0.2,0,0.4,0,0.6,0c0.7,0.3,1,0.8,1,1.6c0,0.3,0,0.6,0,0.9c0.6,0,1.2,0,1.8,0
	c0.5,0,1.1,0.1,1.6,0.3c1.8,0.7,2.9,2.3,2.9,4.4c0,7.3,0,14.7,0,22c0,0.2,0,0.4,0,0.5c-0.2,2.3-2.1,4.2-4.4,4.2
	c-7.9,0-15.9,0-23.8,0c-0.7,0-1.3-0.1-1.9-0.5c-1.7-0.9-2.5-2.3-2.5-4.2c0-7.3,0-14.6,0-21.9c0-0.2,0-0.4,0-0.6
	c0.1-2,1.5-3.7,3.5-4.1C7,4.6,7.8,4.6,8.5,4.6c0.1,0,0.3,0,0.4,0C9,4.2,9,4,9,3.7C8.9,2.9,9.2,2.3,10,2.1z M9,7.1
	c-0.6,0-1.1,0-1.6,0C6,7.1,5.2,7.9,5.2,9.3c0,7.3,0,14.6,0,22c0,1.4,0.8,2.2,2.2,2.2c5.6,0,11.1,0,16.7,0c2.3,0,4.5,0,6.8,0
	c0.9,0,1.7-0.6,1.9-1.5c0.1-0.2,0.1-0.5,0.1-0.8c0-7.3,0-14.6,0-21.9c0-0.2,0-0.4,0-0.5c-0.1-0.8-0.6-1.4-1.4-1.6
	c-0.7-0.1-1.5-0.1-2.3-0.1c0,0.4,0,0.8,0,1.2c0,0.8-0.5,1.4-1.3,1.4c-0.7,0-1.2-0.6-1.2-1.4c0-0.4,0-0.7,0-1.1c-5.1,0-10.1,0-15.1,0
	c0,0.4,0,0.8,0,1.1c0,0.8-0.5,1.3-1.3,1.3C9.5,9.6,9,9.1,9,8.3C9,7.9,9,7.5,9,7.1z"/>
<path class="st1" d="M27.2,24.4c0,1.1,0,2.2,0,3.3c0,0.9-0.5,1.4-1.4,1.4c-2.2,0-4.4,0-6.7,0c-0.9,0-1.4-0.5-1.4-1.4
	c0-2.2,0-4.5,0-6.7c0-0.8,0.5-1.4,1.3-1.4c2.3,0,4.5,0,6.8,0c0.8,0,1.3,0.5,1.3,1.4C27.2,22.1,27.2,23.3,27.2,24.4z M20.3,22.2
	c0,1.5,0,2.9,0,4.4c1.5,0,2.9,0,4.3,0c0-1.5,0-2.9,0-4.4C23.2,22.2,21.8,22.2,20.3,22.2z"/>
<path class="st0" d="M11.8,29.1c-0.8,0-1.6-0.7-1.6-1.6c0-0.9,0.7-1.6,1.6-1.6c0.9,0,1.6,0.7,1.6,1.6C13.4,28.4,12.7,29.1,11.8,29.1
	z"/>
<path class="st0" d="M11.8,19.7c0.9,0,1.6,0.7,1.6,1.5c0,0.9-0.7,1.6-1.6,1.6c-0.9,0-1.6-0.7-1.6-1.6C10.3,20.4,11,19.7,11.8,19.7z"
	/>
<path class="st0" d="M25.6,13.4c0.9,0,1.6,0.7,1.6,1.5c0,0.9-0.7,1.6-1.6,1.6c-0.9,0-1.6-0.7-1.6-1.6C24.1,14.1,24.8,13.4,25.6,13.4
	z"/>
<path class="st0" d="M11.8,13.4c0.9,0,1.6,0.7,1.6,1.5c0,0.9-0.7,1.6-1.6,1.6c-0.9,0-1.6-0.7-1.6-1.6C10.3,14.1,11,13.4,11.8,13.4z"
	/>
<path class="st0" d="M17.2,15c0-0.9,0.7-1.6,1.5-1.6c0.9,0,1.6,0.7,1.6,1.5c0,0.9-0.7,1.6-1.5,1.6C17.9,16.5,17.2,15.8,17.2,15z"/>
</svg>
