<?xml version="1.0" encoding="utf-8"?>
<!-- Generator: Adobe Illustrator 23.0.5, SVG Export Plug-In . SVG Version: 6.00 Build 0)  -->
<svg version="1.1" id="Layer_1" xmlns="http://www.w3.org/2000/svg" xmlns:xlink="http://www.w3.org/1999/xlink" x="0px" y="0px"
	 viewBox="0 0 125 103" style="enable-background:new 0 0 125 103;" xml:space="preserve">
<style type="text/css">
	.st0{fill:#FFD946;}
</style>
<path class="st0" d="M19.6,7c8.5,5.7,15.2,12.6,16.8,23.2c0.7,4.3,3.9,6.8,7.1,9C52,45.2,61,50.2,70.2,55c11.5,6,23.2,8.8,35.9,4.7
	c1.7-0.6,3.6-1.1,5.3-1.1c4.2-0.1,9.4-0.4,11.2,4c1.6,3.8-2.2,6.9-5.1,8.8c-6.8,4.2-6.8,8.6-2.3,14.7c2.5,3.3,4.4,7.6,0.2,11.5
	c-4.5,4.2-8.5,1.4-12.2-1.3c-2.7-1.9-5.7-4.1-7-6.9c-5-10.1-14.1-14.4-23.8-18.3c-12.7-5-25.5-9.8-37.2-17.1
	c-3.7-2.3-7.4-2.2-11.1,0.1c-4.9,3-10.3,3.4-15.8,2.4c-3-0.5-5.3-2-6-4.9c-0.8-3.3,1.9-4.7,4.3-6.2c4.7-3.1,13.2-1.4,14.5-7.3
	c1-4.5-3.4-10-5.1-15.2C14.1,17.6,13.3,12.3,16,7C17.2,7,18.4,7,19.6,7z"/>
</svg>
