<?xml version="1.0" encoding="utf-8"?>
<!-- Generator: Adobe Illustrator 23.0.5, SVG Export Plug-In . SVG Version: 6.00 Build 0)  -->
<svg version="1.1" id="Layer_1" xmlns="http://www.w3.org/2000/svg" xmlns:xlink="http://www.w3.org/1999/xlink" x="0px" y="0px"
	 viewBox="0 0 154 115" style="enable-background:new 0 0 154 115;" xml:space="preserve">
<style type="text/css">
	.st0{fill:#E96169;}
</style>
<path class="st0" d="M131.7,91.4c-3,0.5-5.7,1-8.5,1.4c-4.3,0.5-8.7,1.3-13,1.3c-5.7,0.1-11.4-0.2-17-0.7
	c-6.2-0.6-12.2-2.2-17.9-4.6c-5.4-2.2-10.3-5.2-14.7-9.1c-3.5-3-6.2-6.5-8.6-10.4c-0.3-0.4-0.8-0.8-1.2-1c-9.4-3.1-17-8.9-23.6-16.1
	c-4.3-4.6-7.9-9.8-11-15.3c-3.3-5.9-5.9-12.2-7.6-18.8c-0.7-2.8-1.4-5.6-2.1-8.4C6.1,7.9,7.7,5,9.5,4.6c2.9-0.7,5.1,0.8,5.6,2.9
	c0.8,3.7,1.8,7.4,2.9,11c0.7,2.4,1.5,4.8,2.6,7c1.3,2.8,2.7,5.7,4.3,8.3c2.4,3.7,4.8,7.4,7.6,10.8c3.9,4.9,8.6,8.9,14.3,12.3
	c-0.3-1.7-0.5-3.3-0.7-4.8c-0.8-6.4,0.4-12.3,4.5-17.5c5.6-7.2,15.9-9.9,24.1-7.1c5,1.7,9,4.7,11.8,9.3c4.9,8.1,4.6,16.1-0.2,24
	c-2.6,4.3-6.7,7.1-11.4,8.5c-3.2,1-6.6,1.4-9.9,2c0.8,0.8,1.7,1.8,2.8,2.6c5.2,4.2,11.1,7,17.5,8.8c8.2,2.3,16.6,3,25.1,2.5
	c6.1-0.4,12.1-1.6,18.2-2.4c0.5-0.1,1-0.1,1.7-0.5c-1.5-1-3-2-4.4-3.1c-2.6-1.9-5.3-3.9-7.9-5.8c-1.3-1-1.3-2.5-0.9-3.9
	c0.4-1.5,1.4-2.7,3.1-3.2c2.5-0.7,4.1,0.9,5.8,2.1c6.1,4.2,12.1,8.5,18.2,12.7c2.4,1.7,2.9,4.2,1.3,6.6c-4.7,6.8-9.4,13.6-14.2,20.3
	c-1.4,2-4.2,2.6-6,1.4c-2.2-1.5-2.8-4.2-1.3-6.4c2.4-3.5,4.8-7,7.2-10.4C131.3,92.3,131.4,91.9,131.7,91.4z M64.5,62.2
	c0-0.1,0-0.1,0-0.2c0.9,0,1.9,0.1,2.8,0c3.5-0.3,6.7-1.3,9.3-3.7c5.1-4.7,5.6-11.1,2.5-16.5c-2.9-5.1-7.7-7.2-13.7-6.4
	c-6.7,0.9-10.8,6.3-11,12.7c-0.1,3.7,0.9,7.3,2.2,10.8c0.4,1,1.1,2.2,1.9,2.5C60.5,61.9,62.5,61.9,64.5,62.2z"/>
</svg>
