<?xml version="1.0" encoding="utf-8"?>
<!-- Generator: Adobe Illustrator 23.0.5, SVG Export Plug-In . SVG Version: 6.00 Build 0)  -->
<svg version="1.1" id="Layer_1" xmlns="http://www.w3.org/2000/svg" xmlns:xlink="http://www.w3.org/1999/xlink" x="0px" y="0px"
	 viewBox="0 0 409.56 409.67" style="enable-background:new 0 0 409.56 409.67;" xml:space="preserve">
<style type="text/css">
	.st0{fill:#E6353F;}
	.st1{fill:#FE4A4A;}
	.st2{fill:#696969;}
	.st3{fill:#190835;}
	.st4{fill:#FAE1D9;}
	.st5{fill:#E39542;}
	.st6{fill:#E18424;}
	.st7{fill:#DCD9EA;}
	.st8{fill:#464146;}
	.st9{fill:#190A35;}
	.st10{fill:#FDA92C;}
	.st11{fill:#190835;stroke:#190835;stroke-width:5;stroke-miterlimit:10;}
	.st12{fill:#FDA92C;stroke:#FDA92C;stroke-width:4;stroke-miterlimit:10;}
	.st13{fill:#FDA92C;stroke:#FDA92C;stroke-miterlimit:10;}
	.st14{fill:#190835;stroke:#190835;stroke-width:2;stroke-miterlimit:10;}
	.st15{fill:#190835;stroke:#190835;stroke-width:3;stroke-miterlimit:10;}
	.st16{fill:#FFFFFF;}
	.st17{fill:#1DBD29;}
</style>
<g>
	<path class="st16" d="M409.56,192.8c0,8,0,16,0,24c-0.25,1.42-0.53,2.83-0.74,4.25c-1.28,8.82-2.01,17.75-3.9,26.44
		c-10.69,49.18-35.95,89.49-76.01,119.83c-49.83,37.76-105.96,50.27-167.15,37.51c-48.99-10.21-88.81-35.89-119.27-75.49
		C9.59,286.59-4.09,237.9,1.05,184.31c4.17-43.42,21.03-81.76,49.96-114.49c31.72-35.88,71.23-58.23,118.45-66.63
		c7.71-1.37,15.52-2.14,23.29-3.19c8,0,16,0,24,0c1.03,0.23,2.05,0.59,3.09,0.66c32.04,2.26,62.01,11.42,89.35,28.18
		c53.06,32.52,85.71,79.39,97.17,140.72C407.8,177.24,408.51,185.05,409.56,192.8z M153.56,204.78c0,24.66,0.03,49.32-0.03,73.98
		c-0.01,4.21,0.46,8.06,4.59,10.28c3.97,2.13,7.38,0.53,10.79-1.66c38.41-24.73,76.86-49.42,115.28-74.13
		c7.95-5.11,7.96-11.78,0.04-16.87c-38.53-24.79-77.09-49.55-115.62-74.35c-3.32-2.14-6.66-3.5-10.45-1.49
		c-3.96,2.1-4.64,5.74-4.63,9.86C153.59,155.19,153.56,179.98,153.56,204.78z"/>
	<path class="st17" d="M153.56,204.78c0-24.79,0.03-49.59-0.03-74.38c-0.01-4.12,0.67-7.76,4.63-9.86
		c3.79-2.01,7.13-0.65,10.45,1.49c38.52,24.81,77.08,49.56,115.62,74.35c7.93,5.1,7.91,11.76-0.04,16.87
		c-38.42,24.72-76.87,49.4-115.28,74.13c-3.41,2.2-6.82,3.79-10.79,1.66c-4.14-2.22-4.61-6.07-4.59-10.28
		C153.59,254.1,153.56,229.44,153.56,204.78z"/>
</g>
</svg>
