<?xml version="1.0" encoding="utf-8"?>
<!-- Generator: Adobe Illustrator 23.0.5, SVG Export Plug-In . SVG Version: 6.00 Build 0)  -->
<svg version="1.1" id="Layer_1" xmlns="http://www.w3.org/2000/svg" xmlns:xlink="http://www.w3.org/1999/xlink" x="0px" y="0px"
	 viewBox="0 0 24 25" style="enable-background:new 0 0 24 25;" xml:space="preserve">
<style type="text/css">
	.st0{fill:#00B900;}
</style>
<path class="st0" d="M12.8,24c-0.6,0-1.1,0-1.7,0c-0.2-0.1-0.5-0.1-0.7-0.1c-2.8-0.4-5.1-1.7-6.9-3.9c-2.2-2.7-2.9-5.9-2.2-9.3
	c1-4.6,5-8.2,9.7-8.6c2.3-0.2,4.6,0.2,6.6,1.4c3,1.8,4.8,4.4,5.4,7.9c0,0.2,0,0.5,0.1,0.7c0,0.6,0,1.1,0,1.7
	c-0.1,0.2-0.1,0.4-0.1,0.6c-0.3,2.2-1.2,4.1-2.6,5.7c-1.8,2-4,3.3-6.7,3.7C13.3,23.9,13.1,23.9,12.8,24z M19.6,9.5
	c0-0.5-0.3-1-0.9-1.3c-0.6-0.2-1.1-0.2-1.6,0.3c-0.9,0.8-1.7,1.6-2.6,2.4c-1.5,1.4-3.1,2.9-4.6,4.3c-0.1,0.1-0.2,0.1-0.3,0
	c-1-1-1.9-2.1-2.9-3.1c-0.3-0.4-0.8-0.6-1.3-0.5c-0.6,0.1-1,0.4-1.2,1c-0.2,0.6-0.1,1.1,0.3,1.5c1.6,1.8,3.3,3.5,4.9,5.3
	c0.1,0.1,0.2,0.1,0.3,0c1.2-1.1,2.3-2.2,3.5-3.3c1.9-1.8,3.9-3.6,5.8-5.4C19.4,10.4,19.6,10,19.6,9.5z"/>
</svg>
