<?xml version="1.0" encoding="utf-8"?>
<!-- Generator: Adobe Illustrator 23.0.5, SVG Export Plug-In . SVG Version: 6.00 Build 0)  -->
<svg version="1.1" id="Layer_1" xmlns="http://www.w3.org/2000/svg" xmlns:xlink="http://www.w3.org/1999/xlink" x="0px" y="0px"
	 viewBox="0 0 29 25" style="enable-background:new 0 0 29 25;" xml:space="preserve">
<style type="text/css">
	.st0{fill:#FFFFFF;}
</style>
<g>
	<g>
		<path class="st0" d="M27,6c0,0.2,0,0.5,0,0.7c0,0.1,0,0.1,0,0.2c-0.2,1.8-0.4,3.7-0.6,5.5c-0.2,2.2-0.5,4.4-0.7,6.6
			c-0.1,1.3-0.7,2.1-1.9,2.4c-0.2,0.1-0.3,0.2-0.3,0.4c0,0.6-0.2,1.2-0.6,1.7c-0.6,0.7-1.3,0.9-2.2,0.9c-2.6,0-5.1,0-7.7,0
			c-3.1,0-6.1,0-9.2,0c-0.6,0-1.2-0.1-1.6-0.5c-0.6-0.5-0.9-1.2-0.9-2c0-3.1,0-6.1,0-9.2c0-1.1,0-2.2,0-3.4c0-1.5,1.1-2.8,2.7-2.7
			c0.2,0,0.4,0,0.7,0C4.7,5.8,4.8,5,4.9,4.2c0.2-1.5,1.4-2.5,2.9-2.3C8.9,2,10,2.1,11.1,2.2C13.4,2.5,15.7,2.8,18,3
			c2.2,0.2,4.4,0.5,6.6,0.7C25.8,3.9,26.8,4.7,27,6C27,5.9,27,5.9,27,6z M2.5,18.1c0.1-0.1,0.2-0.2,0.3-0.2C4,17,5.3,16.1,6.5,15.2
			c1.2-0.9,2.6-0.8,3.7,0.2c1.1,0.9,2.1,1.9,3.2,2.8c0.7,0.6,1.3,0.6,2.1,0.2c2.2-1.3,4.3-2.5,6.5-3.8c0.2-0.1,0.2-0.2,0.2-0.4
			c0-1.6,0-3.2,0-4.8c0-0.2,0-0.4-0.1-0.5c-0.2-0.7-0.7-1-1.5-1c-5.6,0-11.2,0-16.8,0c-0.1,0-0.1,0-0.2,0c-0.3,0-0.5,0.1-0.7,0.3
			C2.6,8.5,2.5,8.8,2.5,9.3c0,2.9,0,5.7,0,8.6C2.5,17.9,2.5,18,2.5,18.1z M22.2,15.9C22.1,16,22,16,21.9,16.1
			c-1.9,1.1-3.8,2.2-5.7,3.3c-0.2,0.1-0.4,0.2-0.6,0.3c-1.1,0.4-2.2,0.2-3.1-0.6c-1.1-0.9-2.1-1.9-3.2-2.8c-0.7-0.6-1.3-0.6-2-0.2
			c-1.6,1.2-3.2,2.3-4.7,3.5c-0.1,0-0.1,0.1-0.1,0.2c0,0.8,0,1.5,0,2.3c0,0.5,0.4,0.9,0.8,1c0.2,0,0.3,0,0.5,0c5.6,0,11.2,0,16.8,0
			c0.1,0,0.2,0,0.3,0c0.9-0.1,1.3-0.6,1.3-1.4c0-1.7,0-3.5,0-5.2C22.2,16.3,22.2,16.2,22.2,15.9z M5.9,6.6c0.1,0,0.2,0,0.3,0
			c4.8,0,9.6,0,14.5,0c0.5,0,0.9,0.1,1.3,0.3c1,0.5,1.5,1.4,1.5,2.5c0,3.5,0,7,0,10.5c0,0.1,0,0.2,0,0.3c0.5-0.2,0.7-0.4,0.8-0.9
			c0.2-1.9,0.4-3.8,0.7-5.7c0.3-2.4,0.6-4.8,0.8-7.1c0.1-0.7-0.4-1.3-1.1-1.4c-0.9-0.1-1.7-0.2-2.6-0.3c-2.5-0.3-5.1-0.6-7.6-0.9
			c-2.3-0.3-4.5-0.5-6.8-0.8C6.9,3,6.3,3.4,6.1,4.2C6,5,6,5.8,5.9,6.6z"/>
		<path class="st0" d="M14.3,15c-1.4,0-2.6-1.2-2.6-2.6c0-1.4,1.2-2.6,2.6-2.6c1.4,0,2.6,1.2,2.6,2.6C16.9,13.9,15.7,15.1,14.3,15z
			 M12.9,12.4c0,0.8,0.6,1.4,1.4,1.4c0.8,0,1.4-0.6,1.4-1.4c0-0.8-0.6-1.4-1.4-1.4C13.5,11.1,12.9,11.7,12.9,12.4z"/>
	</g>
</g>
</svg>
