<?xml version="1.0" encoding="utf-8"?>
<!-- Generator: Adobe Illustrator 23.0.5, SVG Export Plug-In . SVG Version: 6.00 Build 0)  -->
<svg version="1.1" id="Layer_1" xmlns="http://www.w3.org/2000/svg" xmlns:xlink="http://www.w3.org/1999/xlink" x="0px" y="0px"
	 viewBox="0 0 76 68" style="enable-background:new 0 0 76 68;" xml:space="preserve">
<style type="text/css">
	.st0{fill:#FFF9E7;}
	.st1{fill:#FCAA2C;}
	.st2{fill:#26163D;}
</style>
<circle class="st0" cx="55" cy="42.8" r="21.2"/>
<g>
	<path class="st1" d="M46,6.5c-0.5,1.2-1.6,0.9-2.6,0.9c0,0.4,0,0.8,0,1.2c0,0.8-0.6,1.3-1.3,1.3c-0.7,0-1.2-0.6-1.3-1.3
		c0-0.4,0-0.8,0-1.2c-0.4,0-0.8,0-1.2,0c-0.8,0-1.3-0.5-1.3-1.3c0-0.7,0.6-1.3,1.3-1.3c0.4,0,0.8,0,1.2,0c0.1-0.9-0.3-2.1,1-2.6
		c0.2,0,0.5,0,0.7,0c1.2,0.5,0.9,1.6,0.9,2.6c1,0,2-0.2,2.5,0.9C46,6.1,46,6.3,46,6.5z"/>
	<path class="st2" d="M46,42.4c-0.5,1.2-1.6,0.9-2.6,0.9c0,0.4,0,0.8,0,1.2c0,0.8-0.6,1.3-1.3,1.3c-0.7,0-1.2-0.6-1.3-1.3
		c0-0.4,0-0.8,0-1.2c-0.4,0-0.8,0-1.2,0c-0.8,0-1.3-0.6-1.3-1.3c0-0.7,0.6-1.2,1.3-1.3c0.4,0,0.8,0,1.2,0c0-0.4,0-0.8,0-1.1
		c0-0.8,0.5-1.4,1.3-1.4c0.8,0,1.3,0.6,1.3,1.4c0,0.4,0,0.7,0,1.1c0.9,0.1,2.1-0.3,2.6,1C46,42,46,42.2,46,42.4z"/>
	<path class="st2" d="M6.2,2.3c0.1,0,0.1,0.1,0.2,0.1c0.5,0.3,0.8,0.9,0.7,1.4c-0.1,0.6-0.7,1-1.2,1c-0.6,0-1.1-0.4-1.2-1
		C4.5,3.3,4.8,2.8,5.3,2.5c0.1,0,0.1-0.1,0.2-0.1C5.7,2.3,6,2.3,6.2,2.3z"/>
	<path class="st2" d="M35.8,22.8c0.3,1,0.7,2,0.9,3.1c0.7,3.2,0,6.1-2.1,8.7c-0.2,0.2-0.2,0.3-0.1,0.6c0.1,0.4,0.3,0.8,0.3,1.3
		c0,2.1,0,4.2,0,6.3c0,2.3-2.2,3.7-4.3,2.7c-1.3-0.6-2.5-1.3-3.8-1.9c-0.2-0.1-0.4-0.1-0.6-0.1c-1.3,0-2.6,0-3.9,0
		c-0.2,0-0.4,0.1-0.6,0.2c-1.2,0.6-2.4,1.2-3.7,1.8c-2.2,1.1-4.4-0.3-4.4-2.8c0-2,0-4.1,0-6.1c0-0.5,0.2-1,0.3-1.4
		c0.1-0.2,0.1-0.3-0.1-0.5c-2.4-2.9-3-6.2-1.8-9.8c0.2-0.7,0.4-1.3,0.7-2c-1-0.3-1.8-0.8-2.4-1.5c-1.7-1.8-2.2-3.8-1.4-6.2
		c0.4-1.3,0.9-2.5,1.3-3.7c1.6-3.9,6.5-5.1,9.7-2.3c0.2,0.2,0.3,0.2,0.6,0.1c2.5-1.1,5.1-1.1,7.6,0c0.2,0.1,0.4,0.1,0.6-0.1
		c3.2-2.9,8.2-1.6,9.7,2.4c0.5,1.3,1.1,2.7,1.4,4c0.8,3.2-1.2,6.3-3.8,7.1C35.9,22.7,35.9,22.7,35.8,22.8z M24.2,35.8
		c0.6,0,1.1,0,1.7,0c0.4,0,0.7-0.1,1-0.2c1.2-0.5,2.3-1.2,3.5-1.7c0.5-0.2,1-0.3,1.5-0.4c0.2-0.1,0.5-0.1,0.6-0.3
		c1.8-2.1,2.4-4.5,1.6-7.1c-1-3.3-2.1-6.5-3.2-9.8c-0.2-0.7-0.5-1.5-0.9-2.1c-1.6-2.4-3.9-3.5-6.7-3.1c-2.7,0.4-4.7,1.9-5.6,4.5
		c-1.2,3.5-2.4,7-3.4,10.5c-0.8,2.6-0.1,5,1.6,7c0.1,0.1,0.3,0.2,0.5,0.3c0.6,0.2,1.1,0.2,1.7,0.4c0.6,0.2,1.2,0.6,1.8,0.9
		C21.2,35.5,22.6,36.1,24.2,35.8z M13.5,20.3c0.6-1.7,1.1-3.4,1.6-5.1c0.4-1.3,1-2.4,1.9-3.5c0.3-0.3,0.6-0.6,0.9-1
		c-0.1-0.1-0.2-0.1-0.3-0.2c-1.8-1.1-4.2-0.3-5.1,1.6c-0.3,0.8-0.6,1.5-0.9,2.3c-0.2,0.6-0.5,1.3-0.6,1.9
		C10.8,18.1,11.9,19.9,13.5,20.3z M35,20.3c0.1,0,0.2,0,0.2,0c1.7-0.6,2.6-2.6,2-4.4c-0.4-1.2-0.8-2.3-1.3-3.5
		c-0.3-0.9-0.9-1.5-1.8-1.9c-1.2-0.6-2.7-0.4-3.5,0.4c0.4,0.5,0.9,1,1.3,1.5c1,1.3,1.4,2.8,1.9,4.2C34.2,17.8,34.6,19.1,35,20.3z
		 M20.4,39.6c0-0.5,0-1,0-1.4c0-0.2-0.1-0.4-0.3-0.5c-1.1-0.5-2.1-1.1-3.2-1.6c-0.5-0.3-0.8-0.1-0.8,0.5c0,2,0,4,0,6
		c0,0.6,0.3,0.7,0.8,0.5c1.1-0.5,2.2-1.1,3.3-1.6c0.1-0.1,0.2-0.2,0.2-0.4C20.4,40.6,20.4,40.1,20.4,39.6z M32.3,39.6
		c0-1,0-2.1,0-3.1c0-0.5-0.3-0.7-0.7-0.5c-1.1,0.5-2.2,1.1-3.3,1.7c-0.1,0.1-0.2,0.3-0.2,0.4c0,1,0,2,0,3c0,0.1,0.1,0.3,0.2,0.4
		c1.1,0.6,2.2,1.1,3.3,1.6c0.5,0.2,0.8,0.1,0.8-0.5C32.3,41.6,32.3,40.6,32.3,39.6z M25.5,38.4c-0.9,0-1.7,0-2.5,0
		c0,0.8,0,1.7,0,2.5c0.8,0,1.7,0,2.5,0C25.5,40,25.5,39.2,25.5,38.4z"/>
	<path class="st1" d="M5,37.3c-0.4,0-0.8,0-1.2,0c-0.8,0-1.3-0.6-1.3-1.3c0-0.7,0.6-1.3,1.3-1.3c0.4,0,0.8,0,1.2,0
		c0-0.4,0-0.8,0-1.2c0-0.8,0.5-1.4,1.3-1.4c0.7,0,1.3,0.6,1.3,1.4c0,0.4,0,0.7,0,1.1c0.4,0,0.8,0,1.2,0c0.8,0,1.4,0.6,1.3,1.3
		c0,0.7-0.6,1.2-1.3,1.3c-0.4,0-0.8,0-1.2,0c0,0.4,0,0.8,0,1.1c0,0.8-0.5,1.4-1.3,1.4c-0.8,0-1.3-0.6-1.3-1.4C5,38.1,5,37.7,5,37.3z
		"/>
	<path class="st2" d="M44,28c0,0.7-0.6,1.3-1.3,1.3c-0.7,0-1.3-0.6-1.3-1.3c0-0.7,0.6-1.3,1.3-1.3C43.4,26.7,44,27.3,44,28z"/>
	<path class="st1" d="M24.4,21.9c0.7,0.1,1.5,0.1,2.3,0.4c1.8,0.5,2.5,1.9,2,3.6c-0.5,1.6-1.5,2.7-3,3.4c-0.2,0.1-0.3,0.2-0.3,0.5
		c0,0.6,0,1.3,0,1.9c0,0.8-0.5,1.4-1.3,1.4c-0.7,0-1.3-0.6-1.3-1.4c0-0.6,0-1.3,0-1.9c0-0.2-0.1-0.4-0.3-0.5c-1.7-0.8-2.7-2-3.1-3.8
		c-0.3-1.3,0.4-2.5,1.6-3c0.3-0.1,0.7-0.3,1-0.3C22.9,22,23.6,22,24.4,21.9z M24.3,24.5c-0.6,0.1-1.1,0.1-1.7,0.2
		c-0.5,0.1-0.5,0.2-0.4,0.7c0.2,0.7,0.6,1.2,1.2,1.5c0.5,0.3,1.1,0.3,1.6,0c0.6-0.4,1-0.9,1.3-1.5c0.1-0.4,0-0.6-0.4-0.6
		C25.4,24.6,24.8,24.5,24.3,24.5z"/>
	<path class="st1" d="M22.1,20.2c-0.3-0.1-0.6-0.2-0.9-0.4c-0.3-0.2-0.4-0.2-0.7,0c-0.2,0.2-0.5,0.3-0.8,0.3
		c-0.6,0.1-1.1-0.2-1.3-0.8c-0.2-0.5-0.1-1.1,0.4-1.5c0.5-0.3,1-0.7,1.4-1c0.4-0.2,0.8-0.2,1.2,0c0.5,0.3,1,0.6,1.5,1
		c0.4,0.3,0.6,0.9,0.4,1.4C23.1,19.8,22.6,20.1,22.1,20.2z"/>
	<path class="st1" d="M28.9,20.2c-0.3-0.1-0.6-0.2-0.8-0.3c-0.4-0.3-0.7-0.3-1,0c-0.2,0.1-0.4,0.2-0.7,0.2c-0.6,0.1-1.1-0.3-1.3-0.8
		c-0.2-0.5-0.1-1.1,0.4-1.5c0.5-0.4,1-0.7,1.6-1c0.4-0.2,0.8-0.2,1.2,0c0.5,0.3,1,0.6,1.4,0.9c0.5,0.3,0.6,0.9,0.4,1.4
		C29.9,19.8,29.5,20.1,28.9,20.2z"/>
</g>
</svg>
