<?xml version="1.0" encoding="utf-8"?>
<!-- Generator: Adobe Illustrator 23.0.5, SVG Export Plug-In . SVG Version: 6.00 Build 0)  -->
<svg version="1.1" id="Layer_1" xmlns="http://www.w3.org/2000/svg" xmlns:xlink="http://www.w3.org/1999/xlink" x="0px" y="0px"
	 viewBox="0 0 76 68" style="enable-background:new 0 0 76 68;" xml:space="preserve">
<style type="text/css">
	.st0{fill:#FFF9E7;}
	.st1{fill:#261740;}
	.st2{fill:#FDA92C;}
</style>
<circle class="st0" cx="54" cy="45.8" r="21.2"/>
<path class="st1" d="M6.3,66.1c-0.2-0.1-0.3-0.1-0.5-0.2c-1.8-0.5-3-2-3.1-3.9c0-0.3,0-0.5,0-0.8c0-11.6,0-23.3,0-34.9
	c0-0.7,0.1-1.5,0.3-2.1c0.7-1.7,2-2.6,3.9-2.7c0.3,0,0.6,0,0.9,0c0,0,0.1,0,0.2-0.1c0-1.7,0-3.5,0-5.3c-0.5,0-1,0-1.5,0
	c-2.3,0-3.8-1.5-3.9-3.8c0-1.6-0.2-3.3,0.4-4.8c1-2.9,3-4.7,6-5.3c0.1,0,0.2-0.1,0.3-0.1c8,0,16,0,24,0c1.6,0.5,2.2,1.6,2.1,3.3
	c0,0.9,0,1.9,0,2.8c0,1.6-1.1,2.7-2.7,2.7c-1.2,0-2.4,0-3.5,0c0,0.1-0.1,0.1-0.1,0.1c0.7,2,1.4,4,2.2,6c0.4,1,1.2,1.7,2.2,2.1
	c0.4,0.2,0.7,0.3,1.1,0.5c1.3,0.7,1.9,2.3,1.3,3.7c-0.5,1.4-2,2.2-3.4,1.9c-1.4-0.3-2.8-0.7-4.2-1.2c-1.2-0.4-2.2-1.1-3-2.2
	c-1.3-1.8-2.7-3.6-4.1-5.3c-0.2-0.2-0.5-0.4-0.7-0.4c-3.5,0-7,0-10.4,0c0,0-0.1,0-0.2,0c0,1.7,0,3.5,0,5.3c1.7,0,3.5,0,5.3,0
	c0-0.6,0-1.1,0-1.6c0-0.8,0.3-1.2,0.9-1.2c0.6,0,0.9,0.4,0.9,1.2c0,0.5,0,1,0,1.6c0.3,0,0.5,0,0.8,0c2,0,3.5,1,4.3,2.9
	c1.5,3.8,3.1,7.6,4.6,11.5c1,2.4,2.3,3.3,4.9,3.3c0.8,0,1.6,0,2.4,0.1c2,0.3,3.5,1.9,3.6,4c0.1,2,0,4,0,6.1c0,1.9,0,3.8,0,5.7
	c0,0.2,0,0.5-0.1,0.7c-0.1,0.5-0.4,0.7-0.9,0.7c-0.5,0-0.8-0.3-0.9-0.7c0-0.2,0-0.5,0-0.7c0-3.6,0-7.2,0-10.9c0-2.1-1-3-3-3
	c-1.1,0-2.1,0-3.2-0.2c-2.2-0.5-3.7-1.9-4.5-4c-1.5-3.8-3.1-7.7-4.6-11.5c-0.6-1.5-1.3-2-2.9-2c-3.4,0-6.9,0-10.3,0
	c-1.8,0-2.8,1-2.8,2.8c0,11.7,0,23.5,0,35.2c0,1.8,1,2.8,2.8,2.8c8.6,0,17.2,0,25.7,0c1.8,0,2.8-1,2.8-2.8c0-0.5,0-1.1,0-1.6
	c0-0.6,0.4-1,0.9-1c0.5,0,0.9,0.4,0.9,0.9c0,0.9,0.1,1.8-0.1,2.7c-0.3,1.7-1.3,2.8-2.9,3.4C34.5,66,34.2,66,34,66.1
	C24.8,66.1,15.5,66.1,6.3,66.1z M26.7,4c-0.2,0-0.3,0-0.4,0C20.9,4,15.4,4,10,4C7.5,4,5.2,5.9,4.7,8.4C4.4,9.7,4.5,11,4.4,12.3
	c0,1.2,0.8,1.9,2,1.9c4.7,0,9.4,0,14.1,0c0.2,0,0.5-0.1,0.7-0.2c1.7-1.4,3.4-2.8,5.1-4.2c0.1-0.1,0.3-0.3,0.3-0.4
	C26.7,7.6,26.7,5.8,26.7,4z M29.2,17.1c-0.6-1.6-1.2-3.2-1.8-4.8c-0.1-0.2-0.2-0.4-0.3-0.7c-1.5,1.3-3,2.5-4.5,3.7
	c1.4,1.8,2.7,3.6,4.1,5.4c0.7,0.9,1.5,1.4,2.5,1.7c1,0.3,2,0.5,2.9,0.8c1.1,0.3,1.7,0.1,1.9-0.5c0.2-0.7-0.1-1.2-1.1-1.6 M28.6,9
	c1.4,0,2.8,0,4.2,0c0.4,0,0.7-0.3,0.7-0.7c0-1.2,0-2.4,0-3.6c0-0.4-0.3-0.7-0.7-0.7c-1.4,0-2.7,0-4.1,0C28.6,5.7,28.6,7.3,28.6,9z"
	/>
<path class="st2" d="M11.3,54.4c-1.1,0-2.1,0-3,0c-0.8,0-1.2-0.3-1.2-0.9c0-0.6,0.4-1,1.2-1c1,0,2.1,0,3.1,0
	c0.3-0.6,0.6-1.1,0.8-1.7c-0.3-0.1-0.6-0.3-0.9-0.5c-1.8-1-2.9-2.4-3.3-4.5c-0.1-0.6,0.2-1.1,0.7-1.2c0.5-0.1,1,0.2,1.1,0.9
	c0.4,1.7,1.4,2.8,3,3.5c-0.4-1.8-0.5-3.5,1.2-4.5c1.3-0.8,2.8-0.8,4.2,0.1c1.6,1.1,1.5,2.7,1.1,4.4c1.5-0.6,2.6-1.6,3-3.2
	c0-0.2,0.1-0.3,0.1-0.5c0.2-0.5,0.5-0.8,1-0.7c0.5,0.1,0.8,0.5,0.8,1c-0.1,1.1-0.5,2.2-1.3,3c-0.8,0.8-1.8,1.5-2.7,2.3
	c0.2,0.3,0.4,0.8,0.6,1.3c0.1,0.1,0.3,0.2,0.5,0.2c0.9,0,1.8,0,2.7,0c0.8,0,1.2,0.3,1.2,0.9c0,0.6-0.4,0.9-1.2,0.9c-1,0-2,0-3,0
	c0,0.7,0,1.4,0,2.1c0,0.1,0.2,0.3,0.4,0.4c1.4,0.9,2.5,2,3,3.6c0.2,0.6-0.1,1.1-0.6,1.3c-0.5,0.1-0.9-0.1-1.1-0.7
	c-0.4-1.2-1.2-2-2.2-2.6c-0.3-0.2-0.5-0.2-0.8,0c-0.5,0.2-1,0.4-1.5,0.4c-1.3,0.1-2.5,0-3.8,0c-0.5,0-1-0.1-1.4-0.4
	c-0.4-0.3-0.7-0.2-1.1,0.1c-0.9,0.6-1.7,1.4-2,2.4c-0.2,0.7-0.7,0.9-1.2,0.7C8,61.6,7.8,61.1,8,60.4c0.5-1.6,1.6-2.7,2.9-3.5
	c0.3-0.2,0.5-0.4,0.4-0.8C11.3,55.6,11.3,55,11.3,54.4z M16.1,57c0.6,0,1.3,0,1.9,0c0.7,0,1.1-0.4,1.1-1.1c0-0.8,0-1.6,0-2.4
	c-0.1-1.2-1-2.2-2.3-2.4c-0.5,0-0.9,0-1.4,0c-1.3,0.1-2.2,1.1-2.3,2.3c0,0.8,0,1.7,0,2.5c0,0.7,0.4,1.1,1.1,1.1
	C14.9,57,15.5,57,16.1,57z M16.2,46c-1.2,0-1.6,0.3-1.6,1.3c0,1.1,0.6,1.8,1.6,1.8c1,0,1.6-0.7,1.6-1.8C17.8,46.3,17.4,46,16.2,46z"
	/>
<path class="st1" d="M29.9,51.3c-2.4,0-4.3-1.9-4.3-4.3c0-2.4,1.9-4.4,4.4-4.4c2.4,0,4.3,2,4.3,4.3C34.2,49.3,32.3,51.3,29.9,51.3z
	 M27.5,47.7c1-1,2.1-2,3.1-3.1c-0.9-0.3-1.7-0.1-2.4,0.6C27.4,45.9,27.3,46.8,27.5,47.7z M29.2,49.3c0.8,0.3,1.8,0.1,2.5-0.6
	c0.7-0.7,0.9-1.7,0.6-2.5C31.2,47.2,30.2,48.2,29.2,49.3z"/>
<path class="st1" d="M9.5,25.8c0.2,0,0.5,0,0.7,0c0.5,0,0.8,0.4,0.9,0.9c0,0.5-0.3,0.9-0.8,0.9c-0.5,0.1-1,0.1-1.6,0
	C8.3,27.6,8,27.3,8,26.7c0-0.5,0.3-0.8,0.9-0.9C9.1,25.8,9.3,25.8,9.5,25.8z"/>
<path class="st1" d="M9.5,31.8c-0.2,0-0.5,0-0.7,0C8.3,31.7,8,31.4,8,30.9C8,30.4,8.2,30,8.7,30c0.5-0.1,1.1-0.1,1.6,0
	c0.5,0.1,0.8,0.4,0.8,0.9c0,0.5-0.3,0.8-0.9,0.9C10,31.8,9.8,31.8,9.5,31.8C9.5,31.8,9.5,31.8,9.5,31.8z"/>
<path class="st1" d="M9.5,35.9c-0.2,0-0.5,0-0.7,0C8.3,35.8,8,35.5,8,35c0-0.5,0.3-0.9,0.8-0.9c0.5-0.1,1,0,1.5,0
	c0.5,0,0.9,0.4,0.9,1c0,0.5-0.4,0.9-0.9,0.9C10,35.9,9.8,35.9,9.5,35.9C9.5,35.9,9.5,35.9,9.5,35.9z"/>
<path class="st1" d="M12.2,7.7c1.1,0,2.1,0,3.2,0c0.7,0,1.1,0.4,1.1,0.9c0,0.6-0.4,0.9-1.1,0.9c-2.1,0-4.2,0-6.3,0
	C8.4,9.6,8,9.3,8,8.7c0-0.6,0.4-1,1.1-1C10.1,7.7,11.2,7.7,12.2,7.7z"/>
</svg>
