<?xml version="1.0" encoding="utf-8"?>
<!-- Generator: Adobe Illustrator 23.0.5, SVG Export Plug-In . SVG Version: 6.00 Build 0)  -->
<svg version="1.1" id="Layer_1" xmlns="http://www.w3.org/2000/svg" xmlns:xlink="http://www.w3.org/1999/xlink" x="0px" y="0px"
	 viewBox="0 0 76 68" style="enable-background:new 0 0 76 68;" xml:space="preserve">
<style type="text/css">
	.st0{fill:#FFF9E7;}
	.st1{fill:#22163C;}
	.st2{clip-path:url(#SVGID_2_);fill:#FDAE35;}
	.st3{fill:#FDAE35;}
</style>
<circle class="st0" cx="57.4" cy="49.3" r="16.6"/>
<g>
	<path class="st1" d="M46.3,0.9c1.5,0.3,2.6,1.3,3.6,2.3c1.8,1.8,3.6,3.6,5.3,5.4c2.1,2.1,2.1,5,0,7.2c-0.9,0.9-1.8,1.9-2.8,2.8
		c-0.5,0.5-1.2,0.9-1.8,1.2c-0.3,0.2-0.4,0.3-0.4,0.6c0,1.9,0,3.8,0,5.7c0,0.3,0.1,0.5,0.4,0.6c1.7,0.6,2.8,1.7,3.5,3.4
		c0.1,0.2,0.3,0.4,0.5,0.4c2.2,0.5,3.4,2.2,3.4,4.4c0,0.2,0.1,0.5,0.3,0.7c2.1,1.7,2.8,4,1.9,6.6c-0.1,0.2,0,0.5,0.2,0.6
		c1.2,1,1.8,2.3,1.6,3.8c-0.3,1.6-1.3,2.7-2.8,3.2c-0.2,0.1-0.5,0.4-0.5,0.6c-1,2.9-2,5.8-3,8.7c-1.6,4.6-5.5,7.4-10.3,7.4
		c-8.3,0-16.5,0-24.8,0c-4.8,0-8.7-2.8-10.3-7.4c-1-2.9-2-5.8-3-8.7c-0.1-0.4-0.3-0.5-0.7-0.7c-1.5-0.5-2.5-1.6-2.7-3.2
		c-0.2-1.5,0.3-2.8,1.5-3.7c0.3-0.3,0.4-0.4,0.2-0.8c-0.9-2.3-0.1-4.9,1.9-6.3C7.9,35.5,8,35.3,8,34.9c-0.1-2.1,1.2-3.8,3.3-4.3
		c0.2,0,0.5-0.2,0.5-0.4c0.6-1.8,1.9-3,3.7-3.6c0.1,0,0.2-0.1,0.3-0.1c0-2.1,0-4.1,0-6.2c0-0.2-0.2-0.3-0.3-0.4
		c-0.7-0.5-1.5-0.9-2.1-1.5c-0.9-0.8-1.8-1.7-2.6-2.6c-2-2-2-5,0-7c2.1-2.1,4.2-4.2,6.3-6.3c0.8-0.8,1.7-1.2,2.8-1.5
		c0.5,0,1,0,1.5,0c1.6,0.4,2.9,1.2,3.6,2.7c0.2,0.4,0.3,0.7,0.4,1.1c5.2,0,10.4,0,15.6,0c0.7-1.7,1.1-2.4,2.1-3
		c0.6-0.4,1.3-0.6,1.9-0.8C45.3,0.9,45.8,0.9,46.3,0.9z M9.2,50c0.1,0.2,0.1,0.4,0.1,0.5c0.9,2.7,1.8,5.5,2.8,8.2
		c1.3,3.7,4.5,6,8.5,6c8.3,0,16.5,0,24.8,0c4.1,0,7.2-2.3,8.5-6.1c0.9-2.6,1.8-5.2,2.7-7.8c0.1-0.2,0.1-0.4,0.2-0.7
		c-1.5,0-2.9,0-4.3,0c-0.8,0-1.2-0.4-1.2-1c0-0.6,0.5-0.9,1.2-0.9c1.8,0,3.7,0,5.5,0c1.3,0,2.2-0.9,2.2-2c0-1.2-0.9-2-2.2-2
		c-2.1,0-4.1,0-6.2,0c-0.2,0-0.4,0-0.5,0c-0.3,2.1-2.3,3-3.8,2c-0.1-0.1-0.4,0-0.6,0.1c-0.8,0.4-1.6,0.4-2.3,0
		c-0.3-0.2-0.5-0.1-0.8,0c-1.5,0.7-3.1-0.1-3.5-1.6c0-0.2-0.1-0.3-0.1-0.5c-4.7,0-9.4,0-14.1,0c0,0.1-0.1,0.2-0.1,0.3
		c-0.5,1.9-2,2.6-3.7,1.8c-0.2-0.1-0.4,0-0.6,0.1c-0.8,0.4-1.6,0.4-2.3,0c-0.2-0.1-0.5-0.1-0.7,0c-1.6,0.8-3.2,0-3.7-1.7
		c0-0.1-0.1-0.3-0.1-0.4c-2.4,0-4.7,0-7,0c-1,0-1.8,0.8-1.9,1.8c-0.1,1,0.5,1.9,1.5,2.2c0.3,0.1,0.7,0.1,1.1,0.1
		c13.1,0,26.2,0,39.3,0c0.3,0,0.5,0,0.8,0c0.5,0.1,0.8,0.4,0.8,0.8c0.1,0.5-0.2,0.9-0.7,1C48.3,50,48,50,47.8,50
		c-12.6,0-25.1,0-37.7,0C9.8,50,9.6,50,9.2,50z M25.3,6.7c-0.9,2.4-1.7,4.7-2.5,7c-0.2,0.5-0.3,1-0.5,1.4c-0.2,0.5-0.7,0.8-1.3,0.6
		c-0.5-0.2-0.7-0.7-0.5-1.2c0-0.2,0.1-0.3,0.2-0.5c0.8-2.4,1.7-4.7,2.5-7.1C23.6,5.4,23.2,4,22,3.3c-1.2-0.8-2.6-0.6-3.7,0.5
		c-2.1,2.1-4.1,4.1-6.2,6.2c-1.3,1.3-1.3,3,0,4.4c0.9,0.9,1.8,1.8,2.6,2.6c1.4,1.4,2.7,1.5,4.3,0.4c0.5-0.4,1-0.3,1.4,0.1
		c0.3,0.4,0.3,1.1-0.2,1.4c-0.6,0.4-1.3,0.7-2,1c-0.3,0.1-0.4,0.2-0.4,0.6c0,2.4,0,4.8,0.1,7.2c0.1,2.5,1.3,4.6,3.2,6.2
		c0.1,0.1,0.2,0.1,0.4,0.3c0-2.1,0-4,0-6c0.1-2.9,2.3-5.5,5.2-6c0.3,0,0.5-0.3,0.7-0.4c0.6-0.5,1.1-1,1.8-1.4
		c0.4-0.2,0.5-0.4,0.5-0.8c0-4.2,0-8.3,0-12.5c0-0.2,0-0.4,0-0.5C28.1,6.7,26.7,6.7,25.3,6.7z M50.2,28.6c-0.1,0.2-0.1,0.3-0.1,0.4
		c-0.6,3.5-2.5,6.1-5.7,7.8c-0.2,0.1-0.4,0.4-0.6,0.6c-1.4,2.4-4.2,3.6-6.9,3c-0.3-0.1-0.7,0-1,0.1c-2,0.9-3.9,0.9-5.9,0
		c-0.3-0.1-0.7-0.2-1-0.1c-2.7,0.6-5.5-0.6-6.9-3c-0.2-0.3-0.5-0.6-0.8-0.7c-2.8-1.6-4.6-3.9-5.4-7.1c-0.1-0.3-0.2-0.7-0.2-1
		c-1.3,0.5-2,1.4-2.3,2.7c-0.2,1-0.4,1.2-1.4,1.2c-1.5,0-2.5,1.4-2.1,2.8c0.3,1,0.2,1.2-0.7,1.7c-1.7,0.9-2.5,2.9-1.7,4.6
		c0.2,0.4,0.4,0.5,0.8,0.5c2,0,4,0,6,0c0.4,0,0.5-0.1,0.7-0.5c0.5-1.4,1.7-2.2,3.2-2.2c1.5,0,3,0,4.5,0c1.4,0,2.5,0.8,3,2.1
		c0.1,0.2,0.1,0.4,0.2,0.6c4.8,0,9.5,0,14.3,0c0.8-2.1,1.7-2.7,3.9-2.7c1.3,0,2.6,0,3.8,0c1.5,0,2.7,0.8,3.2,2.2
		c0.1,0.3,0.2,0.5,0.6,0.5c2,0,4.1,0,6.1,0c0.4,0,0.5-0.1,0.7-0.4c0.8-1.8,0.1-3.8-1.7-4.7c-0.9-0.4-1-0.7-0.7-1.6
		c0.5-1.5-0.6-2.9-2.2-2.9c-1,0-1.2-0.2-1.4-1.2C52.2,30,51.5,29.1,50.2,28.6z M26.7,24.3c-2,0.4-3.4,2.1-3.4,4.1c0,2,0,4,0,6
		c0,2.2,1.7,4,3.9,4.2c2.1,0.2,4.1-1.1,4.7-3.1c0.1-0.5,0.2-1,0.2-1.4c0.1-0.5,0.4-0.8,0.9-0.8c0.5,0,0.8,0.3,0.9,0.7
		c0.1,0.2,0.1,0.5,0.1,0.8c0.2,2.2,2.2,3.9,4.4,3.9c2.2,0,4.2-1.7,4.3-3.9c0.1-2.3,0.1-4.5,0-6.8c-0.1-1.8-1.8-3.5-3.4-3.6
		c-0.4,1.9-1.6,3-3.5,3.3C35.5,30,34.7,31,33.1,31c-0.6,0-1.3-0.3-1.8-0.6c-0.9-0.6-1.1-1.7-1-2.7C28.3,27.4,27.1,26.3,26.7,24.3z
		 M36.5,20.3c1,0.3,1.8,0.9,2.4,1.8c0.1,0.1,0.3,0.2,0.5,0.3c2.5,0.4,4.6,2.3,5.1,4.8c0.2,1.3,0.1,2.7,0.2,4c0,1,0,2,0,3.1
		c0.2-0.1,0.3-0.2,0.4-0.3c1.6-1.3,2.8-3,3-5c0.3-2.9,0.2-5.8,0.2-8.6c0-0.1-0.2-0.3-0.3-0.3c-1.9-0.5-3.1-1.7-3.8-3.6
		c-1.1-3.1-2.2-6.3-3.3-9.4c-0.1-0.2-0.2-0.4-0.3-0.4c-1.4,0-2.7,0-4.1,0C36.5,11.2,36.5,15.7,36.5,20.3z M45.8,2.8
		c-2.3,0-3.6,1.9-2.9,3.9c1.1,3.1,2.2,6.3,3.3,9.4c0.8,2.2,3.2,2.7,4.9,1.1c1-1,2-2,3-3c1.2-1.2,1.2-2.9,0-4.1
		c-2.1-2.2-4.3-4.3-6.5-6.5C47,3.1,46.3,2.9,45.8,2.8z M34.5,20.2c0-4.6,0-9,0-13.5c-1,0-2,0-3,0c0,4.5,0,9,0,13.5
		C32.5,20.2,33.5,20.2,34.5,20.2z M33,22.1C33,22.1,33,22.1,33,22.1c-0.9,0-1.8,0-2.7,0c-1,0.1-1.7,0.8-1.7,1.8c0,1,0.7,1.7,1.8,1.7
		c0.2,0,0.5,0,0.7,0c0.7,0,1.1,0.3,1.1,1.1c0,0.5,0,0.9,0,1.4c0,0.5,0.2,0.9,0.8,0.9c0.5,0,0.8-0.3,0.9-0.9c0-0.5,0-1,0-1.5
		c0-0.6,0.4-0.9,1-1c0.2,0,0.4,0,0.6,0c1.2,0,1.9-0.7,1.9-1.8c0-1-0.8-1.7-1.9-1.8C34.7,22.1,33.8,22.1,33,22.1z M20.3,41.3
		c-0.5,0-0.9,0-1.4,0c-1.9-0.1-2.4,0.5-2.3,2.3c0,0.1,0,0.2,0,0.3c0.2,0.2,0.4,0.4,0.5,0.6c0.2-0.2,0.5-0.3,0.6-0.6
		c0.1-0.6,0.4-1,1-1c0.6,0,0.8,0.4,1,0.9c0.1,0.2,0.4,0.4,0.5,0.6c0.2-0.2,0.5-0.4,0.6-0.6c0.1-0.6,0.4-0.9,1-0.9
		c0.6,0,0.8,0.4,1,0.9c0.1,0.2,0.4,0.4,0.6,0.6c0.2-0.2,0.5-0.4,0.5-0.7c0.1-0.4,0-0.8,0-1.1c-0.1-0.8-0.6-1.3-1.4-1.3
		C21.8,41.3,21.1,41.3,20.3,41.3z M45.7,41.3c-0.7,0-1.3,0-2,0c-1.1,0-1.6,0.5-1.7,1.6c0,0.3-0.1,0.6,0,0.9c0.1,0.3,0.4,0.5,0.5,0.7
		c0.2-0.2,0.5-0.4,0.6-0.6c0.2-0.5,0.4-0.9,1-0.9c0.6,0,0.9,0.4,1,0.9c0.1,0.2,0.4,0.5,0.6,0.5c0.1,0,0.5-0.3,0.5-0.5
		c0.1-0.6,0.4-1,1-1c0.6,0,0.9,0.4,1,1c0.1,0.2,0.4,0.4,0.6,0.5c0.2-0.2,0.4-0.4,0.5-0.7c0.1-0.3,0-0.7,0-1c0-1-0.5-1.5-1.5-1.5
		C47.1,41.3,46.4,41.3,45.7,41.3z M31.8,39.1c0.9,0,1.6,0,2.5,0c-0.5-0.6-0.8-1-1.2-1.4C32.6,38.1,32.3,38.5,31.8,39.1z"/>
	<g>
		<defs>
			<path id="SVGID_1_" d="M46.3,0.9c1.5,0.3,2.6,1.3,3.6,2.3c1.8,1.8,3.6,3.6,5.3,5.4c2.1,2.1,2.1,5,0,7.2c-0.9,0.9-1.8,1.9-2.8,2.8
				c-0.5,0.5-1.2,0.9-1.8,1.2c-0.3,0.2-0.4,0.3-0.4,0.6c0,1.9,0,3.8,0,5.7c0,0.3,0.1,0.5,0.4,0.6c1.7,0.6,2.8,1.7,3.5,3.4
				c0.1,0.2,0.3,0.4,0.5,0.4c2.2,0.5,3.4,2.2,3.4,4.4c0,0.2,0.1,0.5,0.3,0.7c2.1,1.7,2.8,4,1.9,6.6c-0.1,0.2,0,0.5,0.2,0.6
				c1.2,1,1.8,2.3,1.6,3.8c-0.3,1.6-1.3,2.7-2.8,3.2c-0.2,0.1-0.5,0.4-0.5,0.6c-1,2.9-2,5.8-3,8.7c-1.6,4.6-5.5,7.4-10.3,7.4
				c-8.3,0-16.5,0-24.8,0c-4.8,0-8.7-2.8-10.3-7.4c-1-2.9-2-5.8-3-8.7c-0.1-0.4-0.3-0.5-0.7-0.7c-1.5-0.5-2.5-1.6-2.7-3.2
				c-0.2-1.5,0.3-2.8,1.5-3.7c0.3-0.3,0.4-0.4,0.2-0.8c-0.9-2.3-0.1-4.9,1.9-6.3C7.9,35.5,8,35.3,8,34.9c-0.1-2.1,1.2-3.8,3.3-4.3
				c0.2,0,0.5-0.2,0.5-0.4c0.6-1.8,1.9-3,3.7-3.6c0.1,0,0.2-0.1,0.3-0.1c0-2.1,0-4.1,0-6.2c0-0.2-0.2-0.3-0.3-0.4
				c-0.7-0.5-1.5-0.9-2.1-1.5c-0.9-0.8-1.8-1.7-2.6-2.6c-2-2-2-5,0-7c2.1-2.1,4.2-4.2,6.3-6.3c0.8-0.8,1.7-1.2,2.8-1.5
				c0.5,0,1,0,1.5,0c1.6,0.4,2.9,1.2,3.6,2.7c0.2,0.4,0.3,0.7,0.4,1.1c5.2,0,10.4,0,15.6,0c0.7-1.7,1.1-2.4,2.1-3
				c0.6-0.4,1.3-0.6,1.9-0.8C45.3,0.9,45.8,0.9,46.3,0.9z M9.2,50c0.1,0.2,0.1,0.4,0.1,0.5c0.9,2.7,1.8,5.5,2.8,8.2
				c1.3,3.7,4.5,6,8.5,6c8.3,0,16.5,0,24.8,0c4.1,0,7.2-2.3,8.5-6.1c0.9-2.6,1.8-5.2,2.7-7.8c0.1-0.2,0.1-0.4,0.2-0.7
				c-1.5,0-2.9,0-4.3,0c-0.8,0-1.2-0.4-1.2-1c0-0.6,0.5-0.9,1.2-0.9c1.8,0,3.7,0,5.5,0c1.3,0,2.2-0.9,2.2-2c0-1.2-0.9-2-2.2-2
				c-2.1,0-4.1,0-6.2,0c-0.2,0-0.4,0-0.5,0c-0.3,2.1-2.3,3-3.8,2c-0.1-0.1-0.4,0-0.6,0.1c-0.8,0.4-1.6,0.4-2.3,0
				c-0.3-0.2-0.5-0.1-0.8,0c-1.5,0.7-3.1-0.1-3.5-1.6c0-0.2-0.1-0.3-0.1-0.5c-4.7,0-9.4,0-14.1,0c0,0.1-0.1,0.2-0.1,0.3
				c-0.5,1.9-2,2.6-3.7,1.8c-0.2-0.1-0.4,0-0.6,0.1c-0.8,0.4-1.6,0.4-2.3,0c-0.2-0.1-0.5-0.1-0.7,0c-1.6,0.8-3.2,0-3.7-1.7
				c0-0.1-0.1-0.3-0.1-0.4c-2.4,0-4.7,0-7,0c-1,0-1.8,0.8-1.9,1.8c-0.1,1,0.5,1.9,1.5,2.2c0.3,0.1,0.7,0.1,1.1,0.1
				c13.1,0,26.2,0,39.3,0c0.3,0,0.5,0,0.8,0c0.5,0.1,0.8,0.4,0.8,0.8c0.1,0.5-0.2,0.9-0.7,1C48.3,50,48,50,47.8,50
				c-12.6,0-25.1,0-37.7,0C9.8,50,9.6,50,9.2,50z M25.3,6.7c-0.9,2.4-1.7,4.7-2.5,7c-0.2,0.5-0.3,1-0.5,1.4
				c-0.2,0.5-0.7,0.8-1.3,0.6c-0.5-0.2-0.7-0.7-0.5-1.2c0-0.2,0.1-0.3,0.2-0.5c0.8-2.4,1.7-4.7,2.5-7.1C23.6,5.4,23.2,4,22,3.3
				c-1.2-0.8-2.6-0.6-3.7,0.5c-2.1,2.1-4.1,4.1-6.2,6.2c-1.3,1.3-1.3,3,0,4.4c0.9,0.9,1.8,1.8,2.6,2.6c1.4,1.4,2.7,1.5,4.3,0.4
				c0.5-0.4,1-0.3,1.4,0.1c0.3,0.4,0.3,1.1-0.2,1.4c-0.6,0.4-1.3,0.7-2,1c-0.3,0.1-0.4,0.2-0.4,0.6c0,2.4,0,4.8,0.1,7.2
				c0.1,2.5,1.3,4.6,3.2,6.2c0.1,0.1,0.2,0.1,0.4,0.3c0-2.1,0-4,0-6c0.1-2.9,2.3-5.5,5.2-6c0.3,0,0.5-0.3,0.7-0.4
				c0.6-0.5,1.1-1,1.8-1.4c0.4-0.2,0.5-0.4,0.5-0.8c0-4.2,0-8.3,0-12.5c0-0.2,0-0.4,0-0.5C28.1,6.7,26.7,6.7,25.3,6.7z M50.2,28.6
				c-0.1,0.2-0.1,0.3-0.1,0.4c-0.6,3.5-2.5,6.1-5.7,7.8c-0.2,0.1-0.4,0.4-0.6,0.6c-1.4,2.4-4.2,3.6-6.9,3c-0.3-0.1-0.7,0-1,0.1
				c-2,0.9-3.9,0.9-5.9,0c-0.3-0.1-0.7-0.2-1-0.1c-2.7,0.6-5.5-0.6-6.9-3c-0.2-0.3-0.5-0.6-0.8-0.7c-2.8-1.6-4.6-3.9-5.4-7.1
				c-0.1-0.3-0.2-0.7-0.2-1c-1.3,0.5-2,1.4-2.3,2.7c-0.2,1-0.4,1.2-1.4,1.2c-1.5,0-2.5,1.4-2.1,2.8c0.3,1,0.2,1.2-0.7,1.7
				c-1.7,0.9-2.5,2.9-1.7,4.6c0.2,0.4,0.4,0.5,0.8,0.5c2,0,4,0,6,0c0.4,0,0.5-0.1,0.7-0.5c0.5-1.4,1.7-2.2,3.2-2.2c1.5,0,3,0,4.5,0
				c1.4,0,2.5,0.8,3,2.1c0.1,0.2,0.1,0.4,0.2,0.6c4.8,0,9.5,0,14.3,0c0.8-2.1,1.7-2.7,3.9-2.7c1.3,0,2.6,0,3.8,0
				c1.5,0,2.7,0.8,3.2,2.2c0.1,0.3,0.2,0.5,0.6,0.5c2,0,4.1,0,6.1,0c0.4,0,0.5-0.1,0.7-0.4c0.8-1.8,0.1-3.8-1.7-4.7
				c-0.9-0.4-1-0.7-0.7-1.6c0.5-1.5-0.6-2.9-2.2-2.9c-1,0-1.2-0.2-1.4-1.2C52.2,30,51.5,29.1,50.2,28.6z M26.7,24.3
				c-2,0.4-3.4,2.1-3.4,4.1c0,2,0,4,0,6c0,2.2,1.7,4,3.9,4.2c2.1,0.2,4.1-1.1,4.7-3.1c0.1-0.5,0.2-1,0.2-1.4
				c0.1-0.5,0.4-0.8,0.9-0.8c0.5,0,0.8,0.3,0.9,0.7c0.1,0.2,0.1,0.5,0.1,0.8c0.2,2.2,2.2,3.9,4.4,3.9c2.2,0,4.2-1.7,4.3-3.9
				c0.1-2.3,0.1-4.5,0-6.8c-0.1-1.8-1.8-3.5-3.4-3.6c-0.4,1.9-1.6,3-3.5,3.3C35.5,30,34.7,31,33.1,31c-0.6,0-1.3-0.3-1.8-0.6
				c-0.9-0.6-1.1-1.7-1-2.7C28.3,27.4,27.1,26.3,26.7,24.3z M36.5,20.3c1,0.3,1.8,0.9,2.4,1.8c0.1,0.1,0.3,0.2,0.5,0.3
				c2.5,0.4,4.6,2.3,5.1,4.8c0.2,1.3,0.1,2.7,0.2,4c0,1,0,2,0,3.1c0.2-0.1,0.3-0.2,0.4-0.3c1.6-1.3,2.8-3,3-5
				c0.3-2.9,0.2-5.8,0.2-8.6c0-0.1-0.2-0.3-0.3-0.3c-1.9-0.5-3.1-1.7-3.8-3.6c-1.1-3.1-2.2-6.3-3.3-9.4c-0.1-0.2-0.2-0.4-0.3-0.4
				c-1.4,0-2.7,0-4.1,0C36.5,11.2,36.5,15.7,36.5,20.3z M45.8,2.8c-2.3,0-3.6,1.9-2.9,3.9c1.1,3.1,2.2,6.3,3.3,9.4
				c0.8,2.2,3.2,2.7,4.9,1.1c1-1,2-2,3-3c1.2-1.2,1.2-2.9,0-4.1c-2.1-2.2-4.3-4.3-6.5-6.5C47,3.1,46.3,2.9,45.8,2.8z M34.5,20.2
				c0-4.6,0-9,0-13.5c-1,0-2,0-3,0c0,4.5,0,9,0,13.5C32.5,20.2,33.5,20.2,34.5,20.2z M33,22.1C33,22.1,33,22.1,33,22.1
				c-0.9,0-1.8,0-2.7,0c-1,0.1-1.7,0.8-1.7,1.8c0,1,0.7,1.7,1.8,1.7c0.2,0,0.5,0,0.7,0c0.7,0,1.1,0.3,1.1,1.1c0,0.5,0,0.9,0,1.4
				c0,0.5,0.2,0.9,0.8,0.9c0.5,0,0.8-0.3,0.9-0.9c0-0.5,0-1,0-1.5c0-0.6,0.4-0.9,1-1c0.2,0,0.4,0,0.6,0c1.2,0,1.9-0.7,1.9-1.8
				c0-1-0.8-1.7-1.9-1.8C34.7,22.1,33.8,22.1,33,22.1z M20.3,41.3c-0.5,0-0.9,0-1.4,0c-1.9-0.1-2.4,0.5-2.3,2.3c0,0.1,0,0.2,0,0.3
				c0.2,0.2,0.4,0.4,0.5,0.6c0.2-0.2,0.5-0.3,0.6-0.6c0.1-0.6,0.4-1,1-1c0.6,0,0.8,0.4,1,0.9c0.1,0.2,0.4,0.4,0.5,0.6
				c0.2-0.2,0.5-0.4,0.6-0.6c0.1-0.6,0.4-0.9,1-0.9c0.6,0,0.8,0.4,1,0.9c0.1,0.2,0.4,0.4,0.6,0.6c0.2-0.2,0.5-0.4,0.5-0.7
				c0.1-0.4,0-0.8,0-1.1c-0.1-0.8-0.6-1.3-1.4-1.3C21.8,41.3,21.1,41.3,20.3,41.3z M45.7,41.3c-0.7,0-1.3,0-2,0
				c-1.1,0-1.6,0.5-1.7,1.6c0,0.3-0.1,0.6,0,0.9c0.1,0.3,0.4,0.5,0.5,0.7c0.2-0.2,0.5-0.4,0.6-0.6c0.2-0.5,0.4-0.9,1-0.9
				c0.6,0,0.9,0.4,1,0.9c0.1,0.2,0.4,0.5,0.6,0.5c0.1,0,0.5-0.3,0.5-0.5c0.1-0.6,0.4-1,1-1c0.6,0,0.9,0.4,1,1
				c0.1,0.2,0.4,0.4,0.6,0.5c0.2-0.2,0.4-0.4,0.5-0.7c0.1-0.3,0-0.7,0-1c0-1-0.5-1.5-1.5-1.5C47.1,41.3,46.4,41.3,45.7,41.3z
				 M31.8,39.1c0.9,0,1.6,0,2.5,0c-0.5-0.6-0.8-1-1.2-1.4C32.6,38.1,32.3,38.5,31.8,39.1z"/>
		</defs>
		<clipPath id="SVGID_2_">
			<use xlink:href="#SVGID_1_"  style="overflow:visible;"/>
		</clipPath>
		<polygon class="st2" points="42.7,39.3 39.8,40.5 34,41.7 25.6,40.3 21.2,38.4 16.2,33.5 15.7,27.1 15.7,24.2 13,22.3 3.1,-0.1 
			57.6,-5.4 57.4,11.4 56.4,17 50.8,20.8 49.6,34.5 		"/>
	</g>
	<path class="st1" d="M57.6,14.3c0-2.8,2.3-5.1,5-5.1c2.8,0,5.1,2.3,5.1,5.1c0,2.8-2.3,5.1-5.1,5.1C59.9,19.4,57.6,17.1,57.6,14.3z
		 M65.8,14.3c0-1.7-1.4-3.1-3.1-3.2c-1.7,0-3.2,1.4-3.2,3.2c0,1.7,1.4,3.1,3.1,3.1C64.4,17.5,65.8,16.1,65.8,14.3z"/>
	<path class="st1" d="M11.3,21.5c0,2.5-2,4.5-4.5,4.5c-2.5,0-4.5-2-4.5-4.5c0-2.5,2-4.5,4.5-4.5C9.3,17,11.3,19,11.3,21.5z
		 M6.8,18.9c-1.4,0-2.6,1.1-2.6,2.5c0,1.4,1.2,2.6,2.6,2.6c1.4,0,2.5-1.2,2.5-2.6C9.4,20.1,8.3,18.9,6.8,18.9z"/>
	<path class="st1" d="M56.3,25.4c0-2.1,1.7-3.7,3.8-3.7c2,0,3.7,1.7,3.7,3.7c0,2.1-1.7,3.7-3.8,3.7C57.9,29.1,56.3,27.4,56.3,25.4z
		 M61.8,25.3c0-1-0.8-1.8-1.8-1.8c-1,0-1.8,0.8-1.8,1.9c0,1,0.8,1.8,1.8,1.7C61,27.2,61.9,26.3,61.8,25.3z"/>
	<path class="st3" d="M23.5,18.5c0.3-0.7,0.5-1.4,0.9-2c0.5-0.7,1.2-0.6,1.7,0c0.9,1,0.9,3.1,0,4c-0.6,0.6-1.3,0.7-1.8,0
		C24,19.9,23.8,19.2,23.5,18.5z"/>
	<path class="st3" d="M39,18.5c0.3-0.7,0.5-1.4,0.9-2c0.5-0.7,1.2-0.6,1.7,0c0.9,1,0.9,3.1,0,4c-0.6,0.6-1.3,0.7-1.8,0
		C39.5,19.9,39.3,19.2,39,18.5z"/>
</g>
</svg>
