<?xml version="1.0" encoding="utf-8"?>
<!-- Generator: Adobe Illustrator 23.0.5, SVG Export Plug-In . SVG Version: 6.00 Build 0)  -->
<svg version="1.1" id="Layer_1" xmlns="http://www.w3.org/2000/svg" xmlns:xlink="http://www.w3.org/1999/xlink" x="0px" y="0px"
	 viewBox="0 0 76 68" style="enable-background:new 0 0 76 68;" xml:space="preserve">
<style type="text/css">
	.st0{fill:#FFF9E7;}
	.st1{fill:#23143B;}
	.st2{fill:#FDAA28;}
</style>
<g>
	<circle class="st0" cx="53" cy="43.8" r="21.2"/>
	<path class="st1" d="M30.9,3c0.4,0.1,0.8,0.2,1.2,0.3c2.1,0.6,3.6,1.9,4.4,3.9c0.7,1.6,1.3,3.2,1.8,4.9c1,3.5-0.9,7.1-4.2,8.4
		c-0.1,0-0.2,0.1-0.3,0.1c0.3,0.8,0.5,1.6,0.8,2.4c2.1,6.4-1.4,13.1-7.8,14.9c-1,0.3-2.1,0.4-3.2,0.5c-2.1,0.1-4.2,0-6.3,0
		c-6.7,0-12-5.7-11.6-12.3c0.1-1.6,0.6-3.1,1.1-4.6c0.1-0.3,0.2-0.6,0.3-0.9c-0.4-0.2-0.7-0.3-1.1-0.5c-3-1.5-4.5-5.1-3.4-8.3
		c0.5-1.5,1-2.9,1.6-4.3C5.1,5,7,3.6,9.5,3.1C9.7,3.1,9.8,3,9.9,3c0.5,0,1,0,1.6,0c0.1,0,0.1,0.1,0.2,0.1c1.4,0.2,2.7,0.8,3.8,1.8
		c0.1,0.1,0.4,0.1,0.5,0.1c3-1.3,6-1.3,8.9,0c0.2,0.1,0.4,0,0.6-0.1c0.7-0.5,1.3-0.9,2.1-1.3C28,3.3,28.7,3.2,29.3,3
		C29.8,3,30.3,3,30.9,3z M20.4,35.3C20.4,35.3,20.4,35.3,20.4,35.3c1,0.1,2,0.1,3,0.1c5.8,0,10-5.5,8.4-11.1c-1.2-4-2.5-8-3.9-12
		c-1.1-3.2-4-5.2-7.2-5.3c-3.7-0.1-6.8,2.1-8,5.7c-0.9,2.7-1.8,5.5-2.7,8.2c-0.5,1.6-1.1,3.2-1.4,4.9c-0.7,4.5,2.8,9,7.3,9.5
		C17.4,35.4,18.9,35.3,20.4,35.3z M8,17.7c0.6-2,1.3-3.9,1.9-5.8c0.5-1.7,1.4-3.2,2.6-4.5c0.2-0.2,0.4-0.4,0.6-0.5
		C11.1,5.2,8,6,7,8.3c-0.6,1.5-1.2,3-1.6,4.5C4.7,14.9,5.9,17.1,8,17.7z M32.8,17.7c2.1-0.6,3.3-2.8,2.6-4.9c-0.5-1.5-1-2.9-1.6-4.4
		c-0.5-1.2-1.4-2-2.7-2.3c-1.2-0.3-2.4-0.1-3.4,0.7c0.1,0.1,0.1,0.1,0.1,0.2c1.5,1.4,2.5,3.2,3.1,5.1C31.5,13.9,32.2,15.8,32.8,17.7
		z"/>
	<path class="st2" d="M52.5,49.4c-0.2,0.5-0.3,0.9-0.5,1.4c-1.1,2.2-3.8,3.1-6,1.9c-2.2-1.1-3-3.9-1.8-6c0.2-0.3,0.2-0.6-0.1-0.9
		c-0.4-0.5-0.8-1.1-1.2-1.7c-0.5,0.7-0.9,1.3-1.4,2c-0.1,0.1,0.1,0.3,0.1,0.5c1.4,2.5,0.1,5.7-2.7,6.5c-1.7,0.5-3.6-0.2-4.7-1.6
		c-1.1-1.5-1.2-3.4-0.2-5c0.9-1.5,2.7-2.3,4.5-2c0.4,0.1,0.6,0,0.8-0.3c0.6-0.9,1.2-1.7,1.8-2.6c-0.1-0.2-0.2-0.3-0.3-0.5
		c-1.5-2.2-3-4.3-4.5-6.5c-0.3-0.4-0.5-0.9-0.3-1.4c0.2-0.6,0.6-0.9,1.1-1c0.6-0.1,1.1,0.1,1.5,0.6c0.8,1.1,1.6,2.2,2.3,3.3
		c0.7,0.9,1.3,1.9,2,2.8c1.3-1.9,2.7-3.8,4-5.7c0.1-0.2,0.2-0.3,0.3-0.5c0.5-0.7,1.4-0.9,2.1-0.4c0.7,0.5,0.9,1.4,0.3,2.1
		c-0.8,1.1-1.6,2.3-2.4,3.4c-0.9,1.2-1.7,2.4-2.6,3.7c0.7,0.9,1.3,1.8,1.9,2.7c0.1,0.1,0.3,0.2,0.4,0.2c2.9-0.3,4.5,0.8,5.3,3.6
		c0,0,0,0.1,0,0.1C52.5,48.6,52.5,49,52.5,49.4z M49.5,48.8c0-0.8-0.6-1.5-1.4-1.5c-0.8,0-1.5,0.6-1.5,1.4c0,0.8,0.7,1.5,1.5,1.5
		C48.8,50.3,49.5,49.6,49.5,48.8z M36.5,48.8c0,0.8,0.6,1.5,1.4,1.5c0.8,0,1.5-0.7,1.5-1.5c0-0.8-0.7-1.5-1.5-1.5
		C37.1,47.3,36.5,48,36.5,48.8z"/>
	<path class="st1" d="M18.9,30.7c0.2-1-0.1-1.6-1.1-2.1c-1.4-0.7-2.2-1.9-2.6-3.4c-0.6-2.1,0.3-3.8,2.4-4.3c1.8-0.5,3.7-0.5,5.5,0
		c2.2,0.5,3.1,2.3,2.4,4.4c-0.5,1.7-1.7,3-3.4,3.7c-0.3,0.1-0.4,0.3-0.4,0.6c0,0.7,0,1.5,0,2.2c0,0.9-0.6,1.5-1.5,1.5
		c-0.8,0-1.5-0.6-1.5-1.5C18.9,31.5,18.9,31.1,18.9,30.7z M20.4,23.5c-0.7,0.1-1.4,0.2-2,0.3c-0.4,0.1-0.5,0.3-0.3,0.6
		c0.2,0.7,0.7,1.3,1.3,1.8c0.6,0.4,1.2,0.5,1.9,0.1c0.8-0.4,1.3-1.1,1.6-1.9c0.1-0.3,0-0.6-0.3-0.6C21.8,23.7,21.1,23.6,20.4,23.5z"
		/>
	<path class="st1" d="M17.4,15.3c0,0.8-0.7,1.5-1.5,1.4c-0.8,0-1.5-0.7-1.5-1.5c0-0.8,0.7-1.4,1.5-1.4
		C16.8,13.8,17.4,14.5,17.4,15.3z"/>
	<path class="st1" d="M26.3,15.3c0,0.8-0.7,1.5-1.5,1.5c-0.8,0-1.5-0.7-1.5-1.5c0-0.8,0.7-1.4,1.5-1.4
		C25.6,13.8,26.3,14.5,26.3,15.3z"/>
</g>
</svg>
