<?xml version="1.0" encoding="utf-8"?>
<!-- Generator: Adobe Illustrator 23.0.5, SVG Export Plug-In . SVG Version: 6.00 Build 0)  -->
<svg version="1.1" id="Layer_1" xmlns="http://www.w3.org/2000/svg" xmlns:xlink="http://www.w3.org/1999/xlink" x="0px" y="0px"
	 viewBox="0 0 76 68" style="enable-background:new 0 0 76 68;" xml:space="preserve">
<style type="text/css">
	.st0{fill:#FFF9E7;}
	.st1{fill:#26163D;}
	.st2{fill:#FDB546;}
</style>
<circle class="st0" cx="49" cy="45.8" r="21.2"/>
<path class="st1" d="M10.2,28.6c0-1,0-2.1,0-3.2c-0.1-2.4,0.2-4.6,1.2-6.8c0.1-0.2,0.1-0.6,0-0.8C10.4,12.5,11,7.4,13,2.4
	c0.1-0.2,0.1-0.3,0.2-0.5c0.5-0.9,1.4-1,2-0.2c0.6,0.8,1.1,1.6,1.7,2.5c1.2,1.8,2.5,3.6,3.7,5.4c0.2,0.3,0.4,0.4,0.8,0.3
	c2.4-0.7,4.9-0.7,7.4,0c0.5,0.1,0.7,0,1-0.4C31.4,7,33.2,4.5,34.9,2c0.3-0.4,0.6-0.8,1.2-0.8c0.6,0,0.9,0.5,1.1,1
	c2,5,2.7,10.2,1.7,15.5c-0.1,0.4,0,0.8,0.1,1.2c0.7,1.8,1,3.7,1,5.6c0,1.3,0,2.7,0,4c2.2,0.5,2.9,1.5,2.9,3.7c0,5.4,0,10.9,0,16.3
	c0,1.5-0.5,2.8-1.6,3.9c-1.8,1.8-3.5,3.6-5.3,5.3c-0.7,0.7-1,1.4-0.9,2.3c0,1.2,0,2.3,0,3.5c0,0.9-0.4,1.3-1.3,1.3
	c-5.8,0-11.6,0-17.4,0c-0.9,0-1.3-0.4-1.3-1.3c0-1.2,0-2.3,0-3.5c0-0.9-0.3-1.6-0.9-2.3c-1.8-1.8-3.5-3.6-5.3-5.4
	c-1-1-1.5-2.3-1.5-3.8c0-5.5,0-11,0-16.5C7.3,30.1,8.1,29.1,10.2,28.6z M36.9,41.3c0-0.3,0-0.6,0-0.8c0-2.9,0-5.7,0-8.6
	c0-0.6,0-1.3,0.4-1.6c0.6-0.8,0.6-1.6,0.6-2.4c0-1,0-1.9,0-2.9c0-0.2,0-0.4-0.1-0.6c-1.3-3-3.3-5.2-6.6-6c-1.3-0.3-1.7,0-1.8,1.3
	c-0.2,2.2-2.1,4-4.3,4c-2.3,0-4.1-1.8-4.2-4.1c-0.1-1.2-0.5-1.5-1.6-1.3c-3.4,0.7-5.4,3-6.8,6c-0.1,0.2-0.1,0.4-0.1,0.6
	c0,1.4,0,2.7,0,4.1c0,0.2,0,0.5,0.2,0.6c0.6,0.7,0.8,1.5,0.8,2.5c0,2.8,0,5.7,0,8.5c0,0.2,0,0.5,0,0.7c1.1,0,1.8,0.5,2.5,1.2
	c2.2,2.3,4.4,4.6,6.6,6.8c0.9,0.9,1.9,1.7,2.9,2.6c-0.1,0.1,0,0.1,0,0c3-3.1,6-6.2,9-9.4C35.1,41.9,35.8,41.4,36.9,41.3z M24.1,62.8
	c0-2.4,0-4.8,0-7.2c0-1-0.3-1.8-1-2.5c-3-3-5.9-6.1-8.8-9.1c-0.1-0.1-0.3-0.4-0.4-0.4c-0.3-0.1-0.7-0.1-0.8,0
	c-0.2,0.1-0.2,0.6-0.2,0.8c0,0.2,0.3,0.4,0.5,0.6c1.8,2.3,3.7,4.6,5.5,6.9c0.5,0.6,0.5,1.2,0,1.6c-0.5,0.4-1.1,0.4-1.5-0.2
	c-2-2.6-4.1-5.1-6.1-7.7c-0.7-0.9-0.7-1.9-0.2-2.9c0.2-0.3,0.3-0.7,0.3-1.1c0-3.2,0-6.4,0-9.6c0-0.2,0-0.4,0-0.6
	c-0.1-0.5-0.3-0.7-0.8-0.8c-0.5,0-0.8,0.2-0.9,0.7c-0.1,0.2,0,0.4,0,0.6c0,5.6,0,11.1,0,16.7c0,0.9,0.3,1.6,0.9,2.2
	c1.8,1.8,3.5,3.6,5.3,5.3c1.1,1.1,1.7,2.4,1.6,4c0,0.8,0,1.7,0,2.5C19.5,62.8,21.8,62.8,24.1,62.8z M33,62.9c0-0.9,0-1.8,0-2.7
	c0-1.5,0.5-2.7,1.5-3.7c1.8-1.8,3.5-3.6,5.3-5.3c0.7-0.7,1-1.4,1-2.4c0-5.5,0-11,0-16.5c0-0.2,0-0.4,0-0.6c-0.1-0.5-0.5-0.8-1-0.7
	C39.2,31,39,31.4,39,31.9c0,3.3,0,6.7,0,10c0,0.2,0,0.5,0.1,0.6c0.8,1.3,0.5,2.5-0.4,3.6c-1.5,1.8-2.9,3.6-4.3,5.5
	C34,52.3,33.6,53,33,53.5c-0.3,0.3-0.8,0.4-1.2,0.3c-0.3-0.1-0.6-0.6-0.7-0.9c-0.1-0.3,0.2-0.7,0.4-0.9c1.9-2.4,3.8-4.8,5.6-7.1
	c0.3-0.4,0.5-0.8,0-1.2c-0.4-0.3-0.8-0.1-1.1,0.2c-3.1,3.2-6.2,6.4-9.2,9.6c-0.4,0.4-0.7,1-0.7,1.5c-0.1,2.6,0,5.1,0,7.7
	c0,0,0,0.1,0.1,0.1C28.5,62.9,30.7,62.9,33,62.9z M36.5,18.9c-1-3.7-6.5-7.3-11.4-7.3c-4.9,0-10.4,3.5-11.4,7.3
	c1.6-1.4,3.3-2.3,5.3-2.6c2.2-0.4,3.8,0.9,3.9,3.1c0.1,1.3,0.9,2.2,2.1,2.2c1.2,0,2.1-0.9,2.2-2.2c0.2-2.3,1.8-3.5,4-3.1
	C33.2,16.6,35,17.5,36.5,18.9z M37,15.5c0.4-3.8-0.1-7.4-1.3-10.9c-1.5,2.2-2.9,4.2-4.3,6.4C33.6,12,35.5,13.4,37,15.5z M18.8,10.9
	c-1.4-2.1-2.8-4.2-4.3-6.4c-1.2,3.6-1.7,7.1-1.3,10.9C14.8,13.4,16.6,12,18.8,10.9z"/>
<path class="st2" d="M30.4,31.3c-0.1,2.6-3.2,4-5.3,1.9c-0.9,0.9-2,1.3-3.3,0.8c-1.3-0.5-1.8-1.5-2-2.8c-0.2,0-0.4,0-0.5,0
	c-0.4,0-0.7-0.3-0.7-0.7c0-0.4,0.3-0.7,0.7-0.7c1.4-0.2,2.1,0.5,2.1,1.6c0,0.7,0.7,1.2,1.3,1.3c0.7,0.1,1.4-0.3,1.6-1.1
	c0-0.2,0-0.4-0.1-0.6c-0.7-0.7-1.3-1.4-2-2.2c-0.3-0.3-0.4-0.6-0.3-0.9c0.2-0.4,0.5-0.5,0.9-0.5c1.6,0,3.2,0,4.7,0
	c0.4,0,0.7,0.1,0.9,0.4c0.2,0.4,0,0.7-0.2,1c-0.7,0.7-1.3,1.4-2,2.1c-0.2,0.2-0.2,0.4-0.1,0.7c0.3,0.6,0.9,1,1.6,1
	c0.7-0.1,1.3-0.6,1.3-1.4c0.1-1.4,1-1.7,2.2-1.6c0.4,0.1,0.6,0.3,0.6,0.7c0,0.4-0.2,0.6-0.5,0.7C30.9,31.3,30.7,31.3,30.4,31.3z
	 M25.9,29.1c-0.5,0-1,0-1.6,0c0.3,0.3,0.5,0.6,0.8,0.8C25.4,29.6,25.6,29.4,25.9,29.1z"/>
</svg>
