<?xml version="1.0" encoding="utf-8"?>
<!-- Generator: Adobe Illustrator 23.0.5, SVG Export Plug-In . SVG Version: 6.00 Build 0)  -->
<svg version="1.1" id="Layer_1" xmlns="http://www.w3.org/2000/svg" xmlns:xlink="http://www.w3.org/1999/xlink" x="0px" y="0px"
	 viewBox="0 0 76 68" style="enable-background:new 0 0 76 68;" xml:space="preserve">
<style type="text/css">
	.st0{fill:#FFF9E7;}
	.st1{fill:#231539;}
	.st2{clip-path:url(#SVGID_2_);fill:#FDAA28;}
</style>
<g>
	<circle class="st0" cx="55" cy="46.8" r="21.2"/>
	<path class="st1" d="M46.7,18.5c-0.3,0.7-0.5,1.3-0.7,1.8c-0.3,0.7-0.7,1.4-1.1,2c-1.2,1.6-3,1.6-4.2,0c-0.4-0.5-0.8-1.1-1.1-1.6
		c-0.6,1.3-1.1,2.6-1.7,3.8c-0.1,0.1,0,0.3,0,0.4c1.2,4.7-0.5,8.4-4.2,11.3c-6,4.6-15.5,4-20.7-1.3c-2.7-2.8-3.7-6.1-2.7-9.9
		c0-0.2,0.1-0.3,0-0.5c-0.5-1.3-1.1-2.5-1.7-3.8c-0.1,0.1-0.2,0.2-0.3,0.4c-0.2,0.4-0.5,0.7-0.7,1.1c-1.3,1.7-3.3,1.7-4.4-0.1
		c-0.6-1-1.1-2.1-1.5-3.2c-0.5-1.8-1.1-3.7-1.3-5.5C0,9.2,2.6,5.8,6.8,4.5c2.3-0.7,4.7-0.8,7.1-0.8c0.7,0,1.2-0.2,1.7-0.5
		C21.4-0.1,27.1,0,32.8,3.4c0.3,0.2,0.6,0.3,0.9,0.3c2.4,0,4.9,0,7.2,0.7c3,0.8,5.2,2.5,6.3,5.5c0.1,0.1,0.2,0.3,0.3,0.4
		c0.6,0.4,1,1,1.3,1.7c0.2,0.6,0.5,1.2,0.8,1.8c0.5,1.3,0.4,2.5-0.5,3.5c-0.2,0.3-0.2,0.5-0.1,0.7c1.4,3.3,2.8,6.6,4.3,9.8
		c0.1,0.3,0.3,0.4,0.6,0.5c1.3,0.1,2.3,0.7,2.8,1.9c0.4,0.8,0.7,1.6,1,2.4c0.6,1.7-0.2,3.6-1.8,4.3c-1.7,0.7-3.6,0-4.4-1.6
		c-0.4-0.8-0.7-1.5-1-2.3c-0.5-1.2-0.2-2.4,0.5-3.4c0.1-0.2,0.2-0.4,0.2-0.6C49.8,25.5,48.3,22.1,46.7,18.5z M24,37.1
		c0.1,0,0.2,0,0.3,0c0.4,0,0.8,0,1.1-0.1c3.2-0.3,6.1-1.5,8.3-3.9c2-2.2,2.7-4.8,1.8-7.6c-0.2-0.7-0.2-1.3,0.2-2
		c1.5-2.6,2.1-5.4,1.7-8.3c-0.9-8-8.5-13.5-16.3-11.9c-5.8,1.2-10.2,6.1-10.8,11.9c-0.3,3,0.3,5.8,1.8,8.4c0.3,0.5,0.4,0.9,0.2,1.4
		c-1.1,3.4-0.2,6.3,2.4,8.7C17.5,36.2,20.6,37.1,24,37.1z M12.1,6c-2,0.1-4,0.3-5.9,1.2C4.7,7.9,3.6,9.1,3,10.7
		c-0.4,1.1-0.5,2.2-0.3,3.3c0.4,2.2,1,4.4,2,6.4c0.2,0.3,0.4,0.6,0.7,0.9c0.2-0.2,0.4-0.4,0.5-0.5c0.7-1.2,1.5-2.4,2.2-3.6
		c0.1-0.2,0.1-0.5,0.2-0.7c0-2.3,0.5-4.5,1.5-6.6C10.4,8.6,11.3,7.3,12.1,6z M42.8,21.3c0.2-0.2,0.4-0.4,0.5-0.6
		c0.3-0.5,0.5-1,0.8-1.6c0.3-0.7,0.4-1.2-0.2-2c-0.7-1-1.1-2.2-1.5-3.4c-0.3-0.7-0.1-1.5,0.3-2.2c0.5-0.8,1.2-1.4,2-1.7
		c-1.3-2.8-5.3-3.9-8.8-3.7C36,6.1,36,6.2,36,6.3c2.6,3.1,4,6.6,4,10.7c0,0.2,0.1,0.4,0.2,0.6c0.7,1.1,1.4,2.1,2.1,3.2
		C42.4,20.9,42.6,21.1,42.8,21.3z M54.5,35.1c0.8-0.1,1.4-0.8,1.1-1.6c-0.3-0.8-0.6-1.5-1-2.3c-0.3-0.6-0.9-0.7-1.4-0.5
		c-0.5,0.2-0.8,0.8-0.6,1.4c0.3,0.8,0.6,1.5,1,2.2C53.8,34.7,54.2,34.8,54.5,35.1z M44.4,13.1c0.5,1,0.9,1.9,1.4,2.8
		c0.3,0.4,0.8,0.4,1.3,0.2c0.5-0.3,0.7-0.7,0.5-1.2c-0.3-0.8-0.7-1.7-1.1-2.5c-0.2-0.5-0.7-0.6-1.2-0.4
		C44.8,12.1,44.5,12.5,44.4,13.1z"/>
	<g>
		<defs>
			<path id="SVGID_1_" d="M46.7,18.5c-0.3,0.7-0.5,1.3-0.7,1.8c-0.3,0.7-0.7,1.4-1.1,2c-1.2,1.6-3,1.6-4.2,0
				c-0.4-0.5-0.8-1.1-1.1-1.6c-0.6,1.3-1.1,2.6-1.7,3.8c-0.1,0.1,0,0.3,0,0.4c1.2,4.7-0.5,8.4-4.2,11.3c-6,4.6-15.5,4-20.7-1.3
				c-2.7-2.8-3.7-6.1-2.7-9.9c0-0.2,0.1-0.3,0-0.5c-0.5-1.3-1.1-2.5-1.7-3.8c-0.1,0.1-0.2,0.2-0.3,0.4c-0.2,0.4-0.5,0.7-0.7,1.1
				c-1.3,1.7-3.3,1.7-4.4-0.1c-0.6-1-1.1-2.1-1.5-3.2c-0.5-1.8-1.1-3.7-1.3-5.5C0,9.2,2.6,5.8,6.8,4.5c2.3-0.7,4.7-0.8,7.1-0.8
				c0.7,0,1.2-0.2,1.7-0.5C21.4-0.1,27.1,0,32.8,3.4c0.3,0.2,0.6,0.3,0.9,0.3c2.4,0,4.9,0,7.2,0.7c3,0.8,5.2,2.5,6.3,5.5
				c0.1,0.1,0.2,0.3,0.3,0.4c0.6,0.4,1,1,1.3,1.7c0.2,0.6,0.5,1.2,0.8,1.8c0.5,1.3,0.4,2.5-0.5,3.5c-0.2,0.3-0.2,0.5-0.1,0.7
				c1.4,3.3,2.8,6.6,4.3,9.8c0.1,0.3,0.3,0.4,0.6,0.5c1.3,0.1,2.3,0.7,2.8,1.9c0.4,0.8,0.7,1.6,1,2.4c0.6,1.7-0.2,3.6-1.8,4.3
				c-1.7,0.7-3.6,0-4.4-1.6c-0.4-0.8-0.7-1.5-1-2.3c-0.5-1.2-0.2-2.4,0.5-3.4c0.1-0.2,0.2-0.4,0.2-0.6
				C49.8,25.5,48.3,22.1,46.7,18.5z M24,37.1c0.1,0,0.2,0,0.3,0c0.4,0,0.8,0,1.1-0.1c3.2-0.3,6.1-1.5,8.3-3.9c2-2.2,2.7-4.8,1.8-7.6
				c-0.2-0.7-0.2-1.3,0.2-2c1.5-2.6,2.1-5.4,1.7-8.3c-0.9-8-8.5-13.5-16.3-11.9c-5.8,1.2-10.2,6.1-10.8,11.9c-0.3,3,0.3,5.8,1.8,8.4
				c0.3,0.5,0.4,0.9,0.2,1.4c-1.1,3.4-0.2,6.3,2.4,8.7C17.5,36.2,20.6,37.1,24,37.1z M12.1,6c-2,0.1-4,0.3-5.9,1.2
				C4.7,7.9,3.6,9.1,3,10.7c-0.4,1.1-0.5,2.2-0.3,3.3c0.4,2.2,1,4.4,2,6.4c0.2,0.3,0.4,0.6,0.7,0.9c0.2-0.2,0.4-0.4,0.5-0.5
				c0.7-1.2,1.5-2.4,2.2-3.6c0.1-0.2,0.1-0.5,0.2-0.7c0-2.3,0.5-4.5,1.5-6.6C10.4,8.6,11.3,7.3,12.1,6z M42.8,21.3
				c0.2-0.2,0.4-0.4,0.5-0.6c0.3-0.5,0.5-1,0.8-1.6c0.3-0.7,0.4-1.2-0.2-2c-0.7-1-1.1-2.2-1.5-3.4c-0.3-0.7-0.1-1.5,0.3-2.2
				c0.5-0.8,1.2-1.4,2-1.7c-1.3-2.8-5.3-3.9-8.8-3.7C36,6.1,36,6.2,36,6.3c2.6,3.1,4,6.6,4,10.7c0,0.2,0.1,0.4,0.2,0.6
				c0.7,1.1,1.4,2.1,2.1,3.2C42.4,20.9,42.6,21.1,42.8,21.3z M54.5,35.1c0.8-0.1,1.4-0.8,1.1-1.6c-0.3-0.8-0.6-1.5-1-2.3
				c-0.3-0.6-0.9-0.7-1.4-0.5c-0.5,0.2-0.8,0.8-0.6,1.4c0.3,0.8,0.6,1.5,1,2.2C53.8,34.7,54.2,34.8,54.5,35.1z M44.4,13.1
				c0.5,1,0.9,1.9,1.4,2.8c0.3,0.4,0.8,0.4,1.3,0.2c0.5-0.3,0.7-0.7,0.5-1.2c-0.3-0.8-0.7-1.7-1.1-2.5c-0.2-0.5-0.7-0.6-1.2-0.4
				C44.8,12.1,44.5,12.5,44.4,13.1z"/>
		</defs>
		<clipPath id="SVGID_2_">
			<use xlink:href="#SVGID_1_"  style="overflow:visible;"/>
		</clipPath>
		<path class="st2" d="M45.5,17.9c-0.3,0-0.5,0-0.7,0c-1-0.1-1.5-0.6-2.2-1.2c-0.5-0.5-1-1-1.4-1.7c-0.7-1.1-1.1-2.5-0.8-3.8
			c0.2-1.2,0.4-1.6,1.5-2c0.8-0.2,2,0.5,3.2,0.5c8,0,22.5,11.8,25.7,19.8c4.2,10.4,5.3,9.3-1.1,11.3c-19,6-23.3-14.3-23.1-22.4
			c0-0.2-0.1-0.5-0.3-0.6C46.1,17.9,45.8,17.9,45.5,17.9z"/>
	</g>
	<path class="st1" d="M26.2,29.1c0,1.1,0,2.1,0,3.1c0,0.8-0.4,1.3-1.1,1.4c-0.7,0-1.2-0.5-1.2-1.4c0-1,0-2.1,0-3
		c-0.7-0.3-1.3-0.4-1.8-0.7c-1.3-0.8-1.8-2.3-1.4-3.7c0.4-1.4,1.7-2.4,3.1-2.5c0.8,0,1.5,0,2.3,0c1.9,0,3.3,1.3,3.5,3.1
		c0.1,1.8-1.1,3.3-2.9,3.6C26.5,29,26.4,29.1,26.2,29.1z M25.1,26.8c0.4,0,0.8,0,1.2,0c0.6,0,1.1-0.5,1.1-1.1c0-0.6-0.5-1.1-1.1-1.1
		c-0.8,0-1.5,0-2.3,0c-0.6,0-1.1,0.5-1.1,1.1c0,0.6,0.5,1.1,1.1,1.1C24.3,26.8,24.7,26.8,25.1,26.8z"/>
	<path class="st1" d="M19,16.7c-1.9,0-3.4-1.5-3.4-3.4c0-1.9,1.5-3.4,3.4-3.4c1.9,0,3.4,1.6,3.4,3.4C22.4,15.2,20.8,16.8,19,16.7z
		 M20.1,13.3c0-0.6-0.5-1.1-1.1-1.1c-0.6,0-1.1,0.5-1.1,1.1c0,0.6,0.5,1.1,1.1,1.1C19.6,14.5,20.1,14,20.1,13.3z"/>
	<path class="st1" d="M29.2,10c1.9,0,3.4,1.5,3.4,3.4c0,1.9-1.6,3.4-3.4,3.4c-1.9,0-3.4-1.6-3.3-3.4C25.8,11.5,27.3,10,29.2,10z
		 M30.3,13.4c0-0.6-0.5-1.1-1.1-1.1c-0.6,0-1.2,0.5-1.2,1.1c0,0.6,0.5,1.1,1.1,1.1C29.8,14.5,30.3,14,30.3,13.4z"/>
</g>
</svg>
