<?xml version="1.0" encoding="utf-8"?>
<!-- Generator: Adobe Illustrator 23.0.5, SVG Export Plug-In . SVG Version: 6.00 Build 0)  -->
<svg version="1.1" id="Layer_1" xmlns="http://www.w3.org/2000/svg" xmlns:xlink="http://www.w3.org/1999/xlink" x="0px" y="0px"
	 viewBox="0 0 76 68" style="enable-background:new 0 0 76 68;" xml:space="preserve">
<style type="text/css">
	.st0{fill:#FFF9E7;}
	.st1{fill:#23143B;}
	.st2{fill:#FDAE35;}
</style>
<circle class="st0" cx="56.5" cy="46.1" r="17.5"/>
<path class="st1" d="M2.3,26.7c0.1-0.4,0.2-0.7,0.4-1.1c0.8-1.6,2.1-2.3,3.8-2.3c6.2,0,12.3,0,18.5,0c0.6,0,0.8-0.2,1-0.7
	c0.7-1.9,2.1-3.1,4.1-3.5c0.3-0.1,0.5-0.2,0.6-0.5c1-4.1,5.4-6.2,9.2-4.5c0.3,0.1,0.4,0.2,0.7-0.1c2.3-2.3,5.1-3,8.1-1.9
	c3,1.1,4.7,3.3,5.1,6.5c0.1,0.4,0.2,0.6,0.6,0.7c1.6,0.6,2.6,1.8,3.1,3.4c0.1,0.3,0.1,0.5,0.5,0.5c2.4,0,3.7,1.7,4,3.3
	c0.3,1.8-0.6,3.4-2.6,4.4c0,1.3,0,2.6,0,3.9c0,2.1,0.1,4.2-0.1,6.3c-0.2,3.2-1.7,5.9-4,8.1c-0.3,0.3-0.4,0.5-0.2,0.9
	c0.7,2-0.3,4.1-2.2,5c-1.9,0.8-4.1,0.1-5.1-1.8c-0.2-0.5-0.5-0.5-1-0.5c-2.6,0-5.3,0-7.9,0c-6.9,0-13.7,0-20.6,0c-0.3,0-0.5,0-0.8,0
	c-0.4-0.1-0.6,0.1-0.8,0.4c-1,1.9-3.2,2.7-5.2,1.9c-2-0.8-2.9-3-2.2-5.1c0.1-0.4,0.1-0.5-0.2-0.8C6.4,46.8,5,43.7,5,39.9
	c0-2.8,0-5.6,0-8.4c0-0.2-0.1-0.5-0.2-0.5c-1.4-0.6-2.1-1.7-2.5-3C2.3,27.5,2.3,27.1,2.3,26.7z M56.9,31.3c-16.5,0-33,0-49.6,0
	c0,3.2,0,6.3,0,9.4c0,0.6,0.1,1.2,0.3,1.7c1.2,5,5.5,8.3,10.7,8.3c9.3,0,18.5,0,27.8,0c0.6,0,1.1,0,1.7-0.1c4.6-0.5,8.8-4.6,9.1-9.2
	C57.1,38,56.9,34.7,56.9,31.3z M32.1,28.9c8.6,0,17.1,0,25.7,0c1.1,0,1.8-0.7,1.8-1.6c0-0.9-0.7-1.6-1.8-1.6c-0.1,0-0.2,0-0.3,0
	c-17,0-33.9,0-50.9,0c-0.3,0-0.5,0-0.8,0c-0.7,0.1-1.3,0.7-1.3,1.5c0,0.8,0.5,1.5,1.2,1.6c0.3,0.1,0.6,0,0.9,0
	C15.2,28.9,23.6,28.9,32.1,28.9z M55.1,23.3c-0.5-1.2-1.4-1.8-2.5-2c-0.8-0.1-1.1-0.5-1.1-1.4c0-0.1,0-0.3,0-0.4
	c0-2.4-1.4-4.5-3.7-5.3c-2.3-0.8-4.7,0-6.1,2c-0.7,0.9-1.2,1-2.1,0.4c-0.9-0.6-1.9-0.9-3-0.8c-2.1,0.3-3.6,1.8-3.8,3.9
	c-0.1,1.3-0.4,1.5-1.7,1.5c-0.8,0-1.6,0.3-2.2,0.9c-0.3,0.3-0.5,0.7-0.8,1.1C37.2,23.3,46.1,23.3,55.1,23.3z M14.4,52.6
	c-0.6-0.2-1.1-0.4-1.6-0.6c-0.5-0.2-1-0.5-1.5-0.7c-0.1,0.9,0.3,1.6,1,1.9C13.2,53.5,13.9,53.3,14.4,52.6z M49.9,52.6
	c0.5,0.7,1.3,0.9,2,0.6c0.7-0.3,1.1-1.1,0.9-1.8C51.8,51.7,50.9,52.2,49.9,52.6z"/>
<path class="st1" d="M27.7,8.8c0-2.3,1.8-4.1,4.1-4.1c2.3,0,4.1,1.8,4.1,4.1c0,2.2-1.9,4.1-4.1,4.1C29.5,12.9,27.6,11,27.7,8.8z
	 M31.7,7.1c-1,0-1.7,0.8-1.7,1.8c0,1,0.8,1.8,1.8,1.7c0.9,0,1.7-0.8,1.7-1.8C33.5,7.8,32.7,7.1,31.7,7.1z"/>
<path class="st1" d="M24.6,17.8c-1.8,0-3.2-1.5-3.2-3.3c0-1.8,1.5-3.2,3.3-3.2c1.8,0,3.3,1.5,3.2,3.3C27.9,16.4,26.4,17.8,24.6,17.8
	z M25.6,14.6c0-0.5-0.4-0.9-0.9-0.9c-0.5,0-0.9,0.4-0.9,0.9c0,0.5,0.4,0.9,0.9,0.9C25.2,15.5,25.6,15.1,25.6,14.6z"/>
<path class="st2" d="M26.5,44.2c-1.5,3.3-4.1,4.6-6.7,3.2c-2.2-1.1-3.5-4.1-1.7-6.9c-0.9-1.3-1.2-2.8-0.6-4.4
	c0.5-1.2,1.3-2.1,2.5-2.7c2.1-1,5.5-0.2,6.5,3.3c3.8,0,7.5,0,11.4,0c0.5-1.7,1.5-2.9,3.2-3.5c1.2-0.4,2.5-0.3,3.6,0.3
	c2,1.1,3.4,4,1.6,6.9c0.8,1.2,1.1,2.5,0.7,4c-0.6,2-2.3,3.3-4.3,3.4c-2.1,0.1-3.9-1.2-4.6-3.1c-0.1-0.4-0.3-0.6-0.8-0.6
	c-3.4,0-6.8,0-10.3,0C26.8,44.2,26.6,44.2,26.5,44.2z M21.9,45.6c1.3,0,2.2-1,2.3-2.2c0.1-1.1,0.4-1.5,1.5-1.5c4.3,0,8.6,0,12.9,0
	c1.1,0,1.5,0.3,1.5,1.4c0.1,1.1,0.8,2,1.8,2.2c1,0.2,2-0.2,2.5-1.2c0.5-0.9,0.3-2-0.5-2.8c-0.8-0.8-0.8-1.3,0-2.1
	c0.8-0.8,1-1.9,0.5-2.8c-0.5-0.9-1.5-1.4-2.5-1.1c-1.1,0.2-1.8,1.1-1.8,2.2c-0.1,1.1-0.4,1.4-1.6,1.4c-4.2,0-8.4,0-12.7,0
	c-1.3,0-1.6-0.2-1.7-1.6c-0.1-1.1-0.8-1.9-1.9-2.1c-1-0.2-2,0.3-2.5,1.2c-0.5,0.9-0.3,2,0.5,2.7c0.9,0.9,0.9,1.3,0,2.2
	c-0.7,0.7-0.9,1.6-0.5,2.5C20.1,45.1,20.9,45.6,21.9,45.6z"/>
</svg>
