<?xml version="1.0" encoding="utf-8"?>
<!-- Generator: Adobe Illustrator 23.0.5, SVG Export Plug-In . SVG Version: 6.00 Build 0)  -->
<svg version="1.1" id="Layer_1" xmlns="http://www.w3.org/2000/svg" xmlns:xlink="http://www.w3.org/1999/xlink" x="0px" y="0px"
	 viewBox="0 0 29 25" style="enable-background:new 0 0 29 25;" xml:space="preserve">
<style type="text/css">
	.st0{fill:#FFFFFF;}
</style>
<g>
	<g>
		<path class="st0" d="M15.5,1.4c0.6,0.1,1.1,0.4,1.5,0.9c0.3,0.3,0.7,0.7,1,1c0.2,0.2,0.5,0.3,0.8,0.3c0.6-0.1,1.2-0.2,1.8-0.3
			c1.3-0.2,2.2,0.5,2.4,1.8c0.1,0.6,0.2,1.1,0.3,1.7c0.1,0.3,0.2,0.5,0.5,0.7c0.5,0.3,1.1,0.6,1.6,0.8c1.1,0.6,1.5,1.7,0.9,2.8
			c-0.3,0.5-0.5,1.1-0.8,1.6c-0.2,0.3-0.2,0.6,0,0.9c0.3,0.5,0.5,1,0.8,1.5c0.6,1.2,0.2,2.3-0.9,2.9c-0.5,0.3-1,0.5-1.5,0.8
			c-0.3,0.2-0.5,0.4-0.5,0.7c-0.1,0.6-0.2,1.2-0.3,1.8c-0.3,1.2-1.2,1.9-2.5,1.7c-0.6-0.1-1.2-0.2-1.8-0.3c-0.3,0-0.5,0-0.7,0.2
			c-0.4,0.4-0.9,0.9-1.3,1.3c-0.9,0.9-2.1,0.9-3,0c-0.4-0.4-0.9-0.8-1.3-1.2c-0.2-0.2-0.5-0.3-0.8-0.3C11,23,10.5,23,9.9,23.1
			c-1.3,0.2-2.2-0.6-2.4-1.9c-0.1-0.6-0.2-1.1-0.3-1.7c0-0.3-0.2-0.5-0.5-0.7c-0.5-0.3-1-0.5-1.6-0.8c-1.1-0.6-1.5-1.7-0.9-2.9
			c0.2-0.5,0.5-1,0.8-1.5c0.2-0.3,0.2-0.6,0-0.9c-0.3-0.5-0.5-1-0.8-1.6C3.6,10.1,4,8.9,5.1,8.3c0.5-0.3,1-0.6,1.6-0.8
			C7,7.3,7.1,7.1,7.2,6.8C7.3,6.2,7.4,5.6,7.5,5C7.7,3.8,8.7,3.1,10,3.3c0.6,0.1,1.2,0.2,1.7,0.3c0.3,0,0.5,0,0.7-0.2
			c0.4-0.4,0.7-0.7,1.1-1c0.4-0.4,0.9-0.8,1.5-0.9C15.2,1.4,15.3,1.4,15.5,1.4z M9.6,21.8c0.6-0.1,1.2-0.2,1.8-0.3
			c0.8-0.1,1.5,0.1,2,0.6c0.4,0.4,0.8,0.8,1.3,1.2c0.4,0.3,0.7,0.3,1.1,0c0.4-0.4,0.9-0.9,1.3-1.3c0.5-0.5,1.1-0.7,1.7-0.6
			c0.6,0.1,1.3,0.2,1.9,0.3c0.5,0.1,0.8-0.1,0.9-0.6c0.1-0.5,0.2-1,0.3-1.5c0.1-1,0.6-1.6,1.5-2c0.4-0.2,0.8-0.4,1.3-0.7
			c0.6-0.3,0.7-0.6,0.4-1.2c-0.2-0.5-0.5-1-0.7-1.5c-0.3-0.7-0.3-1.3,0-2c0.3-0.5,0.5-1.1,0.8-1.6c0.2-0.5,0.1-0.8-0.4-1.1
			c-0.5-0.3-1-0.6-1.6-0.8C22.5,8.3,22.1,7.8,22,7c-0.1-0.6-0.2-1.2-0.3-1.8c-0.1-0.4-0.4-0.7-0.9-0.6c-0.6,0.1-1.2,0.2-1.8,0.3
			c-0.8,0.1-1.4-0.1-2-0.6c-0.4-0.4-0.8-0.8-1.3-1.2c-0.4-0.4-0.7-0.4-1.1,0c-0.4,0.4-0.9,0.8-1.3,1.3c-0.5,0.5-1.1,0.7-1.8,0.6
			C11,4.8,10.3,4.7,9.7,4.6C9.2,4.6,8.9,4.8,8.8,5.3c-0.1,0.5-0.2,1-0.3,1.5c-0.1,1-0.6,1.6-1.5,2C6.6,9,6.2,9.3,5.8,9.5
			c-0.5,0.3-0.6,0.6-0.4,1.1c0.3,0.5,0.5,1,0.8,1.5c0.3,0.7,0.3,1.3,0,2c-0.3,0.5-0.5,1.1-0.8,1.6c-0.2,0.5-0.1,0.8,0.4,1.1
			c0.5,0.3,1.1,0.6,1.6,0.8c0.7,0.3,1,0.9,1.2,1.6c0.1,0.6,0.2,1.2,0.3,1.8C8.9,21.6,9.2,21.8,9.6,21.8z"/>
		<path class="st0" d="M10.7,18.4c-0.3,0-0.5-0.1-0.6-0.4c-0.1-0.2-0.1-0.5,0.1-0.7c0.1-0.1,0.1-0.1,0.2-0.2
			c2.9-2.9,5.8-5.8,8.7-8.7C19.3,8.2,19.5,8,19.7,8c0.3,0,0.5,0.1,0.6,0.4c0.1,0.2,0.1,0.5-0.1,0.7c-0.1,0.1-0.1,0.1-0.2,0.2
			c-2.9,2.9-5.8,5.8-8.7,8.7C11.2,18.2,11,18.4,10.7,18.4z"/>
		<path class="st0" d="M12.5,12.1c-1.4,0-2.5-1.1-2.5-2.5c0-1.4,1.1-2.5,2.5-2.5c1.4,0,2.5,1.1,2.5,2.5C15,11,13.9,12.1,12.5,12.1z
			 M12.5,8.4c-0.6,0-1.1,0.5-1.1,1.1c0,0.6,0.5,1.2,1.1,1.1c0.6,0,1.1-0.5,1.1-1.1C13.6,9,13.1,8.4,12.5,8.4z"/>
		<path class="st0" d="M18,14.3c1.4,0,2.5,1.1,2.5,2.5c0,1.4-1.1,2.5-2.5,2.5c-1.4,0-2.5-1.1-2.5-2.5C15.5,15.4,16.6,14.3,18,14.3z
			 M18,18c0.6,0,1.1-0.5,1.1-1.1c0-0.6-0.5-1.1-1.1-1.1c-0.6,0-1.1,0.5-1.1,1.1C16.8,17.5,17.3,18,18,18z"/>
	</g>
</g>
</svg>
