<?xml version="1.0" encoding="utf-8"?>
<!-- Generator: Adobe Illustrator 23.0.5, SVG Export Plug-In . SVG Version: 6.00 Build 0)  -->
<svg version="1.1" id="Layer_1" xmlns="http://www.w3.org/2000/svg" xmlns:xlink="http://www.w3.org/1999/xlink" x="0px" y="0px"
	 viewBox="0 0 384.14 368.24" style="enable-background:new 0 0 384.14 368.24;" xml:space="preserve">
<style type="text/css">
	.st0{fill:#E6353F;}
	.st1{fill:#FE4A4A;}
	.st2{fill:#696969;}
	.st3{fill:#190835;}
	.st4{fill:#FAE1D9;}
	.st5{fill:#E39542;}
	.st6{fill:#E18424;}
	.st7{fill:#DCD9EA;}
	.st8{fill:#464146;}
	.st9{fill:#190A35;}
	.st10{fill:#FDA92C;}
</style>
<g>
	<path class="st3" d="M0,179.72c3-13.29,12.21-21.93,22.33-29.93c4.99-3.94,9.83-8.08,14.77-12.09c2.4-1.95,3.12-4.34,2.35-7.3
		c-2.04-7.84-4.07-15.68-6.04-23.54c-2.02-8.04-3.46-16.15-1.66-24.44c2.85-13.06,13.32-22.05,28.69-24.13
		c7.03-0.95,14.18-1.07,21.28-1.54c2.49-0.16,4.99-0.38,7.48-0.32c7.37,0.17,11.15-3.92,13.43-10.45c2.8-8,5.66-16.01,9.13-23.73
		c4.61-10.26,11.5-18.45,23.12-21.25c8.59-2.07,16.71-0.25,24.21,3.89c6.32,3.49,12.27,7.67,18.39,11.52
		c15.38,9.69,13.62,9.62,29.08,0.01c7.71-4.79,15.27-10.12,23.56-13.66c14.57-6.22,28.86-1.86,37.31,11.51
		c4.87,7.7,7.82,16.63,11.56,25.03c1.57,3.53,3.04,7.1,4.37,10.73c1.47,4.04,4.35,5.74,8.49,5.94c8.48,0.42,16.96,0.78,25.41,1.52
		c4.45,0.39,8.95,1.12,13.22,2.39c15.6,4.66,24.43,17.92,22.25,34.09c-1.08,7.99-3.43,15.81-5.25,23.7
		c-0.78,3.4-1.49,6.83-2.55,10.15c-1.7,5.3,0.23,9.03,4.35,12.28c6.96,5.48,14.09,10.82,20.54,16.87
		c4.21,3.95,8.08,8.67,10.77,13.75c5.7,10.77,4.26,21.51-2.51,31.5c-5.78,8.54-14.11,14.38-22.02,20.69
		c-14.29,11.41-13.32,9.05-8.79,27.07c1.88,7.49,4.27,14.94,5.24,22.55c2.6,20.58-8.33,34.64-28.9,37.57
		c-7.02,1-14.18,1.08-21.28,1.56c-2.74,0.19-5.48,0.51-8.22,0.44c-6.84-0.2-10.25,3.66-12.38,9.61c-2.81,7.86-5.56,15.78-8.97,23.39
		c-10.34,23.12-29.11,29.23-51.13,16.65c-6.6-3.77-12.93-8.06-19.08-12.54c-7.19-5.24-13.89-5.38-21.07,0
		c-5.59,4.18-11.34,8.28-17.49,11.54c-5.66,3-11.76,5.83-17.98,6.96c-11.88,2.17-21.49-2.76-28.73-12.25
		c-6-7.87-9.04-17.16-12.33-26.33c-1.34-3.75-3.09-7.35-4.47-11.09c-1.39-3.76-4.11-5.37-7.94-5.58c-8.6-0.48-17.22-0.77-25.78-1.58
		c-4.81-0.45-9.69-1.31-14.27-2.79c-14.91-4.84-23.31-17.7-21.3-33.27c1.05-8.12,3.46-16.06,5.28-24.07
		c0.86-3.77,1.62-7.56,2.7-11.26c1.24-4.26,0.08-7.45-3.37-10.13c-5.32-4.13-10.5-8.45-15.78-12.64
		C10.66,209.31,2.81,200.82,0,188.72C0,185.72,0,182.72,0,179.72z M62.33,277.85c2.21,0.42,3.53,0.81,4.86,0.9
		c8.48,0.53,16.95,1.04,25.43,1.46c18.07,0.91,31.08,9.09,37.85,26.25c2.1,5.34,3.94,10.78,6.05,16.11
		c1.77,4.48,3.77,8.87,5.9,13.84c4.75-2.91,8.89-5.4,12.99-7.96c5.71-3.57,11.25-7.44,17.12-10.75c12.75-7.19,25.76-7.35,38.56-0.18
		c6.31,3.53,12.25,7.71,18.39,11.54c3.86,2.4,7.79,4.68,12.18,7.31c2.17-5.18,4.1-9.63,5.9-14.12c2.55-6.37,4.74-12.89,7.57-19.13
		c6.03-13.27,16.5-20.76,31-22.19c8.07-0.79,16.2-0.92,24.3-1.49c3.53-0.25,7.04-0.86,10.66-1.33c-0.24-1.64-0.29-2.64-0.53-3.6
		c-2.22-8.7-4.46-17.39-6.73-26.08c-4.64-17.76-0.17-32.57,14.32-44.11c4.2-3.35,8.52-6.55,12.65-9.98
		c3.79-3.15,7.39-6.53,11.54-10.23c-4.59-3.97-8.51-7.43-12.52-10.79c-5.08-4.25-10.44-8.17-15.3-12.64
		c-9.64-8.88-14.23-19.88-11.85-33.03c1.41-7.83,3.63-15.52,5.47-23.28c1.08-4.56,2.12-9.13,3.22-13.88
		c-1.91-0.36-3.12-0.71-4.34-0.79c-8.48-0.53-16.95-1.06-25.43-1.47c-18.4-0.88-31.53-9.24-38.27-26.75
		c-2.02-5.24-3.82-10.56-5.9-15.77c-1.77-4.46-3.79-8.83-5.89-13.69c-4.71,2.89-8.76,5.33-12.78,7.84
		c-5.93,3.7-11.67,7.74-17.77,11.11c-11.83,6.54-24.11,7.23-36.2,0.82c-6.71-3.55-12.99-7.91-19.47-11.89
		c-4.11-2.52-8.23-5.02-12.78-7.79c-1.72,3.73-3.31,6.82-4.6,10.03c-3.01,7.52-5.61,15.22-8.86,22.64
		c-5.97,13.63-16.58,21.31-31.4,22.75c-7.95,0.77-15.96,0.91-23.93,1.46c-3.56,0.25-7.09,0.81-10.83,1.26
		c0.22,1.66,0.26,2.78,0.53,3.84c2.22,8.7,4.49,17.39,6.73,26.08c4.55,17.61,0.14,32.33-14.2,43.81c-4.19,3.36-8.52,6.56-12.65,9.99
		c-3.8,3.16-7.43,6.53-11.47,10.11c2.94,2.81,5.23,5.27,7.8,7.4c6.43,5.36,13.18,10.33,19.42,15.9c9.08,8.1,13.88,18.3,12.6,30.66
		c-0.58,5.56-1.87,11.06-3.18,16.51C66.67,262.16,64.51,269.71,62.33,277.85z"/>
	<path class="st10" d="M171.61,202.02c23.27-23.28,45.8-45.81,68.31-68.36c4.47-4.48,9.6-6.63,15.94-5.08
		c11.64,2.85,16.16,16.69,8.43,25.84c-0.89,1.05-1.88,2.01-2.85,2.98c-25.36,25.37-50.72,50.73-76.08,76.09
		c-9.1,9.1-17.58,9.13-26.6,0.11c-12.55-12.55-25.12-25.07-37.64-37.66c-5.29-5.31-6.65-12.37-3.79-18.55
		c4.73-10.2,17.7-12.46,26.06-4.36c8.61,8.35,17.01,16.92,25.47,25.43C169.82,199.43,170.55,200.63,171.61,202.02z"/>
</g>
</svg>
