<?xml version="1.0" encoding="utf-8"?>
<!-- Generator: Adobe Illustrator 23.0.5, SVG Export Plug-In . SVG Version: 6.00 Build 0)  -->
<svg version="1.1" id="Layer_1" xmlns="http://www.w3.org/2000/svg" xmlns:xlink="http://www.w3.org/1999/xlink" x="0px" y="0px"
	 viewBox="0 0 312.07 311.99" style="enable-background:new 0 0 312.07 311.99;" xml:space="preserve">
<style type="text/css">
	.st0{fill:#E6353F;}
	.st1{fill:#FE4A4A;}
	.st2{fill:#696969;}
	.st3{fill:#190835;}
	.st4{fill:#FAE1D9;}
	.st5{fill:#E39542;}
	.st6{fill:#E18424;}
	.st7{fill:#DCD9EA;}
	.st8{fill:#464146;}
	.st9{fill:#190A35;}
	.st10{fill:#FDA92C;}
</style>
<g>
	<path class="st3" d="M228.82,59.99c-23.61,0-47.23,0.04-70.84-0.05c-2.6-0.01-3.84,0.59-4.75,3.29
		c-6.71,19.89-24.85,32.86-45.45,32.76c-20.37-0.1-38.35-13.15-45-32.9c-0.84-2.49-1.92-3.18-4.46-3.16
		c-15.24,0.13-30.48,0.12-45.73,0.04C3.18,59.92-2.72,50.96,1.26,42.84c2.32-4.73,6.3-6.86,11.54-6.85
		c15.12,0.02,30.24-0.05,45.35,0.07c2.65,0.02,3.82-0.69,4.71-3.34C69.47,13.04,87.57,0.03,107.97,0
		c20.47-0.03,38.5,12.87,45.19,32.58c0.94,2.77,2.19,3.49,5,3.48c46.48-0.09,92.95-0.07,139.43-0.06c1.62,0,3.28-0.06,4.85,0.26
		c6.02,1.23,10.16,6.93,9.54,12.95c-0.62,6.03-5.63,10.71-11.95,10.75c-16.62,0.09-33.23,0.04-49.85,0.04
		C243.06,60,235.94,59.99,228.82,59.99z M132.03,48.16C132.1,34.9,121.35,24.04,108.12,24c-13.09-0.03-23.91,10.59-24.06,23.63
		C83.9,60.9,94.58,71.87,107.77,71.98C121.02,72.1,131.96,61.36,132.03,48.16z"/>
	<path class="st10" d="M83.43,144c23.61,0,47.23-0.04,70.84,0.05c2.47,0.01,3.64-0.54,4.5-3.1c6.68-19.91,24.78-32.97,45.33-32.95
		c20.57,0.02,38.48,13.01,45.27,33.04c0.79,2.34,1.79,3.03,4.18,3.01c14.99-0.11,29.98-0.06,44.98-0.05
		c8,0.01,13.45,4.83,13.52,11.88c0.06,7.21-5.43,12.1-13.66,12.11c-14.74,0.01-29.49,0.09-44.23-0.07
		c-2.85-0.03-4.05,0.77-4.98,3.51c-6.69,19.68-24.76,32.59-45.22,32.56c-20.39-0.04-38.48-13.06-45.08-32.75
		c-0.9-2.7-2.14-3.3-4.74-3.29c-46.48,0.07-92.95,0.06-139.43,0.04c-1.74,0-3.53,0.06-5.22-0.31c-6.05-1.33-10.06-7.05-9.35-13.07
		c0.72-6.17,5.8-10.57,12.48-10.58C36.2,143.97,59.82,144,83.43,144z M204.05,132c-13.23,0-24.03,10.83-23.99,24.07
		c0.03,13.07,10.74,23.82,23.79,23.91c13.24,0.09,24.14-10.69,24.18-23.89C228.07,142.83,217.29,132.01,204.05,132z"/>
	<path class="st3" d="M228.58,275.99c-23.61,0-47.23,0.05-70.84-0.06c-2.56-0.01-3.61,0.72-4.45,3.18
		c-6.75,19.94-24.8,32.93-45.38,32.88c-20.51-0.05-38.5-13.12-45.21-33.12c-0.82-2.44-1.94-2.93-4.24-2.92
		c-14.99,0.09-29.98,0.06-44.98,0.04c-7.96-0.01-13.41-4.9-13.43-11.97c-0.02-7.1,5.4-12.01,13.35-12.02
		c14.99-0.02,29.99-0.08,44.98,0.06c2.61,0.03,3.59-0.81,4.41-3.23c6.64-19.71,24.65-32.76,45.04-32.83
		c20.6-0.08,38.7,12.88,45.41,32.8c0.92,2.74,2.23,3.24,4.78,3.24c46.98-0.06,93.95-0.06,140.93-0.04c9.4,0,15.45,8.13,12.25,16.34
		c-1.88,4.83-6.27,7.64-12.17,7.64C275.56,276.01,252.07,275.99,228.58,275.99z M132.03,264.05c0.02-13.25-10.77-24.06-24.02-24.05
		c-13.08,0.01-23.85,10.69-23.95,23.74c-0.11,13.26,10.63,24.17,23.83,24.24C121.13,288.05,132,277.27,132.03,264.05z"/>
</g>
</svg>
