<?xml version="1.0" encoding="utf-8"?>
<!-- Generator: Adobe Illustrator 23.0.5, SVG Export Plug-In . SVG Version: 6.00 Build 0)  -->
<svg version="1.1" id="Layer_1" xmlns="http://www.w3.org/2000/svg" xmlns:xlink="http://www.w3.org/1999/xlink" x="0px" y="0px"
	 viewBox="0 0 221.01 377.01" style="enable-background:new 0 0 221.01 377.01;" xml:space="preserve">
<style type="text/css">
	.st0{fill:#E6353F;}
	.st1{fill:#FE4A4A;}
	.st2{fill:#696969;}
	.st3{fill:#190835;}
	.st4{fill:#FAE1D9;}
	.st5{fill:#E39542;}
	.st6{fill:#E18424;}
	.st7{fill:#DCD9EA;}
	.st8{fill:#464146;}
	.st9{fill:#190A35;}
	.st10{fill:#FDA92C;}
	.st11{fill:#190835;stroke:#190835;stroke-width:5;stroke-miterlimit:10;}
	.st12{fill:#FDA92C;stroke:#FDA92C;stroke-width:4;stroke-miterlimit:10;}
	.st13{fill:#FDA92C;stroke:#FDA92C;stroke-miterlimit:10;}
	.st14{fill:#190835;stroke:#190835;stroke-width:2;stroke-miterlimit:10;}
	.st15{fill:#190835;stroke:#190835;stroke-width:3;stroke-miterlimit:10;}
</style>
<g>
	<path class="st11" d="M2.5,188.59c0-45.37-0.01-90.74,0-136.11C2.51,23.25,23.29,2.51,52.57,2.51c38.62-0.01,77.24-0.01,115.86,0
		c29.35,0.01,50.06,20.68,50.07,49.98c0.01,90.74,0.01,181.48,0,272.21c0,28.98-20.86,49.79-49.88,49.8
		c-38.74,0.01-77.49,0.01-116.23,0c-29.07-0.01-49.87-20.78-49.88-49.8C2.49,279.33,2.5,233.96,2.5,188.59z M14.77,62.66
		c0,76.1,0,151.88,0,227.53c64.05,0,127.83,0,191.52,0c0-76,0-151.68,0-227.53C142.4,62.66,78.71,62.66,14.77,62.66z M14.63,302.58
		c0,9.3-0.57,18.32,0.12,27.23c1.39,17.97,16.44,32.43,34.27,32.56c40.99,0.29,81.99,0.27,122.98,0
		c16.77-0.11,31.42-13.03,33.7-29.63c1.13-8.23,0.59-16.69,0.79-25.05c0.04-1.68,0.01-3.37,0.01-5.11
		C142.3,302.58,78.7,302.58,14.63,302.58z M206.28,50.31c0-1.42,0.14-2.66-0.02-3.86c-2.56-18.74-17.29-31.87-36.14-31.91
		c-39.75-0.09-79.5-0.07-119.24,0.04c-3.57,0.01-7.25,0.57-10.7,1.53c-15,4.17-26.56,19.82-25.36,34.2
		C78.61,50.31,142.41,50.31,206.28,50.31z"/>
	<path class="st12" d="M102.42,104.5c35.77,0.02,57.15,21.71,56,48.58c-0.42,9.76-3.84,18.5-9.83,26.21
		c-10.79,13.91-21.6,27.8-32.44,41.67c-3.72,4.77-7.6,4.77-11.3,0.03c-10.52-13.48-21.02-26.99-31.51-40.5
		c-11.95-15.4-14.7-32.24-5.96-49.78C76.13,113.2,91.06,104.68,102.42,104.5z M110.52,208.7c9.41-12.09,18.38-23.62,27.35-35.16
		c1-1.28,1.98-2.58,2.89-3.92c3.57-5.31,5.53-11.19,5.7-17.57c0.55-19.92-15.49-35.61-36.29-35.54
		c-14.79,0.05-25.78,6.78-32.23,19.89c-6.34,12.9-4.1,25.23,4.67,36.46c5.54,7.09,11.05,14.2,16.58,21.3
		C102.86,198.87,106.52,203.57,110.52,208.7z"/>
	<path class="st13" d="M110.15,248.5c-7.5,0-15,0.03-22.5-0.01c-4.43-0.03-7.1-2.32-7.12-5.96c-0.02-3.66,2.65-6,7.07-6.01
		c15.25-0.03,30.5-0.03,45.74,0c4.42,0.01,7.11,2.32,7.13,5.95c0.02,3.63-2.68,5.99-7.07,6.02
		C125.65,248.54,117.9,248.5,110.15,248.5z"/>
	<path class="st14" d="M128.49,332.4c-0.01,10-8.13,18.12-18.08,18.07c-9.78-0.05-17.84-8.11-17.88-17.89
		c-0.04-9.95,8.09-18.07,18.09-18.06C120.37,314.52,128.49,322.65,128.49,332.4z M110.64,326.52c-3.2-0.08-5.98,2.53-6.11,5.75
		c-0.13,3.21,2.44,6.03,5.65,6.21c3.35,0.18,6.27-2.57,6.3-5.93C116.51,329.33,113.86,326.6,110.64,326.52z"/>
	<path class="st15" d="M110.5,26.51c5.62,0,11.25-0.03,16.87,0.01c4.41,0.04,7.1,2.35,7.1,5.99c0,3.63-2.7,5.97-7.1,5.99
		c-11.25,0.04-22.5,0.04-33.74,0c-4.42-0.02-7.09-2.35-7.09-5.99c0-3.66,2.66-5.94,7.1-5.98C99.25,26.47,104.88,26.51,110.5,26.51z"
		/>
	<path class="st13" d="M134.49,152.65c-0.04,13.21-10.97,23.97-24.23,23.85c-13.09-0.11-23.74-10.85-23.75-23.95
		c-0.02-13.27,10.79-24.07,24.04-24.04C123.81,128.55,134.53,139.35,134.49,152.65z M110.45,164.49
		c6.49,0.05,11.98-5.34,12.04-11.83c0.06-6.56-5.19-11.99-11.74-12.12c-6.68-0.14-12.24,5.32-12.22,12.01
		C98.54,159.08,103.89,164.44,110.45,164.49z"/>
</g>
</svg>
