<?xml version="1.0" encoding="utf-8"?>
<!-- Generator: Adobe Illustrator 23.0.5, SVG Export Plug-In . SVG Version: 6.00 Build 0)  -->
<svg version="1.1" id="Layer_1" xmlns="http://www.w3.org/2000/svg" xmlns:xlink="http://www.w3.org/1999/xlink" x="0px" y="0px"
	 viewBox="0 0 383.95 384.13" style="enable-background:new 0 0 383.95 384.13;" xml:space="preserve">
<style type="text/css">
	.st0{fill:#E6353F;}
	.st1{fill:#FE4A4A;}
	.st2{fill:#696969;}
	.st3{fill:#190835;}
	.st4{fill:#FAE1D9;}
	.st5{fill:#E39542;}
	.st6{fill:#E18424;}
	.st7{fill:#DCD9EA;}
	.st8{fill:#464146;}
	.st9{fill:#190A35;}
	.st10{fill:#FDA92C;}
</style>
<g>
	<path class="st3" d="M301.45,384.13c-5.43-1.3-11.03-2.14-16.28-3.97c-21.3-7.42-36.51-21.55-45.44-42.33
		c-0.34-0.79-0.73-1.57-1.21-2.58c-52.08,19.04-102.73,16.54-151.27-10.87c-32.17-18.17-56.21-44.39-71.42-78.06
		C-15.87,176.07,1.06,95,57.36,44.8c57.38-51.16,139.67-59.42,205.32-20.06c36.51,21.89,61.92,53.23,75.5,93.67
		c13.51,40.24,11.95,80.3-3.27,120.16c1.26,0.58,2.36,1.08,3.45,1.59c25.52,11.81,40.62,31.52,44.94,59.38
		c0.11,0.71,0.43,1.39,0.66,2.09c0,5,0,10,0,15c-0.23,0.7-0.55,1.38-0.66,2.09c-4.55,28.98-20.38,49.2-47.5,60.25
		c-6.13,2.5-12.88,3.48-19.34,5.16C311.45,384.13,306.45,384.13,301.45,384.13z M324.77,171.48c-0.11-25.15-7.16-50.81-21.08-74.64
		C264.39,29.57,177.71,3.36,107.85,37.7C35.67,73.18,3.84,156.23,33.74,231.06c30.67,76.75,121.54,114.69,197.57,82.54
		c2.07-0.87,2.68-1.92,2.7-4.12c0.35-42.19,33.2-75.1,75.16-75.28c2.41-0.01,3.45-0.78,4.33-2.95
		C320.99,212.86,324.71,193.76,324.77,171.48z M361.45,308.99c-0.05-28.86-23.65-52.38-52.53-52.36
		c-28.87,0.01-52.44,23.57-52.46,52.43c-0.02,29.04,23.65,52.64,52.72,52.56C338,361.54,361.5,337.89,361.45,308.99z"/>
	<path class="st3" d="M173.67,186.26c24.85,0,49.71-0.01,74.56,0c10.01,0,14.65,5.55,12.9,15.37c-8,44.95-47.49,76.22-93,73.64
		c-41.56-2.36-76.82-34.83-82.5-75.95c-0.98-7.14,4.29-13,11.97-13.04c16.49-0.07,32.97-0.02,49.46-0.02
		C155.93,186.26,164.8,186.26,173.67,186.26z M235.62,208.95c-41.42,0-82.59,0-123.79,0c2.17,20.04,32,42.61,57.77,43.86
		C199.3,254.27,230.3,233.8,235.62,208.95z"/>
	<path class="st3" d="M110.04,151.65c-11.62-0.17-21.69-4.17-30.12-12.18c-4.59-4.36-4.97-11.32-0.95-15.85
		c4.02-4.54,11.28-5.36,15.77-0.87c8.15,8.13,21.63,8.5,30.3-0.02c4.53-4.45,11.81-3.63,15.76,0.92c4,4.6,3.62,11.4-1.02,15.85
		C131.49,147.46,121.5,151.38,110.04,151.65z"/>
	<path class="st3" d="M232.14,151.65c-10.93-0.27-20.62-3.92-28.82-11.38c-5.32-4.83-6.13-11.76-1.89-16.6
		c4.26-4.88,11.31-5.09,16.68-0.31c5.76,5.12,12.35,7.14,19.72,4.89c3.11-0.95,6.09-2.85,8.68-4.89c5.71-4.5,12.51-4.58,16.75,0.23
		c4.3,4.88,3.61,11.74-1.73,16.63C253.24,147.8,243.42,151.46,232.14,151.65z"/>
	<path class="st10" d="M301.82,307.16c6.15-6.18,11.49-11.59,16.88-16.95c5.4-5.36,12.21-5.75,16.93-1.02
		c4.72,4.72,4.36,11.52-1.02,16.94c-7.82,7.89-15.67,15.76-23.57,23.57c-5.73,5.66-12.01,5.6-17.75-0.06
		c-4.27-4.21-8.52-8.43-12.71-12.72c-4.93-5.05-5.17-11.79-0.67-16.4c4.58-4.7,11.48-4.5,16.65,0.6
		C298.34,302.86,299.85,304.87,301.82,307.16z"/>
</g>
</svg>
