<?xml version="1.0" encoding="utf-8"?>
<!-- Generator: Adobe Illustrator 23.0.5, SVG Export Plug-In . SVG Version: 6.00 Build 0)  -->
<svg version="1.1" id="Layer_1" xmlns="http://www.w3.org/2000/svg" xmlns:xlink="http://www.w3.org/1999/xlink" x="0px" y="0px"
	 viewBox="0 0 37 37" style="enable-background:new 0 0 37 37;" xml:space="preserve">
<style type="text/css">
	.st0{fill:#23153C;}
	.st1{fill:#F4A62D;}
</style>
<path class="st0" d="M1.4,19.6c0.1-0.6,0.1-1.2,0.2-1.8c0.5-3.1,1.8-5.7,3.9-8c1.6-1.7,3.4-3,5.6-3.9c0.7-0.3,1.4-0.1,1.7,0.6
	c0.2,0.4,0.2,0.8,0,1.2c-0.4,1-0.7,2.1-0.8,3.1c-0.5,4.6,0.9,8.6,4.3,11.7c1.9,1.8,4.2,2.8,6.8,3.2c2.4,0.4,4.8,0.1,7-0.8
	c0.6-0.2,1.1-0.2,1.5,0.3c0.2,0.2,0.2,0.4,0.3,0.6c0,0.2,0,0.4,0,0.5c0,0,0,0,0,0c-0.9,2.3-2.2,4.2-4.1,5.9c-2.3,2.1-5,3.4-8,3.9
	c-0.6,0.1-1.2,0.2-1.8,0.2c-0.6,0-1.2,0-1.8,0c-0.1,0-0.2,0-0.3-0.1c-0.6-0.1-1.2-0.1-1.7-0.2c-3.5-0.7-6.5-2.3-8.9-4.9
	c-2.1-2.3-3.4-4.9-3.9-8c-0.1-0.6-0.2-1.2-0.2-1.8C1.4,20.8,1.4,20.2,1.4,19.6z M9.6,9.7c-3.4,2.2-6.5,7.1-5.4,13.2
	c1,5.9,6,10.4,12.1,10.9c2.3,0.2,4.6-0.2,6.7-1.2c2.1-1,3.9-2.4,5.2-4.4C22.7,29,17.9,27.7,14,23.8C10.2,19.9,8.8,15.1,9.6,9.7z"/>
<path class="st1" d="M17,4.1c0.5,0,0.9,0,1.4,0c0.2,0,0.3-0.1,0.4-0.3c0.3-0.9,0.6-1.7,0.8-2.6c0.2-0.5,0.4-0.7,0.8-0.7
	c0.4,0,0.6,0.2,0.8,0.7c0.3,0.9,0.6,1.7,0.8,2.6c0.1,0.3,0.2,0.3,0.5,0.3c0.9,0,1.8,0,2.7,0c0.5,0,0.8,0.2,0.9,0.5
	c0.1,0.4,0,0.7-0.4,1c-0.7,0.5-1.4,1.1-2.2,1.6c-0.2,0.2-0.3,0.3-0.2,0.5c0.3,0.9,0.6,1.7,0.8,2.6c0.2,0.5,0.1,0.8-0.2,1
	c-0.3,0.2-0.7,0.2-1.1-0.1c-0.7-0.5-1.4-1-2.1-1.6c-0.3-0.2-0.4-0.2-0.7,0c-0.7,0.5-1.4,1-2.1,1.6c-0.4,0.3-0.7,0.3-1,0.1
	c-0.3-0.2-0.4-0.5-0.2-1c0.3-0.9,0.5-1.7,0.8-2.6c0.1-0.2,0-0.4-0.2-0.5c-0.8-0.5-1.5-1.1-2.2-1.6c-0.3-0.2-0.5-0.5-0.4-0.9
	c0.1-0.4,0.4-0.6,0.9-0.6C16.1,4.1,16.6,4.1,17,4.1z M18.9,8.6c0.1,0,0.1,0,0.1,0c0.3-0.2,0.6-0.4,0.9-0.6c0.4-0.3,0.7-0.3,1.1,0
	c0.3,0.2,0.6,0.4,1,0.7c-0.1-0.4-0.2-0.7-0.3-1c-0.2-0.8-0.2-0.9,0.4-1.4c0.3-0.2,0.5-0.4,0.8-0.6c-0.4-0.1-0.7-0.1-1.1-0.1
	c-0.6,0-0.8-0.1-1-0.7c-0.1-0.3-0.2-0.7-0.4-1C20.4,4,20.4,4,20.4,4c-0.1,0.3-0.2,0.6-0.3,0.9c-0.2,0.6-0.4,0.7-1,0.7
	c-0.4,0-0.7,0-1.1,0c0.3,0.3,0.6,0.5,0.9,0.7c0.4,0.3,0.5,0.6,0.3,1.1C19.1,7.8,19,8.2,18.9,8.6z"/>
<path class="st1" d="M29,17.8c-0.6,0.5-1.2,0.9-1.9,1.4c-0.4,0.3-0.8,0.3-1.1,0.1c-0.3-0.2-0.4-0.5-0.2-1c0.2-0.6,0.4-1.3,0.6-1.9
	c0.1-0.2,0-0.3-0.1-0.4c-0.6-0.4-1.1-0.8-1.6-1.2c-0.4-0.3-0.5-0.6-0.4-1c0.1-0.4,0.4-0.6,0.9-0.6c0.7,0,1.3,0,2,0
	c0.3,0,0.4-0.1,0.4-0.3c0.2-0.6,0.4-1.3,0.6-1.9c0.1-0.4,0.4-0.6,0.8-0.7c0.4,0,0.6,0.2,0.8,0.6c0.2,0.6,0.4,1.3,0.6,1.9
	c0.1,0.3,0.2,0.3,0.5,0.3c0.6,0,1.3,0,1.9,0c0.5,0,0.8,0.2,0.9,0.6c0.1,0.4,0,0.7-0.4,1c-0.5,0.4-1,0.8-1.5,1.1
	c-0.2,0.2-0.3,0.3-0.2,0.6c0.2,0.6,0.4,1.2,0.6,1.9c0.1,0.4,0.1,0.8-0.3,1c-0.4,0.2-0.7,0.2-1-0.1C30.3,18.7,29.7,18.3,29,17.8z
	 M27.5,14.8c0.8,0.4,0.9,1,0.6,1.8c0.6-0.6,1.2-0.6,1.9,0c-0.2-1-0.2-1,0.6-1.9c-0.9,0.2-1.4-0.2-1.5-1
	C28.8,14.5,28.4,14.9,27.5,14.8z"/>
<path class="st1" d="M20.4,22.2c-1.7,0-3.1-1.4-3.1-3.1c0-1.7,1.4-3.1,3.1-3.1c1.7,0,3.1,1.4,3.1,3.1C23.6,20.9,22.2,22.3,20.4,22.2
	z M22,19.1c0-0.9-0.7-1.6-1.5-1.6c-0.9,0-1.6,0.7-1.6,1.5c0,0.9,0.7,1.6,1.5,1.6C21.3,20.7,22,20,22,19.1z"/>
<path class="st1" d="M33.7,3.6c0,1.3-1,2.3-2.3,2.3c-1.3,0-2.3-1.1-2.3-2.4c0-1.3,1.1-2.3,2.3-2.3C32.6,1.3,33.7,2.3,33.7,3.6z
	 M32.1,3.6c0-0.4-0.3-0.8-0.7-0.8c-0.4,0-0.8,0.3-0.8,0.8c0,0.4,0.3,0.8,0.7,0.8C31.7,4.4,32.1,4,32.1,3.6z"/>
<path class="st1" d="M28.2,1.3c0,0.4-0.4,0.8-0.8,0.8c-0.4,0-0.8-0.4-0.8-0.8c0-0.4,0.4-0.8,0.8-0.8C27.9,0.5,28.2,0.9,28.2,1.3z"/>
<path class="st1" d="M36,9.1c0,0.4-0.4,0.8-0.8,0.7c-0.4,0-0.7-0.4-0.7-0.8c0-0.4,0.4-0.8,0.8-0.7C35.7,8.3,36,8.7,36,9.1z"/>
</svg>
