<?xml version="1.0" encoding="utf-8"?>
<!-- Generator: Adobe Illustrator 23.0.5, SVG Export Plug-In . SVG Version: 6.00 Build 0)  -->
<svg version="1.1" id="Layer_1" xmlns="http://www.w3.org/2000/svg" xmlns:xlink="http://www.w3.org/1999/xlink" x="0px" y="0px"
	 viewBox="0 0 40 40" style="enable-background:new 0 0 40 40;" xml:space="preserve">
<style type="text/css">
	.st0{fill:#FCAA2A;}
	.st1{fill:#23153C;}
</style>
<path class="st0" d="M20.7,1.9c0.9,0.3,1.2,0.9,1.2,1.8c0,0.9,0,1.8,0,2.6c0,0.7-0.5,1.2-1.2,1.3c-0.7,0.1-1.3-0.2-1.6-0.8
	C19,6.7,19,6.4,19,6.1c0-0.8,0-1.6,0-2.4c0-0.9,0.3-1.5,1.2-1.8C20.3,1.9,20.5,1.9,20.7,1.9z"/>
<path class="st0" d="M2.9,19.2C3.2,18.3,3.8,18,4.7,18c0.9,0,1.8,0,2.6,0c0.7,0,1.2,0.5,1.3,1.2c0.1,0.7-0.2,1.3-0.8,1.6
	c-0.2,0.1-0.5,0.1-0.8,0.1c-0.8,0-1.6,0-2.4,0c-0.9,0-1.5-0.3-1.8-1.2C2.9,19.6,2.9,19.4,2.9,19.2z"/>
<path class="st1" d="M20.4,29c-5.2,0-9.5-4.3-9.5-9.5c0-5.2,4.3-9.5,9.5-9.5c5.2,0,9.5,4.3,9.5,9.5C29.9,24.7,25.6,29,20.4,29z
	 M20.4,12.9c-3.6,0-6.6,3-6.6,6.6c0,3.6,3,6.6,6.6,6.6c3.6,0,6.6-3,6.6-6.6C27,15.8,24,12.9,20.4,12.9z"/>
<path class="st0" d="M9.1,6.6c0.4,0,0.8,0.2,1,0.4c0.7,0.7,1.4,1.3,2,2c0.6,0.6,0.6,1.5,0,2.1c-0.6,0.6-1.5,0.6-2.1,0
	C9.4,10.5,8.7,9.8,8,9.1c-0.4-0.4-0.5-1-0.2-1.6C8,6.9,8.5,6.7,9.1,6.6z"/>
<path class="st0" d="M33.3,8.1c0,0.4-0.2,0.8-0.4,1c-0.7,0.7-1.3,1.4-2,2c-0.6,0.6-1.5,0.6-2.1,0c-0.6-0.6-0.6-1.5,0-2.1
	c0.7-0.7,1.4-1.4,2.1-2.1c0.4-0.4,1-0.5,1.6-0.2C33,7,33.2,7.5,33.3,8.1z"/>
<path class="st0" d="M9.2,32.3c-0.8,0-1.2-0.3-1.5-0.8c-0.3-0.5-0.2-1.1,0.2-1.5c0.7-0.8,1.5-1.6,2.3-2.3c0.5-0.5,1.4-0.4,1.9,0.1
	c0.5,0.5,0.6,1.4,0.1,1.9c-0.7,0.8-1.5,1.6-2.3,2.3C9.7,32.2,9.4,32.2,9.2,32.3z"/>
<path class="st0" d="M33.3,30.6c0,0.8-0.3,1.2-0.8,1.5c-0.5,0.3-1.1,0.2-1.5-0.2c-0.8-0.7-1.6-1.5-2.3-2.3c-0.5-0.5-0.4-1.4,0.1-1.9
	c0.5-0.5,1.4-0.6,1.9-0.1c0.8,0.7,1.6,1.5,2.3,2.3C33.1,30.2,33.2,30.5,33.3,30.6z"/>
<path class="st0" d="M35,20.9c-0.5,0-1,0-1.5,0c-0.8,0-1.4-0.7-1.4-1.4c0-0.8,0.6-1.4,1.4-1.5c1,0,2.1,0,3.1,0
	c0.8,0,1.4,0.7,1.4,1.5c0,0.8-0.6,1.4-1.4,1.4C36.1,20.9,35.5,20.9,35,20.9z"/>
<path class="st0" d="M21.9,34.1c0,0.5,0,1,0,1.5c0,0.8-0.6,1.4-1.4,1.4c-0.8,0-1.4-0.6-1.5-1.4c0-1,0-2,0-2.9c0-0.8,0.6-1.4,1.5-1.4
	c0.8,0,1.4,0.6,1.4,1.5C21.9,33.1,21.9,33.6,21.9,34.1C21.9,34.1,21.9,34.1,21.9,34.1z"/>
</svg>
