<?xml version="1.0" encoding="utf-8"?>
<!-- Generator: Adobe Illustrator 23.0.5, SVG Export Plug-In . SVG Version: 6.00 Build 0)  -->
<svg version="1.1" id="Layer_1" xmlns="http://www.w3.org/2000/svg" xmlns:xlink="http://www.w3.org/1999/xlink" x="0px" y="0px"
	 viewBox="0 0 44 43" style="enable-background:new 0 0 44 43;" xml:space="preserve">
<style type="text/css">
	.st0{fill:#23153C;}
	.st1{fill:#FCAA2A;}
</style>
<path class="st0" d="M42.9,32.7c-0.3,1-1,1.3-2,1.3c-12.5,0-25,0-37.6,0c-0.2,0-0.4,0-0.6,0c-0.8-0.2-1.4-0.9-1.3-1.7
	c0.1-0.8,0.8-1.5,1.6-1.5c1.8,0,3.6,0,5.4,0c1.8,0,3.5,0,5.3,0c0.1,0,0.3,0,0.5,0c-2.6-2.8-3.7-6-3.1-9.7c0.4-2.9,1.8-5.2,4.1-7
	c4.5-3.6,10.9-3.2,15,0.8c4.2,4.2,4.5,11.2,0,15.9c0.2,0,0.3,0,0.5,0c3.4,0,6.9,0,10.3,0c1,0,1.7,0.3,2,1.3
	C42.9,32.3,42.9,32.5,42.9,32.7z M14.1,22.9c0,4.4,3.6,7.9,7.9,7.9c4.5,0,8.1-3.5,8.1-7.9c0-4.4-3.6-8-8-8
	C17.7,14.9,14.1,18.5,14.1,22.9z"/>
<path class="st1" d="M42.9,23.2c-0.3,1-1,1.4-2,1.3c-0.9,0-1.8,0-2.7,0c-1,0-1.7-0.7-1.7-1.6c0-0.9,0.7-1.6,1.7-1.6
	c0.9,0,1.8,0,2.7,0c1,0,1.7,0.3,2,1.3C42.9,22.7,42.9,23,42.9,23.2z"/>
<path class="st1" d="M22,42c-4.2,0-8.4,0-12.6,0c-1,0-1.7-0.7-1.7-1.7c0-0.8,0.7-1.5,1.5-1.6c0.1,0,0.3,0,0.4,0c8.3,0,16.7,0,25,0
	c0.2,0,0.5,0,0.7,0.1c0.8,0.2,1.2,0.9,1.2,1.8c-0.1,0.7-0.7,1.3-1.5,1.4c-0.1,0-0.3,0-0.4,0C30.4,42,26.2,42,22,42z"/>
<path class="st1" d="M8.7,7.7C9,7.8,9.4,7.9,9.7,8.2c0.8,0.7,1.5,1.5,2.2,2.2c0.7,0.7,0.7,1.7,0,2.3c-0.6,0.6-1.6,0.6-2.3,0
	c-0.8-0.7-1.5-1.5-2.2-2.2C6.9,9.9,6.8,9.3,7.1,8.6C7.4,8,7.9,7.7,8.7,7.7z"/>
<path class="st1" d="M37.3,9.5c-0.1,0.2-0.3,0.6-0.5,0.9c-0.7,0.8-1.5,1.5-2.2,2.2c-0.7,0.7-1.7,0.6-2.3,0c-0.6-0.6-0.7-1.6,0-2.3
	c0.7-0.8,1.5-1.5,2.3-2.3c0.5-0.5,1.1-0.6,1.8-0.3C36.9,8.1,37.2,8.6,37.3,9.5z"/>
<path class="st1" d="M23.7,5.3c0,0.5,0,1.1,0,1.6c0,0.9-0.7,1.6-1.6,1.6c-0.9,0-1.6-0.7-1.6-1.6c0-1,0-2.1,0-3.1
	c0-1,0.7-1.7,1.6-1.7c0.9,0,1.6,0.7,1.6,1.7C23.7,4.3,23.7,4.8,23.7,5.3z"/>
<path class="st1" d="M4.5,21.2c0.5,0,1.1,0,1.6,0c0.9,0,1.6,0.7,1.6,1.6c0,0.9-0.7,1.6-1.6,1.6c-1.1,0-2.1,0-3.2,0
	c-0.9,0-1.6-0.7-1.6-1.6c0-0.9,0.7-1.6,1.7-1.6C3.5,21.2,4,21.2,4.5,21.2z"/>
</svg>
