<?xml version="1.0" encoding="utf-8"?>
<!-- Generator: Adobe Illustrator 23.0.5, SVG Export Plug-In . SVG Version: 6.00 Build 0)  -->
<svg version="1.1" id="Layer_1" xmlns="http://www.w3.org/2000/svg" xmlns:xlink="http://www.w3.org/1999/xlink" x="0px" y="0px"
	 viewBox="0 0 294.45 384" style="enable-background:new 0 0 294.45 384;" xml:space="preserve">
<style type="text/css">
	.st0{fill:#F7B634;}
</style>
<path class="st0" d="M154.22,384c-4.5,0-9,0-13.5,0c-0.66-1.04-1.25-2.13-1.99-3.12c-36.76-49.22-73.98-98.11-110.16-147.76
	C1.04,195.35-6.87,152.82,6.04,107.94C21.71,53.42,58.25,18.95,113.07,4.23c8.02-2.15,16.42-2.85,24.65-4.23c6.5,0,13,0,19.5,0
	c7.86,1.27,15.81,2.17,23.58,3.87c63.19,13.88,111.52,72.19,113.57,136.82c1.11,35.08-8.62,66.78-29.63,94.94
	c-30.33,40.63-60.71,81.21-91.03,121.83C167.13,366.27,160.71,375.16,154.22,384z M147.7,98.25c-26.79-0.08-48.83,21.67-48.98,48.32
	c-0.15,26.98,21.66,49.08,48.51,49.17c26.94,0.09,48.96-21.81,48.98-48.71C196.23,120.28,174.41,98.33,147.7,98.25z"/>
</svg>
