<?xml version="1.0" encoding="utf-8"?>
<!-- Generator: Adobe Illustrator 23.0.5, SVG Export Plug-In . SVG Version: 6.00 Build 0)  -->
<svg version="1.1" id="Layer_1" xmlns="http://www.w3.org/2000/svg" xmlns:xlink="http://www.w3.org/1999/xlink" x="0px" y="0px"
	 viewBox="0 0 316.21 409.6" style="enable-background:new 0 0 316.21 409.6;" xml:space="preserve">
<style type="text/css">
	.st0{fill:#E6353F;}
	.st1{fill:#FE4A4A;}
</style>
<g>
	<path class="st0" d="M171.61,0c6.08,1.06,12.21,1.85,18.22,3.22c53.47,12.21,91.61,43.44,113.77,93.49
		c11.35,25.64,14.72,52.75,11.39,80.76c-3.29,27.67-11.93,53.58-24.61,78.18c-28.31,54.92-68.41,100.34-114.48,140.87
		c-5.07,4.46-10.32,8.73-15.49,13.09c-1.6,0-3.2,0-4.8,0c-5.06-4.6-10.94-8.26-15.41-13.52c0.98-0.04,1.75-0.48,2.47-1.14
		c6.16-5.65,12.54-11.09,18.47-16.98c9.07-8.99,17.91-18.21,26.71-27.47c4.47-4.71,8.84-9.55,12.9-14.62
		c8.93-11.17,17.99-22.24,26.3-33.93c11.35-15.96,21.41-32.67,30.13-50.14c6.76-13.55,12.2-27.69,16.22-42.35
		c3.75-13.71,6.43-27.53,7.11-41.78c0.31-6.36,0.03-12.66-0.03-18.99c-0.06-6.27-1.19-12.38-2.19-18.51
		c-2.06-12.63-6.15-24.63-11.24-36.38c-6.79-15.66-16.13-29.6-27.5-42.15c-15.09-16.66-33.14-29.4-53.71-38.45
		c-6.29-2.77-12.85-4.9-19.44-6.96c-7.99-2.5-16.28-3.29-24.34-5.29c0.58-0.21,1.35-0.12,1.56-0.94C152.95,0,162.28,0,171.61,0z"/>
	<path class="st1" d="M142.06,0.94c8.06,2,16.35,2.79,24.34,5.29c6.59,2.06,13.15,4.18,19.44,6.96
		c20.57,9.06,38.62,21.79,53.71,38.45c11.37,12.55,20.72,26.5,27.5,42.15c5.09,11.75,9.18,23.75,11.24,36.38
		c1,6.13,2.13,12.23,2.19,18.51c0.06,6.33,0.34,12.64,0.03,18.99c-0.69,14.24-3.36,28.07-7.11,41.78
		c-4.02,14.67-9.46,28.8-16.22,42.35c-8.72,17.47-18.78,34.18-30.13,50.14c-8.31,11.69-17.36,22.76-26.3,33.93
		c-4.05,5.07-8.42,9.91-12.9,14.62c-8.8,9.26-17.64,18.48-26.71,27.47c-5.94,5.88-12.31,11.32-18.47,16.98
		c-0.72,0.66-1.49,1.1-2.47,1.14c-13.06-10.38-24.81-22.19-36.38-34.15c-20.42-21.1-39.23-43.57-55.54-68.01
		c-20.9-31.33-37.74-64.51-44.93-101.93c-7.29-37.93-2.93-74.26,15.43-108.42c15.69-29.2,38.49-51.42,68.11-66.46
		C104.26,8.29,122.62,2.76,142.06,0.94z M212.55,158.15c0.03-30.16-24.51-54.81-54.55-54.8c-30.05,0.01-54.57,24.67-54.53,54.82
		c0.04,29.99,24.4,54.43,54.35,54.56C187.89,212.85,212.52,188.29,212.55,158.15z"/>
</g>
</svg>
