<?xml version="1.0" encoding="utf-8"?>
<!-- Generator: Adobe Illustrator 26.0.1, SVG Export Plug-In . SVG Version: 6.00 Build 0)  -->
<svg version="1.1" id="Layer_1" xmlns="http://www.w3.org/2000/svg" xmlns:xlink="http://www.w3.org/1999/xlink" x="0px" y="0px"
	 viewBox="0 0 123.8 59" style="enable-background:new 0 0 123.8 59;" xml:space="preserve">
<style type="text/css">
	.st0{fill:#0B4559;}
	.st1{fill:#727272;}
	.st2{fill:#DB405A;}
	.st3{fill:#E48C35;}
	.st4{fill:#28B8C9;}
	.st5{fill:#4AAA46;}
	.st6{fill:#ACADAC;}
	.st7{fill:#E96169;}
</style>
<g>
	<g>
		<g>
			<g>
				<path class="st0" d="M40.9,36.2c-0.2,1.6-0.3,2.9-0.3,3.9c0,0.4-0.1,0.7-0.3,1c-0.2,0.3-0.5,0.4-0.9,0.4C38.5,41.5,38,41,38,40
					c0-0.5,0.2-2.4,0.6-5.5c0.3-2.5,0.5-4.1,0.5-4.6c0-0.6,0-0.9-0.1-1c-0.4-0.2-0.7-0.6-0.7-1.2c0-0.6,0.9-1.1,2.8-1.5
					c1.9-0.4,3.5-0.6,4.8-0.6c1.6,0,2.8,0.3,3.7,1c0.9,0.6,1.4,1.5,1.4,2.6c0,1.6-0.9,3-2.6,4.2c-1.7,1.2-3.8,2-6.2,2.5
					C41.5,36,41,36.1,40.9,36.2z M41.8,28.4l-0.6,5.5c2-0.3,3.7-0.9,5.2-1.8c1.5-0.8,2.3-1.8,2.3-2.7c0-1.2-0.9-1.7-2.7-1.7
					C44.7,27.6,43.3,27.9,41.8,28.4z"/>
			</g>
			<g>
				<path class="st0" d="M61.2,37.3c0,0.7-0.6,1.6-1.8,2.6c-1.2,1-2.6,1.5-4.1,1.5c-1.2,0-2.1-0.4-2.8-1.1c-0.7-0.7-1-1.8-1-3.1
					c0-1.9,0.7-3.7,2.1-5.4c1.4-1.7,2.8-2.5,4.4-2.5c0.8,0,1.4,0.2,1.9,0.7c0.5,0.5,0.7,1.1,0.7,1.8c0,1.2-0.6,2.3-1.7,3.4
					c-1.2,1.1-2.6,1.8-4.4,2.3c-0.2,0-0.3,0.2-0.3,0.4c0,0.3,0.1,0.6,0.4,0.9c0.3,0.3,0.7,0.5,1.2,0.5c1.4,0,2.8-0.7,4.1-2.1
					c0.3-0.3,0.5-0.4,0.8-0.4C61,36.6,61.2,36.9,61.2,37.3z M54.2,35.5c1.1-0.2,2.1-0.7,2.9-1.4c0.8-0.7,1.2-1.4,1.2-1.9
					c0-0.2-0.1-0.4-0.2-0.6c-0.1-0.2-0.3-0.2-0.5-0.2c-0.6,0-1.3,0.4-2,1.3C55,33.5,54.5,34.5,54.2,35.5z"/>
			</g>
			<g>
				<path class="st0" d="M67.2,32.5c-0.1,0-0.3,0.8-0.6,2.3c-0.3,1.5-0.5,2.5-0.5,2.8c0,0.6,0.1,1,0.2,1.2c0.1,0.2,0.3,0.3,0.6,0.3
					c0.4,0,0.8-0.1,1.1-0.2s0.8-0.4,1.4-0.9c0.4-0.3,0.7-0.4,0.9-0.4c0.2,0,0.4,0.1,0.5,0.2c0.1,0.1,0.2,0.2,0.2,0.4
					c0,0.6-0.5,1.3-1.5,2.1s-2,1.2-3.1,1.2c-0.9,0-1.6-0.3-2.1-0.8c-0.5-0.5-0.7-1.3-0.7-2.3c0-0.9,0.3-2.8,1-5.6
					c-0.4,0-0.8,0.1-0.9,0.1h-0.2c-0.3,0-0.6-0.1-1-0.3s-0.5-0.5-0.5-1c0-0.6,0.3-0.9,1-0.9l2.2-0.1c0.3-0.8,0.6-1.9,0.9-3.3
					c0.2-0.8,0.6-1.3,1.3-1.3c0.4,0,0.7,0.1,0.9,0.3c0.2,0.2,0.3,0.5,0.3,0.8c0,0.1-0.3,1.2-0.9,3.2c2.2-0.2,3.4-0.3,3.6-0.3
					c0.4,0,0.6,0.1,0.7,0.2c0.1,0.1,0.2,0.3,0.2,0.6c0,0.6-0.5,1-1.6,1.2L67.2,32.5z"/>
			</g>
			<g>
				<path class="st0" d="M77.7,38.2c0-0.4-0.6-0.8-1.8-1.4c-1.4-0.7-2.3-1.3-2.7-1.8c-0.4-0.5-0.6-1-0.6-1.6c0-1.2,0.7-2.3,2.1-3.2
					c1.4-0.9,2.7-1.4,3.8-1.4c1.2,0,1.8,0.5,1.8,1.5c0,0.3-0.1,0.5-0.4,0.7c-0.3,0.2-0.5,0.3-0.7,0.3c-0.1,0-0.2,0-0.4-0.1
					c-0.2-0.1-0.3-0.1-0.4-0.1c-0.6,0-1.3,0.2-2,0.6s-1.1,0.9-1.1,1.5c0,0.3,0.1,0.5,0.4,0.8c0.3,0.3,0.8,0.6,1.6,0.9
					c1.2,0.6,2,1.1,2.4,1.5c0.4,0.5,0.6,1,0.6,1.5c0,1-0.7,1.9-2,2.5c-1.4,0.7-2.9,1-4.6,1c-1.3,0-1.9-0.5-1.9-1.4
					c0-0.3,0.1-0.6,0.4-0.9c0.3-0.2,0.6-0.4,0.9-0.4c0.1,0,0.3,0,0.6,0.1c0.3,0.1,0.5,0.2,0.8,0.2c0.6,0,1.3-0.1,2-0.3
					S77.5,38.6,77.7,38.2z"/>
			</g>
			<g>
				<path class="st0" d="M84.6,35.6l-0.2,1.9c-0.1,0.6-0.1,1.2-0.1,1.8c0,0.5,0,1.1,0.1,1.8c-0.1,0.2-0.2,0.4-0.5,0.6
					c-0.3,0.2-0.6,0.3-0.9,0.3c-0.9,0-1.4-0.6-1.4-1.8c0-0.5,0.1-1.8,0.4-3.8c0.2-1.4,0.3-2.5,0.3-3.2c0,0,0-0.1-0.1-0.1
					c-0.5-0.3-0.7-0.6-0.7-0.9c0-0.4,0.3-0.7,0.8-1.2c0.3-0.2,0.4-0.4,0.5-0.7c0.1-0.3,0.1-0.7,0.3-1.3c0.4-2.2,1-3.8,1.7-4.7
					c0.8-0.9,1.8-1.4,3-1.4c0.7,0,1.3,0.2,1.8,0.7c0.5,0.5,0.7,1,0.7,1.7c0,0.6-0.1,1.2-0.4,1.9c-0.3,0.7-0.6,1-1.1,1
					c-0.2,0-0.4-0.1-0.5-0.2c-0.1-0.1-0.2-0.3-0.2-0.5l0.1-0.9c0-1.1-0.2-1.6-0.7-1.6c-0.6,0-1.1,0.7-1.6,2.1
					c-0.5,1.4-0.7,2.6-0.7,3.6c0,0.1,0.1,0.2,0.2,0.2c1.4,0,2.4,0,3,0s0.9,0.2,0.9,0.7c0,0.5-0.4,0.8-1.1,1
					c-0.7,0.2-1.5,0.3-2.3,0.3c-0.5,0-0.9,0.1-1,0.1C84.8,33.9,84.7,34.8,84.6,35.6L84.6,35.6z"/>
			</g>
			<g>
				<path class="st0" d="M99.5,35.6c-0.5,1.6-1.3,3-2.6,4.1c-1.3,1.1-2.6,1.7-3.9,1.7c-1,0-1.9-0.4-2.5-1.1c-0.7-0.7-1-1.7-1-2.8
					c0-1.8,0.6-3.5,1.8-5.3c1.2-1.7,2.7-2.6,4.4-2.6c1.2,0,2.1,0.4,2.9,1.3c0.7,0.9,1.1,1.9,1.1,3.1C99.6,34.6,99.6,35.1,99.5,35.6
					L99.5,35.6z M94.1,32.3c-0.5,0.4-1,1.1-1.4,2.1S92,36.3,92,37.2c0,0.6,0.1,1,0.3,1.4c0.2,0.4,0.5,0.6,0.8,0.6
					c0.9,0,1.7-0.5,2.7-1.5c0.9-1,1.4-2.2,1.4-3.4c0-0.7-0.2-1.3-0.5-1.8c-0.3-0.5-0.7-0.7-1.3-0.7C95,31.8,94.5,32,94.1,32.3
					L94.1,32.3z"/>
			</g>
			<g>
				<path class="st0" d="M105.4,23.3c0.7,0,1.1,0.4,1.1,1.2c0,0.4-0.1,0.8-0.2,1.2c-0.1,0.4-0.4,1.5-0.9,3.2c-0.3,1.2-0.6,2.6-0.8,4
					c-0.2,1.5-0.3,2.6-0.3,3.4c0,0.9,0.1,1.9,0.2,3.1c0,0.3,0.1,0.5,0.1,0.6c0,0.4-0.2,0.8-0.5,1.1c-0.3,0.3-0.6,0.4-1,0.4
					c-0.5,0-0.8-0.2-1-0.7c-0.2-0.5-0.3-1.3-0.3-2.4c0-2.4,0.3-5.3,0.9-8.6c0.6-3.3,1-5.2,1.4-5.8C104.6,23.6,105,23.3,105.4,23.3z"
					/>
			</g>
			<g>
				<path class="st0" d="M108.4,34L108.4,34c0.2-1.2,0.3-2,0.3-2.1c0-0.5,0.1-0.9,0.3-1.3c0.2-0.3,0.5-0.5,0.9-0.5
					c0.5,0,0.8,0.1,1.1,0.3c0.3,0.2,0.4,0.5,0.4,0.7c0,0.3-0.1,0.8-0.4,1.7l-0.1,0.2c-0.4,1.3-0.6,2.4-0.7,3.3
					c-0.1,0.8-0.1,1.5-0.1,2c0,0.4,0.1,1,0.2,1.7c0,0.1,0,0.2,0,0.3c0,0.2-0.2,0.4-0.5,0.6c-0.3,0.3-0.6,0.4-1,0.4
					c-0.9,0-1.4-0.7-1.4-2.1c0-1.2,0.2-2.6,0.5-4.3C108.3,34.7,108.3,34.3,108.4,34z M113.4,25.5c0,0.5-0.2,0.9-0.7,1.3
					c-0.4,0.4-0.8,0.6-1.2,0.6c-0.4,0-0.8-0.2-1.1-0.5c-0.3-0.3-0.5-0.7-0.5-1c0-0.5,0.2-0.9,0.5-1.2c0.3-0.3,0.8-0.5,1.4-0.5
					c0.5,0,0.8,0.1,1.1,0.4C113.3,24.8,113.4,25.1,113.4,25.5z"/>
			</g>
			<g>
				<path class="st0" d="M123.6,35.6c-0.5,1.6-1.3,3-2.6,4.1c-1.3,1.1-2.6,1.7-3.9,1.7c-1,0-1.9-0.4-2.5-1.1c-0.7-0.7-1-1.7-1-2.8
					c0-1.8,0.6-3.5,1.8-5.3c1.2-1.7,2.7-2.6,4.4-2.6c1.2,0,2.1,0.4,2.9,1.3c0.7,0.9,1.1,1.9,1.1,3.1
					C123.7,34.6,123.7,35.1,123.6,35.6L123.6,35.6z M118.2,32.3c-0.5,0.4-1,1.1-1.4,2.1c-0.5,0.9-0.7,1.9-0.7,2.8
					c0,0.6,0.1,1,0.3,1.4c0.2,0.4,0.5,0.6,0.8,0.6c0.9,0,1.7-0.5,2.7-1.5s1.4-2.2,1.4-3.4c0-0.7-0.2-1.3-0.5-1.8
					c-0.3-0.5-0.7-0.7-1.3-0.7C119,31.8,118.6,32,118.2,32.3L118.2,32.3z"/>
			</g>
		</g>
		<g>
			<path class="st1" d="M39,47.5h1c0.2,0,0.4,0,0.5-0.1c0.1-0.1,0.3-0.2,0.3-0.4s0.1-0.4,0.1-0.6c0-0.2-0.1-0.4-0.2-0.5
				c-0.1-0.1-0.3-0.2-0.5-0.2h-1l0.3-0.3l-0.8,4.3h-0.6l0.8-4.5h1.3c0.3,0,0.5,0,0.7,0.1c0.2,0.1,0.3,0.2,0.4,0.4
				c0.1,0.2,0.1,0.4,0.1,0.7c0,0.3,0,0.6-0.1,0.8c-0.1,0.2-0.2,0.4-0.4,0.5s-0.3,0.2-0.5,0.3c-0.2,0.1-0.4,0.1-0.6,0.1h-1.1L39,47.5
				z"/>
			<path class="st1" d="M41.7,49.6l2.3-4.5h0.6l0.7,4.5h-0.6l-0.2-1.3l-0.1-0.5l-0.3-2.2l0.1,0l-1,2.2L43,48.4l-0.6,1.3H41.7z
				 M42.7,48.4l0.3-0.6h1.6l0.1,0.6H42.7z"/>
			<path class="st1" d="M46.9,49.6l-0.3-4.5h0.6l0.2,4.1l-0.1,0l1.7-3.9h0.6l0.3,4l-0.1,0l1.6-4h0.6l-2,4.5h-0.6l-0.3-4l0.1,0
				l-1.7,4H46.9z"/>
			<path class="st1" d="M53.6,49.7c-0.3,0-0.6,0-0.8-0.1s-0.4-0.1-0.5-0.2l0.2-0.7c0.1,0.1,0.3,0.2,0.5,0.3s0.4,0.1,0.7,0.1
				c0.2,0,0.4,0,0.5-0.1c0.2-0.1,0.3-0.1,0.4-0.3c0.1-0.1,0.1-0.3,0.1-0.4c0-0.2,0-0.3-0.1-0.4c-0.1-0.1-0.2-0.2-0.3-0.2
				c-0.1-0.1-0.3-0.1-0.4-0.2c-0.1,0-0.2-0.1-0.4-0.2c-0.1-0.1-0.2-0.1-0.4-0.2S53,47,52.9,46.9c-0.1-0.1-0.1-0.3-0.1-0.4
				c0-0.1,0-0.3,0.1-0.5c0.1-0.2,0.2-0.3,0.3-0.5c0.1-0.2,0.3-0.3,0.5-0.4s0.5-0.1,0.8-0.1c0.3,0,0.5,0,0.7,0.1
				c0.2,0.1,0.4,0.1,0.5,0.2L55.6,46c-0.2-0.1-0.3-0.2-0.5-0.3c-0.2-0.1-0.4-0.1-0.6-0.1c-0.1,0-0.3,0-0.4,0.1
				c-0.2,0.1-0.3,0.1-0.4,0.2c-0.1,0.1-0.2,0.3-0.2,0.4c0,0.2,0.1,0.3,0.2,0.4c0.1,0.1,0.3,0.2,0.5,0.3c0.1,0.1,0.3,0.1,0.4,0.2
				c0.1,0.1,0.3,0.1,0.4,0.2s0.2,0.2,0.3,0.3c0.1,0.1,0.1,0.3,0.1,0.5c0,0.2,0,0.3-0.1,0.5s-0.2,0.3-0.3,0.5
				c-0.1,0.1-0.3,0.3-0.6,0.3C54.3,49.7,54,49.7,53.6,49.7z"/>
			<path class="st1" d="M58.3,49.7c-0.3,0-0.6-0.1-0.9-0.2s-0.4-0.4-0.6-0.7s-0.2-0.6-0.2-1c0-0.4,0.1-0.8,0.2-1.1
				c0.1-0.3,0.3-0.6,0.5-0.9c0.2-0.3,0.5-0.5,0.8-0.6c0.3-0.1,0.6-0.2,0.9-0.2c0.3,0,0.6,0.1,0.9,0.2c0.2,0.2,0.4,0.4,0.6,0.7
				s0.2,0.6,0.2,1c0,0.4-0.1,0.8-0.2,1.1s-0.3,0.6-0.5,0.9s-0.5,0.5-0.8,0.6C59,49.7,58.7,49.7,58.3,49.7z M58.4,49.2
				c0.3,0,0.5-0.1,0.7-0.2s0.4-0.3,0.5-0.5s0.3-0.4,0.3-0.7c0.1-0.3,0.1-0.5,0.1-0.8c0-0.3,0-0.5-0.1-0.7c-0.1-0.2-0.2-0.4-0.4-0.5
				c-0.2-0.1-0.4-0.2-0.6-0.2c-0.3,0-0.5,0.1-0.7,0.2c-0.2,0.1-0.4,0.3-0.5,0.5c-0.1,0.2-0.3,0.4-0.3,0.7c-0.1,0.3-0.1,0.5-0.1,0.8
				c0,0.3,0,0.5,0.1,0.7s0.2,0.4,0.4,0.5C58,49.1,58.2,49.2,58.4,49.2z"/>
			<path class="st1" d="M61.5,49.6l1.4-4.5h0.6l0.7,2.5l-0.2,0l1.5-2.5H66l-0.2,4.5h-0.6l0.2-3.6l0.1,0l-1.6,2.5L63.1,46h0.2l-1,3.6
				H61.5z"/>
			<path class="st1" d="M67.9,49.4l-0.2-0.3h2.2l-0.1,0.6h-2.6l0.8-4.5h2.5l-0.1,0.6h-2.2l0.3-0.3L67.9,49.4z M68,47h1.8l-0.1,0.6
				h-1.8L68,47z"/>
			<path class="st1" d="M73.7,47.5h1c0.2,0,0.4,0,0.5-0.1c0.1-0.1,0.3-0.2,0.3-0.4c0.1-0.2,0.1-0.4,0.1-0.6c0-0.2-0.1-0.4-0.2-0.5
				c-0.1-0.1-0.3-0.2-0.5-0.2h-1l0.3-0.3l-0.8,4.3H73l0.8-4.5H75c0.3,0,0.5,0,0.7,0.1s0.3,0.2,0.4,0.4c0.1,0.2,0.1,0.4,0.1,0.7
				c0,0.3,0,0.6-0.1,0.8c-0.1,0.2-0.2,0.4-0.4,0.5c-0.2,0.1-0.3,0.2-0.5,0.3c-0.2,0.1-0.4,0.1-0.6,0.1h-1.1L73.7,47.5z"/>
			<path class="st1" d="M77,49.6l0.8-4.5h1.3c0.4,0,0.8,0.1,1,0.3c0.2,0.2,0.3,0.5,0.3,0.8c0,0.2,0,0.4-0.1,0.6
				c-0.1,0.2-0.2,0.3-0.3,0.5c-0.1,0.1-0.3,0.2-0.4,0.3c-0.2,0.1-0.3,0.1-0.5,0.2c-0.2,0-0.4,0.1-0.5,0.1h-0.9l0.1-0.6h1
				c0.2,0,0.4,0,0.5-0.1s0.2-0.2,0.3-0.4c0.1-0.2,0.1-0.3,0.1-0.5c0-0.2,0-0.3-0.1-0.5s-0.3-0.2-0.5-0.2h-1l0.3-0.2l-0.8,4.3H77z
				 M79.4,49.6l-0.6-1.9l0.6-0.2l0.6,2.1H79.4z"/>
			<path class="st1" d="M83.1,49.7c-0.3,0-0.6-0.1-0.9-0.2s-0.4-0.4-0.6-0.7c-0.1-0.3-0.2-0.6-0.2-1c0-0.4,0.1-0.8,0.2-1.1
				c0.1-0.3,0.3-0.6,0.5-0.9c0.2-0.3,0.5-0.5,0.8-0.6s0.6-0.2,0.9-0.2c0.3,0,0.6,0.1,0.9,0.2c0.2,0.2,0.4,0.4,0.6,0.7
				c0.1,0.3,0.2,0.6,0.2,1c0,0.4-0.1,0.8-0.2,1.1s-0.3,0.6-0.5,0.9s-0.5,0.5-0.8,0.6C83.7,49.7,83.4,49.7,83.1,49.7z M83.2,49.2
				c0.3,0,0.5-0.1,0.7-0.2s0.4-0.3,0.5-0.5c0.1-0.2,0.3-0.4,0.3-0.7c0.1-0.3,0.1-0.5,0.1-0.8c0-0.3,0-0.5-0.1-0.7
				c-0.1-0.2-0.2-0.4-0.4-0.5c-0.2-0.1-0.4-0.2-0.6-0.2s-0.5,0.1-0.7,0.2c-0.2,0.1-0.4,0.3-0.5,0.5c-0.1,0.2-0.3,0.4-0.3,0.7
				c-0.1,0.3-0.1,0.5-0.1,0.8c0,0.3,0,0.5,0.1,0.7c0.1,0.2,0.2,0.4,0.4,0.5C82.7,49.1,82.9,49.2,83.2,49.2z"/>
			<path class="st1" d="M87.1,49.7c-0.3,0-0.5,0-0.6-0.1c-0.2-0.1-0.3-0.1-0.3-0.2l0.2-0.6c0.1,0.1,0.2,0.1,0.3,0.2
				c0.1,0.1,0.3,0.1,0.5,0.1c0.2,0,0.4,0,0.5-0.1s0.1-0.2,0.1-0.3c0-0.2-0.1-0.3-0.2-0.3s-0.2-0.1-0.3-0.1c-0.1,0-0.2-0.1-0.4-0.1
				c-0.1-0.1-0.2-0.1-0.3-0.2c-0.1-0.1-0.1-0.2-0.1-0.4c0-0.2,0-0.3,0.1-0.5s0.2-0.3,0.4-0.4c0.2-0.1,0.4-0.2,0.7-0.2
				c0.2,0,0.4,0,0.5,0.1c0.1,0,0.2,0.1,0.3,0.1l-0.2,0.5c-0.1-0.1-0.2-0.1-0.3-0.2c-0.1-0.1-0.2-0.1-0.4-0.1c-0.2,0-0.3,0-0.4,0.1
				s-0.2,0.2-0.2,0.4c0,0.1,0,0.2,0.1,0.3c0.1,0.1,0.2,0.1,0.4,0.2c0.1,0,0.2,0.1,0.3,0.1c0.1,0.1,0.2,0.1,0.3,0.2
				c0.1,0.1,0.1,0.2,0.1,0.4c0,0.1,0,0.2,0,0.3c0,0.1-0.1,0.2-0.2,0.4s-0.2,0.2-0.4,0.3C87.6,49.7,87.4,49.7,87.1,49.7z"/>
			<path class="st1" d="M91.4,49.6l0.8-4.5h0.7l1.4,3.7l-0.1,0l0.6-3.7h0.6l-0.8,4.5h-0.5l-1.5-3.8l0.1,0L92,49.6H91.4z"/>
			<path class="st1" d="M96.9,49.4l-0.2-0.3h2.2l-0.1,0.6h-2.6l0.8-4.5h2.5l-0.1,0.6h-2.2l0.3-0.3L96.9,49.4z M97,47h1.8l-0.1,0.6
				h-1.8L97,47z"/>
			<path class="st1" d="M99.7,49.6l2.3-4.5h0.6l0.7,4.5h-0.6l-0.2-1.3l-0.1-0.5l-0.3-2.2l0.1,0l-1,2.2l-0.3,0.5l-0.6,1.3H99.7z
				 M100.7,48.4l0.3-0.6h1.6l0.1,0.6H100.7z"/>
			<path class="st1" d="M104.4,49.6l0.8-4.5h1.3c0.4,0,0.8,0.1,1,0.3c0.2,0.2,0.3,0.5,0.3,0.8c0,0.2,0,0.4-0.1,0.6
				c-0.1,0.2-0.2,0.3-0.3,0.5c-0.1,0.1-0.3,0.2-0.4,0.3c-0.2,0.1-0.3,0.1-0.5,0.2c-0.2,0-0.4,0.1-0.5,0.1H105l0.1-0.6h1
				c0.2,0,0.4,0,0.5-0.1s0.2-0.2,0.3-0.4c0.1-0.2,0.1-0.3,0.1-0.5c0-0.2,0-0.3-0.1-0.5s-0.3-0.2-0.5-0.2h-1l0.3-0.2l-0.8,4.3H104.4z
				 M106.7,49.6l-0.6-1.9l0.6-0.2l0.6,2.1H106.7z"/>
			<path class="st1" d="M111.4,49.6l0.4-2.4l0.1,0.5l-1.1-2.7h0.6l0.8,2.1l-0.3,0l1.5-2.1h0.6l-2,2.7l0.2-0.5l-0.4,2.4H111.4z"/>
			<path class="st1" d="M116.3,49.7c-0.3,0-0.6-0.1-0.9-0.2s-0.4-0.4-0.6-0.7c-0.1-0.3-0.2-0.6-0.2-1c0-0.4,0.1-0.8,0.2-1.1
				c0.1-0.3,0.3-0.6,0.5-0.9c0.2-0.3,0.5-0.5,0.8-0.6s0.6-0.2,0.9-0.2c0.3,0,0.6,0.1,0.9,0.2c0.2,0.2,0.4,0.4,0.6,0.7
				c0.1,0.3,0.2,0.6,0.2,1c0,0.4-0.1,0.8-0.2,1.1s-0.3,0.6-0.5,0.9s-0.5,0.5-0.8,0.6C116.9,49.7,116.6,49.7,116.3,49.7z M116.4,49.2
				c0.3,0,0.5-0.1,0.7-0.2s0.4-0.3,0.5-0.5c0.1-0.2,0.3-0.4,0.3-0.7c0.1-0.3,0.1-0.5,0.1-0.8c0-0.3,0-0.5-0.1-0.7
				c-0.1-0.2-0.2-0.4-0.4-0.5c-0.2-0.1-0.4-0.2-0.6-0.2s-0.5,0.1-0.7,0.2c-0.2,0.1-0.4,0.3-0.5,0.5c-0.1,0.2-0.3,0.4-0.3,0.7
				c-0.1,0.3-0.1,0.5-0.1,0.8c0,0.3,0,0.5,0.1,0.7c0.1,0.2,0.2,0.4,0.4,0.5C115.9,49.1,116.1,49.2,116.4,49.2z"/>
			<path class="st1" d="M121.3,49.7c-0.5,0-0.8-0.1-1.1-0.4s-0.3-0.6-0.3-1c0-0.1,0-0.2,0-0.3c0-0.1,0-0.2,0-0.3l0.5-2.6h0.6
				l-0.4,2.3c0,0.1,0,0.3-0.1,0.4c0,0.1,0,0.2,0,0.4c0,0.2,0,0.4,0.1,0.5c0.1,0.2,0.1,0.3,0.3,0.4s0.3,0.1,0.5,0.1
				c0.2,0,0.4-0.1,0.6-0.2c0.2-0.1,0.3-0.2,0.4-0.4c0.1-0.2,0.2-0.4,0.2-0.6c0.1-0.2,0.1-0.4,0.1-0.6l0.4-2.3h0.6l-0.5,2.6
				c-0.1,0.4-0.2,0.8-0.4,1.1c-0.2,0.3-0.4,0.5-0.7,0.7S121.7,49.7,121.3,49.7z"/>
		</g>
	</g>
	<g>
		<g>
			<path class="st2" d="M18.9,10.9c-0.2,1.7-0.5,3.2-1.4,4.6c-0.5,0.8-1.2,1.4-2.2,1.4c-0.7,0-1.3-0.3-1.9-0.8
				c-1.2-0.9-1.9-2.1-2.7-3.3c-1.5-2.4-1.3-4.9-0.3-7.4c0.6-1.5,1.5-3,2.7-4.1c0.5-0.4,1-0.8,1.6-1.1c1.1-0.5,2.2-0.2,2.9,0.8
				c0.8,1.1,1,2.4,1.2,3.7C19.1,6.8,19.2,8.9,18.9,10.9z"/>
		</g>
		<g>
			<path class="st3" d="M22.4,10.1c0.5-2.6,1.2-5.2,2.6-7.6c0.3-0.6,0.8-1.1,1.3-1.5c0.6-0.6,1.4-0.6,2.1,0c0.4,0.3,0.8,0.8,1.1,1.2
				c1.2,2.1,2,4.3,1.9,6.7c-0.1,3-1.6,5.3-4.3,6.7c-0.3,0.1-0.5,0.2-0.8,0.3c-1.7,0.4-3-0.3-3.6-2C22.2,12.5,22.3,11.4,22.4,10.1z"
				/>
		</g>
		<g>
			<path class="st4" d="M0,17.6C0.5,15,1.6,13,2.9,11.1c0.2-0.2,0.4-0.5,0.6-0.7c0.8-0.7,1.3-0.7,2.2,0C7.5,12,8.9,13.8,9.7,16
				c0.7,1.9,0.6,3.8-0.8,5.4c-1.6,1.8-3.6,2.4-5.9,1.8c-1.7-0.4-2.7-1.6-3-3.3C0,19.3,0,18.6,0,18.1C0,18,0,17.8,0,17.6z"/>
		</g>
		<g>
			<path class="st5" d="M37.5,13.6L37.5,13.6c-0.1-0.3-0.1-0.6-0.3-0.9c-0.4-1-1.3-1-1.9-0.5c-0.6,0.4-1.2,1-1.7,1.5
				c-1.3,1.3-2.3,2.8-3.2,4.4c-0.3,0.5-0.5,1.1-0.5,1.7l0,0c0,0-0.1,0.8-0.1,1.5c0,0,0,0,0,0c0,0,0,0,0,0c0,0,0,0,0,0l0,0
				c0.4,1.6,1.4,2.2,2.9,1.7c1.1-0.3,1.9-1.1,2.7-1.9c1.2-1.2,1.8-2.6,2-4.2l0,0C37.9,14.9,37.5,13.6,37.5,13.6z"/>
		</g>
		<g>
			<ellipse class="st6" cx="19.1" cy="57.9" rx="8.9" ry="1.1"/>
		</g>
		<g>
			<path class="st7" d="M32.8,31.5c-0.4-2.8-1.5-5.2-3.3-7.3c-2.6-2.9-5.8-4.4-9.7-4.6c-2.6-0.1-5,0.4-7.3,1.7
				c-2.4,1.3-4.2,3.2-5.5,5.6c-0.9,1.6-1.4,3.3-1.6,5.1c-0.1,1.2-0.1,2.4,0.1,3.6c0.4,2.7,1.6,5.1,3.5,7.1c0.3,0.3,0.6,0.7,1,1
				l9.3,11l4-4.8l-2.5-3.2l-1.4-1.7v0L18.6,44l-0.4-0.5c-0.7-0.9-1.5-1.9-2.2-2.8c-0.7-0.9-1.5-1.8-2.2-2.8c-0.5-0.6-1-1.2-1.3-1.9
				c-0.9-1.7-0.9-3.5-0.4-5.4c0.4-1.4,1.3-2.5,2.4-3.4c1.6-1.3,3.4-1.8,5.6-1.6c1.1,0.1,2.3,0.6,3.3,1.4c1.4,1.1,2.3,2.4,2.8,4.1
				c0.4,1.4,0.3,2.7-0.2,4.1c-0.5,1.4-1.3,2.5-2.5,3.4c-0.3,0.3-0.7,0.4-1.1,0.5c-0.8,0.1-1.5-0.2-2-0.8c-0.6-0.7-0.7-1.4-0.4-2.2
				c0.2-0.5,0.5-0.8,0.8-1.1c0.6-0.5,0.9-1.1,1-1.8c0.1-1.2-0.7-2.4-1.8-2.8c-1.4-0.5-2.9,0.4-3.3,1.6c-0.4,0.9-0.2,1.8,0.4,2.6
				c0.9,1.1,1.7,2.1,2.5,3.2c1,1.2,2,2.4,2.9,3.7l0.1,0.1l3.7,4.7l2.8-3.3c0.5-0.5,0.9-1,1.3-1.5l0,0c0.4-0.5,0.7-1,1-1.5
				C32.7,37.2,33.2,34.4,32.8,31.5z"/>
		</g>
	</g>
</g>
</svg>
