<?xml version="1.0" encoding="utf-8"?>
<!-- Generator: Adobe Illustrator 23.0.5, SVG Export Plug-In . SVG Version: 6.00 Build 0)  -->
<svg version="1.1" id="Layer_1" xmlns="http://www.w3.org/2000/svg" xmlns:xlink="http://www.w3.org/1999/xlink" x="0px" y="0px"
	 viewBox="0 0 339.18 336" style="enable-background:new 0 0 339.18 336;" xml:space="preserve">
<style type="text/css">
	.st0{clip-path:url(#SVGID_2_);fill:#FCAA2A;}
	.st1{clip-path:url(#SVGID_2_);fill:#30363C;}
	.st2{fill:#30363C;}
	.st3{fill:#222222;}
	.st4{fill:#FFFFFF;}
	.st5{fill:#33363B;}
</style>
<g>
	<g>
		<path class="st5" d="M38.85,24c-9.17,0-18.03,0.09-26.88-0.03C5.12,23.88,0.06,18.74,0,12.13c-0.06-6.83,5-11.92,12.07-12.12
			c0.75-0.02,1.5-0.01,2.25-0.01c7.75,0,15.49-0.02,23.24,0c12.52,0.03,21.31,6.72,24.75,18.81c3.54,12.48,7.04,24.97,10.57,37.46
			c0.33,1.18,0.71,2.35,1.13,3.72c1.58,0,3.07,0,4.56,0c74.73,0,149.45-0.02,224.18,0.01c18.14,0.01,32.81,11.69,35.9,29.37
			c0.94,5.35,0.66,11.4-0.87,16.6c-8.28,28.25-16.85,56.41-25.83,84.44c-9.58,29.9-36.8,49.44-68.3,49.54
			c-31.49,0.1-62.98,0.06-94.47,0.01c-34.86-0.06-63.22-22.84-71.02-56.82c-8.18-35.63-16.19-71.3-24.78-106.83
			C49.15,58.9,43.8,41.73,38.85,24z M80.03,84.01c0.35,1.66,0.61,2.99,0.91,4.3c6.83,29.66,13.68,59.32,20.48,88.99
			c5.45,23.78,24.01,38.68,48.46,38.71c30.86,0.04,61.72,0.04,92.58,0c22.87-0.03,40.44-12.99,47.28-34.92
			c8.2-26.31,16.02-52.75,24.49-78.98c3.61-11.16-3.53-18.3-13.51-18.26c-72.09,0.31-144.18,0.16-216.28,0.16
			C83.08,84.01,81.73,84.01,80.03,84.01z"/>
		<path class="st5" d="M96,300c0.01-19.89,16.07-35.98,35.92-35.98c19.77,0,36.02,16.23,36.01,35.99
			c0,19.75-16.26,35.99-36.02,35.99C112.07,335.99,95.99,319.87,96,300z M120,300.14c0.06,6.55,5.43,11.88,11.95,11.85
			c6.47-0.02,11.94-5.47,11.98-11.94c0.04-6.6-5.61-12.15-12.25-12.03C125.13,288.14,119.94,293.53,120,300.14z"/>
		<path class="st5" d="M251.97,264.02c19.77,0.02,36.02,16.3,35.97,36.04c-0.05,19.78-16.3,35.97-36.07,35.94
			c-19.83-0.03-35.89-16.17-35.86-36.05C216.03,280.06,232.11,264,251.97,264.02z M240,299.87c-0.06,6.59,5.16,12.01,11.68,12.13
			c6.63,0.12,12.29-5.44,12.25-12.04c-0.04-6.47-5.49-11.91-11.98-11.93C245.39,287.99,240.06,293.29,240,299.87z"/>
	</g>
</g>
</svg>
