<svg xmlns="http://www.w3.org/2000/svg" height="48" viewBox="0 96 960 960" width="48"><path d="M479.756 734q-6.756 0-13.206-2.409Q460.1 729.182 455 723L340 609q-11-11-10.5-26t11.5-26q11-11.167 26-10.583Q382 547 393 557l51 52V454q0-14.775 10.658-25.388Q465.316 418 480.158 418T506 428.612q11 10.613 11 25.388v155l51-52q10.75-10 25.875-10T620 558q11 11.289 11 26.144Q631 599 620 610L506 723q-6.267 6.091-12.878 8.545Q486.511 734 479.756 734ZM258 1033q-30.75 0-51.875-21.12Q185 990.75 185 960V192q0-30.75 21.125-51.875T258 119h444q30.75 0 51.875 21.125T775 192v768q0 30.75-21.125 51.88Q732.75 1033 702 1033H258Zm0-171h444V290H258v572Zm0 73v25h444v-25H258Zm0-718h444v-25H258v25Zm0-25v25-25Zm0 768v-25 25Z"/></svg>