<?xml version="1.0" encoding="utf-8"?>
<!-- Generator: Adobe Illustrator 23.0.5, SVG Export Plug-In . SVG Version: 6.00 Build 0)  -->
<svg version="1.1" id="Layer_1" xmlns="http://www.w3.org/2000/svg" xmlns:xlink="http://www.w3.org/1999/xlink" x="0px" y="0px"
	 viewBox="0 0 384.13 383.98" style="enable-background:new 0 0 384.13 383.98;" xml:space="preserve">
<g>
	<path d="M384.13,179.98c0,8,0,16,0,24c-0.21,0.97-0.54,1.92-0.62,2.9c-3.37,42.07-18.79,79.19-46.48,110.96
		c-29.77,34.16-67.15,55.28-111.82,63.23c-6.98,1.24-14.05,1.95-21.07,2.91c-8,0-16,0-24,0c-0.96-0.21-1.91-0.54-2.88-0.62
		c-32.25-2.51-61.91-12.59-89.17-30.01C20.37,310.07-13.46,226.91,4.99,148.8C30.2,42.11,136.75-21.57,242.73,6.72
		c71.1,18.98,126.53,79.86,138.48,152.17C382.37,165.88,383.16,172.95,384.13,179.98z M191.99,26.85
		C100.72,27,26.75,101.14,27,192.2c0.25,91.18,73.99,164.84,165.08,164.91c91.16,0.07,165.23-74,165.18-165.18
		C357.21,100.69,283.12,26.69,191.99,26.85z"/>
	<path d="M186.75,95.61c13.36,0.09,23.37,1.74,32.81,6.24c22.66,10.8,30.32,34.15,18.42,56.26c-5.25,9.75-12.82,17.46-21.34,24.35
		c-2.23,1.81-4.45,3.64-6.55,5.59c-5.69,5.28-8.57,11.87-8.86,19.59c-0.09,2.5-0.04,5-0.14,7.49c-0.19,4.84-2.26,7.59-6.85,9.17
		c-0.82,0.28-1.67,0.52-2.53,0.67c-14.01,2.42-19.06-1.73-19.35-15.86c-0.34-16.7,5.53-30.45,19-40.74
		c4.26-3.26,8.46-6.64,12.37-10.3c4.58-4.28,7.76-9.45,7.92-16.01c0.16-6.65-2.73-11.52-8.59-14.62
		c-12.96-6.87-28.8-3.06-37.14,8.92c-5.33,7.66-10.34,9.34-17.74,5.95c-6.86-3.15-9.86-10.19-7.41-18.34
		c3.55-11.8,12.19-18.82,23.03-23.54C172.07,96.85,180.81,95.61,186.75,95.61z"/>
	<path d="M205.81,262.2c0.08,10.72-8.75,19.69-19.39,19.68c-10.33-0.02-18.99-8.68-19.12-19.12c-0.13-10.8,8.26-19.65,18.75-19.78
		C196.88,242.82,205.73,251.44,205.81,262.2z"/>
</g>
</svg>
