<?xml version="1.0" encoding="utf-8"?>
<!-- Generator: Adobe Illustrator 23.0.5, SVG Export Plug-In . SVG Version: 6.00 Build 0)  -->
<svg version="1.1" id="Layer_1" xmlns="http://www.w3.org/2000/svg" xmlns:xlink="http://www.w3.org/1999/xlink" x="0px" y="0px"
	 viewBox="0 0 383.99 383.99" style="enable-background:new 0 0 383.99 383.99;" xml:space="preserve">
<style type="text/css">
	.st0{clip-path:url(#SVGID_2_);fill:#FCAA2A;}
	.st1{clip-path:url(#SVGID_2_);fill:#30363C;}
	.st2{fill:#30363C;}
	.st3{fill:#FFFFFF;}
	.st4{fill:#222222;}
	.st5{fill:#33363B;}
	.st6{fill:#2E2345;}
	.st7{fill:#FDA39A;}
	.st8{fill:#FFF2F1;}
</style>
<g>
	<path class="st5" d="M0,155.24c0-3.25,0-6.5,0-9.75c0.22-0.58,0.53-1.14,0.65-1.73c2.47-12.39,9.58-21.15,20.77-26.79
		c5.35-2.69,10.58-5.64,15.98-8.21c4.08-1.94,5.58-4.9,5.26-9.31c-0.48-6.6-0.8-13.22-0.95-19.84
		C41.24,57.74,58.28,40.92,80.09,41.7c6.74,0.24,13.48,0.57,20.22,0.96c3.81,0.22,6.43-1.25,8.14-4.7
		c2.83-5.7,5.78-11.34,8.74-16.98c10.89-20.76,33.98-27.05,53.84-14.66c5.51,3.44,10.98,6.93,16.39,10.52
		c3.07,2.04,5.97,2.11,9.05,0.09c5.33-3.49,10.71-6.89,16.09-10.31c20.11-12.8,43.3-6.59,54.36,14.56
		c2.89,5.53,5.81,11.05,8.56,16.65c1.77,3.6,4.48,5.07,8.45,4.82c6.23-0.4,12.48-0.6,18.72-0.91c23.27-1.14,40.57,15.98,39.6,39.21
		c-0.26,6.24-0.47,12.49-0.92,18.72c-0.31,4.27,1.23,7.13,5.14,9c5.51,2.64,10.9,5.55,16.32,8.37
		c20.96,10.88,27.32,34.13,14.78,54.08c-3.32,5.29-6.61,10.6-10.14,15.75c-2.47,3.59-2.35,6.79,0.07,10.34
		c3.59,5.26,6.99,10.65,10.34,16.06c12.03,19.41,5.89,42.34-14.22,53.15c-5.83,3.13-11.7,6.17-17.62,9.12
		c-3.45,1.72-4.92,4.32-4.69,8.14c0.4,6.74,0.76,13.48,0.95,20.22c0.64,22.42-16.61,39.34-39.03,38.35
		c-6.12-0.27-12.25-0.41-18.34-0.92c-4.72-0.4-7.81,1.19-9.85,5.59c-2.62,5.66-5.71,11.09-8.56,16.64
		c-2.97,5.78-6.87,10.94-12.55,14.07c-4.84,2.67-10.27,4.27-15.44,6.35c-3.25,0-6.5,0-9.75,0c-8.09-1.68-15.13-5.57-21.84-10.22
		c-3.08-2.13-6.38-3.94-9.42-6.12c-3.75-2.7-7.08-2.49-10.99-0.01c-9.95,6.3-19.17,14.09-31.25,16.35c-3.25,0-6.5,0-9.75,0
		c-0.33-0.17-0.64-0.44-0.99-0.5c-12.86-2.35-21.91-9.62-27.69-21.23c-2.61-5.25-5.52-10.35-8.03-15.65
		c-1.93-4.07-4.86-5.63-9.28-5.29c-6.1,0.47-12.22,0.61-18.34,0.91c-23.01,1.11-40.36-16.05-39.42-39.02
		c0.25-6.24,0.45-12.49,0.93-18.71c0.34-4.42-1.21-7.36-5.27-9.3c-5.52-2.62-10.88-5.58-16.32-8.36c-5.89-3-11.28-6.83-14.5-12.61
		C3.82,249.3,2.15,243.76,0,238.49c0-3.25,0-6.5,0-9.75c1.6-7.56,5-14.29,9.4-20.59c2.35-3.38,4.29-7.05,6.73-10.36
		c2.95-3.99,2.7-7.46,0.04-11.62C9.88,176.35,2.25,167.18,0,155.24z M292.49,311.19c0.01,0.36,0.03,0.72,0.04,1.08
		c3.87,0,7.74-0.07,11.61,0.02c5.73,0.12,8.37-2.42,8.13-8.11c-0.27-6.62-0.76-13.23-0.9-19.85c-0.34-15.84,6.48-27.63,20.45-35.17
		c5.71-3.08,11.54-5.95,17.28-8.97c5.3-2.79,6.27-6.31,3.12-11.33c-3.53-5.6-7.25-11.08-10.69-16.73
		c-8.17-13.41-8.16-26.91,0.02-40.32c3.38-5.54,7.01-10.93,10.49-16.42c3.39-5.36,2.41-8.88-3.28-11.85
		c-5.42-2.83-10.88-5.58-16.3-8.41c-14.67-7.65-21.6-19.82-21.06-36.28c0.2-6.12,0.56-12.23,0.85-18.35
		c0.32-6.64-2.15-9.07-8.9-8.75c-6.12,0.29-12.23,0.66-18.35,0.85c-16.29,0.49-28.39-6.38-36.04-20.86
		c-2.97-5.63-5.83-11.32-8.8-16.94c-2.77-5.25-6.29-6.17-11.35-2.98c-5.49,3.47-10.88,7.09-16.41,10.49
		c-13.51,8.31-27.11,8.35-40.64,0.07c-5.64-3.45-11.13-7.17-16.73-10.69c-4.84-3.05-8.41-2.09-11.09,2.98
		c-3.27,6.18-6.31,12.48-9.7,18.58c-5.88,10.59-14.78,17.56-26.88,18.7c-9.01,0.85-18.19-0.05-27.29-0.26
		c-5.94-0.14-8.57,2.38-8.31,8.29c0.28,6.49,0.74,12.98,0.89,19.47c0.37,15.99-6.5,27.87-20.62,35.46
		c-5.72,3.07-11.53,5.96-17.27,8.99c-5.08,2.67-6.07,6.23-3.05,11.05c3.52,5.6,7.23,11.09,10.69,16.73
		c8.29,13.53,8.26,27.13-0.03,40.65c-3.2,5.22-6.6,10.31-9.9,15.46c-4.11,6.42-3.25,9.44,3.65,13.03
		c6.09,3.17,12.29,6.14,18.22,9.58c9.98,5.79,16.49,14.49,17.62,25.97c0.86,8.76,0.07,17.69-0.18,26.54
		c-0.22,7.43,1.92,9.64,9.46,9.28c6.12-0.3,12.23-0.7,18.35-0.83c15.83-0.35,27.65,6.42,35.22,20.37c3.09,5.7,5.95,11.53,8.97,17.28
		c2.86,5.45,6.35,6.36,11.61,3.03c5.38-3.41,10.69-6.92,16.1-10.28c13.62-8.46,27.31-8.48,40.95-0.07
		c5.53,3.41,10.92,7.03,16.41,10.49c5.02,3.17,8.57,2.21,11.34-3.05c3.26-6.18,6.33-12.46,9.69-18.59
		c5.27-9.61,13.33-15.99,24.03-18.14C279.93,311.19,286.28,311.54,292.49,311.19z"/>
	<path class="st5" d="M257.69,102.74c-6.9,12.78-13.41,24.85-19.93,36.91c-25.17,46.56-50.37,93.11-75.45,139.72
		c-1.37,2.55-2.79,3.51-5.72,3.45c-9.84-0.21-19.69-0.08-30.07-0.08c0.71-1.48,1.19-2.58,1.75-3.63
		c31.22-57.77,62.46-115.52,93.61-173.33c1.24-2.3,2.55-3.15,5.16-3.11C237.01,102.83,246.99,102.74,257.69,102.74z"/>
	<path class="st5" d="M174.75,140.26c-0.01,24.76-20.34,45.02-45.12,44.98c-24.74-0.04-44.94-20.41-44.87-45.22
		c0.07-24.57,20.31-44.75,44.93-44.78C154.46,95.21,174.76,115.49,174.75,140.26z M129.72,125.25c-8.25,0.01-14.97,6.76-14.96,15.01
		c0.01,8.23,6.78,14.98,15.01,14.97c8.23-0.01,14.98-6.79,14.97-15.02C144.72,131.97,137.96,125.23,129.72,125.25z"/>
	<path class="st5" d="M253.5,200.24c24.77,0,45.03,20.3,45,45.09c-0.03,24.75-20.39,44.97-45.18,44.91
		c-24.57-0.07-44.78-20.32-44.81-44.91C208.47,220.55,228.74,200.24,253.5,200.24z M268.49,245.32c0.04-8.24-6.67-15.03-14.9-15.07
		c-8.25-0.04-15.03,6.66-15.07,14.9c-0.04,8.24,6.67,15.04,14.9,15.08C261.65,260.27,268.45,253.55,268.49,245.32z"/>
</g>
</svg>
