<?xml version="1.0" encoding="utf-8"?>
<!-- Generator: Adobe Illustrator 23.0.5, SVG Export Plug-In . SVG Version: 6.00 Build 0)  -->
<svg version="1.1" id="Layer_1" xmlns="http://www.w3.org/2000/svg" xmlns:xlink="http://www.w3.org/1999/xlink" x="0px" y="0px"
	 viewBox="0 0 59 74" style="enable-background:new 0 0 59 74;" xml:space="preserve">
<style type="text/css">
	.st0{fill:#0A5078;}
	.st1{fill:#F9B301;}
	.st2{fill:#00325A;}
	.st3{fill:#EFEFEF;}
	.st4{fill:#D1D1D1;}
	.st5{font-family:'Raleway-Bold';}
	.st6{font-size:10.8593px;}
</style>
<path class="st0" d="M45.9,50.3c0,6,0.1,11.9,0,17.9c0,2.7-2.4,4.8-5.2,4.8c-5.5,0-11,0-16.6,0c-4.6,0-9.2,0-13.8,0
	c-3.4,0-5.5-2.2-5.5-5.5c0-20.4,0-40.7,0-61.1c0-3.4,2.2-5.5,5.5-5.5c10,0,20.1,0,30.1,0c3.4,0,5.6,2.1,5.6,5.6c0,4.4,0,8.8,0,13.3
	c-0.9-0.2-1.7-0.4-2.6-0.7c0-2.5,0-5.1,0-7.6c0-1.8-1.1-2.8-2.8-2.8c-10.2,0-20.3,0-30.5,0c-1.7,0-2.8,1.1-2.8,2.7
	c0,17.1,0,34.2,0,51.3c0,1.7,0,3.4,0,5.1c0,1.6,1.1,2.7,2.7,2.7c10.2,0,20.5,0,30.7,0c1.6,0,2.7-1.1,2.7-2.7c0-1.7,0-3.4,0-5.1
	c0-3.9,0-7.8,0-11.7c0-0.1,0-0.1,0.1-0.2C44.2,50.9,45,50.4,45.9,50.3z M25.3,3.5c-1.2,0-2.5,0-3.7,0c-0.9,0-1.4,0.5-1.5,1.2
	c0,0.8,0.5,1.3,1.5,1.3c2.5,0,4.9,0,7.4,0c0.9,0,1.4-0.5,1.5-1.2c0-0.8-0.5-1.3-1.5-1.3C27.7,3.5,26.5,3.5,25.3,3.5z"/>
<path class="st1" d="M43.3,19.1c0.9,0.2,1.7,0.4,2.6,0.7c2.1,0.9,4.1,2,5.8,3.7c7.8,7.8,5.1,21.1-5.1,25.3c-0.2,0.1-0.4,0.2-0.6,0.3
	c-0.9,0.2-1.7,0.4-2.6,0.7c-0.2,0-0.5,0-0.7,0c-3.6,0.5-7-0.3-10-2.2c-4.7-3-7.1-7.5-7.3-13.1c0.1-0.9,0.1-1.7,0.2-2.6
	c0.5-2.1,1.2-4.1,2.4-6c1.2-1.7,2.7-3.2,4.4-4.4c1.8-1.2,3.8-1.9,6-2.4C39.9,18.9,41.6,18.9,43.3,19.1z"/>
<path class="st2" d="M43.3,49.7c0.9-0.2,1.7-0.4,2.6-0.7c0,0.4,0,0.9,0,1.3c-0.8,0.1-1.6,0.6-2.5,0.5C43.3,50.4,43.3,50,43.3,49.7z"
	/>
<path class="st3" d="M25.4,31.8c-0.1,0.9-0.1,1.7-0.2,2.6c-0.8,0-1.7,0-2.5,0c-1.6,0-2.6,1.1-2.6,2.6c0,0.8,0,1.7,0,2.5
	c0,1.3,0.8,2.4,2,2.5c1.3,0.2,2.6,0.2,3.8-0.1c0.4-0.1,0.6,0,0.8,0.4c0.9,1.7,2,3.2,3.4,4.6c2.9,2.7,6.3,4.1,10.3,4.2
	c1,0,1.9-0.2,2.9-0.2c0,3.9,0,7.8,0,11.7c-2.5,0-5,0-7.5,0c-9.5,0-19,0-28.6,0c0-17.1,0-34.2,0-51.3c0-1.7,1.1-2.7,2.8-2.7
	c10.2,0,20.3,0,30.5,0c1.7,0,2.8,1.1,2.8,2.8c0,2.5,0,5.1,0,7.6c-1.7-0.2-3.4-0.2-5.1,0c0-0.9,0-1.9,0-2.8c0-1.4-1.1-2.4-2.4-2.5
	c-0.9,0-1.9,0-2.8,0c-1.4,0-2.4,1.1-2.5,2.5c0,0.7,0,1.3,0,2c-0.1,1.5,0.5,2.5,1.8,3.2c-1.7,1.2-3.2,2.7-4.4,4.4
	c-0.7-1.3-1.7-1.9-3.2-1.8c-0.6,0.1-1.2,0-1.8,0c-1.6,0-2.6,1.1-2.6,2.6c0,0.8,0,1.6,0,2.4c0,1.6,1.1,2.7,2.7,2.7
	C23.7,31.8,24.6,31.8,25.4,31.8z M13.7,21.5c0.4,0,0.8,0,1.1,0c1.7,0,2.7-1.1,2.7-2.7c0-0.8,0-1.6,0-2.4c0-1.5-1.1-2.6-2.6-2.6
	c-0.8,0-1.7,0-2.5,0c-1.5,0-2.6,1.1-2.6,2.6c0,0.9,0,1.7,0,2.6c0,1.5,1.1,2.6,2.6,2.6C12.9,21.5,13.3,21.5,13.7,21.5z M23.9,21.5
	c0.5,0,0.9,0,1.2,0c1.7,0,2.7-1,2.7-2.8c0-0.8,0-1.6,0-2.3c0-1.6-1.1-2.6-2.6-2.6c-0.8,0-1.7,0-2.5,0c-1.5,0-2.6,1.1-2.6,2.6
	c0,0.9,0,1.7,0,2.6c0,1.2,0.7,2.1,1.9,2.4C22.6,21.6,23.3,21.4,23.9,21.5z M13.8,24.1c-0.5,0-0.9,0-1.2,0c-1.7,0-2.7,1-2.8,2.8
	c0,0.8,0,1.6,0,2.3c0,1.6,1.1,2.6,2.6,2.6c0.8,0,1.7,0,2.5,0c1.5,0,2.6-1.1,2.6-2.6c0-0.9,0-1.8,0-2.7c0-1.1-0.7-2-1.8-2.3
	C15.1,24,14.4,24.1,13.8,24.1z M13.8,34.4c-0.5,0-0.9,0-1.3,0c-1.6,0-2.7,1.1-2.7,2.7c0,0.8,0,1.7,0,2.5c0,1.5,1.1,2.5,2.5,2.6
	c0.9,0,1.8,0,2.7,0c1.4,0,2.5-1.1,2.5-2.5c0-0.9,0-1.8,0-2.7c0-1.1-0.7-2-1.8-2.4C15.1,34.3,14.4,34.4,13.8,34.4z M17.6,56.2
	c0-0.7-0.6-1.3-1.3-1.3c-0.8,0-1.3,0.6-1.3,1.3c0,0.7,0.6,1.3,1.3,1.3C17,57.6,17.6,57,17.6,56.2z M26.6,56.3c0-0.7-0.5-1.3-1.2-1.3
	c-0.8,0-1.3,0.5-1.3,1.3c0,0.7,0.5,1.3,1.2,1.3C26,57.6,26.6,57,26.6,56.3z M35.6,56.3c0-0.7-0.5-1.3-1.2-1.3
	c-0.8,0-1.3,0.5-1.3,1.3c0,0.7,0.5,1.3,1.2,1.3C35,57.6,35.6,57,35.6,56.3z"/>
<path class="st2" d="M7.3,62.7c9.5,0,19,0,28.6,0c2.5,0,5,0,7.5,0c0,1.7,0,3.4,0,5.1c0,1.6-1.1,2.7-2.7,2.7c-10.2,0-20.5,0-30.7,0
	c-1.6,0-2.7-1.1-2.7-2.7C7.3,66.1,7.3,64.4,7.3,62.7z M17.6,66.6c0-0.7-0.5-1.3-1.2-1.3c-0.7,0-1.3,0.5-1.3,1.2
	c0,0.7,0.5,1.3,1.3,1.4C16.9,67.9,17.5,67.3,17.6,66.6z M26.6,66.6c0-0.7-0.6-1.3-1.3-1.3c-0.7,0-1.3,0.6-1.3,1.3
	c0,0.7,0.6,1.3,1.3,1.2C26,67.8,26.6,67.2,26.6,66.6z M34.3,65.3c-0.7,0-1.3,0.6-1.3,1.3c0,0.7,0.6,1.3,1.3,1.3
	c0.7,0,1.3-0.6,1.3-1.3C35.5,65.8,35,65.3,34.3,65.3z"/>
<path class="st4" d="M43.3,51c-1,0-1.9,0.2-2.9,0.2c-3.9-0.2-7.4-1.5-10.3-4.2c-1.4-1.3-2.5-2.8-3.4-4.6c-0.2-0.4-0.4-0.4-0.8-0.4
	c-1.3,0.3-2.6,0.2-3.8,0.1c-1.3-0.2-2-1.2-2-2.5c0-0.8,0-1.7,0-2.5c0-1.6,1.1-2.6,2.6-2.6c0.8,0,1.7,0,2.5,0
	c0.2,5.6,2.5,10,7.3,13.1c3,2,6.4,2.7,10,2.2c0.2,0,0.5,0,0.7,0c0,0.4,0,0.8,0,1.1C43.3,50.8,43.3,50.9,43.3,51z"/>
<path class="st2" d="M25.3,3.5c1.2,0,2.5,0,3.7,0c0.9,0,1.5,0.5,1.5,1.3c0,0.8-0.5,1.2-1.5,1.2c-2.5,0-4.9,0-7.4,0
	c-0.9,0-1.5-0.5-1.5-1.3c0-0.8,0.5-1.2,1.5-1.2C22.8,3.5,24.1,3.5,25.3,3.5z"/>
<path class="st4" d="M32.2,21.5c-1.3-0.7-1.9-1.7-1.8-3.2c0.1-0.7,0-1.3,0-2c0-1.4,1.1-2.4,2.5-2.5c0.9,0,1.9,0,2.8,0
	c1.4,0,2.4,1.1,2.4,2.5c0,0.9,0,1.9,0,2.8C36,19.6,34,20.3,32.2,21.5z"/>
<path class="st4" d="M25.4,31.8c-0.9,0-1.8,0-2.7,0c-1.6,0-2.6-1.1-2.7-2.7c0-0.8,0-1.6,0-2.4c0-1.5,1.1-2.6,2.6-2.6
	c0.6,0,1.2,0,1.8,0c1.5-0.1,2.5,0.5,3.2,1.8C26.6,27.7,25.9,29.7,25.4,31.8z"/>
<path class="st4" d="M13.7,21.5c-0.4,0-0.9,0-1.3,0c-1.5,0-2.6-1.1-2.6-2.6c0-0.9,0-1.7,0-2.6c0-1.5,1.1-2.6,2.6-2.6
	c0.8,0,1.7,0,2.5,0c1.5,0,2.6,1.1,2.6,2.6c0,0.8,0,1.6,0,2.4c0,1.7-1,2.7-2.7,2.7C14.5,21.5,14.1,21.5,13.7,21.5z"/>
<path class="st4" d="M23.9,21.5c-0.6-0.1-1.2,0.1-1.9-0.1c-1.1-0.4-1.8-1.3-1.9-2.4c0-0.9,0-1.7,0-2.6c0-1.5,1.1-2.6,2.6-2.6
	c0.8,0,1.7,0,2.5,0c1.6,0,2.6,1.1,2.6,2.6c0,0.8,0,1.6,0,2.3c0,1.7-1,2.8-2.7,2.8C24.7,21.5,24.4,21.5,23.9,21.5z"/>
<path class="st4" d="M13.8,24.1c0.6,0.1,1.3-0.1,2,0.1c1,0.4,1.7,1.2,1.8,2.3c0,0.9,0,1.8,0,2.7c0,1.5-1.1,2.6-2.6,2.6
	c-0.8,0-1.7,0-2.5,0c-1.6,0-2.6-1.1-2.6-2.6c0-0.8,0-1.6,0-2.3c0-1.7,1-2.7,2.8-2.8C13,24.1,13.3,24.1,13.8,24.1z"/>
<path class="st4" d="M13.8,34.4c0.6,0.1,1.2-0.1,1.9,0.1c1.1,0.4,1.8,1.2,1.8,2.4c0,0.9,0,1.8,0,2.7c0,1.4-1.1,2.5-2.5,2.5
	c-0.9,0-1.8,0-2.7,0c-1.5,0-2.5-1.1-2.5-2.6c0-0.8,0-1.7,0-2.5c0-1.6,1.1-2.6,2.7-2.7C12.9,34.4,13.3,34.4,13.8,34.4z"/>
<path class="st4" d="M17.6,56.2c0,0.8-0.5,1.3-1.3,1.3c-0.7,0-1.3-0.5-1.3-1.3c0-0.8,0.5-1.3,1.3-1.3C17,55,17.5,55.5,17.6,56.2z"/>
<path class="st4" d="M26.6,56.3c0,0.7-0.6,1.3-1.3,1.3c-0.7,0-1.2-0.6-1.2-1.3c0-0.8,0.6-1.3,1.3-1.3C26.1,55,26.6,55.6,26.6,56.3z"
	/>
<path class="st4" d="M35.6,56.3c0,0.7-0.6,1.3-1.3,1.3c-0.7,0-1.2-0.6-1.2-1.3c0-0.8,0.6-1.3,1.3-1.3C35.1,55,35.6,55.6,35.6,56.3z"
	/>
<path class="st3" d="M17.6,66.6c0,0.7-0.6,1.3-1.3,1.2c-0.7,0-1.3-0.6-1.3-1.4c0-0.7,0.6-1.2,1.3-1.2C17,65.3,17.6,65.9,17.6,66.6z"
	/>
<path class="st3" d="M26.6,66.6c0,0.7-0.6,1.3-1.3,1.3c-0.7,0-1.3-0.5-1.3-1.2c0-0.7,0.6-1.3,1.3-1.3C26,65.3,26.6,65.9,26.6,66.6z"
	/>
<path class="st3" d="M34.3,65.3c0.7,0,1.3,0.5,1.3,1.2c0,0.7-0.6,1.3-1.3,1.3c-0.7,0-1.3-0.6-1.3-1.3C33,65.9,33.6,65.3,34.3,65.3z"
	/>
<text transform="matrix(1 0 0 1 29.9395 38.5352)" class="st5 st6">OTP</text>
</svg>
