<?xml version="1.0" encoding="utf-8"?>
<!-- Generator: Adobe Illustrator 23.0.5, SVG Export Plug-In . SVG Version: 6.00 Build 0)  -->
<svg version="1.1" id="Layer_1" xmlns="http://www.w3.org/2000/svg" xmlns:xlink="http://www.w3.org/1999/xlink" x="0px" y="0px"
	 viewBox="0 0 33 37" style="enable-background:new 0 0 33 37;" xml:space="preserve">
<style type="text/css">
	.st0{fill:#23153C;}
	.st1{fill:#FCAA2A;}
</style>
<path class="st0" d="M2.9,36c-0.6-0.3-0.7-0.7-0.7-1.4c0.1-6.1,4.8-11.5,10.7-12.5c0.7-0.1,1.5-0.2,2.3-0.2c1.3,0,2.7,0,4,0
	c5.1,0.2,8.9,2.6,11.3,7.1c1,1.7,1.4,3.6,1.5,5.6c0,0.6-0.2,1.1-0.7,1.3C21.8,36,12.3,36,2.9,36z M29.9,34c-0.1-0.5-0.2-1-0.2-1.4
	c-1-4.9-5.5-8.6-10.4-8.6c-1.5,0-3,0-4.5,0c-0.6,0-1.3,0.1-1.9,0.2c-4.2,1-7,3.6-8.3,7.8c-0.2,0.7-0.3,1.3-0.4,2
	C12.8,34,21.3,34,29.9,34z"/>
<path class="st1" d="M17.1,20c-4.9,0-8.9-4-8.9-9c0-4.9,4-8.9,8.9-8.9c4.9,0,8.9,4,8.9,8.9C26,16,22,20,17.1,20z M17,18
	c3.8,0,7-3.1,7-6.9c0-3.8-3.1-7-6.9-7c-3.8,0-7,3.1-7,6.9C10.1,14.9,13.2,18,17,18z"/>
</svg>
