<?xml version="1.0" encoding="utf-8"?>
<!-- Generator: Adobe Illustrator 23.0.5, SVG Export Plug-In . SVG Version: 6.00 Build 0)  -->
<svg version="1.1" id="Layer_1" xmlns="http://www.w3.org/2000/svg" xmlns:xlink="http://www.w3.org/1999/xlink" x="0px" y="0px"
	 viewBox="0 0 84 59" style="enable-background:new 0 0 84 59;" xml:space="preserve">
<style type="text/css">
	.st0{fill:#F36079;}
</style>
<path class="st0" d="M6.9,34.9c2.8-3.3,5.9-4.5,9.7-3.5c9.5,2.3,14.9,8.7,15.6,18.6c0.2,2.6-2,5.8-4.5,6.7c-1.4,0.5-2.4,0.1-3.1-1.2
	c-1.3-2.2-2.8-4.4-4-6.6c-1.4-2.4-3.5-3.4-6.2-3.3c-1.2,0.1-2.3,0.2-3.5,0.3c-5,0.4-7.4-2.8-5.9-7.6C5.5,36.9,6.3,35.7,6.9,34.9z
	 M12.7,42.6c3.6-0.6,6.2-3,9-5.1c0.5-0.3,0.9-1,0.6-1.6c-0.5-0.8-1.2-0.6-1.9-0.2C17.2,37.2,14.6,39.4,12.7,42.6z M9,42.6
	c2.8-2.5,5.2-4.6,7.5-6.7c0.2-0.2,0.4-0.3,0.6-0.5c0.4-0.4,0.8-0.7,0.5-1.3c-0.2-0.4-0.5-0.5-1.1-0.4C14.1,34.2,9.6,39.1,9,42.6z
	 M25.6,43.6c0.2-0.6,1.5-1.2,0.7-2.1c-0.8-0.8-1.6,0.3-2.2,0.7c-1.1,0.7-2.4,1.3-2.7,2.8c0,0.2,0.3,0.6,0.4,0.6
	C23.3,45.5,24.5,44.7,25.6,43.6z M18.7,42.5c2.9-0.1,4.7-1.3,5.8-3.9C22.1,39.4,20,40.2,18.7,42.5z M11.1,35.9
	c0.2-0.7,1.7-1.1,0.6-1.9c-0.9-0.6-1.6,0.4-2.2,1c-0.4,0.5-1.2,1.1-0.4,1.7C10.3,37.8,10.5,36.2,11.1,35.9z"/>
<path class="st0" d="M48.6,18.7c1.4-1.7,4-2.3,4.9-3.9c0.8-1.5-1.9-3.2-1.8-5.4c0.1-1.7-0.3-3.5,1.7-4.3c2-0.8,4.3-1.3,6.1,0.3
	c1.6,1.4,1.8,3.4,0.9,5.4c-0.2,0.4-0.3,0.8-0.6,1.2c-1.1,1.6-1.4,2.5,1.1,3.1c5.9,1.5,9.9,11.2,7.2,16.6c-0.9,1.8-3.3,2.7-5.5,1.9
	c-1.2-0.5-2.4-1.2-3.4-2c-1.9-1.4-3.9-2.1-6.2-2c-2.3,0-5,1-6.2-2.1C45.6,24.1,46.4,21.2,48.6,18.7z M51,26.5c0.8-0.3,1.8-2,2.1-1
	c0.5,1.5,1,1,1.7,0.6c1-0.5,1.8-1.4,3.2-1.3c-0.3,0.3-0.4,0.5-0.5,0.7c-0.4,0.6-1.9,0.8-1.2,1.7c0.6,0.9,1.4-0.5,2-0.5
	c0.8,0,2-2.7,2.4,0.3c0.1,0.5,0.8,0.3,1.1,0.1c1.1-0.5,2.3-1,3.3-1.6c0.5-0.3,1.3-0.8,1-1.4c-0.6-1-1.3-0.3-2,0.2
	c-0.4-0.2-0.7-0.3-1.1-0.5c0.8-0.8,2.1-1.2,2.4-2.6c0.2-0.7-0.1-0.8-0.6-0.5c-1,0.4-1.9,0.9-2.6,1.8c-0.3-0.2-0.5-0.4-0.8-0.6
	c0.3-0.2,0.6-0.5,0.8-0.7c0.5-0.7,2.2-1,1.5-2.1c-0.8-1.3-1.8-0.2-2.7,0.4c-0.5,0.3-1.3,0.3-1.2-0.4c0.5-2.4-0.7-1-1.3-0.6
	c-0.5,0.3-0.9,0.6-1.4,0c-0.2-0.3-0.1-0.7,0.3-0.9c0.5-0.2,1-0.5,0.4-1.1c-0.2-0.2-0.9-0.3-1.2-0.1c-3.7,2.1-6.3,5.1-8.4,9
	c1.8,0.4,2.2-1.3,3.7-1.7c-0.6,1-1.1,1.7-1.6,2.3C50.2,26.5,50.3,26.9,51,26.5z M68.2,27c-2.5,0.9-4.2,1.6-5.7,2.9
	c-0.4,0.3-0.7,0.6-0.5,1.1c0.2,0.5,0.6,0.5,1.1,0.4C65.2,30.8,66.7,29.5,68.2,27z M55.8,10.1c0.1-1.2,2.3-1.9,1.5-3.3
	c-0.4-0.7-1.5,0.3-1.8,0.8c-0.6,0.9-1.8,1.9-1,3.2C54.8,11.3,55.3,10.6,55.8,10.1z M60.6,27.6c-0.1-0.3-0.1-0.6-0.2-0.8
	c0-0.1-0.4,0-0.5,0c-0.1,0.2-0.1,0.4-0.2,0.7C60.1,27.5,60.3,27.6,60.6,27.6z"/>
<path class="st0" d="M19.8,16.7c2.5,2.2,3.2,7.2,1.3,10c-1.1,1.6-5.8,2.1-7.3,0.8c-3.2-2.9-2.7-8.8,0.9-11.1
	C16.5,15.2,18.1,15.3,19.8,16.7z M18.5,19.9c-2.6,0.8-3.5,1.7-3.9,4.1C16.5,23.3,18.2,22.3,18.5,19.9z"/>
<path class="st0" d="M32,30.8c-2,2.4-4.3,2.8-6.2,1.2c-2-1.7-2.8-7.4-1.3-9.1c1.2-1.4,6.5-1.5,8.1-0.2C34.3,24.2,34,28.5,32,30.8z"
	/>
<path class="st0" d="M33.1,38c-1.2-1.3-2.1-2.8-0.6-4.6c1.8-2.2,4.4-2.8,6.1-1.4c1.7,1.5,2,4.4,0.4,6.2C37.6,39.8,35.3,39.7,33.1,38
	z"/>
<path class="st0" d="M34.6,45.9c-0.6-0.6-1.5-1.3-0.2-2.6c2.3-2.4,4.2-2.9,6-1.4c1.6,1.3,1.9,4.2,0.6,5.5
	C39.6,48.8,37.4,48.4,34.6,45.9z"/>
<path class="st0" d="M68.6,14.3c-1.4,1.7-3,1.6-4.7,0.4c-1.4-1-1.3-4.2,0.2-5.7c1.4-1.5,3.1-1.2,4.6-0.2
	C70.2,9.8,70.1,12.6,68.6,14.3z"/>
<path class="st0" d="M68.7,20.4c-0.9-1-1.3-2.3,0-3.5c1.2-1,2.6-1.8,4-0.3c1.1,1.3,1.2,2.9-0.1,4.1C71.5,21.6,70.1,21.9,68.7,20.4z"
	/>
<path class="st0" d="M74.4,25.8c-0.7,0.7-1.5,0.7-2.2,0.2c-0.7-0.5-1-1.3-0.6-2.1c0.5-0.8,1.3-0.9,2.1-0.4
	C74.5,24,74.8,24.8,74.4,25.8z"/>
</svg>
