<?xml version="1.0" encoding="utf-8"?>
<!-- Generator: Adobe Illustrator 23.0.5, SVG Export Plug-In . SVG Version: 6.00 Build 0)  -->
<svg version="1.1" id="Layer_1" xmlns="http://www.w3.org/2000/svg" xmlns:xlink="http://www.w3.org/1999/xlink" x="0px" y="0px"
	 viewBox="0 0 23 38" style="enable-background:new 0 0 23 38;" xml:space="preserve">
<style type="text/css">
	.st0{fill:#23153C;}
	.st1{fill:#FCAA2A;}
</style>
<path class="st0" d="M18.8,1.5c0.5,0.2,1.1,0.4,1.6,0.7c1,0.7,1.5,1.8,1.5,3c0,2.9,0,5.9,0,8.8c0,6.4,0,12.8,0,19.1
	c0,1.3-0.4,2.3-1.4,3.1c-0.7,0.5-1.4,0.7-2.3,0.7c-3.7,0-7.4,0-11.1,0c-0.9,0-1.9,0-2.8,0c-2.1,0-3.6-1.5-3.7-3.6c0-0.3,0-0.6,0-0.9
	c0-9.1,0-18.1,0-27.2C0.6,4,1,3,2.1,2.2c0.5-0.3,1.1-0.5,1.6-0.7C8.7,1.5,13.8,1.5,18.8,1.5z M2.4,19.2c0,4.7,0,9.3,0,14
	c0,1.3,0.7,2,2,2c4.6,0,9.1,0,13.7,0c1.3,0,2-0.7,2-2c0-9.3,0-18.6,0-27.9c0-1.3-0.7-2-2-2c-4.6,0-9.2,0-13.8,0
	c-0.2,0-0.4,0-0.7,0.1C2.9,3.6,2.4,4.2,2.4,5.2C2.4,9.9,2.4,14.6,2.4,19.2z"/>
<path class="st1" d="M11.2,34c-1,0-1.8-0.8-1.8-1.8c0-1,0.8-1.8,1.8-1.8c1,0,1.8,0.8,1.8,1.8C13,33.2,12.2,34,11.2,34z"/>
<path class="st1" d="M12.7,6.2c-0.6,0-1.1,0-1.7,0c-0.6,0-1-0.4-1-0.9c0-0.5,0.4-0.9,1-0.9c1.1,0,2.3,0,3.4,0c0.6,0,1,0.4,1,0.9
	c0,0.5-0.4,0.9-1,0.9C13.9,6.2,13.3,6.2,12.7,6.2z"/>
<path class="st1" d="M8,6.2c-0.5,0-0.9-0.4-0.9-0.9c0-0.5,0.4-0.9,0.9-0.9c0.5,0,0.9,0.4,0.9,0.9C8.9,5.8,8.5,6.2,8,6.2z"/>
</svg>
