<?xml version="1.0" encoding="utf-8"?>
<!-- Generator: Adobe Illustrator 23.0.5, SVG Export Plug-In . SVG Version: 6.00 Build 0)  -->
<svg version="1.1" id="Layer_1" xmlns="http://www.w3.org/2000/svg" xmlns:xlink="http://www.w3.org/1999/xlink" x="0px" y="0px"
	 viewBox="0 0 33 26" style="enable-background:new 0 0 33 26;" xml:space="preserve">
<style type="text/css">
	.st0{fill:#FCAA2A;}
	.st1{fill:#23153C;}
</style>
<path class="st0" d="M0,3.3C0.1,2.6,0.3,2,0.7,1.5C1.5,0.6,2.5,0,3.7,0c8.2,0,16.5,0,24.7,0c2,0,3.7,1.7,3.7,3.7c0,1,0,1.9,0,2.9
	c0,0.2-0.1,0.4-0.2,0.5c-3.7,2.7-7.4,5.5-11.1,8.3c-0.8,0.6-1.6,1.2-2.4,1.8c-1.5,1.1-3.2,1.1-4.7,0c-4.5-3.3-9-6.7-13.5-10
	C0.1,7,0.1,6.9,0,6.9C0,5.7,0,4.5,0,3.3z M16,2.5c-4,0-8.1,0-12.1,0C3,2.5,2.5,3,2.5,3.9c0,0.5,0,0.9,0,1.4c0,0.2,0.1,0.3,0.2,0.4
	C6.9,8.9,11,11.9,15.2,15c0.6,0.5,1.1,0.5,1.7,0c4.2-3.1,8.3-6.2,12.5-9.3c0.1-0.1,0.2-0.2,0.2-0.4c0-0.5,0-1,0-1.4
	c0-0.9-0.5-1.4-1.4-1.4C24.1,2.5,20.1,2.5,16,2.5z"/>
<path class="st1" d="M0,10c0.6,0.4,1.2,0.9,1.9,1.3c0.5,0.3,0.7,0.7,0.7,1.3c0,3.2,0,6.3,0,9.5c0,0.9,0.5,1.4,1.4,1.4
	c8.1,0,16.2,0,24.2,0c0.9,0,1.4-0.5,1.4-1.4c0-3.3,0-6.6,0-10c0-0.2,0.1-0.4,0.3-0.5c0.7-0.5,1.5-1.1,2.2-1.6c0,0.1,0,0.2,0,0.3
	c0,4,0,8,0,12.1c0,2.1-1.7,3.7-3.7,3.7c-8.2,0-16.4,0-24.6,0c-1.8,0-3.3-1.3-3.7-3.1C0,23,0,22.9,0,22.8C0,18.6,0,14.3,0,10z"/>
</svg>
