<?xml version="1.0" encoding="utf-8"?>
<!-- Generator: Adobe Illustrator 23.0.5, SVG Export Plug-In . SVG Version: 6.00 Build 0)  -->
<svg version="1.1" id="Layer_1" xmlns="http://www.w3.org/2000/svg" xmlns:xlink="http://www.w3.org/1999/xlink" x="0px" y="0px"
	 viewBox="0 0 409.65 409.65" style="enable-background:new 0 0 409.65 409.65;" xml:space="preserve">
<style type="text/css">
	.st0{fill:#E6353F;}
	.st1{fill:#FE4A4A;}
	.st2{fill:#696969;}
	.st3{fill:#190835;}
	.st4{fill:#FAE1D9;}
	.st5{fill:#E39542;}
	.st6{fill:#E18424;}
	.st7{fill:#DCD9EA;}
	.st8{fill:#464146;}
	.st9{fill:#190A35;}
	.st10{fill:#FDA92C;}
	.st11{fill:#190835;stroke:#190835;stroke-width:5;stroke-miterlimit:10;}
	.st12{fill:#FDA92C;stroke:#FDA92C;stroke-width:4;stroke-miterlimit:10;}
	.st13{fill:#FDA92C;stroke:#FDA92C;stroke-miterlimit:10;}
	.st14{fill:#190835;stroke:#190835;stroke-width:2;stroke-miterlimit:10;}
	.st15{fill:#190835;stroke:#190835;stroke-width:3;stroke-miterlimit:10;}
	.st16{fill:#FFFFFF;}
</style>
<g>
	<path class="st16" d="M216.8,409.65c-8,0-16,0-24,0c-1.03-0.23-2.05-0.59-3.09-0.66c-25.13-1.65-49.24-7.65-71.78-18.76
		C55.11,359.27,16.67,309.36,3.23,240.49C1.71,232.7,1.06,224.74,0,216.85c0-8,0-16,0-24c0.23-1.15,0.6-2.29,0.68-3.45
		c1.99-28.58,9.4-55.75,23.42-80.68C61.82,41.64,119.35,5.11,196.23,0.38C233.02-1.89,268.23,6,300.5,23.97
		c67.4,37.54,103.98,95.21,108.77,172.24c2.3,36.94-5.84,72.17-23.7,104.66c-31.76,57.78-80.23,93.08-145.08,105.55
		C232.67,407.92,224.7,408.6,216.8,409.65z M204.8,40.96c-89.89,0-163.89,73.99-163.9,163.89c-0.01,89.89,73.99,163.89,163.89,163.9
		c89.89,0.01,163.89-73.99,163.9-163.89C368.7,114.96,294.7,40.96,204.8,40.96z"/>
	<path class="st16" d="M155.17,204.59c0-18.26-0.03-36.51,0.03-54.77c0.01-2.78,0.12-5.63,0.74-8.33
		c2.27-9.95,10.26-14.04,19.76-10.22c2.46,0.99,4.83,2.25,7.13,3.58c31.26,18.01,62.5,36.05,93.73,54.11
		c2.19,1.26,4.35,2.61,6.35,4.15c8.66,6.68,8.61,16.92-0.1,23.57c-1.9,1.45-3.94,2.74-6.01,3.94
		c-31.46,18.19-62.91,36.4-94.45,54.47c-3.3,1.89-6.96,3.4-10.64,4.29c-6.88,1.66-12.85-1.82-14.93-8.64
		c-1.03-3.38-1.51-7.04-1.53-10.58C155.1,241.63,155.17,223.11,155.17,204.59z"/>
</g>
</svg>
