<?xml version="1.0" encoding="utf-8"?>
<!-- Generator: Adobe Illustrator 23.0.5, SVG Export Plug-In . SVG Version: 6.00 Build 0)  -->
<svg version="1.1" id="Layer_1" xmlns="http://www.w3.org/2000/svg" xmlns:xlink="http://www.w3.org/1999/xlink" x="0px" y="0px"
	 viewBox="0 0 30 30" style="enable-background:new 0 0 30 30;" xml:space="preserve">
<style type="text/css">
	.st0{fill:#FFFFFF;}
</style>
<path class="st0" d="M1.1,12.4c0.1-0.4,0.4-0.6,0.8-0.8c2.8-1.1,5.6-2.2,8.4-3.4c0.4-0.1,0.7-0.1,1,0c1.7,0.7,3.4,1.3,5,2
	c0.5,0.2,0.8,0.6,0.6,1.1c-0.2,0.6-0.7,0.8-1.3,0.6c-1.2-0.5-2.5-1-3.7-1.5c-0.1,0-0.2-0.1-0.3-0.1c0,0.1,0,0.2,0,0.3
	c0,4.5,0,8.9,0,13.4c0,0.2,0.1,0.3,0.3,0.4c2.2,0.9,4.3,1.7,6.5,2.6c0.1,0,0.2,0.1,0.3,0.1c0-0.1,0-0.2,0-0.3c0-2.9,0-5.9,0-8.8
	c0-0.1,0-0.2,0-0.4c0.1-0.4,0.5-0.7,0.9-0.7c0.4,0,0.8,0.3,0.9,0.8c0,0.1,0,0.2,0,0.3c0,2.9,0,5.8,0,8.8c0,0.1,0,0.2,0,0.3
	c0.4-0.2,0.8-0.3,1.2-0.5c1.9-0.8,3.8-1.5,5.7-2.3c0.2-0.1,0.3-0.2,0.3-0.4c0-3.2,0-6.4,0-9.6c0-0.4,0.1-0.7,0.5-0.9
	c0.5-0.3,1.2,0.1,1.3,0.7c0,0.1,0,0.2,0,0.3c0,3.4,0,6.8,0,10.2c0,0.7-0.1,0.9-0.8,1.2c-2.8,1.1-5.7,2.3-8.5,3.4
	c-0.3,0.1-0.7,0.1-1,0c-2.7-1.1-5.4-2.2-8.1-3.2c-0.2-0.1-0.4-0.1-0.6,0c-2.7,1.1-5.3,2.1-8,3.2c-0.8,0.3-1.1,0.2-1.5-0.5
	C1.1,23.3,1.1,17.9,1.1,12.4z M2.8,27.2c0.1,0,0.2-0.1,0.3-0.1c2.2-0.9,4.4-1.7,6.6-2.6c0.2-0.1,0.3-0.2,0.3-0.4c0-4.5,0-9,0-13.5
	c0-0.1,0-0.2,0-0.3c-0.1,0-0.2,0.1-0.3,0.1c-2.2,0.9-4.4,1.7-6.5,2.6c-0.2,0.1-0.3,0.2-0.3,0.4c0,4.5,0,9,0,13.4
	C2.8,27,2.8,27.1,2.8,27.2z"/>
<path class="st0" d="M23.8,1.1c0.6,0.1,1.2,0.2,1.7,0.4c2.3,0.8,4,3.3,3.9,5.8c0,1-0.4,2-0.9,2.9c-1.1,2.1-2.5,4-4,5.8
	c-0.2,0.3-0.4,0.5-0.7,0.8c-0.4,0.4-1,0.4-1.4,0c-1.8-2-3.4-4.1-4.7-6.6c-0.4-0.8-0.7-1.6-0.8-2.5c-0.2-1.5,0.2-2.8,1.1-4
	c1.1-1.5,2.5-2.4,4.4-2.6c0.1,0,0.1,0,0.2-0.1C23.1,1.1,23.4,1.1,23.8,1.1z M23.2,14.8c1.5-1.9,3-3.7,4-5.9c0.3-0.6,0.5-1.2,0.5-1.8
	C27.6,6,27.2,5,26.5,4.2c-1.5-1.6-3.9-1.9-5.7-0.6c-1.4,1-2.6,3.2-1.4,5.5c0.8,1.4,1.6,2.8,2.6,4.1C22.3,13.7,22.8,14.2,23.2,14.8z"
	/>
<path class="st0" d="M23.2,9.9c-1.5,0-2.7-1.2-2.7-2.7c0-1.5,1.2-2.7,2.7-2.6c1.5,0,2.6,1.2,2.6,2.7C25.9,8.7,24.7,9.9,23.2,9.9z
	 M24.1,7.3c0-0.5-0.4-0.9-0.9-0.9c-0.5,0-0.9,0.4-0.9,0.9c0,0.5,0.4,0.9,0.9,0.9C23.7,8.1,24.1,7.7,24.1,7.3z"/>
</svg>
