<?xml version="1.0" encoding="utf-8"?>
<!-- Generator: Adobe Illustrator 23.0.5, SVG Export Plug-In . SVG Version: 6.00 Build 0)  -->
<svg version="1.1" id="Layer_1" xmlns="http://www.w3.org/2000/svg" xmlns:xlink="http://www.w3.org/1999/xlink" x="0px" y="0px"
	 viewBox="0 0 473.98 506.11" style="enable-background:new 0 0 473.98 506.11;" xml:space="preserve">
<style type="text/css">
	.st0{clip-path:url(#SVGID_2_);fill:#FCAA2A;}
	.st1{clip-path:url(#SVGID_2_);fill:#30363C;}
	.st2{fill:#30363C;}
	.st3{fill:#222222;}
	.st4{fill:#FFFFFF;}
	.st5{fill:#33363B;}
	.st6{fill:#2E2345;}
	.st7{fill:#FDA39A;}
	.st8{fill:#FFF2F1;}
</style>
<g>
	<g>
		<g>
			<path class="st6" d="M383.98,14.36c-2.49,3.05-4.74,6.33-7.49,9.12c-16.62,16.77-33.33,33.46-50.09,50.08
				c-1.89,1.88-2.51,3.32-1.55,6.07c4.44,12.8,1.88,24.37-7.17,34.39c-3.6,3.98-7.64,7.56-11.26,11.52
				c-1.04,1.14-1.81,2.97-1.85,4.51c-0.19,7.49-0.21,14.99-0.04,22.48c0.1,4.56-1.46,8.15-4.67,11.36
				c-40.77,40.68-81.49,81.41-122.22,122.13c-0.97,0.97-1.96,1.93-2.92,2.91c-5.28,5.41-5.5,11.04-0.66,16.97
				c5.64,6.92,2.99,16.29-5.31,18.55c-4.56,1.24-8.31-0.34-11.54-3.58c-6.79-6.82-13.6-13.61-20.41-20.4
				c-0.87-0.87-1.79-1.68-2.46-2.3c-19.74,19.75-39.32,39.33-59.5,59.52c1.88,1.63,4.06,3.31,6,5.24
				c8.29,8.23,6.88,16.28-3.62,21.18c-1.75,0-3.5,0-5.25,0c-2.89-2.3-6.03-4.34-8.63-6.93c-19.86-19.72-39.62-39.54-59.41-59.34
				c-3.23-3.23-4.77-6.98-3.49-11.55c1.22-4.37,4.13-7.03,8.52-8.04c3.99-0.91,7.46,0.34,10.28,3.13c2.56,2.54,4.87,5.34,7.1,7.82
				c20.17-20.18,39.75-39.77,59.62-59.66c-6.12-6.1-12.57-12.51-19.01-18.94c-1.68-1.68-3.44-3.29-4.97-5.09
				c-3.82-4.5-3.65-10.84,0.27-15.02c3.87-4.12,10.31-4.64,15.02-1.21c8.3,6.05,12.21,5.75,19.45-1.49
				c40.81-40.83,81.66-81.62,122.38-122.54c4-4.02,8.26-5.98,13.95-5.73c6.98,0.32,13.99,0.18,20.99-0.01
				c1.54-0.04,3.37-0.8,4.51-1.84c3.87-3.53,7.38-7.47,11.24-11.02c10.07-9.25,21.71-11.86,34.68-7.41c2.51,0.86,3.96,0.56,5.8-1.3
				c17.25-17.39,34.6-34.67,51.91-51.99c8.68-8.68,15.59-7.92,21.79,2.39C383.98,10.36,383.98,12.36,383.98,14.36z M276.79,154.49
				c4.21-2.6,5.61-5.69,5.28-10.04c-0.43-5.71,1.28-12.09-0.74-17.03c-1.97-4.81-7.47-8.17-11.45-12.15
				c-4.33-4.33-7.99-10.33-13.22-12.47c-5.37-2.2-12.29-0.52-18.52-0.74c-2.67-0.09-4.61,0.63-6.56,2.59
				c-31.64,31.79-63.37,63.5-95.08,95.23c-0.76,0.76-1.46,1.59-1.84,2c15.95,15.95,31.74,31.73,46.96,46.95
				c4.94-4.93,10.12-10.1,15.67-15.65c-2.06-1.91-4.51-4.04-6.8-6.34c-5.06-5.09-5.28-12.1-0.63-16.67
				c4.55-4.47,11.38-4.25,16.39,0.67c2.39,2.34,4.56,4.9,6.65,7.16c5.68-5.73,10.83-10.93,16.2-16.34c-2.15-2.1-4.71-4.49-7.14-7
				c-4.74-4.91-4.9-11.54-0.48-16.11c4.49-4.64,11.36-4.59,16.38,0.3c2.49,2.43,4.72,5.13,6.68,7.29
				c5.74-5.71,10.93-10.85,16.48-16.38c-2.28-2.17-4.88-4.49-7.3-6.99c-4.64-4.77-4.73-11.7-0.34-16.13
				c4.46-4.5,11.23-4.47,16.1,0.19C272.02,149.27,274.33,151.9,276.79,154.49z M58.57,340.06c19.52-19.5,39.16-39.13,58.62-58.57
				c-4.78-4.78-9.88-9.88-14.58-14.58C83.12,286.39,63.49,306.02,44,325.53C48.77,330.29,53.89,335.4,58.57,340.06z M102.11,232.91
				c16.33,16.33,32.89,32.89,49.08,49.08c4.58-5.2,9.42-10.68,14.1-15.99c-15.68-15.7-31.46-31.51-47.16-47.23
				C112.81,223.47,107.33,228.31,102.11,232.91z M277.74,90.17c5.56,5.6,10.71,10.78,16.05,16.16c2.38-2.42,5.09-4.99,7.57-7.77
				c4.22-4.73,4.06-11.25-0.2-15.55c-4.35-4.4-11.04-4.48-15.84-0.11C282.64,85.33,280.1,87.9,277.74,90.17z"/>
		</g>
	</g>
	<circle class="st7" cx="339.98" cy="372.11" r="134"/>
	<g>
		<path class="st8" d="M334.72,469.94c-8.31,0-16.62,0.17-24.93-0.03c-30.31-0.73-53.03-27.74-49.69-57.91
			c3.54-31.95,28.67-60.09,61.18-66.51c22.36-4.42,42.35,1.32,60.07,15.14c15.45,12.04,25.42,27.64,28.85,47.15
			c5.37,30.54-15,58.28-45.78,61.61c-9.81,1.06-19.79,0.6-29.69,0.84C334.73,470.13,334.72,470.04,334.72,469.94z M334.43,455.97
			c0-0.01,0-0.02,0-0.03c8.16,0,16.33,0.19,24.49-0.04c24.5-0.68,41.48-21.58,37.29-45.76c-3.16-18.23-13.06-32.01-28.29-42.06
			c-11.96-7.89-25.17-11.46-39.48-9.61c-28.35,3.68-50.31,25.68-54.24,54.02c-3.23,23.34,13.5,43.01,37.05,43.46
			C318.97,456.09,326.7,455.97,334.43,455.97z"/>
		<path class="st8" d="M323.55,334.7c-16.7,0.01-30.37-13.62-30.38-30.29c-0.01-16.68,13.6-30.35,30.29-30.4
			c16.61-0.05,30.37,13.68,30.4,30.33C353.9,321.01,340.25,334.69,323.55,334.7z M323.43,320.69c8.91,0.03,16.31-7.27,16.43-16.2
			c0.12-8.94-7.39-16.49-16.37-16.48c-8.88,0.02-16.3,7.44-16.31,16.33C307.17,313.24,314.54,320.66,323.43,320.69z"/>
		<path class="st8" d="M412.95,320.28c-0.03,14.06-11.55,25.58-25.63,25.64c-14.09,0.07-25.79-11.62-25.75-25.74
			c0.04-14.14,11.75-25.76,25.84-25.65C401.48,294.64,412.99,306.24,412.95,320.28z M398.94,320.21
			c-0.02-6.37-5.34-11.68-11.71-11.67c-6.37,0.01-11.67,5.33-11.65,11.71c0.01,6.4,5.31,11.68,11.69,11.66
			C393.67,331.88,398.96,326.58,398.94,320.21z"/>
		<path class="st8" d="M288.46,338.99c-0.04,14.16-11.44,25.53-25.6,25.54c-14.22,0-25.72-11.5-25.68-25.72
			c0.03-14.16,11.63-25.63,25.86-25.56C277.14,313.32,288.5,324.82,288.46,338.99z M274.46,338.91c0-6.5-5.18-11.68-11.66-11.66
			c-6.45,0.02-11.66,5.29-11.62,11.74c0.04,6.36,5.21,11.5,11.59,11.53C269.29,350.55,274.45,345.41,274.46,338.91z"/>
		<path class="st8" d="M421.93,341.25c11.54,0.05,20.92,9.54,20.86,21.11c-0.06,11.52-9.6,20.94-21.13,20.87
			c-11.51-0.07-20.92-9.6-20.86-21.14C400.86,350.57,410.35,341.2,421.93,341.25z M421.84,355.25c-3.78-0.02-6.99,3.1-7.04,6.87
			c-0.06,3.84,3.21,7.15,7.05,7.11c3.75-0.03,6.94-3.26,6.94-7.01C428.78,358.45,425.62,355.28,421.84,355.25z"/>
	</g>
</g>
</svg>
