<?xml version="1.0" encoding="utf-8"?>
<!-- Generator: Adobe Illustrator 23.0.5, SVG Export Plug-In . SVG Version: 6.00 Build 0)  -->
<svg version="1.1" id="Layer_1" xmlns="http://www.w3.org/2000/svg" xmlns:xlink="http://www.w3.org/1999/xlink" x="0px" y="0px"
	 viewBox="0 0 40 38" style="enable-background:new 0 0 40 38;" xml:space="preserve">
<style type="text/css">
	.st0{fill:#23153C;}
	.st1{fill:#FCAA2A;}
</style>
<path class="st0" d="M19.3,37c-1.5,0-2.9,0-4.4,0c-5.5-0.1-9.6-5-9-10.5c0.6-5.8,5.2-10.8,11-12c4.1-0.8,7.7,0.2,10.9,2.7
	c2.8,2.2,4.6,5,5.2,8.5c1,5.5-2.7,10.5-8.3,11.2c-0.5,0.1-1,0.1-1.6,0.1C21.8,37,20.6,37,19.3,37C19.3,37,19.3,37,19.3,37z
	 M19.3,34.5C19.3,34.5,19.3,34.5,19.3,34.5c1.5,0,2.9,0,4.4,0c4.4-0.1,7.5-3.9,6.7-8.3c-0.6-3.3-2.4-5.8-5.1-7.6
	c-2.2-1.4-4.5-2.1-7.1-1.7c-5.1,0.7-9.1,4.6-9.8,9.8c-0.6,4.2,2.4,7.8,6.7,7.8C16.5,34.5,17.9,34.5,19.3,34.5z"/>
<path class="st1" d="M17.3,12.6c-3,0-5.5-2.5-5.5-5.5c0-3,2.5-5.5,5.5-5.5c3,0,5.5,2.5,5.5,5.5C22.8,10.1,20.3,12.6,17.3,12.6z
	 M17.3,10c1.6,0,2.9-1.4,2.9-3c0-1.6-1.3-2.9-2.9-2.9c-1.6,0-3,1.4-3,3C14.4,8.7,15.7,10.1,17.3,10z"/>
<path class="st1" d="M33.5,10c0,2.5-2.1,4.6-4.6,4.6c-2.5,0-4.7-2.1-4.6-4.6c0-2.6,2.1-4.6,4.7-4.6C31.4,5.3,33.5,7.4,33.5,10z
	 M28.8,12.1c1.2,0,2.1-1,2.1-2.1c0-1.1-1-2.1-2.1-2.1c-1.1,0-2.1,1-2.1,2.1C26.7,11.1,27.7,12.1,28.8,12.1z"/>
<path class="st1" d="M11,13.4c0,2.6-2.1,4.6-4.6,4.6c-2.6,0-4.6-2.1-4.6-4.6c0-2.6,2.1-4.6,4.7-4.6C8.9,8.7,11,10.8,11,13.4z
	 M8.5,13.3c0-1.2-0.9-2.1-2.1-2.1c-1.2,0-2.1,1-2.1,2.1c0,1.1,0.9,2.1,2.1,2.1C7.5,15.4,8.5,14.5,8.5,13.3z"/>
<path class="st1" d="M35.1,13.8c2.1,0,3.8,1.7,3.8,3.8c0,2.1-1.7,3.8-3.8,3.8c-2.1,0-3.8-1.7-3.8-3.8C31.3,15.4,33,13.8,35.1,13.8z
	 M35,16.3c-0.7,0-1.3,0.6-1.3,1.2c0,0.7,0.6,1.3,1.2,1.3c0.7,0,1.3-0.6,1.3-1.3C36.3,16.9,35.7,16.3,35,16.3z"/>
</svg>
