<?xml version="1.0" encoding="utf-8"?>
<!-- Generator: Adobe Illustrator 23.0.5, SVG Export Plug-In . SVG Version: 6.00 Build 0)  -->
<svg version="1.1" id="Layer_1" xmlns="http://www.w3.org/2000/svg" xmlns:xlink="http://www.w3.org/1999/xlink" x="0px" y="0px"
	 viewBox="0 0 384.04 396.12" style="enable-background:new 0 0 384.04 396.12;" xml:space="preserve">
<style type="text/css">
	.st0{fill:#FFFAE7;}
	.st1{fill:#FEAB2B;}
	.st2{fill:#190A33;}
</style>
<g>
	<circle class="st0" cx="290.04" cy="311.12" r="85"/>
	<path class="st1" d="M384.04,306.12c-3.94,14.58-13.38,24.18-27.17,29.71c-2.76,1.11-5.74,2.29-8.63,2.31
		c-4.99,0.04-8.47,2.19-12.15,5.31c-10.75,9.12-23.39,13.66-37.55,13.75c-5.5,0.04-11.01-0.23-16.5,0.06
		c-9.38,0.5-17.59-1.66-24.1-10.07c-0.88,1.23-1.42,2.25-2.19,3.03c-8.08,8.11-20.55,9.29-29.86,2.86
		c-9.28-6.4-12.91-18.68-7.95-28.9c4.9-10.1,10.26-19.99,15.71-29.81c2.21-3.98,2.12-7.18-0.28-11.09
		c-7.68-12.53-10.02-26.2-7.72-40.69c0.19-1.2,0.33-2.41,0.48-3.54c-3.17-0.62-6.3-0.93-9.23-1.86c-9.38-3.01-15.42-9.4-18.11-18.87
		c-0.85-3-1.49-6.06-2.06-9.13c-1.41-7.57,2.73-14.85,10.12-17.04c4.59-1.36,7.36-3.95,9.37-8.28
		c5.71-12.31,15.32-20.28,28.61-23.16c6.64-1.44,13.62-2.97,20.26-2.36c14.2,1.3,24.21,10.86,27.72,24.68
		c0.95,3.75,1.81,7.54,2.4,11.35c1.14,7.34-1.1,13.81-6.02,20.1c5.76,6.61,11.3,13.5,17.47,19.77c2.51,2.55,6.19,4.34,9.67,5.47
		c33.14,10.84,50.14,46.9,37.7,79.18c-0.16,0.42-0.25,0.88-0.62,2.15c7.78-4.08,13.52-8.99,15.32-17.13
		c0.89-4.02,2.23-7.23,6.54-8.08c4.23-0.83,6.66,1.89,8.73,5.02C384.04,302.62,384.04,304.37,384.04,306.12z M284.01,309.97
		c5.55,0,10.53-0.05,15.52,0.01c5.27,0.07,8.83,3.29,8.68,7.75c-0.14,4.38-3.49,7.19-8.74,7.22c-7.37,0.04-14.75-0.11-22.11,0.08
		c-5.01,0.13-8.65,3.96-8.67,8.58c-0.02,4.82,3.74,8.52,8.98,8.57c7.62,0.08,15.25,0.18,22.86-0.06
		c26.45-0.84,47.13-27.04,41.87-53.03c-3.45-17.04-13.4-28.73-29.76-34.63c-9.57-3.45-17.5-8.91-23.73-16.93
		c-3.52-4.54-7.1-9.05-10.9-13.35c-0.94-1.07-2.9-1.89-4.31-1.79c-13.36,0.99-24-6.64-26.98-19.71c-1.85-8.12-3.57-16.27-5.42-24.72
		c-5.72,2.98-9.41,7.35-11.8,12.89c-2.68,6.22-6.87,10.96-13.1,13.77c-1.55,0.7-3.17,1.25-4.84,1.89c0.52,2.44,0.95,4.64,1.45,6.81
		c1.7,7.42,7.67,11.29,15.08,9.79c4.4-0.89,8.78-1.93,13.2-2.7c4.27-0.74,7.55,1.38,8.65,5.27c1.04,3.67-0.78,7.04-4.32,8.97
		c-1.43,0.78-2.96,2.25-3.45,3.74c-4.27,13.07-3.01,25.71,4.2,37.42c5.25,8.53,5.42,16.73,0.55,25.42
		c-5.12,9.15-9.89,18.48-14.74,27.78c-2.57,4.92-1.41,9.67,2.79,12.09c4.17,2.4,8.8,0.99,11.84-3.72
		c3.79-5.88,7.49-11.81,11.24-17.71c5.95-9.39,11.79-18.84,17.86-28.15c7.31-11.19,17.51-18.33,30.7-20.89
		c4.1-0.79,7.63,1.69,8.5,5.5c0.9,3.95-1.08,7.51-5,8.88c-1.06,0.37-2.18,0.53-3.25,0.88C295.16,289.66,287.73,297.52,284.01,309.97
		z M255.76,173.8c1.97,8.95,3.72,17.75,5.87,26.46c1.34,5.43,6.25,8.14,11.52,6.93c5.02-1.15,8.15-6.12,7.14-11.49
		c-0.58-3.06-1.26-6.11-2-9.14C275.79,176.34,266.42,170.89,255.76,173.8z"/>
	<path class="st2" d="M55.57,183.23c-1.52,17.99-3.02,35.78-4.52,53.58c-0.51,6.1-0.9,12.21-1.59,18.29
		c-0.22,1.92-1.05,3.84-1.89,5.62c-10.11,21.45-20.34,42.84-30.33,64.35c-1.19,2.56-1.77,5.77-1.49,8.56
		c0.45,4.42,4.15,7.65,8.53,8.27c4.49,0.63,8.14-1.05,10.6-4.86c1.28-1.98,2.1-4.24,3.23-6.33c2.2-4.1,6.26-5.55,10.07-3.69
		c3.68,1.8,5.13,5.77,3.54,9.85c-3.67,9.39-9.28,16.95-19.68,19.39c-10.15,2.37-18.95-0.46-25.63-8.39
		c-6.88-8.18-8.15-17.59-3.66-27.34c7.37-15.98,15.01-31.83,22.56-47.73c9.98-21.04,9.88-21.04,11.48-44.29
		c0.98-14.21,2.4-28.38,3.5-42.58c0.17-2.16-0.27-4.37-0.5-7.51c-2.06,1.45-3.03,2.15-4.02,2.83c-7.83,5.4-17.89,5.45-25.72,0.15
		c-7.75-5.26-11.85-14.83-9.26-23.93c5.5-19.32,11.28-38.56,17.4-57.69c1.15-3.59,3.93-7.01,6.77-9.63
		c8.63-7.96,17.42-15.79,26.63-23.07c5.69-4.5,12.24-7.92,18.6-11.94c-6.15-9.15-8.33-19.9-4.36-31.49
		c3.06-8.93,8.86-15.57,17.26-19.83c16.93-8.6,37.48-2.16,46.54,14.47c8.36,15.37,4.95,38.29-16.37,48.74
		c3,4.95,5.98,9.96,9.09,14.9c0.48,0.77,1.46,1.31,2.32,1.74c15.42,7.68,30.86,15.29,46.27,23c1.8,0.9,2.87,0.94,4.45-0.67
		c8.54-8.73,21.31-9.53,30.54-2.11c8.96,7.19,10.87,19.94,4.39,30.06c-3.23,5.05-6.59,10.02-10.02,14.94
		c-7.11,10.2-18.48,13.23-29.69,7.77c-13.35-6.5-26.61-13.19-39.92-19.79c-1.42-0.71-2.89-1.32-4.86-2.21
		c-0.08,1.78-0.18,3.1-0.19,4.41c-0.01,11.25,0.1,22.5-0.09,33.75c-0.04,2.49-1.28,4.94-1.71,7.45c-0.21,1.21-0.11,2.63,0.34,3.76
		c8.12,20.4,16.24,40.81,24.56,61.13c2.54,6.21,3.17,12.38,2.41,19.03c-2.55,22.34-4.85,44.71-7.1,67.08
		c-1.43,14.27-9.99,23.82-23.13,25.36c-15.93,1.87-29.96-11.77-28.33-27.73c2.21-21.62,4.61-43.22,6.88-64.84
		c0.13-1.19,0.14-2.56-0.31-3.62c-3.49-8.25-7.11-16.45-11.43-24.65c-0.45,4.98-0.94,9.95-1.35,14.93
		c-0.67,8.2-0.75,16.45-5.05,23.95c-2.76,4.81-6.46,6.75-10.63,4.79c-4.12-1.94-5.5-6.35-2.93-11.2c4.38-8.25,3.26-17.31,4.21-26.03
		c1.37-12.66,2.13-25.4,3.21-38.09c0.35-4.12,2.75-6.89,6.19-7.48c3.78-0.65,6.82,1.05,8.59,5.08
		c8.03,18.28,16.32,36.46,23.74,54.99c1.66,4.13,0.57,9.56,0.1,14.32c-1.95,19.51-4.17,39-6.24,58.5
		c-0.66,6.17,3.21,11.2,9.14,12.12c5.67,0.87,10.99-2.74,11.84-8.84c1.45-10.39,2.38-20.84,3.5-31.27
		c1.42-13.16,2.99-26.32,4.1-39.51c0.3-3.59-0.06-7.57-1.36-10.9c-8.47-21.74-17.28-43.34-25.97-65c-0.71-1.76-1.17-3.33-3.74-3.3
		c-16,0.13-32,0.08-48,0.1C56.7,182.91,56.34,183.06,55.57,183.23z M110.15,167.63c0.16-0.62,0.38-1.09,0.38-1.56
		c0.03-12.37,0.09-24.75-0.07-37.12c-0.01-1.09-1.31-2.59-2.4-3.16c-5.85-3.08-11.84-5.9-17.75-8.88c-4.88-2.46-6.6-6.6-4.55-10.67
		c2.03-4.03,6.36-5.12,11.26-2.72c8.41,4.11,16.78,8.29,25.17,12.44c18.12,8.96,36.24,17.93,54.37,26.87
		c4.57,2.25,7.97,1.96,10.43-1.41c3.9-5.34,7.59-10.85,11.08-16.47c2.17-3.49,0.94-7.75-2.31-9.9c-3.2-2.11-7.47-1.38-10.04,1.81
		c-1.17,1.46-2.11,3.1-3.23,4.6c-2.63,3.53-5.86,4.44-9.87,2.66c-2.85-1.26-5.62-2.72-8.41-4.1
		c-22.03-10.91-44.06-21.81-66.08-32.76c-5.94-2.95-7-7.45-3.16-12.78c0.19-0.26,0.22-0.62,0.63-1.83
		c-4.55-0.94-8.85-2.48-13.2-2.62c-16.5-0.55-29.37,12.35-29.53,29.61c-0.2,21.74-0.05,43.49-0.04,65.24c0,0.84,0.16,1.68,0.26,2.74
		C72.23,167.63,91.15,167.63,110.15,167.63z M98.91,15.04c-11.11-0.02-20.09,8.89-20.08,19.94c0.01,11.01,9.05,19.97,20.11,19.92
		c10.94-0.04,19.72-8.81,19.81-19.77C118.84,23.96,110.04,15.05,98.91,15.04z M37.64,99.64c-0.38-0.18-0.76-0.36-1.15-0.54
		c-1.64,2.46-3.97,4.71-4.82,7.42c-5.48,17.47-10.67,35.03-15.9,52.58c-1.6,5.37,0.27,9.43,4.83,10.87
		c4.43,1.39,8.19-1.17,10.06-6.43c5.35-15.05,8.64-30.37,7.22-46.48c-0.4-4.58-0.05-9.23-0.07-13.85
		C37.81,102,37.7,100.82,37.64,99.64z"/>
	<path class="st2" d="M59.44,310.62c-4.16,0.06-7.64-3.39-7.59-7.53c0.05-3.96,3.42-7.35,7.38-7.41c3.97-0.06,7.4,3.21,7.55,7.2
		C66.94,307.09,63.64,310.56,59.44,310.62z"/>
</g>
</svg>
