<?xml version="1.0" encoding="utf-8"?>
<!-- Generator: Adobe Illustrator 23.0.5, SVG Export Plug-In . SVG Version: 6.00 Build 0)  -->
<svg version="1.1" id="Layer_1" xmlns="http://www.w3.org/2000/svg" xmlns:xlink="http://www.w3.org/1999/xlink" x="0px" y="0px"
	 viewBox="0 0 408.5 384.62" style="enable-background:new 0 0 408.5 384.62;" xml:space="preserve">
<style type="text/css">
	.st0{fill:#FFF8E5;}
	.st1{fill:#170831;}
	.st2{fill:#FBAA27;}
</style>
<g>
	<circle class="st0" cx="303" cy="279.12" r="105.5"/>
	<g>
		<g>
			<path class="st1" d="M0,251.62c2.74-7.31,8.04-9.92,15.76-9.85c26.49,0.26,52.98,0.1,79.47,0.1c10.83,0,13.53,1.9,17.01,12.14
				c5.91,0.18,11.74,0.3,17.54-2.1c9.94-4.1,20.24-7.05,31.07-7.86c14.48-1.08,27.82,2.39,39.9,10.22
				c5.94,3.85,11.19,8.78,17.01,12.84c2.3,1.6,5.28,3.03,7.98,3.11c11.86,0.33,23.74,0.22,35.61,0.11c7.16-0.07,13.62,1.81,19,6.57
				c1.77,1.57,3,0.96,4.61,0.14c17.74-9.15,35.51-18.26,53.26-27.4c6.79-3.5,13.88-4.95,21.36-2.84c9.86,2.77,16.24,9.16,18.43,19.2
				c2.36,10.82-1.29,19.93-9.79,26.6c-9.32,7.32-19.2,13.93-28.86,20.82c-20.64,14.72-41.28,29.44-61.96,44.11
				c-10.08,7.15-20.7,13.58-33.48,13.46c-7.38-0.07-14.92-1.38-22.09-3.26c-30.28-7.92-60.41-16.47-90.72-24.3
				c-6.02-1.55-12.59-0.96-18.78-1.35c-2.65,10.89-6.15,13.61-16.9,13.61c-26.36,0-52.73-0.15-79.09,0.09
				c-7.71,0.07-13.35-2.27-16.33-9.66c0-5.25,0-10.5,0-15.75c2.86-4.69,5.77-6.23,9.65-5.13c3.58,1.02,5.33,4.04,5.35,9.23
				c0.01,1.95,0,3.91,0,5.88c13.72,0,26.98,0,40.15,0c0-27.99,0-55.64,0-83.27c-13.48,0-26.66,0-40.18,0c0,2.92,0.17,5.66-0.04,8.36
				c-0.42,5.46-5.9,8.8-10.54,6.28c-1.74-0.94-2.94-2.88-4.39-4.36C0,262.12,0,256.87,0,251.62z M111.87,327.43
				c4.86,0,9.34-0.11,13.82,0.04c2.6,0.09,5.27,0.3,7.77,0.97c24.6,6.52,49.17,13.14,73.75,19.76c6.5,1.75,13.08,3.32,19.45,5.48
				c14.94,5.05,28.08,1.75,40.58-7.25c29.69-21.39,59.59-42.5,89.39-63.74c6.74-4.8,8.8-11.08,5.57-16.63
				c-3.19-5.48-9.96-6.72-17.24-2.99c-17.67,9.03-35.29,18.16-52.97,27.16c-1.94,0.99-2.58,2.06-2.43,4.29
				c1.19,17.25-10.61,29.76-27.99,29.79c-20,0.03-39.99,0.01-59.99,0.01c-0.87,0-1.76,0.05-2.62-0.04
				c-4.29-0.43-7.15-3.62-7.02-7.76c0.12-3.98,3.01-6.86,7.21-7.15c1.12-0.08,2.25-0.04,3.37-0.04c19.62,0,39.24,0.01,58.86-0.01
				c8-0.01,13.4-4.85,13.41-11.97c0.01-7.14-5.34-11.95-13.38-11.96c-12.75-0.02-25.5-0.04-38.24,0c-5.24,0.02-9.8-1.52-13.58-5.26
				c-1.78-1.75-3.69-3.37-5.59-4.99c-7.48-6.38-15.59-11.7-25.16-14.39c-12.41-3.5-24.6-1.82-36.38,2.55
				c-9.68,3.59-19.29,6.85-29.8,6.01c-0.2-0.02-0.43,0.23-0.77,0.42C111.87,288.74,111.87,307.83,111.87,327.43z M96.57,257.08
				c-8.89,0-17.34,0-25.94,0c0,27.85,0,55.51,0,83.38c8.72,0,17.26,0,25.94,0C96.57,312.56,96.57,284.91,96.57,257.08z"/>
		</g>
		<path class="st1" d="M0,296.62c1.97-1.73,3.68-4.13,5.98-5.04c3.38-1.34,6.99,0.94,8.4,4.34c1.39,3.36,0.18,7.15-2.92,9.11
			c-3.13,1.98-6.93,1.47-9.46-1.31c-0.73-0.81-1.34-1.73-2-2.6C0,299.62,0,298.12,0,296.62z"/>
		<g>
			<path class="st2" d="M326.53,176.37c-0.01,8.92-1.99,17.35-5.97,25.3c-11.46,22.94-33.91,31.41-57.66,21.72
				c-2.65-1.08-5.28-2.28-7.8-3.62c-7.42-3.96-14.76-3.92-22.2-0.01c-6.89,3.62-14.06,6.41-21.9,7.23
				c-16.6,1.74-29.54-4.57-39.15-17.89c-17.31-24.01-12.58-59.13,10.53-76.22c13.75-10.17,26.81-21.28,40.11-32.04
				c14.01-11.34,28.19-11.63,42.3-0.48c14.31,11.31,28.52,22.75,42.7,34.21C320.77,145.31,326.2,159.7,326.53,176.37z
				 M311.51,176.02c-0.05-12.89-4.77-22.8-14.8-30.88c-13.71-11.04-27.46-22.05-41.2-33.05c-8.36-6.69-14.78-6.66-23.24,0.12
				c-13.54,10.85-26.72,22.2-40.7,32.46c-17.6,12.93-20.31,40.95-5.67,58.1c6.04,7.07,13.69,10.66,22.89,9.14
				c5.56-0.92,11.22-2.65,16.24-5.18c12.69-6.39,25.04-6.66,37.63-0.01c3.07,1.62,6.32,3.02,9.64,4.02
				c13.97,4.23,25.41-0.22,33.1-12.66C309.59,191.33,311.57,183.96,311.51,176.02z"/>
		</g>
		<g>
			<path class="st2" d="M317.58,41.4c-0.11,11.44-2.92,22.03-10.39,30.96c-11.89,14.23-30.57,14.13-42.42-0.13
				c-13.86-16.67-13.71-45.48,0.33-61.91c11.75-13.75,30.38-13.73,41.98,0.15C314.54,19.4,317.44,29.95,317.58,41.4z M302.59,41.45
				c-0.13-7.53-1.77-14.62-6.5-20.66c-6.04-7.71-14-7.69-20.06-0.07c-8.61,10.83-8.69,30.51-0.16,41.36
				c6.27,7.97,14.47,7.91,20.52-0.23C300.87,55.81,302.51,48.85,302.59,41.45z"/>
		</g>
		<g>
			<path class="st2" d="M233.44,42.55c-0.2,11.27-3.3,22.4-11.84,31.4c-11.62,12.23-28.12,12.05-39.66-0.23
				c-15.32-16.3-15.45-47.76-0.27-64.14c12.1-13.05,29.68-12.75,41.2,0.84C230.49,19.41,233.38,30.09,233.44,42.55z M218.41,41.44
				c-0.02-8.47-2.69-16.52-7.17-21.54c-5.86-6.58-13.2-6.48-18.9,0.24c-9.15,10.8-9.33,31.24-0.37,42.23
				c6.16,7.56,14.15,7.52,20.06-0.24C216.67,56.05,218.43,48.99,218.41,41.44z"/>
		</g>
		<g>
			<path class="st2" d="M104.05,89.26c-0.08-13.99,7.16-24.32,19.05-26.96c5.52-1.22,10.89-0.44,16.12,1.67
				c17.11,6.89,29.64,28.53,26.79,46.37c-3.05,19.03-19.96,27.67-37.26,19.02C114.43,122.21,104.15,105.51,104.05,89.26z
				 M151.37,105.94c-0.04-11.93-8.3-24.49-18.14-28.24c-7.48-2.85-13.48,0.76-13.96,8.77c-0.74,12.44,4.6,21.97,14.88,28.72
				c3.65,2.4,7.84,3.68,12.04,1.43C150.64,114.24,151.04,109.72,151.37,105.94z"/>
		</g>
		<g>
			<path class="st2" d="M321.75,104.9c1.14-17.07,8.39-30.73,23.48-39.28c17.58-9.96,35.55-0.9,38.51,19.01
				c2.76,18.55-11.69,41.45-29.58,46.86c-16.22,4.9-31.14-5.43-32.4-22.47C321.66,107.66,321.75,106.28,321.75,104.9z
				 M336.71,103.07c-0.09,7.75,1.57,11.89,5.05,13.59c4.58,2.24,8.86,0.72,12.69-1.87c9.31-6.3,14.38-15.19,14.41-26.45
				c0.03-10.4-7.45-14.67-16.45-9.47C342.47,84.6,337.59,93.63,336.71,103.07z"/>
		</g>
	</g>
</g>
</svg>
