<?xml version="1.0" encoding="utf-8"?>
<!-- Generator: Adobe Illustrator 23.0.5, SVG Export Plug-In . SVG Version: 6.00 Build 0)  -->
<svg version="1.1" id="Layer_1" xmlns="http://www.w3.org/2000/svg" xmlns:xlink="http://www.w3.org/1999/xlink" x="0px" y="0px"
	 viewBox="0 0 435.3 422.05" style="enable-background:new 0 0 435.3 422.05;" xml:space="preserve">
<style type="text/css">
	.st0{fill:#FFF9E7;}
	.st1{fill:#180934;}
	.st2{fill:#FCA929;}
</style>
<g>
	<circle class="st0" cx="323.8" cy="310.55" r="111.5"/>
	<g>
		<path class="st1" d="M146.3,384.05c-6.43-0.74-12.88-1.34-19.29-2.25c-20.54-2.95-39.98-8.87-56.53-22.01
			c-18.13-14.39-27.42-33.56-29.94-56.29c-1.4-12.63-0.75-25.19,1.39-37.7c0.14-0.85,0.1-1.73,0.16-2.82
			c-2.36-0.5-4.66-0.94-6.93-1.48c-21.71-5.21-43.89-28.37-31.68-61.9c8.8-24.16,24.21-43.79,43.21-60.72
			c7.83-6.98,16.88-11.96,27.19-14.42c11.26-2.69,22.03-1.66,32.33,3.87c1.02,0.55,2.98,0.49,3.92-0.15
			c27.43-18.77,75.64-18.8,103.14-0.65c0.9,0.59,2.71,0.81,3.58,0.31c14.77-8.46,29.68-7.48,44.51-0.5
			c4.93,2.32,9.77,5.2,13.93,8.68c19.05,15.96,33.96,35.16,43.74,58.12c3.81,8.95,6.03,18.34,4.71,28.13
			c-2.64,19.66-17.92,35.12-37.97,38.77c-1.2,0.22-2.38,0.49-3.26,0.67c0.68,9.38,1.71,18.43,1.93,27.5
			c0.54,22.45-4.85,43.12-19.87,60.46c-13.62,15.72-31.39,24.53-51.29,28.99c-10.43,2.34-21.19,3.2-31.8,4.74
			c-1.22,0.18-2.43,0.44-3.65,0.66C167.3,384.05,156.8,384.05,146.3,384.05z M173.58,361.32c19.21-0.85,37.8-3.2,55.01-11.88
			c17.39-8.77,28.27-22.64,31.86-41.9c3.1-16.63,2.19-33.22-2.77-49.29c-4.96-16.07-10.81-31.89-16.67-47.67
			c-4.21-11.32-8.45-22.71-13.79-33.52c-11.57-23.42-29.71-38.21-56.7-40.15c-19.09-1.38-37.2,1.21-52.7,13.62
			c-11.41,9.14-19.26,21.1-24.51,34.45c-8.81,22.39-16.99,45.04-24.96,67.74c-5.57,15.87-7.3,32.36-5.32,49.13
			c2.3,19.53,11.24,34.98,28.42,45.13c18.19,10.75,38.39,13.28,59.07,14.36c0.16-0.71,0.35-1.18,0.35-1.65
			c0.02-15,0.08-29.99-0.09-44.98c-0.01-1.15-1.45-2.7-2.62-3.37c-8.73-4.96-15.52-11.74-19.82-20.84
			c-7.81-16.52,0.43-33.75,18.22-37.75c10.48-2.36,21.13-2.33,31.6,0.06c16.83,3.85,25.07,19.89,18.62,35.93
			c-3.98,9.89-10.98,17.23-20.26,22.27c-2.48,1.35-3.22,2.77-3.19,5.48c0.14,13.62,0.06,27.24,0.07,40.86
			C173.4,358.58,173.51,359.8,173.58,361.32z M233.51,145.02c0.31,0.7,0.39,1.08,0.61,1.35c10.97,13.57,18.21,29.13,24.14,45.37
			c5.48,14.99,10.81,30.02,16.33,44.99c0.4,1.09,1.85,2.57,2.79,2.56c15.91-0.21,26.62-13.71,23.71-27
			c-2.52-11.49-8.05-21.44-14.71-30.84c-8.39-11.86-17.46-23.18-29.82-31.23C249.68,145.74,242.21,143.26,233.51,145.02z
			 M90.14,146.58c-0.67-0.44-0.86-0.63-1.09-0.69c-0.48-0.13-0.97-0.23-1.46-0.27c-8.85-0.63-16.54,2.59-23.18,7.94
			c-17.41,14.02-30.85,31.24-39.07,52.1c-1.94,4.92-2.83,10.81-2.26,16.04c1.15,10.61,12.73,19.33,23.7,18.87
			c0.91-0.04,2.18-1.37,2.57-2.37c2.45-6.27,4.73-12.6,7.02-18.93C65.47,194.12,72.71,168.1,90.14,146.58z M162.32,273.51
			c-3.53,0.36-7.18,0.43-10.66,1.23c-1.42,0.33-3.38,2.12-3.53,3.43c-0.54,4.79,9.11,14.31,14.05,14.29c0.6,0,1.25-0.15,1.8-0.38
			c5.52-2.33,9.54-6.28,11.9-11.74c1.38-3.19,0.35-5.05-3.11-5.68C169.37,274.05,165.88,273.88,162.32,273.51z"/>
	</g>
	<g>
		<path class="st2" d="M161.38,12.66c6.11-3.74,11.42-8.13,17.52-10.5c14.41-5.61,30.58,0.11,39.22,12.89
			c8.56,12.67,7.75,30-2.74,41.26c-9.87,10.59-20.12,20.87-30.75,30.7c-12.67,11.73-32.39,11.61-45.04-0.19
			c-10.41-9.7-20.52-19.76-30.23-30.16c-12.38-13.27-11.75-33.61,0.86-46.42c12.71-12.92,33.05-13.62,46.79-1.61
			C158.79,10.18,160.48,11.82,161.38,12.66z M162.19,73.94c2.94-1.53,6.11-2.41,8.2-4.41c9.3-8.88,18.37-18,27.36-27.2
			c4.86-4.97,4.8-11.93,0.25-16.44c-4.65-4.61-11.63-4.43-16.74,0.52c-3.59,3.48-7.05,7.08-10.63,10.56
			c-5.28,5.13-11.65,5.12-16.95-0.03c-3.67-3.57-7.2-7.28-10.9-10.82c-4.8-4.6-11.69-4.74-16.18-0.45
			c-4.7,4.5-4.94,11.55-0.18,16.41c9.17,9.36,18.43,18.65,27.89,27.72C156.25,71.65,159.21,72.41,162.19,73.94z"/>
	</g>
	<path class="st1" d="M203.32,211.48c0,2.87,0.09,5.74-0.02,8.6c-0.23,6.21-4.95,10.89-10.97,11c-5.99,0.1-11.14-4.44-11.41-10.56
		c-0.27-5.97-0.23-11.97-0.02-17.95c0.22-6.33,5.38-10.98,11.55-10.8c6.05,0.18,10.66,4.84,10.86,11.1
		C203.4,205.74,203.32,208.61,203.32,211.48z"/>
	<path class="st1" d="M120.78,211.33c0-2.87-0.08-5.74,0.02-8.6c0.23-6.17,4.99-10.86,11.01-10.95c6.04-0.09,11.1,4.41,11.37,10.58
		c0.26,5.97,0.24,11.97,0.01,17.95c-0.24,6.32-5.42,10.95-11.58,10.77c-6-0.18-10.64-4.91-10.82-11.15
		C120.71,217.06,120.78,214.19,120.78,211.33z"/>
</g>
</svg>
