<?xml version="1.0" encoding="utf-8"?>
<!-- Generator: Adobe Illustrator 23.0.5, SVG Export Plug-In . SVG Version: 6.00 Build 0)  -->
<svg version="1.1" id="Layer_1" xmlns="http://www.w3.org/2000/svg" xmlns:xlink="http://www.w3.org/1999/xlink" x="0px" y="0px"
	 viewBox="0 0 394.25 360.07" style="enable-background:new 0 0 394.25 360.07;" xml:space="preserve">
<style type="text/css">
	.st0{fill:#FFF9E7;}
	.st1{fill:#190834;}
	.st2{fill:#FCAA2A;}
	.st3{fill:#FFFFFF;}
</style>
<g>
	<circle class="st0" cx="305.25" cy="270.02" r="89"/>
	<path class="st1" d="M60.01,114c-2.08,0-3.58,0.07-5.08-0.01c-7.16-0.38-12.66-5.9-12.89-13.09c-0.15-4.62-0.05-9.25-0.04-13.87
		c0.03-9.49,5.36-14.9,14.78-15c0.87-0.01,1.74,0,2.92,0c0-4.02,0-7.94,0-11.88c-13.75-5.71-18.88-12.7-17.33-23.94
		c3.68,0,7.38,0,10.09,0c1.96,3.68,3.05,7.62,5.61,9.92c2.07,1.86,5.92,1.74,8.58,2.4c0-12.47,0-24.22,0-36.23
		c-4.64,0-8.43,0-12.5,0c0,3.73,0,7.43,0,11.44c-4.06,0-7.85,0-12.02,0c0-6.24-0.35-12.58,0.13-18.87c0.28-3.61,3.36-4.86,6.92-4.85
		c15.12,0.05,30.25,0.02,45.37,0.02c7.25,0,14.5-0.01,21.75,0c8.47,0.02,14.78,3.74,19.21,10.95c0.82,1.33,2.33,2.57,3.79,3.1
		c6.68,2.42,13.49,4.49,20.2,6.85c9.1,3.19,14.36,10.61,14.48,20.17c0.04,3.62,0.02,7.25,0.01,10.87c-0.02,5.26-0.82,6.41-5.88,8.35
		c0,3.68,0,7.41,0,11.71c1.47,0,2.91-0.03,4.34,0.01c7.75,0.22,13.36,5.83,13.51,13.63c0.09,4.62,0.05,9.25,0.02,13.87
		c-0.07,8.89-5.58,14.35-14.57,14.48c-0.98,0.01-1.97,0-3.43,0c0,2.79-0.04,5.37,0.01,7.95c0.22,12.91-5.46,22.23-16.98,28.05
		c-5.88,2.97-5.86,3.03-3.99,9.26c2.15,7.17,4.2,14.37,6.59,21.47c0.5,1.49,2.01,3.05,3.45,3.72c4.14,1.93,8.49,3.42,13.03,5.19
		c-1.44,3.78-2.76,7.23-4.22,11.05c-2.97-1.07-5.75-2.06-8.85-3.18c-0.36,1.17-0.71,2.29-1.05,3.41c-2.59,8.65-10.38,14.9-19.42,15
		c-15,0.17-30,0.16-45,0.01c-9.22-0.1-17-6.37-19.59-15.27c-0.28-0.95-0.54-1.91-0.93-3.26c-8.94,3.45-17.72,6.85-26.51,10.23
		c-5.47,2.1-10.97,4.13-16.43,6.27c-10.23,4.01-16.07,12.46-16.08,23.42c-0.03,33.37-0.02,66.75,0,100.12
		c0,6.65,3.36,10.49,9.5,10.51c24.25,0.07,48.5,0.03,72.74,0.02c0.47,0,0.94-0.12,1.57-0.2c0-9.85,0-19.55,0-29.78
		c-1.33,0-2.65,0-3.96,0c-14,0-28,0.01-42-0.01c-5.86-0.01-7.85-2-7.85-7.89c-0.02-13.22,0-26.45,0-39.89c3.99,0,7.69,0,11.81,0
		c0,11.69,0,23.48,0,35.78c1.73,0,3.05,0,4.37,0c24.25,0,48.5-0.07,72.74,0.06c4.8,0.03,9.59,0.86,14.91,1.37
		c-1.32,4.47-2.4,8.12-3.31,11.19c-11.63,0-22.81,0-34.26,0c0,9.37,0,19.15,0,29.23c7.73,0,15.43,0,23.43,0c0,4.06,0,7.85,0,12.15
		c-1.24,0-2.56,0-3.88,0c-35,0-70,0.01-104.99,0c-14.19-0.01-22.82-8.68-22.82-22.94C0,304.21,0,271.33,0.01,238.46
		c0.01-17.34,8.52-29.78,24.68-36.03c15.24-5.9,30.48-11.79,45.77-17.56c2.33-0.88,3.59-2.12,4.26-4.57
		c2.2-7.93,4.55-15.83,7.1-23.66c0.86-2.64,0.63-4.17-2.13-5.15c-1.75-0.62-3.41-1.55-5.02-2.5c-9.36-5.5-14.28-13.69-14.64-24.55
		C59.92,121.11,60.01,117.76,60.01,114z M156,60.31c-28.29,0-56.06,0-83.96,0c0,21.77-0.13,43.25,0.08,64.73
		c0.06,6.53,3.77,11.21,9.59,14.13c9.03,4.53,18.09,9.01,27.1,13.59c3.52,1.79,6.85,1.78,10.36-0.04c8.97-4.64,18-9.18,27.02-13.74
		c6.71-3.38,9.87-8.83,9.83-16.31c-0.05-10.24-0.01-20.49-0.01-30.74C156,81.46,156,70.99,156,60.31z M134.09,157.85
		c-13.45,10.85-26.77,10.54-40.25,0.12c-3.72,12.57-7.39,24.06-10.44,35.71c-1.39,5.33,2.98,10.23,8.63,10.28
		c14.6,0.14,29.2,0.14,43.79,0.01c5.98-0.05,10.27-5.24,8.72-10.89C141.43,181.69,137.85,170.42,134.09,157.85z M78.02,12.09
		c0,9.27-0.07,18,0.03,26.73c0.05,4.7,3.04,8.6,7.43,8.95c5.4,0.43,10.86,0.1,16.48,0.1c0-9.42,0.15-18.51-0.07-27.59
		c-0.1-4.34-3.6-7.88-7.9-8.12C88.8,11.88,83.58,12.09,78.02,12.09z M126,47.85c0-8.39,0.01-16.48,0-24.57
		c-0.01-8.79-4.62-12.49-12.55-11c0,11.92,0,23.66,0,35.57C118.09,47.85,121.79,47.85,126,47.85z M138.21,26.42
		c0,7.44,0,14.37,0,21.38c7.98,0,15.75,0,23.77,0c0-2.57,0.1-4.92-0.02-7.26c-0.21-3.84-2.11-6.71-5.71-8.03
		C150.43,30.37,144.5,28.52,138.21,26.42z M59.85,84.24c-5.84-0.46-5.84-0.46-5.84,4.78c0,2.62,0,5.25,0,7.87
		c0,5.54,0.1,5.62,5.84,4.71C59.85,95.92,59.85,90.22,59.85,84.24z M168.18,101.88c5.83,0.28,5.83,0.28,5.83-5.04
		c0-2.62,0-5.25,0-7.87c0-5.34-0.45-5.67-5.83-4.41C168.18,90.26,168.18,95.96,168.18,101.88z"/>
	<path class="st1" d="M270.09,246.02c0-4.18,0-7.79,0-11.81c16.09,0,32.14,0,48.67,0c-0.86-6.31-1.63-12.18-2.47-18.04
		c-1.35-9.39-2.76-18.78-4.1-28.17c-0.74-5.2,1.87-8.03,7.21-7.94c21.23,0.36,40.06,18.19,40.4,39.62
		c0.52,33.12,0.57,66.25,0.01,99.37c-0.37,22.03-19.63,40.74-41.62,40.85c-55.75,0.28-111.5,0.12-167.25,0.1
		c-4.67,0-6.94-2.26-6.9-6.93c0.05-5.99-0.28-12.07,0.68-17.93c2.17-13.25,13.7-22.78,27.09-23.08c5.49-0.12,10.98-0.02,16.86-0.02
		c1.67-7.88,3.32-15.63,5.06-23.8c-1.44-0.08-2.61-0.21-3.78-0.21c-9.5-0.02-19,0.03-28.5-0.02c-17.06-0.08-29.33-12.3-29.44-29.29
		c-0.02-3.62,0.14-7.26-0.04-10.87c-0.2-3.86,1.32-6.33,4.85-7.98c5.99-2.8,11.93-5.73,17.73-8.91c1.95-1.07,3.82-2.8,4.98-4.69
		c5.93-9.69,11.63-19.52,17.37-29.33c4.22-7.2,10.5-10.82,18.8-10.9c7.62-0.07,15.26-0.22,22.87,0.03
		c12.26,0.41,21.29,6.22,26.03,17.57c4.61,11.05,8.68,22.33,12.6,33.64c0.69,1.99,0.23,5.13-0.96,6.89
		c-6.73,9.93-13.71,19.68-20.85,29.32c-7.17,9.69-17.15,14.16-29.35,14.67c-1.65,7.8-3.3,15.58-5.04,23.79c7.03,0,13.83,0,20.81,0
		c0,4.09,0,7.79,0,12.07c-1.26,0-2.57,0-3.88,0c-14.5,0-29-0.01-43.5,0c-11.75,0.01-18.39,6.61-18.41,18.29c0,1.73,0,3.47,0,5.45
		c26.01,0,51.8,0,78.2,0c0-3.64-0.4-7.28,0.07-10.8c1.96-14.65,13.75-24.8,28.65-24.94c4.23-0.04,8.45-0.01,12.66-0.01
		c0.51-3.23,0.72-6.22,1.48-9.06c3.23-12.07,14.18-20.63,26.7-20.9c6.6-0.14,13.2-0.02,20.01-0.02c0,3.98,0,7.68,0,11.98
		c-4.83,0-9.77-0.06-14.71,0.02c-2.86,0.05-5.8-0.03-8.55,0.6c-7.31,1.68-12.23,7.92-12.5,15.39c-0.08,2.25,0,4.5-0.03,6.75
		c-0.08,5.08-2.22,7.2-7.39,7.23c-5.62,0.04-11.25-0.01-16.87,0.01c-10.92,0.04-17.68,6.86-17.73,17.86c-0.01,1.87,0,3.73,0,6.14
		c1.49,0,2.8,0,4.12,0c21.5,0,43,0.01,64.5,0c19.99-0.02,33.35-13.38,33.38-33.38c0.02-12,0.04-24-0.01-36
		c-0.07-19.01-13.63-32.55-32.65-32.6c-13.62-0.04-27.25-0.01-40.87-0.01C273.12,246.02,271.77,246.02,270.09,246.02z M234.71,211
		c-0.24,0.05-0.47,0.11-0.71,0.16c0,6.37,0.04,12.74-0.01,19.11c-0.09,12.38-9.16,21.74-21.01,21.73
		c-11.84-0.01-20.91-9.38-20.97-21.76c-0.05-9.5,0-19-0.02-28.49c0-0.9-0.19-1.81-0.42-3.84c-1.99,2.39-3.53,3.84-4.59,5.58
		c-3.9,6.4-7.29,13.13-11.52,19.29c-5.55,8.09-8.31,16.51-7.66,26.53c0.62,9.7-6.49,17.73-15.92,20.06
		c-1.12,0.28-2.24,0.57-3.81,0.97c3.83,3.93,7.91,5.67,12.77,5.67c15.12,0,30.24,0.04,45.37-0.01c8.14-0.03,14.84-3.27,19.68-9.83
		c6.15-8.35,12.12-16.83,18.08-25.3c0.56-0.79,1.02-2.15,0.73-2.95C241.46,228.91,238.06,219.96,234.71,211z M347.9,246.26
		c0-8.78,0.39-17.89-0.11-26.95c-0.47-8.47-4.43-15.61-11.27-20.74c-3.17-2.38-6.94-3.97-11.12-6.3c0,1.73-0.06,2.21,0.01,2.67
		c1.84,13.22,3.66,26.45,5.62,39.65c0.15,0.98,1.18,2.09,2.1,2.67C337.94,240.3,342.85,243.2,347.9,246.26z M204.08,198.09
		c0,11.57-0.18,22.79,0.09,33.99c0.11,4.58,4.41,7.96,8.92,7.92c4.35-0.04,8.6-3.31,8.72-7.72c0.29-11.2,0.1-22.41,0.1-33.71
		c-0.83-0.2-1.42-0.45-2.01-0.46C214.79,198.07,209.68,198.09,204.08,198.09z M144.32,257.88c9.07,0.43,13.25-4.77,11.14-13.59
		C143.89,248.61,143.35,249.26,144.32,257.88z"/>
	<path class="st2" d="M248.66,105.31c1.73-1.64,2.87-2.77,4.06-3.85c8.51-7.71,21.09-7.49,29.09,0.51c8.02,8,8.37,20.57,0.55,29.06
		c-4.9,5.32-10.18,10.3-15.29,15.42c-4.23,4.24-8.45,8.5-12.72,12.7c-3.92,3.86-6.76,3.91-10.59,0.1
		c-9.03-8.98-18.06-17.95-27-27.01c-8.81-8.92-9.04-21.68-0.68-30.15c8.34-8.45,21.2-8.33,30.17,0.3
		C247.06,103.16,247.69,104.12,248.66,105.31z M249,146.96c8.31-8.17,16.78-16.23,24.92-24.62c3.28-3.38,2.69-8.59-0.57-11.86
		c-3.17-3.19-8.32-3.58-11.9-0.59c-2.67,2.23-5.01,4.85-7.54,7.26c-3.39,3.22-6.4,3.22-9.78,0c-2.53-2.41-4.85-5.05-7.53-7.27
		c-3.59-2.98-8.69-2.58-11.91,0.61c-3.26,3.23-3.86,8.48-0.59,11.86C232.23,130.72,240.7,138.79,249,146.96z"/>
	<path class="st2" d="M305.24,28.69c4.95-3.88,10.18-5.67,16.26-4.07c12.37,3.26,17.34,18.15,8.84,27.7
		c-6.55,7.36-13.78,14.13-20.85,21.02c-2.8,2.74-5.97,2.49-8.95-0.44c-6.5-6.4-12.98-12.82-19.35-19.35
		c-6.57-6.74-6.93-16.55-1.05-23.45c5.91-6.93,15.5-8.04,23.33-2.69C303.98,27.75,304.48,28.13,305.24,28.69z M305.19,60.25
		c5.42-5.29,10.85-10.39,16.03-15.73c2.12-2.19,1.83-4.89-0.38-7c-2.22-2.12-4.72-2.06-7.05-0.08c-1.42,1.21-2.64,2.64-4.04,3.89
		c-3.08,2.74-5.91,2.75-8.96,0.03c-1.39-1.24-2.62-2.67-4.04-3.88c-2.33-1.99-4.82-2.05-7.04,0.09c-2.21,2.12-2.5,4.8-0.38,7
		C294.49,49.91,299.89,55.03,305.19,60.25z"/>
	<path class="st1" d="M96.22,121.52c3.49,0,6.72-0.11,9.94,0.06c0.97,0.05,1.96,0.76,2.83,1.35c2.71,1.82,5.94,2.59,8.42,0.73
		c3.49-2.62,7.17-2.04,10.9-2.14c1.11-0.03,2.22,0,3.31,0c0.42,7.95-6.87,14.48-16.35,14.97
		C104.12,137.07,95.76,129.54,96.22,121.52z"/>
	<path class="st1" d="M95.76,95.94c-3.94,0-7.54,0-11.45,0c0-3.8,0-7.59,0-11.65c3.65,0,7.43,0,11.45,0
		C95.76,88.04,95.76,91.82,95.76,95.94z"/>
	<path class="st1" d="M143.93,84.26c0,3.94,0,7.54,0,11.45c-3.8,0-7.59,0-11.65,0c0-3.65,0-7.43,0-11.45
		C136.03,84.26,139.81,84.26,143.93,84.26z"/>
</g>
</svg>
