<?xml version="1.0" encoding="utf-8"?>
<!-- Generator: Adobe Illustrator 23.0.5, SVG Export Plug-In . SVG Version: 6.00 Build 0)  -->
<svg version="1.1" id="Layer_1" xmlns="http://www.w3.org/2000/svg" xmlns:xlink="http://www.w3.org/1999/xlink" x="0px" y="0px"
	 viewBox="0 0 424.5 325.46" style="enable-background:new 0 0 424.5 325.46;" xml:space="preserve">
<style type="text/css">
	.st0{fill:#FFFAE7;}
	.st1{fill:#180932;}
	.st2{fill:#FAB649;}
</style>
<g>
	<circle class="st0" cx="329" cy="229.96" r="95.5"/>
	<g>
		<path class="st1" d="M0,95.21C2.18,84,7.56,74.49,15.3,66.2c1.79-1.92,3.43-3.97,5.19-5.92C35.4,43.76,51.99,29.26,71.41,18.2
			C92.13,6.41,114.32,0.25,138.23,0.01c27.82-0.28,54.81,3.44,80.13,15.65c5.5,2.65,10.74,5.85,15.93,9.06
			c1.26,0.78,2.41,2.52,2.69,4c2.24,11.75,4.26,23.54,6.42,35.71c1.49,0,2.83,0,4.17,0c18.87,0,37.75-0.02,56.62,0.01
			c20.9,0.03,35.49,14.43,35.37,35.31c-0.06,10.84,0.38,21.89-1.49,32.48c-4.49,25.46-27.6,44.24-53.44,44.65
			c-11.1,0.17-22.2,0.03-34.16,0.03c4.9,5.85,10.14,10.13,15.86,13.81c5.65,3.63,11.49,6.96,17.24,10.41
			c-9.27,20.66-32.42,40.46-70.62,30.52c-1.44,5.36-2.92,10.73-4.33,16.11c-4.59,17.5-9.2,35-13.66,52.53
			c-0.69,2.71-1.8,3.76-4.72,3.85c-34.04,1.05-67.7-0.97-100.17-12.39c-26.1-9.17-48.41-23.64-64.09-47.02
			c-7.96-11.88-13.42-24.8-14.94-39.14c-0.23-2.17,0.26-4.77,1.31-6.67c8.36-15.07,16.93-30.01,25.43-45
			c0.61-1.07,1.16-2.18,1.88-3.52c-4.38-2.41-8.57-4.84-12.87-7.05c-14.52-7.45-23.54-18.95-26.26-35.2
			c-0.06-0.34-0.35-0.63-0.54-0.95C0,103.21,0,99.21,0,95.21z M315.12,131.94c-2.36,0-4.22-0.09-6.07,0.01
			c-21.75,1.25-38.34-15.77-36.94-36.79c0.18-2.67,0.02-5.37,0.02-8.42c-16.3,0-31.99,0-47.67,0c-2.6-14.75-5.22-29.12-7.6-43.53
			c-0.42-2.54-1.52-3.92-3.69-5.07c-13.04-6.91-26.91-11.3-41.47-13.4c-7.98-1.15-16.04-1.71-24.25-2.55
			c-0.21,1.45-0.31,2.16-0.42,2.88c-2.54,16.52-4.23,33.22-7.81,49.5c-5.4,24.56-14.65,47.74-30.03,67.99
			c-11.64,15.33-27.16,21.37-46.16,18.04c-2.26-0.4-3.34,0.24-4.42,2.16c-7.81,13.94-15.78,27.79-23.54,41.76
			c-0.74,1.33-0.93,3.34-0.59,4.85c1.97,8.75,5.82,16.71,10.94,24.04c13.08,18.7,31.53,29.87,52.6,37.24
			c24.47,8.55,49.88,10.99,75.6,11.32c2.44,0.03,3.11-0.97,3.65-3.1c4.09-15.95,8.32-31.87,12.51-47.79
			c2.63-9.98,5.26-19.96,7.99-30.34c16.83,7.57,33.2,16.76,52.51,6.4c-17.51-13.45-31.6-28.17-26.76-52.69c1.22,0,2.57,0,3.91,0
			c18,0,35.99,0.03,53.99-0.03c2.86-0.01,5.78-0.14,8.56-0.74C302.1,151.05,310.3,143.81,315.12,131.94z M124.92,24.01
			c-0.4-0.44-0.81-0.88-1.21-1.32c-8.8,2.64-17.88,4.61-26.37,8.03C67.94,42.56,45.64,63.47,26.71,88.17
			c-8.1,10.58-4.66,26.09,6.84,33.03c9.29,5.6,18.87,10.76,28.58,15.6c10.02,4.99,21.69,1.93,28.52-7.02
			c2.72-3.57,5.26-7.3,7.55-11.16c11.87-20.03,18.46-41.94,22.47-64.69C122.43,44.02,123.52,33.98,124.92,24.01z M294.85,87.02
			c-1.99,21.44,4.5,23.87,22.19,21.93c0-3.93,0.28-7.93-0.07-11.87c-0.47-5.32-4.54-9.55-9.62-9.99
			C303.29,86.74,299.17,87.02,294.85,87.02z"/>
		<path class="st2" d="M350.48,169.02c11.06,0,21.98,0,33.21,0c0,7.24,0,14.5,0,22.03c-10.95,0-21.96,0-33.21,0
			C350.48,183.77,350.48,176.5,350.48,169.02z"/>
		<path class="st2" d="M304.93,269.92c-7.32,0-14.5,0-21.93,0c0-11.12,0-22.13,0-33.38c7.25,0,14.43,0,21.93,0
			C304.93,247.48,304.93,258.48,304.93,269.92z"/>
		<path class="st2" d="M349.61,250.63c-7.61-7.59-15.36-15.33-22.95-22.89c4.87-4.86,9.98-9.95,14.79-14.75
			c7.52,7.53,15.32,15.35,22.89,22.92C359.69,240.56,354.53,245.72,349.61,250.63z"/>
		<path class="st1" d="M196.3,64.73c0,7.4,0,14.57,0,21.98c-7.42,0-14.69,0-22.15,0c0-7.32,0-14.51,0-21.98
			C181.39,64.73,188.66,64.73,196.3,64.73z"/>
	</g>
</g>
</svg>
