<?xml version="1.0" encoding="utf-8"?>
<!-- Generator: Adobe Illustrator 23.0.5, SVG Export Plug-In . SVG Version: 6.00 Build 0)  -->
<svg version="1.1" id="Layer_1" xmlns="http://www.w3.org/2000/svg" xmlns:xlink="http://www.w3.org/1999/xlink" x="0px" y="0px"
	 viewBox="0 0 383.94 384" style="enable-background:new 0 0 383.94 384;" xml:space="preserve">
<style type="text/css">
	.st0{fill:#FFF9E7;}
	.st1{fill:#190A33;}
	.st2{fill:#FDAA2A;}
</style>
<g>
	<circle class="st0" cx="277.61" cy="277.75" r="98.5"/>
	<g>
		<path class="st1" d="M8.36,384c-6.49-2.99-8.51-8.13-8.36-15.11c0.34-15.49,0-30.99,0.2-46.49c0.04-3,0.83-6.2,2.09-8.93
			c3.54-7.71,7.58-15.18,11.22-22.85c0.92-1.94,1.49-4.24,1.52-6.39c0.16-10.12,0.36-20.26,0-30.37
			c-0.58-16.11,4.11-30.02,16.24-41.41c-0.59-0.97-1.1-1.92-1.72-2.8c-7.55-10.88-15.19-21.69-22.65-32.63
			c-4.81-7.06-1.5-15.96,6.53-17.71c5.23-1.14,9.23,1.02,12.22,5.32c7.84,11.28,15.78,22.5,23.49,33.87
			c1.66,2.45,3.18,2.85,6.06,2.49c19.45-2.42,38.94-4.55,58.43-6.76c12.41-1.4,24.82-2.81,37.24-4.1c2.26-0.23,3.48-1.16,4.43-3.22
			c4.55-9.85,9.21-19.66,13.97-29.42c1.03-2.12,1.06-3.77-0.02-5.91c-5.79-11.47-11.42-23.03-17.08-34.57
			c-4.97-10.14-0.01-18.02,11.35-18.02c16.25-0.01,32.5-0.14,48.74,0.12c3.06,0.05,6.38,1.18,9.06,2.72
			c5.51,3.17,10.59,7.06,16,10.43c1.58,0.98,3.65,1.64,5.5,1.65c14.62,0.13,29.24,0.07,43.87,0.08c9.24,0,13.4,4.22,13.41,13.57
			c0.01,11.12,0.05,22.25-0.01,33.37c-0.08,14.96-6.28,26.76-18.62,35.22c-7,4.81-14.08,9.5-21.21,14.11
			c-1.87,1.21-2.34,2.27-1.72,4.54c4.65,16.89,3.43,33.37-4,49.29c-0.82,1.76-0.62,2.83,0.73,4.2c4.3,4.36,8.52,8.8,12.66,13.31
			c10.07,10.93,12.24,25.74,5.23,38.89c-10.22,19.16-20.69,38.19-31.35,57.12c-1.47,2.6-4.6,4.27-6.95,6.37c-2,0-4,0-6,0
			c-13.31-7.31-26.62-14.63-39.94-21.92c-8.11-4.44-9.79-10.11-5.32-18.31c6.08-11.16,12.19-22.31,18.25-33.4
			c-5.04-6.42-5.04-6.42-12.06-3.42c-27.95,11.98-57.11,16.68-87.39,14.21c-8.3-0.68-16.56-1.84-24.99-2.8
			c-1.98,3.94-3.9,8-6.05,11.93c-1.07,1.95-0.95,3.23,0.73,4.83c5.89,5.63,9.45,12.57,10.26,20.68c0.43,4.33-0.05,8.75,0.31,13.09
			c0.58,6.98-1.84,12.1-8.3,15.1C52.36,384,30.36,384,8.36,384z M227.21,357.39c0.72-1.16,1.27-1.96,1.74-2.82
			c7.87-14.33,15.74-28.66,23.57-43.02c3.45-6.33,2.82-10.59-2.23-15.92c-5.59-5.9-11.18-11.78-16.79-17.66
			c-6.45-6.76-6.83-10.36-2.09-18.25c8.79-14.64,9.77-29.85,3.03-45.53c-3.32-7.71-2.06-12.27,4.93-16.94
			c9.65-6.46,19.29-12.93,28.98-19.33c4.71-3.11,8.48-7.22,8.79-12.85c0.52-9.41,0.14-18.87,0.14-28.56
			c-12.86,0-25.58-0.09-38.31,0.05c-4.05,0.04-7.56-0.91-10.87-3.25c-5-3.53-10.15-6.84-15.25-10.21c-0.92-0.61-1.95-1.49-2.94-1.5
			c-9.94-0.11-19.88-0.07-30.27-0.07c0.72,1.58,1.2,2.7,1.73,3.8c3.8,7.73,7.58,15.46,11.42,23.17c1.77,3.55,2.27,7.12,0.53,10.8
			c-7.17,15.1-14.36,30.2-21.55,45.29c-1.99,4.19-5.32,6.42-9.93,6.93c-33.26,3.69-66.52,7.43-99.78,11.13
			c-14.81,1.64-24.39,12.24-24.43,27.21c-0.04,12.75,0.12,25.49-0.1,38.24c-0.05,3-0.83,6.2-2.09,8.93
			c-3.59,7.82-7.67,15.42-11.39,23.18c-0.83,1.72-1.34,3.77-1.37,5.67c-0.13,10.62-0.07,21.24-0.05,31.86c0,1.2,0.11,2.39,0.16,3.46
			c12.66,0,24.94,0,37.22,0c0.42-4.18-0.97-7.38-3.69-10.08c-2.39-2.38-4.8-4.75-7.15-7.17c-4.47-4.61-5.22-8.92-2.39-14.65
			c4.64-9.4,9.27-18.8,14.14-28.09c1.11-2.12,2.79-4.39,4.81-5.51c11.35-6.28,16.93-15.68,17.01-28.67
			c0.04-5.91,5.29-10.5,11.1-10.52c5.97-0.03,10.98,4.69,11.24,10.8c0.11,2.48-0.09,4.99-0.34,7.47c-0.81,8.2-3.76,15.69-8.08,22.71
			c0.55,0.34,0.84,0.67,1.16,0.7c4.23,0.35,8.46,0.81,12.7,0.96c28.66,1.04,55.79-4.92,81.37-17.95c6.99-3.56,10.95-2.8,16.37,2.87
			c4.58,4.79,9.13,9.59,13.69,14.4c6.15,6.49,6.6,10.09,2.24,18.05c-5.44,9.94-10.89,19.88-16.5,30.11
			C214.21,350.24,220.52,353.71,227.21,357.39z"/>
		<path class="st2" d="M383.57,50.93c-0.32,2.4-0.83,4.82-1.57,7.22c-7.53,24.6-34.54,37.64-58.56,28.93
			c-18.6-6.74-30.66-25.51-29.24-45.5c1.7-23.86,22.92-41.11,46.33-40.96C367.23,0.8,386.93,25.34,383.57,50.93z M361.6,44.88
			c-0.05-12.33-10.17-22.38-22.51-22.37c-12.35,0.01-22.43,10.07-22.47,22.41c-0.03,12.49,10.2,22.66,22.69,22.57
			C351.62,67.39,361.65,57.21,361.6,44.88z"/>
		<path class="st1" d="M270.86,0c0.5,0.32,0.97,0.68,1.49,0.95c5.08,2.64,7.67,7.65,6.5,12.61c-1.28,5.4-5.61,8.87-11.43,8.91
			c-9.11,0.07-18.22,0.02-27.34,0.02c-17.6,0-35.2,0.01-52.8,0c-7.08,0-11.56-3.11-12.93-8.93c-1.25-5.32,1.43-9.92,7.56-13.02
			c0.19-0.1,0.3-0.36,0.45-0.55C211.86,0,241.36,0,270.86,0z"/>
		<path class="st1" d="M207.46,67.5c-14.36,0-28.71,0.01-43.07,0c-7.61-0.01-12.72-4.52-12.77-11.18
			c-0.04-6.67,5.09-11.3,12.63-11.31c29.09-0.01,58.17-0.01,87.26,0c7.53,0,12.66,4.68,12.58,11.36
			c-0.08,6.55-5.13,11.11-12.45,11.12C236.92,67.52,222.19,67.5,207.46,67.5z"/>
	</g>
</g>
</svg>
