<?xml version="1.0" encoding="utf-8"?>
<!-- Generator: Adobe Illustrator 23.0.5, SVG Export Plug-In . SVG Version: 6.00 Build 0)  -->
<svg version="1.1" id="Layer_1" xmlns="http://www.w3.org/2000/svg" xmlns:xlink="http://www.w3.org/1999/xlink" x="0px" y="0px"
	 viewBox="0 0 639.6 641" style="enable-background:new 0 0 639.6 641;" xml:space="preserve">
<style type="text/css">
	.st0{fill:#FFF9E7;}
	.st1{fill:#180932;}
	.st2{clip-path:url(#SVGID_2_);fill:#FDAB2D;}
</style>
<g>
	<circle class="st0" cx="442.6" cy="515" r="126"/>
	<g>
		<g>
			<path class="st1" d="M173.4,519.7c11-0.8,20.9,0.2,28.3,8.8c4.3,5,6.6,10.8,6.4,17.4c-0.2,8.9-3.6,17-11.5,20.9
				c-7.1,3.5-15.6,4.5-24,6.8c0,3.2,0.8,8.1-0.2,12.6c-2.4,11.8-12.5,19.9-24.4,20.1c-13.4,0.2-26.8,0.2-40.2,0
				c-11.3-0.1-21.1-7.4-24.4-18.3c-3.9-12.6-8.3-25.2-10.5-38.1c-1.6-9.4-1.2-19.5,0.1-29c1.7-12,0.9-23.1-5.5-33.4
				c-6.4-10.3-12.8-20.5-19.9-30.3c-11.2-15.7-14.9-33.2-12.9-51.9c1.1-10.4,3.5-20.6,5.9-30.8c0.8-3.5,0.6-5.3-2.4-7.6
				c-19.1-14.8-32.5-33.4-37-57.5c-1.4-7.3-1.9-15.3-0.7-22.6c2.9-17.6,19-29.2,36.6-27.8c17.2,1.3,30.8,15.4,31.9,32.8
				c0.5,8.9,3.7,14.3,11.8,19.6c11.8-10.2,24.7-18.6,39.2-24.6c16.8-6.9,34.2-10.5,52.3-10.5c25.2-0.1,50.3-0.1,75.5,0
				c12.4,0.1,24-2.8,34.8-8.9c11-6.2,21.9-12.5,32.7-18.7c-6.4-25.5-3.2-47.9,13.6-66.3c-4.5-3.1-10.2-5.3-13-9.4
				c-2.7-4.1-3.2-10.1-3.4-15.4c-0.5-10.8-0.2-21.7-0.1-32.6c0.3-22.8,16.5-40.8,39.1-43.3c40.8-4.6,81.6-9.1,122.4-13.7
				c19.6-2.2,34,6.8,37.7,23.7c1.5,7,0.2,13.7-2.9,20c-3.1,6.3-6.3,12.6-9.4,18.8c3.6,2.6,7.3,4.6,10.3,7.4
				c7.5,6.8,11.3,15.4,11.3,25.5c0,9.4-7.3,16.9-16.7,17.3c-4.1,0.2-8.3,0-13.6,0c10.2,13.5,9,29.3,12,44c0.4,2,1.8,4.3,3.5,5.6
				c6.2,5,12.7,9.6,19,14.4c12.9,10.1,16.7,25.4,9.9,40.3c-10.8,23.6-29.3,36.4-52.5,34.4c-9.3-0.8-18.4-4.8-27.6-7.5
				c-3.9-1.2-7.7-2.8-11.3-4.2c-1,10.7-1.8,20.9-3,31.1c-0.4,3.4-1,6.9-2.4,10c-4.6,10.3-4.4,21-4.2,31.9
				c0.3,14.3,0.9,28.7-4.4,42.4c-3.1,8-6.3,16.5-11.6,23.1c-14.1,17.8-20.3,37.6-18.8,60.1c0.3,4.1,0,8.3,0,13.3c3,0,5.8,0,8.6,0
				c14.8,0.3,26.3,11.8,26.2,26.3c-0.1,14.2-11.5,25.5-26.1,25.8c-6.1,0.1-12.2,0-17.7,0c0,4.7,0.5,8.9-0.1,12.9
				c-2,12.6-12.6,21.6-25.4,21.8c-12.1,0.2-24.3,0.1-36.4,0c-14-0.1-24.6-9.1-26.6-23c-2.1-14.9-4.2-29.7-5.4-44.7
				c-0.6-7.1-0.2-14.6,1.3-21.5c3.5-15.7,0.3-29.6-7.1-43.8c-6-11.6-13.3-15.7-26.4-15c-24.9,1.2-49.9,0.5-74.9,0.2
				c-4.5,0-6.7,1.5-8.6,5.4c-4.6,9.8-7.3,20-7.4,30.9C173.4,502.8,173.4,510.8,173.4,519.7z M112.6,310.2c-2.2,1.3-3.6,2-4.9,2.8
				c-35.3,23.5-53.8,56.5-55.8,98.8c-0.6,12.7,2.4,24.2,9.7,34.8c7.3,10.5,14.3,21.2,21,32.2c8.5,13.8,10.3,28.8,7.7,44.9
				c-1.3,8-1.3,16.6,0.2,24.6c2,11.1,6.1,21.9,9.1,32.9c1.5,5.5,4.9,8,10.6,8c11.6-0.1,23.2,0,34.7,0c7.2,0,11.3-3.4,11.1-8.9
				c-0.1-5.4-4.1-8.4-11-8.5c-7.7,0-15.4,0-23.7,0c0-2.3,0-4.1,0-5.8c0-20.6-0.1-41.2,0.1-61.9c0-2.9,1.4-6.2,3.1-8.7
				c7.7-11.1,17.2-21.3,23.2-33.2c11.5-22.8,12.2-46.2-2-68.7c-1.2-1.9-4-3.9-6.1-4c-16.9-1.1-27-11.4-27-28.3
				C112.6,344.4,112.6,327.8,112.6,310.2z M405,293c2.1-5.6,4-10.7,6-16.1c2.4,0.8,4.1,1.3,5.7,2c18.4,6.9,36.9,13.8,55.3,20.8
				c9.7,3.7,19.2,3.7,29.7-1.7c-17.7-7.7-32.2-17.8-40.5-35.3c5.2-2.6,10-5,15.4-7.7c8,16.5,23.2,23.2,38.4,30
				c9.1-13.3,8-20.2-4.4-29.5c-6.8-5.1-13.7-10-20.3-15.4c-1.9-1.5-3.5-4.2-3.9-6.5c-1.8-10.1-3-20.4-4.5-30.6
				c-1.9-12.6-12.3-22-25-22.2c-18.5-0.2-36.9-0.1-55.4,0c-0.7,0-1.3,0.3-2.1,0.6c0,17.4,0.1,34.5,0,51.7
				c-0.2,18-13.6,33.3-31.4,34.2c-14.1,0.7-28.7,3-41.2-6.4c-2.8,2.2-5.3,4-7.6,5.8c12.8,29.1,71.3,57.4,106.3,51.4
				c0-4.6,0.3-9.3-0.1-13.9c-0.1-1.6-1.7-3.8-3.2-4.5C416.6,297.2,411,295.3,405,293z M272.3,292c-13.1,0.5-26,1.4-39,1.6
				c-21.2,0.3-42.4-0.1-63.5,0.2c-13.6,0.2-26.9,2.9-39.8,8c0,20.6-0.1,41,0.1,61.5c0,5.5,3.8,8.6,9.7,8.6c43.8,0,87.6,0,131.4,0
				c5.3,0,8.5-2.7,9.6-7.8c3-14.7,6-29.4,8.7-44.1c0.3-1.8-0.3-4.3-1.4-5.9C282.9,306.5,277.4,299.1,272.3,292z M372.4,363.8
				c-12.3,23-29.4,30.9-48.3,22.2c-19.1-8.8-24.3-27.1-14.5-51.9c-1.3-0.9-2.7-1.9-4.4-3.1c-2.7,13-5.1,25.4-7.8,37.8
				c-1.8,8.6-7,14.7-15,18c-3.6,1.4-4.5,3.5-4.7,6.8c-0.8,16,2.9,30.8,11.2,44.5c6,9.9,12.1,19.7,18.1,29.6
				c9.4,15.8,11.8,32.7,8.2,50.7c-1.2,6.1-2,12.6-1.4,18.8c1.3,14.6,3.4,29.1,5.3,43.6c0.6,4.6,3.3,8,8.1,8.1
				c12.7,0.3,25.3,0.3,38,0c4.8-0.1,8.1-4.1,8-8.6c0-4.5-3.4-8.1-8.2-8.5c-2.2-0.2-4.3-0.1-6.5-0.1c-6.6,0-13.2,0-20,0
				c0-6.8,0.3-12.8,0-18.7c-1.6-27.7,4.1-53.6,16.8-78.5c11.1-21.7,12-45.1,5.5-68.7c-1.2-4.5-2.8-8.9-4.3-13.8
				c5.6-1.9,10.8-3.6,16.2-5.4c1.8,5.2,3.4,9.8,5,14.7c12.7-8.4,23.8-17.7,31.5-30.7C396.5,368.2,384.4,366,372.4,363.8z
				 M330.2,128.6c4.1,0,7.9,0,11.7,0c44.7,0,89.4,0,134.1-0.1c2,0,5-0.9,5.8-2.3c4.4-7.9,8.5-16,12.1-24.2
				c3.3-7.6-1.9-15.8-10.2-16.7c-2.5-0.3-5.1-0.2-7.6,0c-41,4.6-82,9.1-122.9,13.8C338.2,100.9,328.8,112.8,330.2,128.6z
				 M381.9,536.9c0-12.5-0.2-24.2,0.1-35.9c0.2-7.4,0.5-14.8,1.6-22.1c2.5-15.1,9.5-28.2,18.8-40.3c10.5-13.8,14.9-29.6,14.2-46
				c-11,8.6-22,17.2-32.9,26.1c-1.3,1.1-2,3.5-2.1,5.4c-0.3,6.5,0.2,13-0.3,19.5c-1.2,16.4-6.3,31.8-14,46.4
				c-10.7,20.2-12.8,41.8-11.1,64.4c16.9,0,33.5,0,50.1,0c6.4,0,10.3-3.4,10.3-8.6c0-5.3-3.9-8.6-10.2-8.7
				C398.5,536.9,390.5,536.9,381.9,536.9z M381.8,181c-11.8-1-22.3,0.4-31.9,6.5c-15.7,10-24.3,31.5-19.7,49.4
				c1.9,7.5,8.3,12.9,16,13.2c6.5,0.3,13,0.3,19.5,0c8.4-0.4,15.8-7.3,15.9-15.7C382.1,216.7,381.8,199,381.8,181z M503.4,163.2
				c-0.9-11.1-7.7-17.2-18.9-17.2c-49.9,0-99.8,0-149.7,0c-1.6,0-3.1,0.2-4.6,0.3c0,5.9,0,11.4,0,16.9
				C388.1,163.2,445.6,163.2,503.4,163.2z M67.7,324C67.8,324.4,67.8,324.2,67.7,324c-0.9-0.9-1.7-1.8-2.6-2.7
				c-8-7.9-13.1-17-13.4-28.7c-0.2-9.4-8.3-16.5-17.5-16.4c-9.4,0.2-17.2,7.8-17,17.5c0.5,24.7,12,43.7,31.1,58.6
				c0.2,0.2,0.6,0,0.4,0C55.1,342.9,61.3,333.6,67.7,324z M288.6,284c8.2,15.5,19.7,27.5,33.5,37.5c1,0.7,3,0.8,4.4,0.4
				c19.9-5.8,36.1,1.6,44.5,20.3c0.6,1.3,1.7,3.1,2.9,3.4c14.8,3.1,29.6,5.9,44.7,8.8c1.9-6.7,3.4-12,5-17.7
				c-48.2-5.2-92.7-16.5-120.3-60.9C298.2,278.7,293.5,281.3,288.6,284z M156.4,483c-5.2,6.5-10.4,12.7-15.2,19.2
				c-1.5,2-2.4,4.8-2.5,7.3c-0.2,13.4-0.1,26.7-0.1,40.1c0,1.5,0.2,3.1,0.3,4.7c13.9,0,27.3,0,40.6,0c7.1,0,11.3-3.4,11.1-8.9
				c-0.2-5.4-4.1-8.4-11-8.4c-7.7,0-15.4,0-23.3,0C156.4,518.8,156.4,501.2,156.4,483z M243.3,389.4c0,17.5,0,34.6,0,51.7
				c9.1,0,17.8,0,27.3,0c-8.1-16.6-11.4-33.6-10.1-51.7C254.4,389.4,249.1,389.4,243.3,389.4z M163.9,389.5
				c8.5,16.5,11.3,33.6,8.6,51.5c6.4,0,12.1,0,18,0c0-17.3,0-34.4,0-51.8c-8,0-15.8,0-23.5,0C166.1,389.2,165.3,389.4,163.9,389.5z
				 M355.8,354.2c-0.1-9.5-8-17.2-17.5-17.1c-9.4,0.1-17.2,7.9-17.2,17.3c0,9.6,8.1,17.6,17.8,17.4
				C348.3,371.6,356,363.6,355.8,354.2z M225.2,441.1c0-17.5,0-34.5,0-51.4c-5.9,0-11.4,0-16.7,0c0,17.4,0,34.3,0,51.4
				C214.1,441.1,219.4,441.1,225.2,441.1z"/>
		</g>
		<g>
			<defs>
				<path id="SVGID_1_" d="M173.4,519.7c11-0.8,20.9,0.2,28.3,8.8c4.3,5,6.6,10.8,6.4,17.4c-0.2,8.9-3.6,17-11.5,20.9
					c-7.1,3.5-15.6,4.5-24,6.8c0,3.2,0.8,8.1-0.2,12.6c-2.4,11.8-12.5,19.9-24.4,20.1c-13.4,0.2-26.8,0.2-40.2,0
					c-11.3-0.1-21.1-7.4-24.4-18.3c-3.9-12.6-8.3-25.2-10.5-38.1c-1.6-9.4-1.2-19.5,0.1-29c1.7-12,0.9-23.1-5.5-33.4
					c-6.4-10.3-12.8-20.5-19.9-30.3c-11.2-15.7-14.9-33.2-12.9-51.9c1.1-10.4,3.5-20.6,5.9-30.8c0.8-3.5,0.6-5.3-2.4-7.6
					c-19.1-14.8-32.5-33.4-37-57.5c-1.4-7.3-1.9-15.3-0.7-22.6c2.9-17.6,19-29.2,36.6-27.8c17.2,1.3,30.8,15.4,31.9,32.8
					c0.5,8.9,3.7,14.3,11.8,19.6c11.8-10.2,24.7-18.6,39.2-24.6c16.8-6.9,34.2-10.5,52.3-10.5c25.2-0.1,50.3-0.1,75.5,0
					c12.4,0.1,24-2.8,34.8-8.9c11-6.2,21.9-12.5,32.7-18.7c-6.4-25.5-3.2-47.9,13.6-66.3c-4.5-3.1-10.2-5.3-13-9.4
					c-2.7-4.1-3.2-10.1-3.4-15.4c-0.5-10.8-0.2-21.7-0.1-32.6c0.3-22.8,16.5-40.8,39.1-43.3c40.8-4.6,81.6-9.1,122.4-13.7
					c19.6-2.2,34,6.8,37.7,23.7c1.5,7,0.2,13.7-2.9,20c-3.1,6.3-6.3,12.6-9.4,18.8c3.6,2.6,7.3,4.6,10.3,7.4
					c7.5,6.8,11.3,15.4,11.3,25.5c0,9.4-7.3,16.9-16.7,17.3c-4.1,0.2-8.3,0-13.6,0c10.2,13.5,9,29.3,12,44c0.4,2,1.8,4.3,3.5,5.6
					c6.2,5,12.7,9.6,19,14.4c12.9,10.1,16.7,25.4,9.9,40.3c-10.8,23.6-29.3,36.4-52.5,34.4c-9.3-0.8-18.4-4.8-27.6-7.5
					c-3.9-1.2-7.7-2.8-11.3-4.2c-1,10.7-1.8,20.9-3,31.1c-0.4,3.4-1,6.9-2.4,10c-4.6,10.3-4.4,21-4.2,31.9
					c0.3,14.3,0.9,28.7-4.4,42.4c-3.1,8-6.3,16.5-11.6,23.1c-14.1,17.8-20.3,37.6-18.8,60.1c0.3,4.1,0,8.3,0,13.3c3,0,5.8,0,8.6,0
					c14.8,0.3,26.3,11.8,26.2,26.3c-0.1,14.2-11.5,25.5-26.1,25.8c-6.1,0.1-12.2,0-17.7,0c0,4.7,0.5,8.9-0.1,12.9
					c-2,12.6-12.6,21.6-25.4,21.8c-12.1,0.2-24.3,0.1-36.4,0c-14-0.1-24.6-9.1-26.6-23c-2.1-14.9-4.2-29.7-5.4-44.7
					c-0.6-7.1-0.2-14.6,1.3-21.5c3.5-15.7,0.3-29.6-7.1-43.8c-6-11.6-13.3-15.7-26.4-15c-24.9,1.2-49.9,0.5-74.9,0.2
					c-4.5,0-6.7,1.5-8.6,5.4c-4.6,9.8-7.3,20-7.4,30.9C173.4,502.8,173.4,510.8,173.4,519.7z M112.6,310.2c-2.2,1.3-3.6,2-4.9,2.8
					c-35.3,23.5-53.8,56.5-55.8,98.8c-0.6,12.7,2.4,24.2,9.7,34.8c7.3,10.5,14.3,21.2,21,32.2c8.5,13.8,10.3,28.8,7.7,44.9
					c-1.3,8-1.3,16.6,0.2,24.6c2,11.1,6.1,21.9,9.1,32.9c1.5,5.5,4.9,8,10.6,8c11.6-0.1,23.2,0,34.7,0c7.2,0,11.3-3.4,11.1-8.9
					c-0.1-5.4-4.1-8.4-11-8.5c-7.7,0-15.4,0-23.7,0c0-2.3,0-4.1,0-5.8c0-20.6-0.1-41.2,0.1-61.9c0-2.9,1.4-6.2,3.1-8.7
					c7.7-11.1,17.2-21.3,23.2-33.2c11.5-22.8,12.2-46.2-2-68.7c-1.2-1.9-4-3.9-6.1-4c-16.9-1.1-27-11.4-27-28.3
					C112.6,344.4,112.6,327.8,112.6,310.2z M405,293c2.1-5.6,4-10.7,6-16.1c2.4,0.8,4.1,1.3,5.7,2c18.4,6.9,36.9,13.8,55.3,20.8
					c9.7,3.7,19.2,3.7,29.7-1.7c-17.7-7.7-32.2-17.8-40.5-35.3c5.2-2.6,10-5,15.4-7.7c8,16.5,23.2,23.2,38.4,30
					c9.1-13.3,8-20.2-4.4-29.5c-6.8-5.1-13.7-10-20.3-15.4c-1.9-1.5-3.5-4.2-3.9-6.5c-1.8-10.1-3-20.4-4.5-30.6
					c-1.9-12.6-12.3-22-25-22.2c-18.5-0.2-36.9-0.1-55.4,0c-0.7,0-1.3,0.3-2.1,0.6c0,17.4,0.1,34.5,0,51.7
					c-0.2,18-13.6,33.3-31.4,34.2c-14.1,0.7-28.7,3-41.2-6.4c-2.8,2.2-5.3,4-7.6,5.8c12.8,29.1,71.3,57.4,106.3,51.4
					c0-4.6,0.3-9.3-0.1-13.9c-0.1-1.6-1.7-3.8-3.2-4.5C416.6,297.2,411,295.3,405,293z M272.3,292c-13.1,0.5-26,1.4-39,1.6
					c-21.2,0.3-42.4-0.1-63.5,0.2c-13.6,0.2-26.9,2.9-39.8,8c0,20.6-0.1,41,0.1,61.5c0,5.5,3.8,8.6,9.7,8.6c43.8,0,87.6,0,131.4,0
					c5.3,0,8.5-2.7,9.6-7.8c3-14.7,6-29.4,8.7-44.1c0.3-1.8-0.3-4.3-1.4-5.9C282.9,306.5,277.4,299.1,272.3,292z M372.4,363.8
					c-12.3,23-29.4,30.9-48.3,22.2c-19.1-8.8-24.3-27.1-14.5-51.9c-1.3-0.9-2.7-1.9-4.4-3.1c-2.7,13-5.1,25.4-7.8,37.8
					c-1.8,8.6-7,14.7-15,18c-3.6,1.4-4.5,3.5-4.7,6.8c-0.8,16,2.9,30.8,11.2,44.5c6,9.9,12.1,19.7,18.1,29.6
					c9.4,15.8,11.8,32.7,8.2,50.7c-1.2,6.1-2,12.6-1.4,18.8c1.3,14.6,3.4,29.1,5.3,43.6c0.6,4.6,3.3,8,8.1,8.1
					c12.7,0.3,25.3,0.3,38,0c4.8-0.1,8.1-4.1,8-8.6c0-4.5-3.4-8.1-8.2-8.5c-2.2-0.2-4.3-0.1-6.5-0.1c-6.6,0-13.2,0-20,0
					c0-6.8,0.3-12.8,0-18.7c-1.6-27.7,4.1-53.6,16.8-78.5c11.1-21.7,12-45.1,5.5-68.7c-1.2-4.5-2.8-8.9-4.3-13.8
					c5.6-1.9,10.8-3.6,16.2-5.4c1.8,5.2,3.4,9.8,5,14.7c12.7-8.4,23.8-17.7,31.5-30.7C396.5,368.2,384.4,366,372.4,363.8z
					 M330.2,128.6c4.1,0,7.9,0,11.7,0c44.7,0,89.4,0,134.1-0.1c2,0,5-0.9,5.8-2.3c4.4-7.9,8.5-16,12.1-24.2
					c3.3-7.6-1.9-15.8-10.2-16.7c-2.5-0.3-5.1-0.2-7.6,0c-41,4.6-82,9.1-122.9,13.8C338.2,100.9,328.8,112.8,330.2,128.6z
					 M381.9,536.9c0-12.5-0.2-24.2,0.1-35.9c0.2-7.4,0.5-14.8,1.6-22.1c2.5-15.1,9.5-28.2,18.8-40.3c10.5-13.8,14.9-29.6,14.2-46
					c-11,8.6-22,17.2-32.9,26.1c-1.3,1.1-2,3.5-2.1,5.4c-0.3,6.5,0.2,13-0.3,19.5c-1.2,16.4-6.3,31.8-14,46.4
					c-10.7,20.2-12.8,41.8-11.1,64.4c16.9,0,33.5,0,50.1,0c6.4,0,10.3-3.4,10.3-8.6c0-5.3-3.9-8.6-10.2-8.7
					C398.5,536.9,390.5,536.9,381.9,536.9z M381.8,181c-11.8-1-22.3,0.4-31.9,6.5c-15.7,10-24.3,31.5-19.7,49.4
					c1.9,7.5,8.3,12.9,16,13.2c6.5,0.3,13,0.3,19.5,0c8.4-0.4,15.8-7.3,15.9-15.7C382.1,216.7,381.8,199,381.8,181z M503.4,163.2
					c-0.9-11.1-7.7-17.2-18.9-17.2c-49.9,0-99.8,0-149.7,0c-1.6,0-3.1,0.2-4.6,0.3c0,5.9,0,11.4,0,16.9
					C388.1,163.2,445.6,163.2,503.4,163.2z M67.7,324C67.8,324.4,67.8,324.2,67.7,324c-0.9-0.9-1.7-1.8-2.6-2.7
					c-8-7.9-13.1-17-13.4-28.7c-0.2-9.4-8.3-16.5-17.5-16.4c-9.4,0.2-17.2,7.8-17,17.5c0.5,24.7,12,43.7,31.1,58.6
					c0.2,0.2,0.6,0,0.4,0C55.1,342.9,61.3,333.6,67.7,324z M288.6,284c8.2,15.5,19.7,27.5,33.5,37.5c1,0.7,3,0.8,4.4,0.4
					c19.9-5.8,36.1,1.6,44.5,20.3c0.6,1.3,1.7,3.1,2.9,3.4c14.8,3.1,29.6,5.9,44.7,8.8c1.9-6.7,3.4-12,5-17.7
					c-48.2-5.2-92.7-16.5-120.3-60.9C298.2,278.7,293.5,281.3,288.6,284z M156.4,483c-5.2,6.5-10.4,12.7-15.2,19.2
					c-1.5,2-2.4,4.8-2.5,7.3c-0.2,13.4-0.1,26.7-0.1,40.1c0,1.5,0.2,3.1,0.3,4.7c13.9,0,27.3,0,40.6,0c7.1,0,11.3-3.4,11.1-8.9
					c-0.2-5.4-4.1-8.4-11-8.4c-7.7,0-15.4,0-23.3,0C156.4,518.8,156.4,501.2,156.4,483z M243.3,389.4c0,17.5,0,34.6,0,51.7
					c9.1,0,17.8,0,27.3,0c-8.1-16.6-11.4-33.6-10.1-51.7C254.4,389.4,249.1,389.4,243.3,389.4z M163.9,389.5
					c8.5,16.5,11.3,33.6,8.6,51.5c6.4,0,12.1,0,18,0c0-17.3,0-34.4,0-51.8c-8,0-15.8,0-23.5,0C166.1,389.2,165.3,389.4,163.9,389.5z
					 M355.8,354.2c-0.1-9.5-8-17.2-17.5-17.1c-9.4,0.1-17.2,7.9-17.2,17.3c0,9.6,8.1,17.6,17.8,17.4
					C348.3,371.6,356,363.6,355.8,354.2z M225.2,441.1c0-17.5,0-34.5,0-51.4c-5.9,0-11.4,0-16.7,0c0,17.4,0,34.3,0,51.4
					C214.1,441.1,219.4,441.1,225.2,441.1z"/>
			</defs>
			<clipPath id="SVGID_2_">
				<use xlink:href="#SVGID_1_"  style="overflow:visible;"/>
			</clipPath>
			<rect x="225.6" class="st2" width="414" height="181"/>
		</g>
		<path class="st1" d="M451.4,215.4c-4.7,0-8.6-4-8.6-8.7c0-4.7,4-8.6,8.7-8.6c4.7,0,8.6,4,8.6,8.7
			C460,211.5,456.1,215.5,451.4,215.4z"/>
	</g>
</g>
</svg>
