<?xml version="1.0" encoding="utf-8"?>
<!-- Generator: Adobe Illustrator 23.0.5, SVG Export Plug-In . SVG Version: 6.00 Build 0)  -->
<svg version="1.1" id="Layer_1" xmlns="http://www.w3.org/2000/svg" xmlns:xlink="http://www.w3.org/1999/xlink" x="0px" y="0px"
	 viewBox="0 0 409.6 409.6" style="enable-background:new 0 0 409.6 409.6;" xml:space="preserve">
<style type="text/css">
	.st0{fill:#24153C;}
	.st1{fill:#FEAA2D;}
</style>
<g>
	<path class="st0" d="M409.6,190.4c-1.6,2.73-2.74,5.89-4.88,8.09c-4.56,4.69-10.38,5.96-16.56,3.68
		c-6.32-2.34-9.79-7.14-10.46-13.86c-0.2-1.98-0.09-4-0.09-6c0-27.87,0.01-55.73-0.01-83.6c-0.01-21.28-13.43-34.68-34.71-34.71
		c-5.85-0.01-11.7,0-18.12,0c0,5.63,0.2,11.05-0.04,16.45c-0.55,12.51-13.95,19.63-24.41,13.03c-4.87-3.07-7.33-7.66-7.47-13.37
		c-0.13-5.18-0.03-10.37-0.03-15.83c-24.28,0-48.32,0-72.82,0c0,4.12,0,8.21,0,12.3c0,12-6.01,19.33-15.89,19.39
		C194.08,96.04,188,88.65,188,76.39c0-3.97,0-7.95,0-12.15c-23.99,0-47.67,0-72.01,0c0,5.13,0.1,10.4-0.02,15.66
		c-0.16,7.24-4.42,13.09-10.88,15.22c-10.3,3.4-20.62-3.81-21.03-14.85c-0.2-5.29-0.03-10.59-0.03-16.68
		c-9.44,0.46-18.63-0.09-27.39,1.57c-14.3,2.7-23.77,15.16-24.58,30.15C31.99,96.37,32,97.44,32,98.5
		c0,81.6,0.01,163.19-0.01,244.79c0,13.86,5.39,24.79,18.14,30.78c4.87,2.29,10.76,3.34,16.19,3.38c39.33,0.28,78.66,0.18,118,0.12
		c5.16-0.01,9.8,1.11,13.49,4.87c7.69,7.82,5.33,20.83-4.6,25.57c-1.19,0.57-2.41,1.06-3.61,1.59c-44.27,0-88.53,0-132.8,0
		c-0.59-0.25-1.16-0.62-1.78-0.72c-22.5-3.63-38.91-15.69-48.72-36.15c-2.98-6.22-4.25-13.27-6.3-19.93c0-88,0-176,0-264
		c0.26-0.73,0.64-1.43,0.76-2.18c3.15-19.54,13.2-34.52,29.87-45.1c11.89-7.54,25.04-9.99,38.92-9.55C74.29,32.13,79.03,32,84,32
		c0-4.38,0.22-8.24-0.04-12.06C83.29,10.04,87.26,3.26,96.8,0c2.13,0,4.27,0,6.4,0c9.54,3.26,13.5,10.03,12.84,19.93
		c-0.26,3.92-0.04,7.88-0.04,11.8c24.27,0,48.02,0,72,0c0-4.11,0.21-7.97-0.04-11.8c-0.66-9.9,3.31-16.67,12.84-19.93
		c2.13,0,4.27,0,6.4,0c9.54,3.26,13.5,10.03,12.84,19.93c-0.26,3.92-0.04,7.88-0.04,11.8c24.54,0,48.55,0,72.8,0
		c0-4.11,0.21-7.97-0.04-11.8c-0.66-9.9,3.31-16.67,12.84-19.93c2.13,0,4.27,0,6.4,0c9.54,3.26,13.5,10.04,12.84,19.94
		c-0.26,3.92-0.04,7.88-0.04,12.12c7.96,0,15.42-0.35,22.83,0.06c25.25,1.41,43.93,13.46,55.3,35.98c3.23,6.39,4.5,13.77,6.66,20.69
		C409.6,122.67,409.6,156.53,409.6,190.4z"/>
	<path class="st1" d="M304.8,409.6c-9.25-2.32-18.81-3.82-27.71-7.1c-41.28-15.21-67.49-61.21-59.77-104.52
		c6.84-38.36,28.75-64.89,65.62-76.9c37.76-12.3,71.57-3.11,99.67,25.01c15.26,15.27,23.68,34.18,26.27,55.65
		c0.13,1.04,0.47,2.04,0.71,3.07c0,5.33,0,10.67,0,16c-0.27,1.29-0.59,2.56-0.79,3.86c-5.97,38.25-26.85,64.78-62.92,78.82
		c-7.95,3.09-16.7,4.14-25.09,6.12C315.47,409.6,310.13,409.6,304.8,409.6z M377.59,312.72c-0.05-35.67-29.33-64.82-64.97-64.71
		c-35.52,0.12-64.53,29.15-64.61,64.67c-0.08,35.65,29.1,64.89,64.77,64.91C348.44,377.6,377.64,348.37,377.59,312.72z"/>
	<path class="st0" d="M115.97,168.14c-0.08,8.79-7.41,15.96-16.21,15.83c-8.79-0.13-15.92-7.52-15.73-16.31
		c0.18-8.63,7.37-15.66,16.01-15.63C108.84,152.05,116.05,159.34,115.97,168.14z"/>
	<path class="st0" d="M185.57,167.82c0.1,8.79-7.1,16.11-15.89,16.15c-8.8,0.04-16.06-7.2-16.05-15.99
		c0.01-8.64,7.06-15.8,15.69-15.95C178.11,151.87,185.47,159.03,185.57,167.82z"/>
	<path class="st0" d="M255.17,167.94c0.03,8.8-7.22,16.05-16.01,16.03c-8.8-0.02-16.01-7.32-15.93-16.11
		c0.08-8.64,7.17-15.74,15.81-15.83C247.84,151.94,255.14,159.14,255.17,167.94z"/>
	<path class="st0" d="M324.77,168.08c-0.04,8.8-7.35,15.99-16.15,15.9c-8.79-0.1-15.95-7.45-15.8-16.25
		c0.15-8.64,7.31-15.68,15.95-15.7C317.57,152.01,324.81,159.28,324.77,168.08z"/>
	<path class="st0" d="M100.11,253.57c-8.8,0.06-16.07-7.17-16.08-15.96c0-8.8,7.27-16.03,16.06-15.98
		c8.64,0.05,15.77,7.13,15.88,15.76C116.09,246.18,108.9,253.51,100.11,253.57z"/>
	<path class="st0" d="M169.76,221.63c8.79,0.09,15.95,7.44,15.81,16.23c-0.14,8.79-7.54,15.91-16.33,15.71
		c-8.63-0.19-15.64-7.39-15.61-16.03C153.66,228.74,160.96,221.54,169.76,221.63z"/>
	<path class="st0" d="M100.08,323.17c-8.8,0.04-16.06-7.2-16.05-15.99c0.01-8.8,7.3-16.02,16.09-15.95
		c8.64,0.07,15.75,7.15,15.85,15.79C116.07,315.81,108.87,323.13,100.08,323.17z"/>
	<path class="st0" d="M169.45,291.23c8.8-0.08,16.09,7.12,16.12,15.92c0.03,8.79-7.22,16.05-16.02,16.02
		c-8.64-0.03-15.79-7.08-15.92-15.72C153.49,298.66,160.66,291.31,169.45,291.23z"/>
	<path class="st1" d="M328.75,296.86c3.16,0,5.69-0.15,8.2,0.03c8.63,0.59,15.14,7.65,15.02,16.15c-0.12,8.34-6.6,15.33-15.09,15.64
		c-8.37,0.31-16.78,0.32-25.15-0.02c-8.16-0.33-14.6-6.82-14.81-15.01c-0.29-11.44-0.29-22.9-0.01-34.34
		c0.21-8.68,7.36-15.26,15.86-15.28c8.49-0.01,15.54,6.57,15.93,15.23C328.96,284.94,328.75,290.65,328.75,296.86z"/>
</g>
</svg>
