<?xml version="1.0" encoding="utf-8"?>
<!-- Generator: Adobe Illustrator 23.0.5, SVG Export Plug-In . SVG Version: 6.00 Build 0)  -->
<svg version="1.1" id="Layer_1" xmlns="http://www.w3.org/2000/svg" xmlns:xlink="http://www.w3.org/1999/xlink" x="0px" y="0px"
	 viewBox="0 0 341.35 341.22" style="enable-background:new 0 0 341.35 341.22;" xml:space="preserve">
<style type="text/css">
	.st0{fill:#24153C;}
	.st1{fill:#FCA929;}
</style>
<g>
	<path class="st0" d="M309.37,214.54c15.04,4.63,25.3,13.97,29.98,28.77c6.95,21.97-4.78,45.1-26.71,52.83
		c-2.63,0.93-3.38,2.07-3.34,4.72c0.15,9.74,0.12,19.49,0.03,29.24c-0.05,5.36-3.16,9.48-7.74,10.72c-4.58,1.23-9.54-0.36-11.7-4.46
		c-1.22-2.31-1.78-5.2-1.84-7.85c-0.22-8.99-0.2-17.99-0.02-26.98c0.06-3.03-0.71-4.54-3.82-5.62
		c-17.03-5.93-28.1-21.82-28.13-39.83c-0.03-18.02,10.92-34.07,27.87-40.04c3.51-1.23,4.08-2.9,4.07-6.13
		c-0.08-65.1-0.06-130.19-0.05-195.29c0-1.75-0.01-3.51,0.22-5.23c0.72-5.52,5.03-9.35,10.4-9.39c5.34-0.04,9.8,3.79,10.61,9.23
		c0.24,1.59,0.16,3.24,0.16,4.86c0.01,65.35,0.01,130.69,0.01,196.04C309.37,211.5,309.37,212.87,309.37,214.54z M298.48,277.2
		c11.8,0.06,21.36-9.25,21.47-20.9c0.11-11.93-9.23-21.55-21.11-21.73c-11.48-0.17-21.36,9.45-21.55,21
		C277.09,267.39,286.64,277.14,298.48,277.2z"/>
	<path class="st0" d="M31.96,214.5c0-1.59,0-3.08,0-4.57c0-65.47,0-130.95,0.02-196.42c0-1.98,0.08-4.03,0.6-5.92
		c1.33-4.88,5.75-7.86,10.73-7.54c5.02,0.32,8.96,3.8,9.73,8.8c0.29,1.84,0.31,3.73,0.31,5.6c0.01,65.22,0.03,130.45-0.05,195.67
		c0,3.14,0.62,4.69,3.92,5.86c17,5.99,27.98,21.88,28.04,39.93c0.06,17.93-10.94,33.88-27.98,39.97c-3.19,1.14-4.09,2.6-4,5.86
		c0.24,9.24,0.15,18.49,0.05,27.74c-0.06,6.02-3.04,10.16-7.86,11.39c-7.12,1.81-13.39-3.18-13.48-10.96
		c-0.11-9.74-0.13-19.49,0.04-29.24c0.04-2.58-0.76-3.62-3.19-4.47C11.21,290.03-0.2,273.86,0,255.64
		c0.2-18.31,11.59-34.04,29.02-40.09C29.94,215.23,30.86,214.89,31.96,214.5z M42.6,277.2c11.76,0.02,21.29-9.33,21.43-21.02
		c0.14-11.72-9.51-21.51-21.32-21.62c-11.54-0.1-21.28,9.54-21.34,21.12C21.31,267.68,30.7,277.19,42.6,277.2z"/>
	<path class="st1" d="M181.27,126.76c0,1.8,0,3.3,0,4.79c0,65.35,0,130.69,0,196.04c0,8.84-3.87,13.73-10.77,13.63
		c-6.74-0.1-10.45-4.9-10.45-13.57c0-65.35,0-130.69,0-196.04c0-1.61,0-3.22,0-4.93c-9.21-2.68-16.86-7.42-22.71-14.79
		c-18.29-23.06-8.63-56.92,19.14-66.72c2.93-1.03,3.7-2.36,3.64-5.3c-0.19-9.37-0.11-18.74-0.06-28.11
		c0.04-7.15,4.4-11.84,10.75-11.74c6.22,0.1,10.39,4.71,10.43,11.69c0.05,9.75,0.05,19.49-0.02,29.24
		c-0.01,1.96,0.33,3.04,2.49,3.81c18.4,6.55,29.66,22.18,29.62,40.77c-0.04,18.37-11.57,33.91-30.06,40.51
		C182.71,126.24,182.13,126.45,181.27,126.76z M170.52,64.03c-11.72,0.02-21.1,9.43-21.13,21.2c-0.03,11.87,9.52,21.43,21.4,21.42
		c11.6-0.01,21.13-9.62,21.13-21.31C191.92,73.37,182.52,64.01,170.52,64.03z"/>
</g>
</svg>
