<?xml version="1.0" encoding="utf-8"?>
<!-- Generator: Adobe Illustrator 23.0.5, SVG Export Plug-In . SVG Version: 6.00 Build 0)  -->
<svg version="1.1" id="Layer_1" xmlns="http://www.w3.org/2000/svg" xmlns:xlink="http://www.w3.org/1999/xlink" x="0px" y="0px"
	 viewBox="0 0 217.53 294.49" style="enable-background:new 0 0 217.53 294.49;" xml:space="preserve">
<style type="text/css">
	.st0{fill:#25173B;}
	.st1{fill:#FCAA2A;}
</style>
<g>
	<path class="st0" d="M114.52,0c2.93,0.37,5.88,0.64,8.79,1.12c42.43,6.95,71.76,30.41,87.42,70.39c8.8,22.46,8.84,45.38,1.44,68.4
		c-4.08,12.7-9.97,24.45-17.25,35.53c-24.15,36.74-48.38,73.42-72.69,110.05c-1.81,2.72-4.2,5.36-6.93,7.1
		c-5.46,3.49-12.49,2.02-16.9-2.95c-1.2-1.36-2.29-2.83-3.29-4.35c-24.18-36.6-48.34-73.22-72.5-109.84
		c-10.45-15.84-17.89-32.94-21.2-51.7c-2.88-16.29-1.2-32.3,3.78-47.94c5.97-18.74,16.35-34.72,31.04-47.86
		C52.67,13.23,71.81,4.3,93.65,1.17c3.11-0.45,6.24-0.78,9.36-1.17C106.85,0,110.68,0,114.52,0z M108.85,282.3
		c1.18-1.65,2.05-2.77,2.83-3.96c14.26-21.58,28.56-43.13,42.73-64.77c12.02-18.35,24.18-36.61,35.7-55.26
		c8.04-13.01,12.75-27.47,14.14-42.73c2.01-22-3.38-42.47-16.08-60.37c-22.7-32-54.01-45.87-93.08-41.27
		c-15.4,1.81-29.37,7.74-41.96,16.79c-17.11,12.3-29.06,28.49-35.6,48.5c-4.18,12.79-5.81,25.94-3.92,39.4
		c2.52,17.99,9.55,34.25,19.41,49.29c24.38,37.17,48.93,74.22,73.43,111.3C107.05,280.14,107.81,280.97,108.85,282.3z"/>
	<path class="st1" d="M108.79,166.33c-31.78,0.02-57.59-25.79-57.57-57.58c0.01-31.72,26-57.64,57.67-57.54
		c31.64,0.1,57.38,25.88,57.43,57.49C166.36,140.49,140.59,166.31,108.79,166.33z M109.44,64c-24.09-0.78-44.75,19.17-45.47,43.91
		c-0.7,24.04,18.96,44.86,43.11,45.63c25.05,0.8,45.63-18.55,46.47-43.7C154.37,85.34,134.61,64.81,109.44,64z"/>
</g>
</svg>
