<?xml version="1.0" encoding="utf-8"?>
<!-- Generator: Adobe Illustrator 23.0.5, SVG Export Plug-In . SVG Version: 6.00 Build 0)  -->
<svg version="1.1" id="Layer_1" xmlns="http://www.w3.org/2000/svg" xmlns:xlink="http://www.w3.org/1999/xlink" x="0px" y="0px"
	 viewBox="0 0 383.98 384" style="enable-background:new 0 0 383.98 384;" xml:space="preserve">
<style type="text/css">
	.st0{fill:#E6353F;}
	.st1{fill:#FE4A4A;}
	.st2{fill:#696969;}
	.st3{fill:#190835;}
</style>
<g>
	<path class="st3" d="M383.98,14.25c-2.49,3.05-4.74,6.33-7.49,9.12c-16.62,16.77-33.33,33.46-50.09,50.08
		c-1.89,1.88-2.51,3.32-1.55,6.07c4.44,12.8,1.88,24.37-7.17,34.39c-3.6,3.98-7.64,7.56-11.26,11.52c-1.04,1.14-1.81,2.97-1.85,4.51
		c-0.19,7.49-0.21,14.99-0.04,22.48c0.1,4.56-1.46,8.15-4.67,11.36c-40.77,40.68-81.49,81.41-122.22,122.13
		c-0.97,0.97-1.96,1.93-2.92,2.91c-5.28,5.41-5.5,11.04-0.66,16.97c5.64,6.92,2.99,16.29-5.31,18.55
		c-4.56,1.24-8.31-0.34-11.54-3.58c-6.79-6.82-13.6-13.61-20.41-20.4c-0.87-0.87-1.8-1.68-2.46-2.3
		c-19.74,19.75-39.31,39.34-59.49,59.53c1.87,1.62,4.06,3.31,6,5.23c8.29,8.23,6.88,16.28-3.62,21.18c-1.75,0-3.5,0-5.25,0
		c-2.89-2.3-6.03-4.34-8.63-6.93c-19.86-19.72-39.62-39.54-59.41-59.33c-3.23-3.23-4.77-6.98-3.49-11.55
		c1.22-4.37,4.13-7.04,8.52-8.04c3.99-0.91,7.46,0.33,10.28,3.13c2.56,2.54,4.87,5.34,7.1,7.81c20.17-20.18,39.74-39.76,60.24-60.27
		c-0.78-0.46-2.19-0.96-3.15-1.91c-7.04-6.92-14.07-13.85-20.93-20.94c-4.31-4.45-4.37-10.86-0.5-15.3c3.8-4.35,10.45-5,15.27-1.49
		c8.32,6.05,12.22,5.76,19.45-1.47c40.81-40.83,81.65-81.62,122.38-122.54c4-4.02,8.25-6,13.94-5.74
		c6.86,0.32,13.75,0.22,20.61-0.02c1.76-0.06,3.82-0.92,5.14-2.1c3.82-3.4,7.22-7.27,10.99-10.74c10.07-9.25,21.71-11.89,34.67-7.41
		c2.75,0.95,4.2,0.34,6.08-1.55c16.72-16.86,33.5-33.65,50.36-50.36c2.69-2.67,5.89-4.84,8.85-7.24c2,0,4,0,6,0
		c3.73,1.77,6.47,4.53,8.25,8.25C383.98,10.25,383.98,12.25,383.98,14.25z M229.21,201.74c-2.31-2.28-4.75-4.6-7.1-7.02
		c-4.91-5.05-5.09-11.77-0.5-16.39c4.55-4.58,11.35-4.45,16.37,0.54c2.45,2.43,4.55,5.23,6.21,7.17c6-5.99,11.16-11.15,16.67-16.65
		c-2.17-2.04-4.81-4.34-7.23-6.84c-4.49-4.64-4.58-11.47-0.37-15.86c4.39-4.58,11.27-4.7,16.09-0.09c2.61,2.49,4.95,5.27,7.33,7.83
		c3.95-2.43,5.75-5.16,5.4-9.5c-0.41-4.96,0.05-9.99-0.18-14.98c-0.07-1.55-0.78-3.42-1.84-4.51c-7.04-7.27-14.2-14.43-21.47-21.47
		c-1.1-1.07-2.96-1.81-4.5-1.87c-5.36-0.23-10.75,0.07-16.11-0.15c-2.75-0.11-4.6,0.82-6.5,2.74
		c-28.38,28.51-56.84,56.96-85.29,85.4c-3.97,3.97-8.05,7.84-11.92,11.6c16.1,16.09,31.9,31.88,47.4,47.38
		c4.98-4.97,10.16-10.14,15.68-15.65c-2.07-2.01-4.43-4.21-6.69-6.5c-5.1-5.15-5.46-12.05-0.92-16.68
		c4.57-4.66,11.5-4.44,16.66,0.63c2.37,2.33,4.57,4.84,6.73,7.13C218.75,212.3,223.83,207.17,229.21,201.74z M44.22,324.91
		c4.89,4.91,10.04,10.08,14.8,14.85c19.31-19.28,38.9-38.83,58.03-57.93c-4.93-4.92-10.1-10.07-14.91-14.86
		C82.88,286.23,63.32,305.81,44.22,324.91z M101.89,232.96c16.26,16.26,32.85,32.84,49.13,49.12c4.7-5.33,9.58-10.88,14.14-16.06
		c-15.79-15.81-31.56-31.59-47.18-47.23C112.7,223.45,107.2,228.29,101.89,232.96z M293.26,106.16c2.94-2.83,6.05-5.39,8.63-8.41
		c3.65-4.28,3.33-10.26-0.33-14.4c-3.59-4.07-9.8-5.24-14.24-2c-3.65,2.67-6.7,6.14-9.78,9.04
		C283.05,95.92,288.15,101.03,293.26,106.16z"/>
</g>
</svg>
