<?xml version="1.0" encoding="utf-8"?>
<!-- Generator: Adobe Illustrator 23.0.5, SVG Export Plug-In . SVG Version: 6.00 Build 0)  -->
<svg version="1.1" id="Layer_1" xmlns="http://www.w3.org/2000/svg" xmlns:xlink="http://www.w3.org/1999/xlink" x="0px" y="0px"
	 viewBox="0 0 10 10" style="enable-background:new 0 0 10 10;" xml:space="preserve">
<style type="text/css">
	.st0{fill:#FFFFFF;}
</style>
<path class="st0" d="M10,2.8C10,3,9.8,3.2,9.6,3.3C7.9,4.9,6.2,6.6,4.5,8.2C4.2,8.4,3.9,8.5,3.6,8.4c-0.1,0-0.2-0.1-0.3-0.2
	C2.4,7.4,1.6,6.6,0.7,5.7C0.5,5.6,0.5,5.5,0.4,5.3c0-0.1,0-0.1,0-0.2c0-0.2,0.1-0.3,0.2-0.4C1,4.4,1.4,4.4,1.8,4.7
	c0.7,0.6,1.4,1.3,2,1.9c0,0,0,0.1,0.1,0.1c0,0,0.1-0.1,0.1-0.1c1.6-1.5,3.1-2.9,4.7-4.4C8.9,2,9.2,1.9,9.5,2C9.7,2.1,9.9,2.3,10,2.6
	c0,0,0,0,0,0.1C10,2.7,10,2.7,10,2.8z"/>
</svg>
