<?xml version="1.0" encoding="utf-8"?>
<!-- Generator: Adobe Illustrator 23.0.5, SVG Export Plug-In . SVG Version: 6.00 Build 0)  -->
<svg version="1.1" id="Layer_1" xmlns="http://www.w3.org/2000/svg" xmlns:xlink="http://www.w3.org/1999/xlink" x="0px" y="0px"
	 viewBox="0 0 478.83 478.86" style="enable-background:new 0 0 478.83 478.86;" xml:space="preserve">
<style type="text/css">
	.st0{fill:#E6353F;}
	.st1{fill:#FE4A4A;}
	.st2{fill:#696969;}
	.st3{fill:#190835;}
	.st4{fill:#FAE1D9;}
	.st5{fill:#E39542;}
	.st6{fill:#E18424;}
	.st7{fill:#DCD9EA;}
	.st8{fill:#464146;}
	.st9{fill:#190A35;}
	.st10{fill:#FDA92C;}
	.st11{fill:#190835;stroke:#190835;stroke-width:5;stroke-miterlimit:10;}
	.st12{fill:#FDA92C;stroke:#FDA92C;stroke-width:4;stroke-miterlimit:10;}
	.st13{fill:#FDA92C;stroke:#FDA92C;stroke-miterlimit:10;}
	.st14{fill:#190835;stroke:#190835;stroke-width:2;stroke-miterlimit:10;}
	.st15{fill:#190835;stroke:#190835;stroke-width:3;stroke-miterlimit:10;}
	.st16{fill:#FFFFFF;}
</style>
<g>
	<path class="st16" d="M239.29,0C371.4-0.18,478.65,106.9,478.83,239.17c0.19,132.35-107.26,239.85-239.56,239.69
		C107,478.69-0.02,371.59,0,239.41C0.02,107.16,106.95,0.18,239.29,0z M33.42,239.08c-0.4,113.5,91.23,205.55,205.4,206.34
		c113.44,0.78,206.19-91.56,206.58-205.67c0.39-113.74-91.92-206.23-205.92-206.33C125.8,33.33,33.82,125.13,33.42,239.08z"/>
	<path class="st16" d="M239.89,244.91c39.49,0,78.98-0.01,118.47,0c14.14,0,20.43,6.39,20.14,20.39
		c-1.66,79.14-69.98,141.03-149.2,135.17c-71.93-5.32-127.81-64.3-128.98-136.14c-0.21-12.76,6.23-19.4,19.02-19.41
		C159.52,244.88,199.7,244.91,239.89,244.91z M135.41,278.59c4.24,38.84,41.11,88.9,104.03,88.85
		c63.91-0.04,99.98-51.11,103.95-88.85C274.06,278.59,204.75,278.59,135.41,278.59z"/>
	<path class="st16" d="M328.42,144.71c15.34,0.21,29.44,4.44,42,13.41c8.59,6.13,10.73,16.3,5.14,24.13
		c-5.55,7.76-15.34,9.17-24.02,3.45c-15.28-10.08-30.75-10.12-45.82-0.14c-8.88,5.88-18.96,4.41-24.37-3.53
		c-5.45-8-3.19-17.88,5.51-24.01C299.31,149.23,313.22,144.96,328.42,144.71z"/>
	<path class="st16" d="M150.33,144.71c15.55,0.23,29.77,4.62,42.4,13.8c8.01,5.82,9.99,15.67,4.8,23.41
		c-5.26,7.83-15.48,9.6-23.91,3.97c-15.6-10.43-31.09-10.43-46.69,0.02c-8.42,5.64-18.6,3.84-23.92-4.01
		c-5.18-7.64-3.14-17.58,4.89-23.39C120.55,149.37,134.76,144.93,150.33,144.71z"/>
</g>
</svg>
