<?xml version="1.0" encoding="utf-8"?>
<!-- Generator: Adobe Illustrator 23.0.5, SVG Export Plug-In . SVG Version: 6.00 Build 0)  -->
<svg version="1.1" id="Layer_1" xmlns="http://www.w3.org/2000/svg" xmlns:xlink="http://www.w3.org/1999/xlink" x="0px" y="0px"
	 viewBox="0 0 383.98 383.94" style="enable-background:new 0 0 383.98 383.94;" xml:space="preserve">
<style type="text/css">
	.st0{fill:#E6353F;}
	.st1{fill:#FE4A4A;}
	.st2{fill:#696969;}
	.st3{fill:#190835;}
	.st4{fill:#FAE1D9;}
	.st5{fill:#E39542;}
	.st6{fill:#E18424;}
	.st7{fill:#DCD9EA;}
	.st8{fill:#464146;}
	.st9{fill:#190A35;}
	.st10{fill:#FDA92C;}
	.st11{fill:#190835;stroke:#190835;stroke-width:5;stroke-miterlimit:10;}
	.st12{fill:#FDA92C;stroke:#FDA92C;stroke-width:4;stroke-miterlimit:10;}
	.st13{fill:#FDA92C;stroke:#FDA92C;stroke-miterlimit:10;}
	.st14{fill:#190835;stroke:#190835;stroke-width:2;stroke-miterlimit:10;}
	.st15{fill:#190835;stroke:#190835;stroke-width:3;stroke-miterlimit:10;}
	.st16{fill:#FFFFFF;}
</style>
<g>
	<path class="st16" d="M0,355.44c2.08-7.51,7.2-12.84,12.56-18.15c22.01-21.83,43.87-43.8,65.81-65.69
		c0.96-0.96,2.24-1.59,3.39-2.39c-31.44-44.66-41.4-92.68-27.77-144.79C64.57,84,87.73,51.93,122.36,28.69
		c69.69-46.77,162.6-35.26,218.2,26.55c55.94,62.18,58.03,154.95,5.1,219.55c-53.18,64.9-152.95,84.02-230.15,27.9
		c-2.74,2.98-5.46,6.21-8.46,9.18c-20.43,20.23-40.98,40.32-61.32,60.63c-5.22,5.21-10.62,9.78-17.99,11.45c-2.5,0-5,0-7.5,0
		c-3.45-1.56-7.13-2.76-10.29-4.76c-5.61-3.55-8.24-9.29-9.96-15.49C0,360.94,0,358.19,0,355.44z M336,167.99
		c0.02-66.21-53.71-119.99-119.9-120.01c-66.16-0.02-120,53.78-120.03,119.93c-0.03,66.12,53.83,120,119.95,120.01
		C282.23,287.92,335.98,234.2,336,167.99z"/>
</g>
</svg>
