<?xml version="1.0" encoding="utf-8"?>
<!-- Generator: Adobe Illustrator 23.0.5, SVG Export Plug-In . SVG Version: 6.00 Build 0)  -->
<svg version="1.1" id="Layer_1" xmlns="http://www.w3.org/2000/svg" xmlns:xlink="http://www.w3.org/1999/xlink" x="0px" y="0px"
	 viewBox="0 0 384 384.02" style="enable-background:new 0 0 384 384.02;" xml:space="preserve">
<style type="text/css">
	.st0{fill:#E6353F;}
	.st1{fill:#FE4A4A;}
	.st2{fill:#696969;}
	.st3{fill:#190835;}
	.st4{fill:#FAE1D9;}
	.st5{fill:#E39542;}
	.st6{fill:#E18424;}
	.st7{fill:#DCD9EA;}
	.st8{fill:#464146;}
	.st9{fill:#190A35;}
	.st10{fill:#FDA92C;}
	.st11{fill:#190835;stroke:#190835;stroke-width:5;stroke-miterlimit:10;}
	.st12{fill:#FDA92C;stroke:#FDA92C;stroke-width:4;stroke-miterlimit:10;}
	.st13{fill:#FDA92C;stroke:#FDA92C;stroke-miterlimit:10;}
	.st14{fill:#190835;stroke:#190835;stroke-width:2;stroke-miterlimit:10;}
	.st15{fill:#190835;stroke:#190835;stroke-width:3;stroke-miterlimit:10;}
	.st16{fill:#FFFFFF;}
</style>
<g>
	<path class="st16" d="M384,60c0,96,0,192,0,288c-0.15,0.19-0.39,0.36-0.44,0.58C377.85,372.52,363.32,384,338.7,384
		c-56.71,0-113.42,0-170.12,0c-42.09,0-84.19,0.06-126.28-0.03c-16.32-0.03-28.9-7.15-36.95-21.37C2.83,358.15,1.74,352.89,0,348
		c0-96,0-192,0-288c0.23-0.56,0.56-1.09,0.67-1.67c3.16-15.75,12.38-26.35,27.35-31.97c7.55-2.84,15.48-2.29,23.33-2.3
		c6.83,0,13.67,0,20.89,0c0-3.49,0.16-6.59-0.03-9.66C71.78,7.48,74.37,2.54,81,0c1.75,0,3.5,0,5.25,0c6.53,2.66,9.1,7.59,8.54,14.5
		c-0.25,3.06-0.04,6.16-0.04,9.29c16.86,0,33.24,0,49.91,0c0-3.24,0.23-6.24-0.05-9.18C143.96,7.68,146.6,2.8,153,0
		c1.75,0,3.5,0,5.25,0c6.69,2.43,9.35,7.33,8.94,14.27c-0.19,3.18-0.03,6.38-0.03,9.54c16.84,0,33.13,0,49.69,0
		c0-3.35,0.17-6.46-0.03-9.54C216.36,7.3,219.09,2.45,225.75,0c1.75,0,3.5,0,5.25,0c6.42,2.79,9.02,7.69,8.39,14.6
		c-0.28,3.04-0.05,6.13-0.05,9.29c16.83,0,33.13,0,49.91,0c0-3.24,0.21-6.34-0.04-9.4c-0.57-6.92,2.03-11.82,8.54-14.5
		c1.75,0,3.5,0,5.25,0c6.65,2.53,9.21,7.5,8.78,14.39c-0.19,3.08-0.03,6.17-0.03,9.66c1.74,0,3.07,0,4.41,0
		c8.99,0.01,17.99-0.28,26.97,0.08c17.41,0.71,30.01,9.08,37.36,24.93C382.09,52.52,382.85,56.35,384,60z M22.5,119.14
		c0,1.61,0,2.96,0,4.31c0,72.23,0,144.47,0,216.7c0,13.82,7.49,21.35,21.25,21.35c98.85,0,197.71,0,296.56,0
		c13.58,0,21.19-7.55,21.19-21.04c0.01-72.36,0-144.72,0-217.08c0-1.34,0-2.69,0-4.24C248.44,119.14,135.77,119.14,22.5,119.14z
		 M239.34,46.76c0,1.62,0,2.86,0,4.09c0,2.75,0.04,5.5-0.02,8.25c-0.14,6.6-4.64,11.36-10.84,11.51
		c-6.37,0.16-11.35-4.56-11.6-11.21c-0.16-4.19-0.03-8.39-0.03-12.58c-16.86,0-33.16,0-49.7,0c0,4,0.04,7.74-0.01,11.48
		c-0.09,7.32-4.67,12.3-11.28,12.31c-6.65,0.01-11.15-4.91-11.21-12.28c-0.03-3.83-0.01-7.65-0.01-11.56c-16.84,0-33.15,0-49.72,0
		c-0.07,1.41-0.17,2.64-0.18,3.86c-0.03,2.87,0.06,5.75-0.04,8.62c-0.23,6.6-4.8,11.29-11,11.37c-6.2,0.08-11.05-4.47-11.4-11.02
		c-0.23-4.2-0.04-8.42-0.04-12.78c-11.56,0-22.68-0.57-33.72,0.18c-8.54,0.58-15.36,7.71-15.8,16.05
		c-0.57,10.95-0.14,21.95-0.14,33.14c112.98,0,225.79,0,338.77,0c0-11.09,0.34-21.96-0.11-32.79c-0.33-7.96-6.58-14.62-14.42-16.16
		c-3.51-0.69-7.2-0.61-10.8-0.65c-7.96-0.09-15.93-0.03-24.32-0.03c0,4.26,0.07,8.1-0.01,11.94c-0.16,7.32-4.83,12.21-11.47,12.12
		c-6.47-0.09-10.89-4.94-10.99-12.14c-0.06-3.84-0.01-7.68-0.01-11.72C272.48,46.76,256.17,46.76,239.34,46.76z"/>
	<path class="st16" d="M124.96,288.36c0,7.49,0.04,14.98-0.01,22.47c-0.06,8.51-4.48,12.94-12.97,12.97
		c-14.98,0.04-29.96,0.05-44.94,0c-8.38-0.03-12.85-4.6-12.87-13.08c-0.03-14.86-0.03-29.71,0-44.57
		c0.02-8.68,4.46-13.12,13.17-13.14c14.86-0.04,29.71-0.04,44.57,0c8.55,0.02,12.97,4.4,13.04,12.88
		C125.01,273.38,124.96,280.87,124.96,288.36z M102.15,301.15c0-8.74,0-17.03,0-25.34c-8.61,0-16.9,0-25.2,0c0,8.6,0,16.89,0,25.34
		C85.45,301.15,93.66,301.15,102.15,301.15z"/>
	<path class="st16" d="M259.04,288.45c0-7.62-0.06-15.23,0.02-22.85c0.08-8.05,4.53-12.54,12.57-12.58
		c15.23-0.07,30.46-0.07,45.69,0c7.96,0.04,12.47,4.65,12.5,12.67c0.05,15.11,0.05,30.21,0,45.32c-0.03,8.19-4.59,12.76-12.78,12.79
		c-14.98,0.05-29.96,0.04-44.94,0.01c-8.52-0.02-12.98-4.44-13.05-12.89C259,303.43,259.04,295.94,259.04,288.45z M281.75,300.98
		c8.75,0,17.05,0,25.26,0c0-8.62,0-16.91,0-25.14c-8.62,0-16.9,0-25.26,0C281.75,284.38,281.75,292.58,281.75,300.98z"/>
	<path class="st16" d="M89.64,227.31c-7.74,0-15.48,0.04-23.22-0.01c-7.53-0.04-12.19-4.57-12.23-12.1
		c-0.08-15.48-0.09-30.96,0-46.44c0.04-7.52,4.72-12.03,12.27-12.05c15.48-0.04,30.96-0.04,46.44,0c7.2,0.02,11.92,4.36,11.99,11.53
		c0.17,15.85,0.17,31.71,0,47.56c-0.08,7.15-4.82,11.45-12.03,11.5C105.12,227.35,97.38,227.31,89.64,227.31z M76.94,179.32
		c0,8.68,0,16.97,0,25.24c8.58,0,16.88,0,25.24,0c0-8.54,0-16.83,0-25.24C93.67,179.32,85.45,179.32,76.94,179.32z"/>
	<path class="st16" d="M227.31,288.6c0,7.74,0.05,15.48-0.01,23.22c-0.06,7.1-4.51,11.87-11.62,11.94
		c-15.73,0.15-31.46,0.14-47.18,0.01c-7.28-0.06-11.76-4.83-11.78-12.16c-0.04-15.48-0.04-30.96,0-46.44
		c0.02-7.38,4.44-12.06,11.81-12.12c15.6-0.13,31.21-0.12,46.81-0.01c7.57,0.06,11.93,4.7,11.97,12.34
		C227.34,273.12,227.31,280.86,227.31,288.6z M179.39,301.08c8.49,0,16.77,0,25.23,0c0-8.54,0-16.84,0-25.35
		c-8.49,0-16.78,0-25.23,0C179.39,284.27,179.39,292.57,179.39,301.08z"/>
	<path class="st16" d="M294.14,227.31c-7.61,0-15.23,0.04-22.84-0.01c-7.58-0.04-12.17-4.47-12.22-12.08
		c-0.1-15.48-0.1-30.96,0-46.44c0.05-7.63,4.64-12.05,12.23-12.07c15.48-0.04,30.96-0.04,46.44,0c7.31,0.02,12,4.55,12.06,11.89
		c0.11,15.6,0.11,31.21,0,46.81c-0.05,7.32-4.76,11.84-12.06,11.89C309.87,227.35,302.01,227.31,294.14,227.31z M281.86,179.32
		c0,8.72,0,16.99,0,25.2c8.61,0,16.91,0,25.17,0c0-8.57,0-16.84,0-25.2C298.5,179.32,290.28,179.32,281.86,179.32z"/>
	<path class="st16" d="M183.14,193.49c9.17-9.17,17.58-17.69,26.13-26.08c6.57-6.45,16.65-3.96,19.07,4.61
		c1.15,4.06,0.18,7.77-2.73,10.72c-11.33,11.45-22.68,22.87-34.17,34.17c-4.72,4.64-10.98,4.67-15.8,0.1
		c-5.89-5.57-11.62-11.33-17.23-17.2c-4.43-4.64-4.21-11.57,0.18-15.84c4.32-4.21,10.87-4.27,15.59-0.08
		c1.59,1.41,3.07,2.93,4.52,4.48C180.14,189.91,181.48,191.56,183.14,193.49z"/>
</g>
</svg>
