<?xml version="1.0" encoding="utf-8"?>
<!-- Generator: Adobe Illustrator 23.0.5, SVG Export Plug-In . SVG Version: 6.00 Build 0)  -->
<svg version="1.1" id="Layer_1" xmlns="http://www.w3.org/2000/svg" xmlns:xlink="http://www.w3.org/1999/xlink" x="0px" y="0px"
	 viewBox="0 0 47 49" style="enable-background:new 0 0 47 49;" xml:space="preserve">
<style type="text/css">
	.st0{fill:#29193E;}
	.st1{fill:#FFF9E3;}
	.st2{fill:#FAAB2A;}
</style>
<path class="st0" d="M13.1,1.8c0.5,0,1.1,0,1.6,0c0.1,0,0.1,0,0.2,0c2.2,0.2,4.2,0.8,6,1.9c3.6,2.2,5.8,5.4,6.6,9.5
	c0.1,0.5,0.1,1,0.2,1.6c0,0.5,0,1.1,0,1.6c0,0.2,0,0.4-0.1,0.6c-0.3,2.9-1.4,5.5-3.4,7.7c-2.6,2.9-5.9,4.5-9.8,4.7
	c-2.7,0.1-5.3-0.5-7.6-1.9C3.2,25.4,1,22.2,0.3,18c-0.1-0.5-0.1-1-0.2-1.6c0-0.5,0-1.1,0-1.6c0-0.2,0-0.4,0.1-0.6
	c0.3-3,1.5-5.6,3.5-7.8C5.7,4.1,8.4,2.6,11.5,2C12,1.9,12.6,1.9,13.1,1.8z M13.9,4C7.4,4,2.2,9.2,2.2,15.6c0,6.4,5.2,11.7,11.7,11.7
	c6.4,0,11.7-5.2,11.7-11.7C25.6,9.2,20.3,4,13.9,4z"/>
<path class="st0" d="M15,12.2c0,0.9,0,1.9,0,2.8c0,0.2,0.1,0.3,0.2,0.4c1.2,0.9,2.4,1.8,3.6,2.7c0.4,0.3,0.6,0.7,0.5,1.2
	c-0.2,0.7-1,1-1.7,0.6c-0.6-0.4-1.2-0.9-1.8-1.3c-0.8-0.6-1.6-1.2-2.4-1.8c-0.4-0.3-0.5-0.6-0.5-1.1c0-2.1,0-4.1,0-6.2
	c0-0.8,0.7-1.4,1.4-1.1C14.7,8.5,15,8.9,15,9.4C15,10.3,15,11.3,15,12.2z"/>
<circle class="st1" cx="30.7" cy="31.2" r="16.2"/>
<path class="st2" d="M30,43.6c-1.1,0-2.1,0-3.2,0c-3.8-0.1-6.7-3.5-6.3-7.4s3.4-7.4,7.3-8.3c3-0.8,5.7-0.1,8.1,1.8
	c2,1.5,3.2,3.5,3.6,6c0.7,3.9-1.9,7.4-5.8,7.8C32.5,43.7,31.3,43.6,30,43.6L30,43.6z M30,41.8L30,41.8c1,0,2.1,0,3.1,0
	c3.1-0.1,5.3-2.7,4.8-5.8c-0.4-2.3-1.7-4.1-3.6-5.3c-1.6-1.1-3.5-1.5-5.4-1.2c-3.4,0.6-6,3.3-6.5,6.8c-0.4,2.9,1.7,5.5,4.7,5.5
	C28,41.9,29,41.8,30,41.8z"/>
<path class="st2" d="M28.6,26.4c-2.1,0-3.9-1.7-3.8-3.9c0-2.1,1.7-3.9,3.9-3.9c2.1,0,3.9,1.8,3.9,3.9C32.4,24.7,30.7,26.4,28.6,26.4
	z M28.6,24.6c1.1,0,2.1-0.9,2.1-2.1c0-1.1-0.9-2.1-2.1-2.1c-1.1,0-2.1,0.9-2.1,2.1S27.5,24.6,28.6,24.6z"/>
<path class="st2" d="M40,24.6c0,1.8-1.5,3.3-3.3,3.3s-3.3-1.5-3.3-3.3s1.5-3.3,3.3-3.3C38.5,21.3,40,22.8,40,24.6z M38.2,24.6
	c0-0.8-0.7-1.5-1.5-1.5s-1.5,0.7-1.5,1.5s0.7,1.5,1.5,1.5C37.5,26.1,38.2,25.4,38.2,24.6z"/>
<path class="st2" d="M24.1,27c0,1.8-1.5,3.2-3.3,3.2c-1.8,0-3.3-1.5-3.3-3.3s1.5-3.3,3.3-3.2C22.7,23.7,24.1,25.2,24.1,27z M22.4,27
	c0-0.8-0.7-1.5-1.5-1.5c-0.8,0-1.5,0.7-1.5,1.5s0.7,1.5,1.5,1.5C21.7,28.4,22.4,27.8,22.4,27z"/>
<path class="st2" d="M41.1,28.3c1.5,0,2.7,1.2,2.7,2.7s-1.2,2.7-2.7,2.7s-2.7-1.2-2.7-2.7S39.6,28.3,41.1,28.3z M42,30.9
	c0-0.5-0.4-0.9-0.9-0.9s-0.9,0.4-0.9,0.9s0.4,0.9,0.9,0.9S42,31.4,42,30.9z"/>
</svg>
