<?xml version="1.0" encoding="utf-8"?>
<!-- Generator: Adobe Illustrator 23.0.5, SVG Export Plug-In . SVG Version: 6.00 Build 0)  -->
<svg version="1.1" id="Layer_1" xmlns="http://www.w3.org/2000/svg" xmlns:xlink="http://www.w3.org/1999/xlink" x="0px" y="0px"
	 viewBox="0 0 47 49" style="enable-background:new 0 0 47 49;" xml:space="preserve">
<style type="text/css">
	.st0{fill:none;stroke:#281940;stroke-miterlimit:10;}
	.st1{font-family:'Bebas-Regular';}
	.st2{font-size:44px;}
	.st3{fill:#FFF9E3;}
	.st4{fill:#FAAB2A;}
</style>
<g>
	<text transform="matrix(1 0 0 1 2.7607 33.6002)" class="st0 st1 st2">2</text>
</g>
<circle class="st3" cx="28.7" cy="31.2" r="16.2"/>
<path class="st4" d="M28,43.6c-1.1,0-2.1,0-3.2,0c-3.8-0.1-6.7-3.5-6.3-7.4s3.4-7.4,7.3-8.3c3-0.8,5.7-0.1,8.1,1.8
	c2,1.5,3.2,3.5,3.6,6c0.7,3.9-1.9,7.4-5.8,7.8C30.5,43.7,29.3,43.6,28,43.6L28,43.6z M28,41.8L28,41.8c1,0,2.1,0,3.1,0
	c3.1-0.1,5.3-2.7,4.8-5.8c-0.4-2.3-1.7-4.1-3.6-5.3c-1.6-1.1-3.5-1.5-5.4-1.2c-3.4,0.6-6,3.3-6.5,6.8c-0.4,2.9,1.7,5.5,4.7,5.5
	C26,41.9,27,41.8,28,41.8z"/>
<path class="st4" d="M26.6,26.4c-2.1,0-3.9-1.7-3.8-3.9c0-2.1,1.7-3.9,3.9-3.9c2.1,0,3.9,1.8,3.9,3.9C30.4,24.7,28.7,26.4,26.6,26.4
	z M26.6,24.6c1.1,0,2.1-0.9,2.1-2.1c0-1.1-0.9-2.1-2.1-2.1c-1.1,0-2.1,0.9-2.1,2.1S25.5,24.6,26.6,24.6z"/>
<path class="st4" d="M38,24.6c0,1.8-1.5,3.3-3.3,3.3s-3.3-1.5-3.3-3.3s1.5-3.3,3.3-3.3C36.5,21.3,38,22.8,38,24.6z M36.2,24.6
	c0-0.8-0.7-1.5-1.5-1.5s-1.5,0.7-1.5,1.5s0.7,1.5,1.5,1.5C35.5,26.1,36.2,25.4,36.2,24.6z"/>
<path class="st4" d="M22.1,27c0,1.8-1.5,3.2-3.3,3.2c-1.8,0-3.3-1.5-3.3-3.3s1.5-3.3,3.3-3.2C20.7,23.7,22.1,25.2,22.1,27z M20.4,27
	c0-0.8-0.7-1.5-1.5-1.5c-0.8,0-1.5,0.7-1.5,1.5s0.7,1.5,1.5,1.5C19.7,28.4,20.4,27.8,20.4,27z"/>
<path class="st4" d="M39.1,27.3c1.5,0,2.7,1.2,2.7,2.7s-1.2,2.7-2.7,2.7s-2.7-1.2-2.7-2.7S37.6,27.3,39.1,27.3z M40,29.9
	c0-0.5-0.4-0.9-0.9-0.9s-0.9,0.4-0.9,0.9s0.4,0.9,0.9,0.9S40,30.4,40,29.9z"/>
</svg>
