<?xml version="1.0" encoding="utf-8"?>
<!-- Generator: Adobe Illustrator 23.0.5, SVG Export Plug-In . SVG Version: 6.00 Build 0)  -->
<svg version="1.1" id="Layer_1" xmlns="http://www.w3.org/2000/svg" xmlns:xlink="http://www.w3.org/1999/xlink" x="0px" y="0px"
	 viewBox="0 0 47 49" style="enable-background:new 0 0 47 49;" xml:space="preserve">
<style type="text/css">
	.st0{fill:#291B3F;}
	.st1{fill:#FAAB2A;}
	.st2{fill:#FFF9E3;}
</style>
<path class="st0" d="M5.8,1.1c0.2,0,0.3,0,0.5,0C6.9,1.4,7.1,1.8,7,2.4C7,2.6,7,2.8,7,3c3.9,0,7.7,0,11.6,0c0-0.3,0-0.5,0-0.7
	c0-0.2,0-0.4,0.1-0.5c0.1-0.3,0.4-0.5,0.7-0.6c0.2,0,0.3,0,0.5,0c0.6,0.2,0.8,0.6,0.8,1.2c0,0.2,0,0.5,0,0.7c0.5,0,0.9,0,1.4,0
	c0.4,0,0.8,0.1,1.2,0.2c1.4,0.5,2.2,1.8,2.2,3.4c0,5.6,0,11.2,0,16.9c0,0.1,0,0.3,0,0.4c-0.1,1.8-1.6,3.2-3.4,3.2
	c-6.1,0-12.2,0-18.2,0c-0.5,0-1-0.1-1.4-0.3c-1.3-0.7-1.9-1.8-1.9-3.2c0-5.6,0-11.2,0-16.7c0-0.2,0-0.3,0-0.5C0.4,4.7,1.5,3.4,3,3.1
	C3.6,3,4.2,3.1,4.8,3C4.9,3,5,3,5.1,3c0-0.3,0-0.5,0-0.7C5,1.8,5.3,1.3,5.8,1.1z M5.1,5C4.7,5,4.3,5,3.9,5C2.8,5,2.2,5.6,2.2,6.7
	c0,5.6,0,11.2,0,16.8c0,1.1,0.6,1.7,1.7,1.7c4.3,0,8.6,0,12.9,0c1.7,0,3.3,0,5,0c0.7,0,1.3-0.5,1.5-1.1c0-0.2,0.1-0.4,0.1-0.6
	c0-5.6,0-11.2,0-16.8c0-0.1,0-0.3,0-0.4c-0.1-0.6-0.5-1.1-1.1-1.2c-0.6-0.1-1.2-0.1-1.8-0.1c0,0.3,0,0.6,0,0.9c0,0.6-0.4,1.1-1,1.1
	c-0.6,0-1-0.4-1-1.1c0-0.3,0-0.6,0-0.8C14.7,5,10.9,5,7,5c0,0.3,0,0.6,0,0.9c0,0.6-0.4,1.1-1,1c-0.6,0-1-0.4-1-1.1
	C5.1,5.6,5.1,5.3,5.1,5z"/>
<path class="st1" d="M7.3,19.4c0.7,0,1.2,0.6,1.2,1.2c0,0.7-0.6,1.2-1.2,1.2c-0.7,0-1.2-0.6-1.2-1.2C6.1,19.9,6.6,19.4,7.3,19.4z"/>
<path class="st1" d="M7.3,17C6.6,17,6,16.4,6,15.8c0-0.7,0.5-1.2,1.2-1.2c0.7,0,1.2,0.5,1.2,1.2C8.5,16.4,7.9,17,7.3,17z"/>
<path class="st1" d="M16.6,11c0-0.7,0.5-1.2,1.2-1.2c0.7,0,1.2,0.5,1.2,1.2c0,0.7-0.5,1.2-1.2,1.2C17.2,12.2,16.6,11.6,16.6,11z"/>
<path class="st1" d="M13.7,20.6c0,0.7-0.5,1.2-1.2,1.2c-0.7,0-1.2-0.5-1.2-1.2c0-0.7,0.5-1.2,1.2-1.2C13.2,19.4,13.7,19.9,13.7,20.6
	z"/>
<path class="st1" d="M19,15.8c0,0.7-0.5,1.2-1.2,1.2c-0.7,0-1.2-0.5-1.2-1.2c0-0.7,0.5-1.2,1.2-1.2C18.5,14.6,19,15.1,19,15.8z"/>
<path class="st1" d="M7.2,9.8c0.7,0,1.2,0.5,1.2,1.2c0,0.7-0.5,1.2-1.2,1.2C6.6,12.2,6,11.6,6,11C6.1,10.3,6.6,9.8,7.2,9.8z"/>
<path class="st1" d="M19,20.6c0,0.7-0.5,1.2-1.2,1.2c-0.7,0-1.2-0.5-1.2-1.2c0-0.7,0.5-1.2,1.2-1.2C18.5,19.4,19,19.9,19,20.6z"/>
<path class="st1" d="M11.3,15.8c0-0.7,0.5-1.2,1.2-1.2c0.7,0,1.2,0.5,1.2,1.2c0,0.7-0.5,1.2-1.2,1.2C11.9,17,11.4,16.5,11.3,15.8z"
	/>
<path class="st1" d="M12.5,9.8c0.7,0,1.2,0.5,1.2,1.2c0,0.7-0.5,1.2-1.2,1.2c-0.7,0-1.2-0.5-1.2-1.2C11.3,10.3,11.9,9.8,12.5,9.8z"
	/>
<circle class="st2" cx="30.7" cy="31.2" r="16.2"/>
<path class="st1" d="M30,43.6c-1.1,0-2.1,0-3.2,0c-3.8-0.1-6.7-3.5-6.3-7.4s3.4-7.4,7.3-8.3c3-0.8,5.7-0.1,8.1,1.8
	c2,1.5,3.2,3.5,3.6,6c0.7,3.9-1.9,7.4-5.8,7.8C32.5,43.7,31.3,43.6,30,43.6L30,43.6z M30,41.8L30,41.8c1,0,2.1,0,3.1,0
	c3.1-0.1,5.3-2.7,4.8-5.8c-0.4-2.3-1.7-4.1-3.6-5.3c-1.6-1.1-3.5-1.5-5.4-1.2c-3.4,0.6-6,3.3-6.5,6.8c-0.4,2.9,1.7,5.5,4.7,5.5
	C28,41.9,29,41.8,30,41.8z"/>
<path class="st1" d="M28.6,26.4c-2.1,0-3.9-1.7-3.8-3.9c0-2.1,1.7-3.9,3.9-3.9c2.1,0,3.9,1.8,3.9,3.9C32.4,24.7,30.7,26.4,28.6,26.4
	z M28.6,24.6c1.1,0,2.1-0.9,2.1-2.1c0-1.1-0.9-2.1-2.1-2.1c-1.1,0-2.1,0.9-2.1,2.1S27.5,24.6,28.6,24.6z"/>
<path class="st1" d="M40,24.6c0,1.8-1.5,3.3-3.3,3.3s-3.3-1.5-3.3-3.3s1.5-3.3,3.3-3.3C38.5,21.3,40,22.8,40,24.6z M38.2,24.6
	c0-0.8-0.7-1.5-1.5-1.5s-1.5,0.7-1.5,1.5s0.7,1.5,1.5,1.5C37.5,26.1,38.2,25.4,38.2,24.6z"/>
<path class="st1" d="M24.1,27c0,1.8-1.5,3.2-3.3,3.2c-1.8,0-3.3-1.5-3.3-3.3s1.5-3.3,3.3-3.2C22.7,23.7,24.1,25.2,24.1,27z M22.4,27
	c0-0.8-0.7-1.5-1.5-1.5c-0.8,0-1.5,0.7-1.5,1.5s0.7,1.5,1.5,1.5C21.7,28.4,22.4,27.8,22.4,27z"/>
<path class="st1" d="M41.1,28.3c1.5,0,2.7,1.2,2.7,2.7s-1.2,2.7-2.7,2.7s-2.7-1.2-2.7-2.7S39.6,28.3,41.1,28.3z M42,30.9
	c0-0.5-0.4-0.9-0.9-0.9s-0.9,0.4-0.9,0.9s0.4,0.9,0.9,0.9S42,31.4,42,30.9z"/>
</svg>
