<?xml version="1.0" encoding="utf-8"?>
<!-- Generator: Adobe Illustrator 23.0.5, SVG Export Plug-In . SVG Version: 6.00 Build 0)  -->
<svg version="1.1" id="Layer_1" xmlns="http://www.w3.org/2000/svg" xmlns:xlink="http://www.w3.org/1999/xlink" x="0px" y="0px"
	 viewBox="0 0 47 49" style="enable-background:new 0 0 47 49;" xml:space="preserve">
<style type="text/css">
	.st0{fill:#261944;}
	.st1{fill:#FFF9E3;}
	.st2{fill:#FAAB2A;}
</style>
<path class="st0" d="M15.5,33.6H9.7V9.7H4.5V5.4l0.5,0c1.6-0.1,2.9-0.5,4-1c1-0.6,1.8-1.2,2.2-2L11.4,2h4.1V33.6z M10.9,32.5h3.5
	V3.1H12C11.5,4,10.6,4.7,9.5,5.3c-1.1,0.6-2.4,1-3.9,1.1v2.2h5.2V32.5z"/>
<circle class="st1" cx="26.8" cy="31.2" r="16.2"/>
<path class="st2" d="M25.9,43.6c-1.1,0-2.1,0-3.2,0c-3.8-0.1-6.7-3.5-6.3-7.4c0.4-3.9,3.4-7.4,7.3-8.3c3-0.8,5.7-0.1,8.1,1.8
	c2,1.5,3.2,3.5,3.6,6c0.7,3.9-1.9,7.4-5.8,7.8C28.4,43.7,27.2,43.6,25.9,43.6C25.9,43.6,25.9,43.6,25.9,43.6z M25.9,41.8
	C25.9,41.8,25.9,41.8,25.9,41.8c1,0,2.1,0,3.1,0c3.1-0.1,5.3-2.7,4.8-5.8c-0.4-2.3-1.7-4.1-3.6-5.3c-1.6-1.1-3.5-1.5-5.4-1.2
	c-3.4,0.6-6,3.3-6.5,6.8c-0.4,2.9,1.7,5.5,4.7,5.5C23.9,41.9,24.9,41.8,25.9,41.8z"/>
<path class="st2" d="M24.5,26.4c-2.1,0-3.9-1.7-3.8-3.9c0-2.1,1.7-3.9,3.9-3.9c2.1,0,3.9,1.8,3.9,3.9C28.3,24.7,26.6,26.4,24.5,26.4
	z M24.5,24.6c1.1,0,2.1-0.9,2.1-2.1c0-1.1-0.9-2.1-2.1-2.1c-1.1,0-2.1,0.9-2.1,2.1C22.4,23.7,23.4,24.6,24.5,24.6z"/>
<path class="st2" d="M35.9,24.6c0,1.8-1.5,3.3-3.3,3.3c-1.8,0-3.3-1.5-3.3-3.3c0-1.8,1.5-3.3,3.3-3.3C34.4,21.3,35.9,22.8,35.9,24.6
	z M34.1,24.6c0-0.8-0.7-1.5-1.5-1.5c-0.8,0-1.5,0.7-1.5,1.5c0,0.8,0.7,1.5,1.5,1.5C33.4,26.1,34.1,25.4,34.1,24.6z"/>
<path class="st2" d="M20,27c0,1.8-1.5,3.2-3.3,3.2c-1.8,0-3.3-1.5-3.3-3.3c0-1.8,1.5-3.3,3.3-3.2C18.6,23.7,20,25.2,20,27z M18.3,27
	c0-0.8-0.7-1.5-1.5-1.5c-0.8,0-1.5,0.7-1.5,1.5c0,0.8,0.7,1.5,1.5,1.5C17.6,28.4,18.3,27.8,18.3,27z"/>
<path class="st2" d="M37,27.3c1.5,0,2.7,1.2,2.7,2.7c0,1.5-1.2,2.7-2.7,2.7c-1.5,0-2.7-1.2-2.7-2.7C34.3,28.5,35.5,27.3,37,27.3z
	 M37.9,29.9c0-0.5-0.4-0.9-0.9-0.9c-0.5,0-0.9,0.4-0.9,0.9c0,0.5,0.4,0.9,0.9,0.9C37.5,30.8,37.9,30.4,37.9,29.9z"/>
</svg>
