<?xml version="1.0" encoding="utf-8"?>
<!-- Generator: Adobe Illustrator 23.0.5, SVG Export Plug-In . SVG Version: 6.00 Build 0)  -->
<svg version="1.1" id="Layer_1" xmlns="http://www.w3.org/2000/svg" xmlns:xlink="http://www.w3.org/1999/xlink" x="0px" y="0px"
	 viewBox="0 0 47 49" style="enable-background:new 0 0 47 49;" xml:space="preserve">
<style type="text/css">
	.st0{fill:none;stroke:#281940;stroke-miterlimit:10;}
	.st1{font-family:'Bebas-Regular';}
	.st2{font-size:44px;}
	.st3{fill:#FFF9E3;}
	.st4{fill:#FAAB2A;}
</style>
<text transform="matrix(1 0 0 1 1 34.5996)" class="st0 st1 st2">3</text>
<circle class="st3" cx="29.7" cy="31.2" r="16.2"/>
<path class="st4" d="M29,43.6c-1.1,0-2.1,0-3.2,0c-3.8-0.1-6.7-3.5-6.3-7.4s3.4-7.4,7.3-8.3c3-0.8,5.7-0.1,8.1,1.8
	c2,1.5,3.2,3.5,3.6,6c0.7,3.9-1.9,7.4-5.8,7.8C31.5,43.7,30.3,43.6,29,43.6L29,43.6z M29,41.8L29,41.8c1,0,2.1,0,3.1,0
	c3.1-0.1,5.3-2.7,4.8-5.8c-0.4-2.3-1.7-4.1-3.6-5.3c-1.6-1.1-3.5-1.5-5.4-1.2c-3.4,0.6-6,3.3-6.5,6.8c-0.4,2.9,1.7,5.5,4.7,5.5
	C27,41.9,28,41.8,29,41.8z"/>
<path class="st4" d="M27.6,26.4c-2.1,0-3.9-1.7-3.8-3.9c0-2.1,1.7-3.9,3.9-3.9c2.1,0,3.9,1.8,3.9,3.9C31.4,24.7,29.7,26.4,27.6,26.4
	z M27.6,24.6c1.1,0,2.1-0.9,2.1-2.1c0-1.1-0.9-2.1-2.1-2.1c-1.1,0-2.1,0.9-2.1,2.1S26.5,24.6,27.6,24.6z"/>
<path class="st4" d="M39,24.6c0,1.8-1.5,3.3-3.3,3.3s-3.3-1.5-3.3-3.3s1.5-3.3,3.3-3.3C37.5,21.3,39,22.8,39,24.6z M37.2,24.6
	c0-0.8-0.7-1.5-1.5-1.5s-1.5,0.7-1.5,1.5s0.7,1.5,1.5,1.5C36.5,26.1,37.2,25.4,37.2,24.6z"/>
<path class="st4" d="M23.1,27c0,1.8-1.5,3.2-3.3,3.2c-1.8,0-3.3-1.5-3.3-3.3s1.5-3.3,3.3-3.2C21.7,23.7,23.1,25.2,23.1,27z M21.4,27
	c0-0.8-0.7-1.5-1.5-1.5c-0.8,0-1.5,0.7-1.5,1.5s0.7,1.5,1.5,1.5C20.7,28.4,21.4,27.8,21.4,27z"/>
<path class="st4" d="M40.1,27.3c1.5,0,2.7,1.2,2.7,2.7s-1.2,2.7-2.7,2.7s-2.7-1.2-2.7-2.7S38.6,27.3,40.1,27.3z M41,29.9
	c0-0.5-0.4-0.9-0.9-0.9s-0.9,0.4-0.9,0.9s0.4,0.9,0.9,0.9S41,30.4,41,29.9z"/>
</svg>
