<?xml version="1.0" encoding="utf-8"?>
<!-- Generator: Adobe Illustrator 23.0.5, SVG Export Plug-In . SVG Version: 6.00 Build 0)  -->
<svg version="1.1" id="Layer_1" xmlns="http://www.w3.org/2000/svg" xmlns:xlink="http://www.w3.org/1999/xlink" x="0px" y="0px"
	 viewBox="0 0 47 49" style="enable-background:new 0 0 47 49;" xml:space="preserve">
<style type="text/css">
	.st0{fill:#281940;}
	.st1{fill:#FAAB2A;}
	.st2{fill:#FFF9E3;}
</style>
<path class="st0" d="M2.6,27.2c-1.3-0.4-2.2-1.5-2.2-3c0-1.9,0-3.8,0-5.6c0-3,0-6,0-9c0-1.2,0.5-2.1,1.5-2.7
	c0.4-0.3,0.9-0.4,1.4-0.4c0.4,0,0.8,0,1.2,0c0-0.3,0-0.6,0-0.8c0-0.5,0.4-0.8,0.9-0.8c0.5,0,0.8,0.4,0.8,0.8c0,0.2,0,0.4,0,0.6
	c0,0.1,0,0.1,0,0.2c3.3,0,6.6,0,10,0c0-0.2,0-0.5,0-0.7c0-0.5,0.3-0.9,0.8-0.9c0.5,0,0.8,0.4,0.8,0.9c0,0.2,0,0.5,0,0.8
	c0.4,0,0.8,0,1.1,0c1.5,0,2.7,1,3,2.5c0,0.2,0,0.5,0,0.7c0,4.8,0,9.7,0,14.5c0,1.7-0.9,2.8-2.6,3.1c0,0,0,0-0.1,0
	c-5.5,0-10.9,0-16.4,0C2.9,27.3,2.8,27.2,2.6,27.2z M6.2,9c0,0.5-0.4,0.9-0.8,0.9C5,9.9,4.6,9.5,4.6,9c0-0.3,0-0.5,0-0.8
	c-0.5,0-0.9,0-1.4,0c-0.6,0.1-1,0.5-1.1,1.1c0,0.1,0,0.2,0,0.3c0,4.8,0,9.7,0,14.5c0,0.4,0.1,0.8,0.4,1.1c0.3,0.2,0.6,0.4,0.9,0.4
	c0.9,0,1.8,0,2.7,0c4.3,0,8.5,0,12.8,0c1,0,1.5-0.5,1.5-1.5c0-4.8,0-9.7,0-14.5c0-0.8-0.4-1.3-1.1-1.4c-0.5-0.1-0.9,0-1.4,0
	c0,0.3,0,0.5,0,0.8c0,0.5-0.4,0.8-0.8,0.8c-0.5,0-0.8-0.4-0.8-0.9c0-0.2,0-0.4,0-0.6c0-0.1,0-0.1,0-0.2c-3.3,0-6.6,0-10,0
	C6.2,8.5,6.2,8.7,6.2,9z"/>
<path class="st1" d="M5.8,17.4c0-0.6,0.3-0.9,0.9-0.9c1.5,0,2.9,0,4.4,0c0.6,0,0.9,0.3,0.9,0.9c0,1.5,0,2.9,0,4.4
	c0,0.6-0.3,0.9-0.9,0.9c-1.5,0-2.9,0-4.4,0c-0.6,0-0.9-0.3-0.9-0.9c0-0.7,0-1.5,0-2.2C5.8,18.9,5.8,18.2,5.8,17.4z M7.5,21.1
	c1,0,1.9,0,2.9,0c0-1,0-1.9,0-2.9c-1,0-1.9,0-2.9,0C7.5,19.1,7.5,20.1,7.5,21.1z"/>
<path class="st0" d="M16,22.7c0.6,0,1-0.5,1-1c0-0.6-0.5-1.1-1-1.1c-0.6,0-1.1,0.5-1,1C15,22.3,15.4,22.7,16,22.7z"/>
<path class="st0" d="M16,16.5c-0.6,0-1.1,0.5-1.1,1c0,0.6,0.5,1,1,1c0.6,0,1.1-0.5,1.1-1C17.1,17,16.6,16.5,16,16.5z"/>
<path class="st0" d="M5.8,13.4c0,0.6,0.5,1,1,1c0.6,0,1-0.5,1-1c0-0.6-0.5-1-1-1C6.3,12.4,5.8,12.8,5.8,13.4z"/>
<path class="st0" d="M16,12.4c-0.6,0-1.1,0.5-1,1c0,0.6,0.5,1,1,1c0.6,0,1.1-0.5,1-1C17.1,12.8,16.6,12.4,16,12.4z"/>
<path class="st0" d="M11.4,12.4c-0.6,0-1,0.5-1,1c0,0.6,0.5,1,1,1c0.6,0,1-0.5,1-1C12.5,12.8,12,12.4,11.4,12.4z"/>
<circle class="st2" cx="31.5" cy="28.7" r="15.2"/>
<path class="st1" d="M30.9,40.4c-1,0-2,0-3,0c-3.6-0.1-6.3-3.3-5.9-7c0.4-3.7,3.2-7,6.9-7.8c2.8-0.8,5.4-0.1,7.6,1.7
	c1.9,1.4,3,3.3,3.4,5.6c0.7,3.7-1.8,7-5.5,7.3C33.3,40.5,32.1,40.4,30.9,40.4L30.9,40.4z M30.9,38.8L30.9,38.8c0.9,0,2,0,2.9,0
	c2.9-0.1,5-2.5,4.5-5.5c-0.4-2.2-1.6-3.9-3.4-5c-1.5-1-3.3-1.4-5.1-1.1c-3.2,0.6-5.6,3.1-6.1,6.4c-0.4,2.7,1.6,5.2,4.4,5.2
	C29,38.8,30,38.8,30.9,38.8z"/>
<path class="st1" d="M29.6,24.3c-2,0-3.7-1.6-3.6-3.7c0-2,1.6-3.7,3.7-3.7c2,0,3.7,1.7,3.7,3.7C33.2,22.7,31.6,24.3,29.6,24.3z
	 M29.6,22.6c1,0,2-0.8,2-2c0-1-0.8-2-2-2c-1,0-2,0.8-2,2C27.6,21.7,28.6,22.6,29.6,22.6z"/>
<path class="st1" d="M40.3,22.6c0,1.7-1.4,3.1-3.1,3.1c-1.7,0-3.1-1.4-3.1-3.1c0-1.7,1.4-3.1,3.1-3.1C38.9,19.5,40.3,20.9,40.3,22.6
	z M38.6,22.6c0-0.8-0.7-1.4-1.4-1.4c-0.8,0-1.4,0.7-1.4,1.4c0,0.8,0.7,1.4,1.4,1.4C38,24,38.6,23.3,38.6,22.6z"/>
<path class="st1" d="M25.4,24.8c0,1.7-1.4,3-3.1,3c-1.7,0-3.1-1.4-3.1-3.1c0-1.7,1.4-3.1,3.1-3C24,21.7,25.4,23.1,25.4,24.8z
	 M23.8,24.8c0-0.8-0.7-1.4-1.4-1.4s-1.4,0.7-1.4,1.4s0.7,1.4,1.4,1.4C23.1,26.2,23.8,25.6,23.8,24.8z"/>
<path class="st1" d="M41.3,26.1c1.4,0,2.5,1.1,2.5,2.5s-1.1,2.5-2.5,2.5s-2.5-1.1-2.5-2.5S39.9,26.1,41.3,26.1z M42.2,28.5
	c0-0.5-0.4-0.8-0.8-0.8s-0.8,0.4-0.8,0.8c0,0.5,0.4,0.8,0.8,0.8S42.2,29,42.2,28.5z"/>
</svg>
